<?xml version="1.0" encoding="utf-8"?>
<!-- Generator: Adobe Illustrator 18.1.1, SVG Export Plug-In . SVG Version: 6.00 Build 0)  -->
<svg version="1.1" id="Layer_1" xmlns="http://www.w3.org/2000/svg" xmlns:xlink="http://www.w3.org/1999/xlink" x="0px" y="0px"
	 viewBox="0 0 34.6 34.2" enable-background="new 0 0 34.6 34.2" xml:space="preserve">
<circle fill="#FFFFFF" cx="17.3" cy="17.1" r="16.5"/>
<g>
	<g>
		<g>
			<g>
				<path fill="#404653" d="M18.1,15.8h-1.7c-0.2,0-0.4-0.2-0.4-0.4c0-0.2,0.2-0.4,0.4-0.4h1.7c0.2,0,0.4,0.2,0.4,0.4
					C18.6,15.6,18.4,15.8,18.1,15.8z"/>
			</g>
		</g>
		<g>
			<path fill="#404653" d="M20.3,23.2c-0.1,0-0.1,0-0.2-0.1l-2.8-1.6l-2.8,1.6c-0.1,0.1-0.3,0.1-0.4,0l-3.9-1.7
				c-0.2-0.1-0.3-0.4-0.2-0.6c0.1-0.2,0.4-0.3,0.6-0.2l3.7,1.6l2.8-1.6c0.1-0.1,0.3-0.1,0.4,0l2.8,1.6l3.7-1.6
				c0.2-0.1,0.5,0,0.6,0.2c0.1,0.2,0,0.5-0.2,0.6l-3.9,1.7C20.4,23.2,20.4,23.2,20.3,23.2z"/>
		</g>
		<g>
			<path fill="#404653" d="M17.3,27.5c-0.1,0-0.1,0-0.2,0L9.7,24c-0.2-0.1-0.2-0.2-0.2-0.4v-13c0-0.2,0.1-0.3,0.2-0.4l7.4-3.5
				c0.1-0.1,0.3-0.1,0.4,0l7.4,3.5c0.2,0.1,0.2,0.2,0.2,0.4v13c0,0.2-0.1,0.3-0.2,0.4l-7.4,3.5C17.4,27.5,17.3,27.5,17.3,27.5z
				 M10.3,23.3l6.9,3.3l6.9-3.3V10.9l-6.9-3.3l-6.9,3.3V23.3z"/>
		</g>
		<g>
			<path fill="#404653" d="M9.9,22.4c-0.1,0-0.2,0-0.2-0.1l-2.6-1.7c-0.1-0.1-0.2-0.2-0.2-0.4v-3.5c0-0.2,0.2-0.4,0.4-0.4h2.6
				c0.2,0,0.4,0.2,0.4,0.4v5.2c0,0.2-0.1,0.3-0.2,0.4C10,22.4,10,22.4,9.9,22.4z M7.7,20l1.7,1.2v-4H7.7V20z"/>
		</g>
		<g>
			<path fill="#404653" d="M24.7,22.4c-0.1,0-0.1,0-0.2-0.1c-0.1-0.1-0.2-0.2-0.2-0.4v-5.2c0-0.2,0.2-0.4,0.4-0.4h2.6
				c0.2,0,0.4,0.2,0.4,0.4v3.5c0,0.1-0.1,0.3-0.2,0.4l-2.6,1.7C24.8,22.4,24.7,22.4,24.7,22.4z M25.1,17.2v4l1.7-1.2v-2.8H25.1z"/>
		</g>
		<g>
			<g>
				<path fill="#404653" d="M18.1,24.7h-1.7c-0.2,0-0.4-0.2-0.4-0.4s0.2-0.4,0.4-0.4h1.7c0.2,0,0.4,0.2,0.4,0.4S18.4,24.7,18.1,24.7
					z"/>
			</g>
			<g>
				<path fill="#404653" d="M18.8,24.2l-0.4,0.4c-0.2,0.2-0.4,0.2-0.6,0c-0.2-0.2-0.2-0.4,0-0.6l0.4-0.4c0.2-0.2,0.4-0.2,0.6,0
					C19,23.7,19,24,18.8,24.2z"/>
			</g>
			<g>
				<path fill="#404653" d="M16.4,23.6l0.4,0.4c0.2,0.2,0.2,0.4,0,0.6s-0.4,0.2-0.6,0l-0.4-0.4c-0.2-0.2-0.2-0.4,0-0.6
					C15.9,23.4,16.2,23.4,16.4,23.6z"/>
			</g>
		</g>
		<g>
			<path fill="#404653" d="M11.9,17.6v-3.5c0-0.2,0.2-0.4,0.4-0.4h3.9c0.2,0,0.4,0.2,0.4,0.4v3.5c0,0.2-0.2,0.4-0.4,0.4h-3.9
				C12.1,18,11.9,17.8,11.9,17.6z M12.7,14.6v2.6h3v-2.6H12.7z"/>
		</g>
		<g>
			<path fill="#404653" d="M17.9,17.6v-3.5c0-0.2,0.2-0.4,0.4-0.4h3.9c0.2,0,0.4,0.2,0.4,0.4v3.5c0,0.2-0.2,0.4-0.4,0.4h-3.9
				C18.1,18,17.9,17.8,17.9,17.6z M18.8,14.6v2.6h3v-2.6H18.8z"/>
		</g>
	</g>
	<g>
		<path fill="#404653" d="M14.2,16.7c-0.2,0-0.4-0.2-0.4-0.4v-0.9c0-0.2,0.2-0.4,0.4-0.4c0.2,0,0.4,0.2,0.4,0.4v0.9
			C14.7,16.5,14.5,16.7,14.2,16.7z"/>
	</g>
	<g>
		<path fill="#404653" d="M20.3,16.7c-0.2,0-0.4-0.2-0.4-0.4v-0.9c0-0.2,0.2-0.4,0.4-0.4c0.2,0,0.4,0.2,0.4,0.4v0.9
			C20.7,16.5,20.5,16.7,20.3,16.7z"/>
	</g>
	<g>
		<path fill="#404653" d="M19.4,9.7c-0.1,0-0.1,0-0.2,0.1l-1.9,0.7l-1.9-0.7c-0.1-0.1-0.3-0.1-0.4,0l-3.9,1.7
			c-0.2,0.1-0.3,0.4-0.2,0.6c0.1,0.2,0.4,0.3,0.6,0.2l3.7-1.6l2,0.8c0.1,0.1,0.3,0.1,0.4,0l2-0.8l3.7,1.6c0.2,0.1,0.5,0,0.6-0.2
			c0.1-0.2,0-0.5-0.2-0.6l-3.9-1.7C19.5,9.7,19.5,9.7,19.4,9.7z"/>
	</g>
	<line fill="none" stroke="#404653" stroke-linecap="round" stroke-miterlimit="10" x1="23.3" y1="12" x2="23.3" y2="13.7"/>
	<line fill="none" stroke="#404653" stroke-linecap="round" stroke-miterlimit="10" x1="11.2" y1="12" x2="11.2" y2="13.7"/>
	<line fill="none" stroke="#404653" stroke-linecap="round" stroke-miterlimit="10" x1="11.2" y1="13.7" x2="10" y2="14.8"/>
	<line fill="none" stroke="#404653" stroke-linecap="round" stroke-miterlimit="10" x1="24.5" y1="14.8" x2="23.3" y2="13.7"/>
</g>
<line fill="none" stroke="#404653" stroke-linecap="round" stroke-miterlimit="10" x1="24.6" y1="16.1" x2="22.3" y2="16.1"/>
<line fill="none" stroke="#404653" stroke-linecap="round" stroke-miterlimit="10" x1="11.9" y1="16.1" x2="10" y2="16.1"/>
</svg>
