<?xml version="1.0" encoding="utf-8"?>
<!-- Generator: Adobe Illustrator 18.0.0, SVG Export Plug-In . SVG Version: 6.00 Build 0)  -->
<!DOCTYPE svg PUBLIC "-//W3C//DTD SVG 1.1//EN" "http://www.w3.org/Graphics/SVG/1.1/DTD/svg11.dtd">
<svg version="1.1" id="_x31_" xmlns="http://www.w3.org/2000/svg" xmlns:xlink="http://www.w3.org/1999/xlink" x="0px" y="0px"
	 viewBox="0 0 1197.1 679.2" enable-background="new 0 0 1197.1 679.2" xml:space="preserve">
<g>
	<path fill="#001142" d="M1197.1,679.2V298C1067.3,118.4,847.5,0,598.5,0C349.6,0,129.8,118.4,0,298v381.2"/>
	<path fill="#001142" d="M10,674.2C10,371,274,124.3,598.5,124.3s588.6,246.7,588.6,549.9c0,1.3,0,2.5,0,3.8"/>
	<path fill="#03164A" d="M1187.1,677.9c0-303.2-264-549.9-588.6-549.9S10,374.7,10,677.9"/>
	<path fill="#03164A" d="M143,677.9c0-234.7,204.4-425.6,455.6-425.6s455.6,190.9,455.6,425.6"/>
	<path fill="#061C51" d="M1054.1,677.9c0-234.7-204.4-425.6-455.6-425.6S143,443.2,143,677.9 M276,677.9
		c0-166.2,144.7-301.4,322.6-301.4c177.9,0,322.6,135.2,322.6,301.4"/>
	<path fill="#092159" d="M921.1,677.9c0-166.2-144.7-301.4-322.6-301.4C420.7,376.6,276,511.8,276,677.9 M409,677.9
		c0-97.8,84.9-177.1,189.5-177.1c104.7,0,189.5,79.3,189.5,177.1"/>
	<path fill="#0C2661" d="M788.1,677.9c0-97.8-84.9-177.1-189.5-177.1c-104.7,0-189.5,79.3-189.5,177.1"/>
</g>
</svg>
