<?xml version="1.0" encoding="utf-8"?>
<!-- Generator: Adobe Illustrator 18.0.0, SVG Export Plug-In . SVG Version: 6.00 Build 0)  -->
<!DOCTYPE svg PUBLIC "-//W3C//DTD SVG 1.1//EN" "http://www.w3.org/Graphics/SVG/1.1/DTD/svg11.dtd">
<svg version="1.1" id="_x31_" xmlns="http://www.w3.org/2000/svg" xmlns:xlink="http://www.w3.org/1999/xlink" x="0px" y="0px"
	 viewBox="0 0 1200 116.8" enable-background="new 0 0 1200 116.8" xml:space="preserve">
<g>
	<g>
		<path fill="#FFFFFF" d="M951.7,93.1V22.9c-7.7-7.2-17.9-11.5-29.1-11.5c-16.7,0-31.2,9.7-38.6,24.1c-4.3-2.2-9.2-3.5-14.4-3.5
			c-8.6,0-16.3,3.4-22.1,8.9c-4-2-8.5-3.2-13.3-3.2c-13.6,0-25.1,9.2-28.7,21.6c-3.7-1.7-7.9-2.6-12.3-2.6
			c-9.3,0-17.6,4.3-23.1,10.9c-3.1-16.3-17-29.1-33.8-30.4c-11.4-0.9-21.7,3.3-29.2,10.5c0.5-7.2-3.2-14.3-9.9-17.9
			c-8.1-4.3-17.8-2.2-23.4,4.6c-1.7-3.5-4.4-6.5-8.1-8.5c-4.9-2.6-10.3-2.8-15.2-1.1C648.3,10.7,636.1,0,621.4,0
			c-8.1,0-15.4,3.2-20.8,8.5c-4.4-2.6-9.6-4.2-15.1-4.2c-12.1,0-22.5,7.2-27.1,17.6c-3.5-1.6-7.4-2.5-11.5-2.5
			c-11.9,0-22,7.5-25.9,18c-4-1.2-8.3-1.8-12.7-1.8c-20.5,0-37.8,13.7-43.2,32.4h-4.8c-5.3-10.9-16.5-18.5-29.4-18.5
			c-9.5,0-18.1,4.1-24,10.6c-4.1-11.5-15.1-19.8-28.1-19.8c-5.5,0-10.7,1.5-15.2,4.2c-3.2-1.3-6.6-2-10.2-2c-7.6,0-14.5,3.1-19.5,8
			c-7.8-13.5-22.3-22.6-39-22.6c-23.2,0-42.3,17.6-44.7,40.1H250v4.7v43h701.7V93.1z M671,55.6c-0.1-0.1-0.2-0.2-0.3-0.3
			c0.2-0.3,0.5-0.5,0.7-0.8c0.1,0.2,0.2,0.4,0.3,0.6C671.5,55.2,671.2,55.4,671,55.6z"/>
	</g>
	<g>
		<path fill="#FFFFFF" d="M1200,28.5c-20.4,2.1-37.1,16.5-42.6,35.6h-5.3c-5.8-12.1-18.2-20.5-32.6-20.5c-10.5,0-20,4.5-26.6,11.7
			c-4.5-12.8-16.7-21.9-31-21.9c-6.1,0-11.9,1.7-16.8,4.6c-3.5-1.4-7.3-2.2-11.3-2.2c-8.4,0-16,3.4-21.5,8.9
			c-8.6-14.9-24.7-24.9-43.1-24.9c-25.7,0-46.8,19.4-49.4,44.4h-0.3v5.2v47.6H1190h10"/>
	</g>
	<g>
		<path fill="#FFFFFF" d="M0,116.8h10h273.6V96.3V32.3c-7-6.5-16.3-10.5-26.4-10.5c-15.2,0-28.4,8.9-35.1,21.9
			c-3.9-2-8.4-3.1-13.1-3.1c-7.8,0-14.9,3.1-20.1,8.1c-3.7-1.8-7.8-2.9-12.1-2.9c-12.4,0-22.9,8.3-26.1,19.7
			c-3.4-1.5-7.2-2.4-11.1-2.4c-8.5,0-16,3.9-21,10c-2.8-14.9-15.4-26.5-30.8-27.7c-10.3-0.8-19.8,3-26.5,9.5c0.4-6.5-2.9-13-9-16.3
			c-7.3-3.9-16.2-2-21.3,4.2c-1.5-3.2-4-5.9-7.4-7.7c-4.4-2.4-9.4-2.6-13.8-1C8.5,27.3,5,21.5,0,17.5 M28.2,62.1
			c-0.1-0.1-0.2-0.2-0.3-0.3c0.2-0.2,0.4-0.5,0.6-0.7c0.1,0.2,0.2,0.4,0.3,0.5C28.6,61.8,28.4,61.9,28.2,62.1z"/>
	</g>
</g>
</svg>
