<?xml version="1.0" encoding="utf-8"?>
<!-- Generator: Adobe Illustrator 18.0.0, SVG Export Plug-In . SVG Version: 6.00 Build 0)  -->
<!DOCTYPE svg PUBLIC "-//W3C//DTD SVG 1.1//EN" "http://www.w3.org/Graphics/SVG/1.1/DTD/svg11.dtd">
<svg version="1.1" id="_x31_" xmlns="http://www.w3.org/2000/svg" xmlns:xlink="http://www.w3.org/1999/xlink" x="0px" y="0px"
	 viewBox="0 0 184.4 342.9" enable-background="new 0 0 184.4 342.9" xml:space="preserve">
<g>
	<g>
		<g>
			<path fill="#FF3351" d="M115.3,45.8H92.5v190.6h24.1c3.8-28.4,12.6-98.8,12.9-132.2C129.6,86.4,123,64.8,115.3,45.8z"/>
			<path fill="#D62E40" d="M123.8,45.8h-8.5c7.7,19,14.3,40.6,14.1,58.4c-0.3,33.4-9.1,103.8-12.9,132.2h12.9l11.4-90.1
				C145.2,111.7,139.1,76.8,123.8,45.8z"/>
			<path fill="#FF3351" d="M92.5,0v35.5H111C104.5,20.9,98,8.8,94.5,2.6L92.5,0z"/>
			<path fill="#D62E40" d="M102,11.8l-7.5-9.2c3.5,6.2,10,18.3,16.4,32.9h7.3C113.6,27.3,108.1,19.3,102,11.8z"/>
		</g>
		<g>
			<g>
				<g>
					<g>
						<path fill="#FF475A" d="M60.6,45.8c-15.3,31-21.4,65.9-17,100.5L55,236.4h37l0.5-190.6H60.6z"/>
					</g>
				</g>
				<g>
					<g>
						<polygon fill="#FF475A" points="92.5,45.8 92,236.4 92.5,236.4 92.5,45.8 						"/>
					</g>
				</g>
				<g>
					<g>
						<path fill="#C90B26" d="M92.5,35.5v10.3h31.3c-1.7-3.5-3.5-6.9-5.5-10.3H92.5z"/>
					</g>
				</g>
				<g>
					<g>
						<path fill="#D62E40" d="M92.5,35.5H66.1c-2,3.4-3.8,6.8-5.5,10.3h31.8V35.5z"/>
					</g>
				</g>
				<g>
					<g>
						<rect x="92.5" y="35.5" fill="#C90B26" width="0" height="10.3"/>
					</g>
				</g>
				<g>
					<g>
						<path fill="#FF4A65" d="M82.4,11.8c-6.1,7.5-11.5,15.5-16.3,23.7h26.3V0L82.4,11.8z"/>
					</g>
				</g>
			</g>
			<g>
				<g>
					<g>
						<g>
							<path fill="#FFB93B" d="M92,260.9h12.4c13.9,0,25.1-10.9,25.1-24.3v-0.2H92V260.9z"/>
						</g>
					</g>
					<g>
						<g>
							<path fill="#FF475A" d="M124.5,170.1l35.2,26.3c5.9,4.4,10.1,10.6,11.9,17.6l12.6,49.1c1.4,5.4,0.3,13.7-5.4,13.8l-3.3-3.1
								c-3.4,0-6.5-1.8-8.1-4.7l-17-32.7h-33.8L124.5,170.1z"/>
						</g>
					</g>
					<g>
						<g>
							<path fill="#C90B26" d="M123.7,177.7l36,24c5.9,4.4,10.1,10.6,11.9,17.6l12.6,49.1c1.4,5.4-2.8,10.6-8.5,10.7l-0.2,0
								c-3.4,0-6.5-1.8-8.1-4.7l-17-32.7l-33.8-5.2L123.7,177.7z"/>
						</g>
					</g>
				</g>
				<g>
					<g>
						<g>
							<path fill="#FFCE76" d="M92.5,260.9H80.1c-13.9,0-25.1-10.9-25.1-24.3v-0.2h37.5V260.9z"/>
						</g>
					</g>
				</g>
			</g>
		</g>
		<path fill="#D62E40" d="M93.8,72.2c-0.1,0-0.2,0-0.2,0c-13.8,0-24.9,10.8-24.9,24.1c0,13.3,11.1,24.1,24.9,24.1c0.1,0,0.2,0,0.2,0
			c13.6-0.1,24.7-10.8,24.7-24C118.4,83,107.4,72.3,93.8,72.2z"/>
		<g>
			<path fill="#B70404" d="M92,112.2c-10,0-18.2-7.9-18.2-17.5c0-9.7,8.1-17.5,18.2-17.5c0.1,0,0.2,0,0.2,0v-6.5c-0.1,0-0.2,0-0.2,0
				c-13.8,0-24.9,10.8-24.9,24.1c0,13.3,11.1,24.1,24.9,24.1c0.1,0,0.2,0,0.2,0v-6.5C92.1,112.2,92.1,112.2,92,112.2z"/>
			<path fill="#C90B26" d="M116.9,94.7c0-13.2-11-23.9-24.7-24v6.5c9.9,0.1,17.9,7.9,17.9,17.5c0,9.6-8,17.4-17.9,17.5v6.5
				C105.9,118.6,116.9,107.9,116.9,94.7z"/>
			<path fill="#001142" d="M73.8,94.7c0,9.7,8.1,17.5,18.2,17.5c0.1,0,0.2,0,0.2,0V77.1c-0.1,0-0.2,0-0.2,0
				C81.9,77.1,73.8,85,73.8,94.7z"/>
			<path fill="#092159" d="M110.1,94.7c0-9.6-8-17.4-17.9-17.5v35.1C102.1,112.1,110.1,104.3,110.1,94.7z"/>
		</g>
		<circle fill="#F1F2F2" cx="83.8" cy="88.3" r="2.3"/>
		<g opacity="0.55">
			<path fill="#FF6178" d="M59.2,238.8c0,0-1.5-14.3-3.4-35.7c-0.9-10.7-2-23.2-2.9-36.6c-0.5-6.7-0.9-13.6-1.3-20.7
				c-0.4-7-0.7-14.2-0.9-21.4c-0.2-7.2-0.3-14.4-0.2-21.5c0.1-1.9,0.1-3.5,0.3-5.3c0.2-1.8,0.4-3.6,0.6-5.3c0.5-3.5,1.2-6.9,2-10.2
				c3.3-13.2,8.5-24.8,13.4-34.3c5-9.5,9.9-17.1,13.4-22.2c3.6-5.2,5.8-8,5.8-8s-2.1,2.9-5.5,8.1c-3.3,5.3-7.9,13-12.6,22.6
				c-4.6,9.6-9.3,21.3-12.1,34.3c-0.7,3.2-1.2,6.6-1.6,9.9c-0.2,1.7-0.3,3.4-0.4,5.1c-0.1,1.7-0.1,3.5-0.1,5.2
				c0.1,7,0.4,14.1,0.9,21.2c0.4,7.1,1,14.2,1.6,21.2c0.6,7,1.3,13.9,2,20.6c1.4,13.3,2.8,25.8,4.1,36.4c2.6,21.3,4.5,35.4,4.5,35.4
				L59.2,238.8z"/>
		</g>
		<g>
			<g>
				<path fill="#FF3351" d="M60,170.1l-35.2,26.3c-5.9,4.4-10.1,10.6-11.9,17.6L0.3,263.2c-1.4,5.4-1.9,13.7,3.9,13.8l4.8-3.1
					c3.4,0,6.5-1.8,8.1-4.7l17-32.7l33.3-0.1L60,170.1z"/>
			</g>
		</g>
		<g>
			<g>
				<path fill="#D62E40" d="M60.7,176.6l-35.9,26.3c-5.9,4.4-10.1,10.6-11.9,17.6L0.3,269.6c-1.4,5.4,2.8,10.6,8.5,10.7l0.2,0
					c3.4,0,6.5-1.8,8.1-4.7l17-32.7l33.3-6.5L60.7,176.6z"/>
			</g>
		</g>
	</g>
	<polygon opacity="0.15" fill="#D62E40" points="60.7,176.6 117.5,233.4 116.6,236.4 67.3,236.4 	"/>
	<g>
		<g>
			<path fill="#FF3636" d="M92.5,342.9v-73.2h-0.2c-11.1,0-20.2,12.5-20,29.2C72.4,316.7,92.5,342.9,92.5,342.9z"/>
		</g>
	</g>
	<g>
		<g>
			<path fill="#FF2929" d="M92.5,342.9v-73.2h0.2c11.1,0,20.2,12.5,20,29.2C112.6,316.7,92.5,342.9,92.5,342.9z"/>
		</g>
	</g>
	<g>
		<g>
			<path fill="#FFCF7B" d="M91.9,321.3l0.6,0.5v-50h-0.1c-7.6,0-13.7,8.8-13.7,19.7l0,0.2C80.1,303.8,84.9,314.5,91.9,321.3z"/>
		</g>
	</g>
	<g>
		<g>
			<path fill="#FFC95C" d="M93,321.3l-0.6,0.5v-16.8v-33.2h0.1c7.6,0,13.7,8.8,13.7,19.7l0,0.2C104.8,303.8,100,314.5,93,321.3z"/>
		</g>
	</g>
	<path fill="#FFC95C" d="M86.1,280.6l0-0.6c0.2-3.7,2.6-6.9,6.1-8.1l0.1,0v31.4l-0.1-0.1C87.9,296.5,85.7,288.6,86.1,280.6z"/>
	<path fill="#FFC95C" d="M98.6,280.6l0-0.6c-0.2-3.7-2.6-6.9-6.1-8.1l-0.1,0v31.4l0.1-0.1C96.8,296.5,98.9,288.6,98.6,280.6z"/>
</g>
</svg>
