<?xml version="1.0" encoding="utf-8"?>
<!-- Generator: Adobe Illustrator 18.0.0, SVG Export Plug-In . SVG Version: 6.00 Build 0)  -->
<!DOCTYPE svg PUBLIC "-//W3C//DTD SVG 1.1//EN" "http://www.w3.org/Graphics/SVG/1.1/DTD/svg11.dtd">
<svg version="1.1" id="_x31_" xmlns="http://www.w3.org/2000/svg" xmlns:xlink="http://www.w3.org/1999/xlink" x="0px" y="0px"
	 viewBox="0 0 570.3 284.9" enable-background="new 0 0 570.3 284.9" xml:space="preserve">
<g>
	<g>
		<g>
			<g>
				<circle fill="#E3F2FF" cx="233" cy="197.1" r="28.1"/>
				<circle fill="#E3F2FF" cx="173.3" cy="213.2" r="17.5"/>
				<circle fill="#E3F2FF" cx="201.7" cy="203.5" r="22.8"/>
				<circle fill="#E3F2FF" cx="258.1" cy="198.5" r="22.8"/>
				<circle fill="#E3F2FF" cx="145.6" cy="230.7" r="22.8"/>
				<circle fill="#E3F2FF" cx="267.7" cy="130.6" r="9.6"/>
				<ellipse fill="#E3F2FF" cx="269.1" cy="148" rx="13.2" ry="11.7"/>
				
					<ellipse transform="matrix(0.9557 0.2945 -0.2945 0.9557 60.7617 -69.1111)" fill="#E3F2FF" cx="259.9" cy="167.2" rx="15.3" ry="13.5"/>
			</g>
		</g>
		<g>
			<g>
				<circle fill="#E3F2FF" cx="113.4" cy="246.4" r="28.1"/>
				<circle fill="#E3F2FF" cx="58.8" cy="244.9" r="31.7"/>
				<circle fill="#E3F2FF" cx="133.1" cy="262.1" r="22.8"/>
				<circle fill="#E3F2FF" cx="22.8" cy="223.3" r="22.8"/>
				<circle fill="#E3F2FF" cx="180.2" cy="212.3" r="9.6"/>
				
					<ellipse transform="matrix(0.8155 0.5788 -0.5788 0.8155 163.1782 -57.1993)" fill="#E3F2FF" cx="171.3" cy="227.3" rx="13.2" ry="11.7"/>
				
					<ellipse transform="matrix(0.6089 0.7932 -0.7932 0.6089 248.2094 -28.178)" fill="#E3F2FF" cx="152.7" cy="237.6" rx="15.3" ry="13.5"/>
			</g>
		</g>
		<g>
			<g>
				<circle fill="#D0E9FC" cx="330.3" cy="197.1" r="28.1"/>
				<circle fill="#D0E9FC" cx="390" cy="213.2" r="17.5"/>
				<circle fill="#D0E9FC" cx="361.6" cy="203.5" r="22.8"/>
				<circle fill="#D0E9FC" cx="305.2" cy="198.5" r="22.8"/>
				<circle fill="#D0E9FC" cx="282.3" cy="180.9" r="22.8"/>
				<circle fill="#D0E9FC" cx="264.5" cy="219.6" r="22.8"/>
				<circle fill="#D0E9FC" cx="293.3" cy="221.9" r="22.8"/>
				<circle fill="#D0E9FC" cx="320.2" cy="239.5" r="22.8"/>
				<circle fill="#D0E9FC" cx="347.2" cy="230.7" r="22.8"/>
				<circle fill="#D0E9FC" cx="372.5" cy="227.3" r="22.8"/>
				<circle fill="#D0E9FC" cx="392" cy="246.4" r="22.8"/>
				<circle fill="#D0E9FC" cx="414.2" cy="262.3" r="22.8"/>
				<circle fill="#D0E9FC" cx="238.3" cy="233.3" r="22.8"/>
				<circle fill="#D0E9FC" cx="206.7" cy="241.1" r="22.8"/>
				<circle fill="#D0E9FC" cx="212.9" cy="227.3" r="22.8"/>
				<circle fill="#D0E9FC" cx="178.9" cy="227.3" r="22.8"/>
				<circle fill="#D0E9FC" cx="178.9" cy="256.1" r="22.8"/>
				<circle fill="#D0E9FC" cx="252.2" cy="256.1" r="22.8"/>
				<circle fill="#D0E9FC" cx="293.3" cy="244.9" r="22.8"/>
				<circle fill="#D0E9FC" cx="342.9" cy="256.1" r="22.8"/>
				<circle fill="#D0E9FC" cx="382.4" cy="259.8" r="22.8"/>
				<circle fill="#D0E9FC" cx="330.3" cy="262.3" r="22.8"/>
				<circle fill="#D0E9FC" cx="398.9" cy="203.5" r="22.8"/>
				<circle fill="#D0E9FC" cx="417.7" cy="230.7" r="22.8"/>
				<circle fill="#D0E9FC" cx="297.8" cy="116.4" r="9.6"/>
				<circle fill="#D0E9FC" cx="302.3" cy="147.7" r="9.6"/>
				<ellipse fill="#D0E9FC" cx="297.8" cy="133.8" rx="13.2" ry="11.7"/>
				<ellipse fill="#D0E9FC" cx="283.8" cy="145.4" rx="13.2" ry="11.7"/>
				<ellipse fill="#D0E9FC" cx="276.3" cy="159.7" rx="13.2" ry="11.7"/>
				<ellipse fill="#D0E9FC" cx="292.4" cy="159.9" rx="13.2" ry="11.7"/>
				
					<ellipse transform="matrix(-0.9557 0.2945 -0.2945 -0.9557 644.3453 225.6949)" fill="#D0E9FC" cx="305.2" cy="161.4" rx="15.3" ry="13.5"/>
				
					<ellipse transform="matrix(-0.9557 0.2945 -0.2945 -0.9557 660.3784 243.7126)" fill="#D0E9FC" cx="311.8" cy="171.6" rx="15.3" ry="13.5"/>
			</g>
		</g>
		<g>
			<g>
				<circle fill="#D0E9FC" cx="458.7" cy="245" r="28.1"/>
				<circle fill="#D0E9FC" cx="515.1" cy="219.6" r="17.5"/>
				<circle fill="#D0E9FC" cx="487" cy="230.1" r="22.8"/>
				<circle fill="#D0E9FC" cx="440.2" cy="262.1" r="22.8"/>
				<circle fill="#D0E9FC" cx="515.8" cy="206.5" r="22.8"/>
				<circle fill="#D0E9FC" cx="547.6" cy="215.5" r="22.8"/>
				<circle fill="#D0E9FC" cx="382.4" cy="203.3" r="9.6"/>
				<circle fill="#D0E9FC" cx="405.7" cy="224.6" r="9.6"/>
				
					<ellipse transform="matrix(-0.7729 0.6346 -0.6346 -0.7729 835.0065 134.52)" fill="#D0E9FC" cx="393.4" cy="216.7" rx="13.2" ry="11.6"/>
				
					<ellipse transform="matrix(-0.5517 0.834 -0.834 -0.5517 841.1296 14.5863)" fill="#D0E9FC" cx="416.6" cy="233.3" rx="15.3" ry="13.5"/>
				
					<ellipse transform="matrix(-0.5517 0.834 -0.834 -0.5517 862.2397 10.5802)" fill="#D0E9FC" cx="428.3" cy="237" rx="15.3" ry="13.5"/>
			</g>
		</g>
	</g>
</g>
</svg>
