<?xml version="1.0" encoding="utf-8"?>
<!-- Generator: Adobe Illustrator 18.0.0, SVG Export Plug-In . SVG Version: 6.00 Build 0)  -->
<!DOCTYPE svg PUBLIC "-//W3C//DTD SVG 1.1//EN" "http://www.w3.org/Graphics/SVG/1.1/DTD/svg11.dtd">
<svg version="1.1" id="_x31_" xmlns="http://www.w3.org/2000/svg" xmlns:xlink="http://www.w3.org/1999/xlink" x="0px" y="0px"
	 viewBox="0 0 1200 697.6" enable-background="new 0 0 1200 697.6" xml:space="preserve">
<rect y="0" fill="#000E30" width="1200" height="698.5"/>
<g>
	<path fill="#001142" d="M1200,698.5V317.3c-129.8-179.7-349.6-298-598.5-298c-248.9,0-468.8,118.4-598.5,298v381.2"/>
	<path fill="#001142" d="M12.9,693.5c0-303.2,264-549.9,588.6-549.9S1190,390.3,1190,693.5c0,1.3,0,2.5,0,3.8"/>
	<path fill="#03164A" d="M1190,697.2c0-303.2-264-549.9-588.6-549.9S12.9,394,12.9,697.2"/>
	<path fill="#03164A" d="M145.9,697.2c0-234.7,204.4-425.6,455.6-425.6S1057,462.5,1057,697.2"/>
	<path fill="#061C51" d="M1057,697.2c0-234.7-204.4-425.6-455.6-425.6S145.9,462.5,145.9,697.2 M278.9,697.2
		c0-166.2,144.7-301.4,322.6-301.4c177.9,0,322.6,135.2,322.6,301.4"/>
	<path fill="#092159" d="M924,697.2c0-166.2-144.7-301.4-322.6-301.4c-177.9,0-322.6,135.2-322.6,301.4 M411.9,697.2
		c0-97.8,84.9-177.1,189.5-177.1c104.7,0,189.5,79.3,189.5,177.1"/>
	<path fill="#0C2661" d="M791,697.2c0-97.8-84.9-177.1-189.5-177.1c-104.7,0-189.5,79.3-189.5,177.1"/>
</g>
<g>
	<polygon fill="#001142" points="585.6,522.9 584.7,698.5 841.6,697.6 742.3,630.5 766.5,606.3 647.4,487.2 611.6,484 	"/>
	<polyline fill="#2B4482" points="585.6,522.9 572.7,491.3 541.8,510.7 529.3,481.6 350.2,660.8 350.2,697.6 584.7,698.5 	"/>
	<polygon fill="#D0E9FC" points="585.6,522.9 611.6,484 647.4,487.2 642.8,482.5 585.6,425.4 585.6,472.7 	"/>
	<polygon fill="#E3F2FF" points="572.7,491.3 585.6,522.9 585.6,472.7 585.6,425.4 545.2,465.8 529.3,481.6 541.8,510.7 	"/>
	<polygon fill="#001142" points="1018.7,455.5 987.5,502.2 987.5,630.5 984.9,697.6 1200,697.6 1201.4,599.2 1082.6,480.4 	"/>
	<polygon fill="#2B4482" points="984.9,697.6 987.5,502.2 972,464.4 945.8,497 920,452.8 766.5,606.3 674.2,698.5 	"/>
	<polygon fill="#D0E9FC" points="987.5,502.2 1018.7,455.5 1082.6,480.4 1056,453.8 987.5,385.3 987.5,442 	"/>
	<polygon fill="#E3F2FF" points="972,464.4 987.5,502.2 987.5,442 987.5,385.3 939.1,433.7 920,452.8 945.8,497 	"/>
</g>
<g>
	<polygon fill="#D0E9FC" points="600,563.6 600,697.8 880.7,697.8 	"/>
	<polygon fill="#E3F2FF" points="589.1,559.3 304.3,698.5 599.9,698.5 599.9,564.4 	"/>
</g>
<g>
	<g>
		<g>
			<g>
				<g>
					<path fill="#7895B7" d="M952.1,135.6c-22.7-0.4-41.4-16.5-46-37.8c0.7,28.1,23.5,50.9,51.8,51.4l0.3-13.9
						C956.2,135.5,954.1,135.6,952.1,135.6z"/>
				</g>
			</g>
			<g>
				<g>
					<path fill="#3F67C0" d="M979.2,47.6c13.3,8.7,22,23.9,21.6,41c-0.5,24.4-19,44.2-42.7,46.7l-0.3,13.9
						c29.2,0.5,53.3-22.7,53.8-51.9C1012.2,75,998.7,55.7,979.2,47.6z"/>
				</g>
			</g>
			<g>
				<g>
					<path fill="#859FD7" d="M952.1,135.6c2.1,0,4.1-0.1,6.2-0.3l1.7-91.8c-29.2-0.5-53.3,22.7-53.8,51.9c0,0.8,0,1.6,0,2.4
						C910.7,119,929.4,135.1,952.1,135.6z"/>
				</g>
			</g>
			<g>
				<g>
					<path fill="#DFE8F0" d="M952.1,135.6c2.1,0,4.1-0.1,6.2-0.3l1.7-91.8c-29.2-0.5-53.3,22.7-53.8,51.9c0,0.8,0,1.6,0,2.4
						C910.7,119,929.4,135.1,952.1,135.6z"/>
				</g>
			</g>
			<g>
				<g>
					<path fill="#7492B5" d="M958.2,135.3c23.6-2.6,42.2-22.4,42.7-46.7c0.3-17.1-8.3-32.2-21.6-41c-6-2.5-12.5-3.9-19.3-4
						L958.2,135.3z"/>
				</g>
			</g>
			<g>
				<g>
					<path fill="#7895B7" d="M958.2,135.3c23.6-2.6,42.2-22.4,42.7-46.7c0.3-17.1-8.3-32.2-21.6-41c-6-2.5-12.5-3.9-19.3-4
						L958.2,135.3z"/>
				</g>
			</g>
		</g>
		<g>
			<g>
				<g>
					<path fill="#859FD7" d="M939.2,71c0.1-2.9,2.5-5.3,5.4-5.2c2.4,0,4.4,1.7,5,3.9c0-3.5-2.8-6.4-6.4-6.5
						c-3.6-0.1-6.6,2.8-6.6,6.4c-0.1,3.6,2.7,6.5,6.3,6.6C940.7,75.5,939.2,73.4,939.2,71z"/>
				</g>
			</g>
			<g>
				<g>
					<path fill="#DAE4EE" d="M949.7,69.8c0,0,0-0.1,0-0.1c-0.6-2.2-2.6-3.8-5-3.9c-2.9-0.1-5.4,2.3-5.4,5.2c0,2.4,1.5,4.5,3.7,5.2
						c0,0,0.1,0,0.1,0C946.7,76.3,949.6,73.4,949.7,69.8z"/>
				</g>
			</g>
		</g>
		<g>
			<g>
				<g>
					<path fill="#859FD7" d="M922.4,106.9c0.1-5.4,4.5-9.6,9.9-9.5c4.4,0.1,8,3.1,9.2,7.1c0-6.4-5.2-11.7-11.6-11.8
						c-6.5-0.1-12,5.1-12.1,11.6c-0.1,6.5,5,11.8,11.4,12.1C925.1,115,922.3,111.3,922.4,106.9z"/>
				</g>
			</g>
			<g>
				<g>
					<path fill="#DAE4EE" d="M941.4,104.7c0-0.1,0-0.2,0-0.2c-1.1-4-4.8-7-9.2-7.1c-5.4-0.1-9.8,4.2-9.9,9.5
						c-0.1,4.4,2.8,8.1,6.7,9.4c0.1,0,0.2,0,0.2,0C935.9,116.4,941.3,111.2,941.4,104.7z"/>
				</g>
			</g>
		</g>
		<g>
			<g>
				<g>
					<path fill="#213256" d="M944.5,137.7c0.1-2.9,2.5-5.3,5.4-5.2c2.4,0,4.4,1.7,5,3.9c0-3.5-2.8-6.4-6.4-6.5
						c-3.6-0.1-6.6,2.8-6.6,6.4c-0.1,3.6,2.7,6.5,6.3,6.6C946,142.2,944.5,140.1,944.5,137.7z"/>
				</g>
			</g>
			<g>
				<g>
					<path fill="#859FD7" d="M955,136.5c0,0,0-0.1,0-0.1c-0.6-2.2-2.6-3.8-5-3.9c-2.9-0.1-5.4,2.3-5.4,5.2c0,2.4,1.5,4.5,3.7,5.2
						c0,0,0.1,0,0.1,0C951.9,143,954.9,140.1,955,136.5z"/>
				</g>
			</g>
		</g>
		<g>
			<g>
				<g>
					<path fill="#3B64BE" d="M977.7,67.4c0-2,1.7-3.6,3.7-3.6c1.7,0,3,1.2,3.5,2.7c0-2.4-2-4.4-4.4-4.5c-2.5,0-4.5,1.9-4.6,4.4
						c0,2.4,1.9,4.5,4.3,4.6C978.7,70.5,977.6,69,977.7,67.4z"/>
				</g>
			</g>
			<g>
				<g>
					<path fill="#859FD7" d="M984.9,66.5C984.9,66.5,984.9,66.5,984.9,66.5c-0.4-1.6-1.8-2.7-3.5-2.8c-2,0-3.7,1.6-3.7,3.6
						c0,1.7,1,3.1,2.5,3.6c0,0,0.1,0,0.1,0C982.8,71,984.8,69,984.9,66.5z"/>
				</g>
			</g>
		</g>
		<g>
			<g>
				<g>
					<path fill="#3B64BE" d="M959.4,97c0.1-4.6,3.9-8.3,8.5-8.2c3.8,0.1,6.9,2.6,7.9,6.1c0-5.5-4.4-10.1-10-10.2
						c-5.6-0.1-10.3,4.4-10.4,10c-0.1,5.6,4.3,10.1,9.8,10.4C961.7,104,959.3,100.8,959.4,97z"/>
				</g>
			</g>
			<g>
				<g>
					<path fill="#859FD7" d="M975.7,95.1c0-0.1,0-0.1,0-0.2c-1-3.4-4.1-6-7.9-6.1c-4.6-0.1-8.4,3.6-8.5,8.2c-0.1,3.8,2.4,7,5.8,8.1
						c0.1,0,0.1,0,0.2,0C971,105.2,975.6,100.7,975.7,95.1z"/>
				</g>
			</g>
		</g>
		<g>
			<g>
				<g>
					<path fill="#213256" d="M982.2,126c0.1-3.3,2.8-6,6.2-5.9c2.7,0.1,5,1.9,5.7,4.4c0-4-3.2-7.3-7.3-7.4c-4.1-0.1-7.5,3.2-7.5,7.3
						c-0.1,4,3.1,7.4,7.1,7.5C983.9,131.1,982.2,128.8,982.2,126z"/>
				</g>
			</g>
			<g>
				<g>
					<path fill="#859FD7" d="M994.1,124.7c0-0.1,0-0.1,0-0.2c-0.7-2.5-3-4.4-5.7-4.4c-3.3-0.1-6.1,2.6-6.2,5.9
						c0,2.7,1.7,5.1,4.2,5.9c0.1,0,0.1,0,0.2,0C990.7,132,994,128.7,994.1,124.7z"/>
				</g>
			</g>
		</g>
	</g>
</g>
<g>
	<g>
		<circle fill="#FFFFFF" cx="817.5" cy="212" r="3.8"/>
	</g>
	<g>
		<circle fill="#FFFFFF" cx="390.1" cy="237.8" r="4"/>
	</g>
	<g>
		<circle fill="#FFFFFF" cx="286.4" cy="25.3" r="4.3"/>
	</g>
	<g>
		<circle fill="#FFFFFF" cx="114.8" cy="58.3" r="2.1"/>
	</g>
	<g>
		<circle fill="#FFFFFF" cx="140.9" cy="201.8" r="2.7"/>
	</g>
	<g>
		<circle fill="#FFFFFF" cx="125.2" cy="452.1" r="5"/>
	</g>
	<g>
		<circle fill="#FFFFFF" cx="303.9" cy="535.3" r="2.9"/>
	</g>
	<g>
		<circle fill="#FFFFFF" cx="545" cy="36.6" r="8.8"/>
	</g>
	<g>
		<circle fill="#FFFFFF" cx="931.6" cy="434.3" r="4.2"/>
	</g>
	<g>
		<circle fill="#FFFFFF" cx="1094.8" cy="474.6" r="5.4"/>
	</g>
	<g>
		<circle fill="#FFFFFF" cx="1052.3" cy="222.7" r="4.8"/>
	</g>
	<g>
		<circle fill="#FFFFFF" cx="1068.9" cy="53.1" r="5.4"/>
	</g>
	<g>
		<ellipse fill="#FFFFFF" cx="430.5" cy="356.7" rx="5.2" ry="5.1"/>
	</g>
</g>
<g>
	<polygon fill="#001142" points="167.4,486.5 136.2,533.2 136.2,661.5 136.2,697.6 350.2,697.6 350.2,630.2 231.4,511.4 	"/>
	<polygon fill="#2B4482" points="136.2,697.6 136.2,533.2 120.7,495.4 94.5,528 68.8,483.8 -0.8,553.3 1,698.5 	"/>
	<polygon fill="#D0E9FC" points="136.2,533.2 167.4,486.5 231.4,511.4 204.7,484.8 136.2,416.3 136.2,473 	"/>
	<polygon fill="#E3F2FF" points="120.7,495.4 136.2,533.2 136.2,473 136.2,416.3 87.8,464.7 68.8,483.8 94.5,528 	"/>
</g>
<g>
	<g>
		<g>
			<rect x="585.8" y="433.9" fill="#E3F2FF" width="14.5" height="242.1"/>
			<rect x="600.3" y="433.9" fill="#D0E9FC" width="14.5" height="242.1"/>
		</g>
		<polygon opacity="0.68" fill="#FFCF7B" points="600,640.4 590.2,640.4 588.5,404.7 600.3,384.5 		"/>
		<polygon opacity="0.68" fill="#F9BA5D" points="600.5,640.4 610.4,640.4 612,404.7 600.3,384.5 		"/>
		<polygon opacity="0.68" fill="#FFCF7B" points="600.2,640.4 595.7,640.4 595,391.7 600.3,384.5 		"/>
		<polygon opacity="0.68" fill="#F9BA5D" points="600.4,640.4 604.8,640.4 605.6,391.7 600.3,384.5 		"/>
	</g>
	<g>
		<g>
			<g>
				<circle fill="#E3F2FF" cx="550" cy="588.6" r="28.1"/>
				<circle fill="#E3F2FF" cx="490.3" cy="604.8" r="17.5"/>
				<circle fill="#E3F2FF" cx="518.7" cy="595.1" r="22.8"/>
				<circle fill="#E3F2FF" cx="575.1" cy="590" r="22.8"/>
				<circle fill="#E3F2FF" cx="462.6" cy="622.2" r="22.8"/>
				<circle fill="#E3F2FF" cx="584.7" cy="522.2" r="9.6"/>
				<ellipse fill="#E3F2FF" cx="586.1" cy="539.6" rx="13.2" ry="11.7"/>
				
					<ellipse transform="matrix(0.9557 0.2945 -0.2945 0.9557 190.1183 -145.1115)" fill="#E3F2FF" cx="576.9" cy="558.7" rx="15.3" ry="13.5"/>
			</g>
		</g>
		<g>
			<g>
				<circle fill="#E3F2FF" cx="430.5" cy="638" r="28.1"/>
				<circle fill="#E3F2FF" cx="375.8" cy="636.4" r="31.7"/>
				<circle fill="#E3F2FF" cx="450.2" cy="653.7" r="22.8"/>
				<circle fill="#E3F2FF" cx="339.8" cy="614.8" r="22.8"/>
				<circle fill="#E3F2FF" cx="497.3" cy="603.8" r="9.6"/>
				
					<ellipse transform="matrix(0.8155 0.5788 -0.5788 0.8155 448.2835 -168.4519)" fill="#E3F2FF" cx="488.3" cy="618.9" rx="13.2" ry="11.7"/>
				
					<ellipse transform="matrix(0.6089 0.7932 -0.7932 0.6089 682.7781 -126.544)" fill="#E3F2FF" cx="469.7" cy="629.2" rx="15.3" ry="13.5"/>
			</g>
		</g>
		<g>
			<g>
				<circle fill="#D0E9FC" cx="647.4" cy="588.6" r="28.1"/>
				<circle fill="#D0E9FC" cx="707" cy="604.8" r="17.5"/>
				<circle fill="#D0E9FC" cx="678.6" cy="595.1" r="22.8"/>
				<circle fill="#D0E9FC" cx="622.2" cy="590" r="22.8"/>
				<circle fill="#D0E9FC" cx="715.9" cy="595.1" r="22.8"/>
				<circle fill="#D0E9FC" cx="734.7" cy="622.2" r="22.8"/>
				<circle fill="#D0E9FC" cx="614.8" cy="507.9" r="9.6"/>
				<circle fill="#D0E9FC" cx="619.3" cy="539.2" r="9.6"/>
				<ellipse fill="#D0E9FC" cx="614.8" cy="525.3" rx="13.2" ry="11.7"/>
				
					<ellipse transform="matrix(-0.9557 0.2945 -0.2945 -0.9557 1379.6672 898.0496)" fill="#D0E9FC" cx="622.2" cy="552.9" rx="15.3" ry="13.5"/>
				
					<ellipse transform="matrix(-0.9557 0.2945 -0.2945 -0.9557 1395.7054 916.0596)" fill="#D0E9FC" cx="628.9" cy="563.1" rx="15.3" ry="13.5"/>
			</g>
		</g>
		<g>
			<g>
				<circle fill="#D0E9FC" cx="775.8" cy="636.6" r="28.1"/>
				<circle fill="#D0E9FC" cx="832.1" cy="611.2" r="17.5"/>
				<circle fill="#D0E9FC" cx="804" cy="621.7" r="22.8"/>
				<circle fill="#D0E9FC" cx="757.3" cy="653.6" r="22.8"/>
				<circle fill="#D0E9FC" cx="832.8" cy="598" r="22.8"/>
				<circle fill="#D0E9FC" cx="864.6" cy="607.1" r="22.8"/>
				<circle fill="#D0E9FC" cx="699.4" cy="594.8" r="9.6"/>
				<circle fill="#D0E9FC" cx="722.7" cy="616.2" r="9.6"/>
				
					<ellipse transform="matrix(-0.7729 0.6346 -0.6346 -0.7729 1645.5356 627.4838)" fill="#D0E9FC" cx="710.5" cy="608.2" rx="13.2" ry="11.6"/>
				
					<ellipse transform="matrix(-0.5517 0.834 -0.834 -0.5517 1659.6439 357.7214)" fill="#D0E9FC" cx="733.7" cy="624.9" rx="15.3" ry="13.5"/>
				
					<ellipse transform="matrix(-0.5517 0.834 -0.834 -0.5517 1680.7542 353.7151)" fill="#D0E9FC" cx="745.3" cy="628.5" rx="15.3" ry="13.5"/>
			</g>
		</g>
	</g>
</g>
<g>
	<g>
		<path fill="#FFFFFF" d="M951.7,675.9v-70.3c-7.7-7.2-17.9-11.5-29.1-11.5c-16.7,0-31.2,9.7-38.6,24.1c-4.3-2.2-9.2-3.5-14.4-3.5
			c-8.6,0-16.3,3.4-22.1,8.9c-4-2-8.5-3.2-13.3-3.2c-13.6,0-25.1,9.2-28.7,21.6c-3.7-1.7-7.9-2.6-12.3-2.6
			c-9.3,0-17.6,4.3-23.1,10.9c-3.1-16.3-17-29.1-33.8-30.4c-11.4-0.9-21.7,3.3-29.2,10.5c0.5-7.2-3.2-14.3-9.9-17.9
			c-8.1-4.3-17.8-2.2-23.4,4.6c-1.7-3.5-4.4-6.5-8.1-8.5c-4.9-2.6-10.3-2.8-15.2-1.1c-2.3-14-14.5-24.7-29.2-24.7
			c-8.1,0-15.4,3.2-20.8,8.5c-4.4-2.6-9.6-4.2-15.1-4.2c-12.1,0-22.5,7.2-27.1,17.6c-3.5-1.6-7.4-2.5-11.5-2.5
			c-11.9,0-22,7.5-25.9,18c-4-1.2-8.3-1.8-12.7-1.8c-20.5,0-37.8,13.7-43.2,32.4h-4.8c-5.3-10.9-16.5-18.5-29.4-18.5
			c-9.5,0-18.1,4.1-24,10.6c-4.1-11.5-15.1-19.8-28.1-19.8c-5.5,0-10.7,1.5-15.2,4.2c-3.2-1.3-6.6-2-10.2-2c-7.6,0-14.5,3.1-19.5,8
			c-7.8-13.5-22.3-22.6-39-22.6c-23.2,0-42.3,17.6-44.7,40.1H250v4.7v43h701.7V675.9z M671,638.3c-0.1-0.1-0.2-0.2-0.3-0.3
			c0.2-0.3,0.5-0.5,0.7-0.8c0.1,0.2,0.2,0.4,0.3,0.6C671.5,638,671.2,638.2,671,638.3z"/>
	</g>
	<g>
		<path fill="#FFFFFF" d="M1200,609.2c-20.4,2.1-37.1,16.5-42.6,35.6h-5.3c-5.8-12.1-18.2-20.5-32.6-20.5c-10.5,0-20,4.5-26.6,11.7
			c-4.5-12.8-16.7-21.9-31-21.9c-6.1,0-11.9,1.7-16.8,4.6c-3.5-1.4-7.3-2.2-11.3-2.2c-8.4,0-16,3.4-21.5,8.9
			c-8.6-14.9-24.7-24.9-43.1-24.9c-25.7,0-46.8,19.4-49.4,44.4h-0.3v5.2v47.6H1190h10"/>
	</g>
	<g>
		<path fill="#FFFFFF" d="M0,697.6h10h273.6V677v-63.9c-7-6.5-16.3-10.5-26.4-10.5c-15.2,0-28.4,8.9-35.1,21.9
			c-3.9-2-8.4-3.1-13.1-3.1c-7.8,0-14.9,3.1-20.1,8.1c-3.7-1.8-7.8-2.9-12.1-2.9c-12.4,0-22.9,8.3-26.1,19.7
			c-3.4-1.5-7.2-2.4-11.1-2.4c-8.5,0-16,3.9-21,10c-2.8-14.9-15.4-26.5-30.8-27.7c-10.3-0.8-19.8,3-26.5,9.5c0.4-6.5-2.9-13-9-16.3
			c-7.3-3.9-16.2-2-21.3,4.2c-1.5-3.2-4-5.9-7.4-7.7c-4.4-2.4-9.4-2.6-13.8-1C8.5,608.1,5,602.3,0,598.3 M28.2,642.8
			c-0.1-0.1-0.2-0.2-0.3-0.3c0.2-0.2,0.4-0.5,0.6-0.7c0.1,0.2,0.2,0.4,0.3,0.5C28.6,642.5,28.4,642.7,28.2,642.8z"/>
	</g>
</g>
<g>
	<g>
		<g>
			<path fill="#FF3351" d="M623.1,166.1h-22.9v190.6h24.1c3.8-28.4,12.6-98.8,12.9-132.2C637.4,206.7,630.8,185.1,623.1,166.1z"/>
			<path fill="#D62E40" d="M631.6,166.1h-8.5c7.7,19,14.3,40.6,14.1,58.4c-0.3,33.4-9.1,103.8-12.9,132.2h12.9l11.4-90.1
				C653,231.9,646.9,197.1,631.6,166.1z"/>
			<path fill="#FF3351" d="M600.3,120.3v35.5h18.5c-6.5-14.6-13-26.7-16.4-32.9L600.3,120.3z"/>
			<path fill="#D62E40" d="M609.8,132.1l-7.5-9.2c3.5,6.2,10,18.3,16.4,32.9h7.3C621.3,147.5,615.9,139.6,609.8,132.1z"/>
		</g>
		<g>
			<g>
				<g>
					<g>
						<path fill="#FF475A" d="M568.4,166.1c-15.3,31-21.4,65.9-17,100.5l11.4,90.1h37l0.5-190.6H568.4z"/>
					</g>
				</g>
				<g>
					<g>
						<polygon fill="#FF475A" points="600.3,166.1 599.8,356.7 600.3,356.7 600.3,166.1 						"/>
					</g>
				</g>
				<g>
					<g>
						<path fill="#C90B26" d="M600.3,155.7v10.3h31.3c-1.7-3.5-3.5-6.9-5.5-10.3H600.3z"/>
					</g>
				</g>
				<g>
					<g>
						<path fill="#D62E40" d="M600.3,155.7h-26.3c-2,3.4-3.8,6.8-5.5,10.3h31.8V155.7z"/>
					</g>
				</g>
				<g>
					<g>
						<rect x="600.3" y="155.7" fill="#C90B26" width="0" height="10.3"/>
					</g>
				</g>
				<g>
					<g>
						<path fill="#FF4A65" d="M590.2,132.1c-6.1,7.5-11.5,15.5-16.3,23.7h26.3v-35.5L590.2,132.1z"/>
					</g>
				</g>
			</g>
			<g>
				<g>
					<g>
						<g>
							<path fill="#FFB93B" d="M599.8,381.2h12.4c13.9,0,25.1-10.9,25.1-24.3v-0.2h-37.5V381.2z"/>
						</g>
					</g>
					<g>
						<g>
							<path fill="#FF475A" d="M632.2,290.4l35.2,26.3c5.9,4.4,10.1,10.6,11.9,17.6l12.6,49.1c1.4,5.4,0.3,13.7-5.4,13.8l-3.3-3.1
								c-3.4,0-6.5-1.8-8.1-4.7l-17-32.7h-33.8L632.2,290.4z"/>
						</g>
					</g>
					<g>
						<g>
							<path fill="#C90B26" d="M631.5,298l36,24c5.9,4.4,10.1,10.6,11.9,17.6l12.6,49.1c1.4,5.4-2.8,10.6-8.5,10.7l-0.2,0
								c-3.4,0-6.5-1.8-8.1-4.7l-17-32.7l-33.8-5.2L631.5,298z"/>
						</g>
					</g>
				</g>
				<g>
					<g>
						<g>
							<path fill="#FFCE76" d="M600.3,381.2h-12.4c-13.9,0-25.1-10.9-25.1-24.3v-0.2h37.5V381.2z"/>
						</g>
					</g>
				</g>
			</g>
		</g>
		<path fill="#D62E40" d="M601.6,192.4c-0.1,0-0.2,0-0.2,0c-13.8,0-24.9,10.8-24.9,24.1c0,13.3,11.1,24.1,24.9,24.1
			c0.1,0,0.2,0,0.2,0c13.6-0.1,24.7-10.8,24.7-24C626.2,203.3,615.2,192.6,601.6,192.4z"/>
		<g>
			<path fill="#B70404" d="M599.8,232.5c-10,0-18.2-7.9-18.2-17.5c0-9.7,8.1-17.5,18.2-17.5c0.1,0,0.2,0,0.2,0v-6.5
				c-0.1,0-0.2,0-0.2,0c-13.8,0-24.9,10.8-24.9,24.1c0,13.3,11.1,24.1,24.9,24.1c0.1,0,0.2,0,0.2,0v-6.5
				C599.9,232.5,599.8,232.5,599.8,232.5z"/>
			<path fill="#C90B26" d="M624.7,214.9c0-13.2-11-23.9-24.7-24v6.5c9.9,0.1,17.9,7.9,17.9,17.5c0,9.6-8,17.4-17.9,17.5v6.5
				C613.6,238.8,624.7,228.1,624.7,214.9z"/>
			<path fill="#001142" d="M581.6,214.9c0,9.7,8.1,17.5,18.2,17.5c0.1,0,0.2,0,0.2,0v-35.1c-0.1,0-0.2,0-0.2,0
				C589.7,197.4,581.6,205.2,581.6,214.9z"/>
			<path fill="#092159" d="M617.9,214.9c0-9.6-8-17.4-17.9-17.5v35.1C609.9,232.3,617.9,224.5,617.9,214.9z"/>
		</g>
		<circle fill="#F1F2F2" cx="591.6" cy="208.5" r="2.3"/>
		<g opacity="0.55">
			<path fill="#FF6178" d="M567,359.1c0,0-1.5-14.3-3.4-35.7c-0.9-10.7-2-23.2-2.9-36.6c-0.5-6.7-0.9-13.6-1.3-20.7
				c-0.4-7-0.7-14.2-0.9-21.4c-0.2-7.2-0.3-14.4-0.2-21.5c0.1-1.9,0.1-3.5,0.3-5.3c0.2-1.8,0.4-3.6,0.6-5.3c0.5-3.5,1.2-6.9,2-10.2
				c3.3-13.2,8.5-24.8,13.4-34.3c5-9.5,9.9-17.1,13.4-22.2c3.6-5.2,5.8-8,5.8-8s-2.1,2.9-5.5,8.1c-3.3,5.3-7.9,13-12.6,22.6
				c-4.6,9.6-9.3,21.3-12.1,34.3c-0.7,3.2-1.2,6.6-1.6,9.9c-0.2,1.7-0.3,3.4-0.4,5.1c-0.1,1.7-0.1,3.5-0.1,5.2
				c0.1,7,0.4,14.1,0.9,21.2c0.4,7.1,1,14.2,1.6,21.2c0.6,7,1.3,13.9,2,20.6c1.4,13.3,2.8,25.8,4.1,36.4c2.6,21.3,4.5,35.4,4.5,35.4
				L567,359.1z"/>
		</g>
		<g>
			<g>
				<path fill="#FF3351" d="M567.8,290.4l-35.2,26.3c-5.9,4.4-10.1,10.6-11.9,17.6L508,383.4c-1.4,5.4-1.9,13.7,3.9,13.8l4.8-3.1
					c3.4,0,6.5-1.8,8.1-4.7l17-32.7l33.3-0.1L567.8,290.4z"/>
			</g>
		</g>
		<g>
			<g>
				<path fill="#D62E40" d="M568.5,296.8l-35.9,26.3c-5.9,4.4-10.1,10.6-11.9,17.6L508,389.8c-1.4,5.4,2.8,10.6,8.5,10.7l0.2,0
					c3.4,0,6.5-1.8,8.1-4.7l17-32.7l33.3-6.5L568.5,296.8z"/>
			</g>
		</g>
	</g>
	<polygon opacity="0.15" fill="#D62E40" points="568.5,296.8 625.3,353.6 624.3,356.7 575.1,356.6 	"/>
	<g>
		<g>
			<path fill="#FF3636" d="M600.3,463.2V390H600c-11.1,0-20.2,12.5-20,29.2C580.2,437,600.3,463.2,600.3,463.2z"/>
		</g>
	</g>
	<g>
		<g>
			<path fill="#FF2929" d="M600.3,463.2V390h0.2c11.1,0,20.2,12.5,20,29.2C620.3,437,600.3,463.2,600.3,463.2z"/>
		</g>
	</g>
	<g>
		<g>
			<path fill="#FFCF7B" d="M599.7,441.6l0.6,0.5v-50h-0.1c-7.6,0-13.7,8.8-13.7,19.7l0,0.2C587.9,424.1,592.7,434.7,599.7,441.6z"/>
		</g>
	</g>
	<g>
		<g>
			<path fill="#FFC95C" d="M600.8,441.6l-0.6,0.5v-16.8v-33.2h0.1c7.6,0,13.7,8.8,13.7,19.7l0,0.2
				C612.6,424.1,607.8,434.7,600.8,441.6z"/>
		</g>
	</g>
	<path fill="#FFC95C" d="M593.9,400.9l0-0.6c0.2-3.7,2.6-6.9,6.1-8.1l0.1,0v31.4l-0.1-0.1C595.7,416.8,593.5,408.9,593.9,400.9z"/>
	<path fill="#FFC95C" d="M606.3,400.9l0-0.6c-0.2-3.7-2.6-6.9-6.1-8.1l-0.1,0v31.4l0.1-0.1C604.5,416.8,606.7,408.9,606.3,400.9z"/>
</g>
</svg>
