<?xml version="1.0" encoding="utf-8"?>
<!-- Generator: Adobe Illustrator 18.0.0, SVG Export Plug-In . SVG Version: 6.00 Build 0)  -->
<!DOCTYPE svg PUBLIC "-//W3C//DTD SVG 1.1//EN" "http://www.w3.org/Graphics/SVG/1.1/DTD/svg11.dtd">
<svg version="1.1" id="_x31_" xmlns="http://www.w3.org/2000/svg" xmlns:xlink="http://www.w3.org/1999/xlink" x="0px" y="0px"
	 viewBox="0 0 105.7 105.7" enable-background="new 0 0 105.7 105.7" xml:space="preserve">
<g>
	<g>
		<g>
			<g>
				<g>
					<path fill="#7895B7" d="M46,92.1C23.3,91.6,4.6,75.5,0,54.3c0.7,28.1,23.5,50.9,51.8,51.4l0.3-13.9C50.1,92,48,92.1,46,92.1z"
						/>
				</g>
			</g>
			<g>
				<g>
					<path fill="#3F67C0" d="M73.1,4.1c13.3,8.7,22,23.9,21.6,41c-0.5,24.4-19,44.2-42.7,46.7l-0.3,13.9
						c29.2,0.5,53.3-22.7,53.8-51.9C106.1,31.5,92.6,12.1,73.1,4.1z"/>
				</g>
			</g>
			<g>
				<g>
					<path fill="#859FD7" d="M46,92.1c2.1,0,4.1-0.1,6.2-0.3L53.8,0C24.6-0.5,0.5,22.7,0,51.9c0,0.8,0,1.6,0,2.4
						C4.6,75.5,23.3,91.6,46,92.1z"/>
				</g>
			</g>
			<g>
				<g>
					<path fill="#DFE8F0" d="M46,92.1c2.1,0,4.1-0.1,6.2-0.3L53.8,0C24.6-0.5,0.5,22.7,0,51.9c0,0.8,0,1.6,0,2.4
						C4.6,75.5,23.3,91.6,46,92.1z"/>
				</g>
			</g>
			<g>
				<g>
					<path fill="#7492B5" d="M52.1,91.8C75.7,89.2,94.3,69.4,94.8,45c0.3-17.1-8.3-32.2-21.6-41c-6-2.5-12.5-3.9-19.3-4L52.1,91.8z"
						/>
				</g>
			</g>
			<g>
				<g>
					<path fill="#7895B7" d="M52.1,91.8C75.7,89.2,94.3,69.4,94.8,45c0.3-17.1-8.3-32.2-21.6-41c-6-2.5-12.5-3.9-19.3-4L52.1,91.8z"
						/>
				</g>
			</g>
		</g>
		<g>
			<g>
				<g>
					<path fill="#859FD7" d="M33.1,27.5c0.1-2.9,2.5-5.3,5.4-5.2c2.4,0,4.4,1.7,5,3.9c0-3.5-2.8-6.4-6.4-6.5
						c-3.6-0.1-6.6,2.8-6.6,6.4c-0.1,3.6,2.7,6.5,6.3,6.6C34.6,32,33.1,29.9,33.1,27.5z"/>
				</g>
			</g>
			<g>
				<g>
					<path fill="#DAE4EE" d="M43.6,26.3c0,0,0-0.1,0-0.1c-0.6-2.2-2.6-3.8-5-3.9c-2.9-0.1-5.4,2.3-5.4,5.2c0,2.4,1.5,4.5,3.7,5.2
						c0,0,0.1,0,0.1,0C40.6,32.8,43.5,29.9,43.6,26.3z"/>
				</g>
			</g>
		</g>
		<g>
			<g>
				<g>
					<path fill="#859FD7" d="M16.3,63.4c0.1-5.4,4.5-9.6,9.9-9.5c4.4,0.1,8,3.1,9.2,7.1c0-6.4-5.2-11.7-11.6-11.8
						c-6.5-0.1-12,5.1-12.1,11.6c-0.1,6.5,5,11.8,11.4,12.1C19,71.5,16.2,67.8,16.3,63.4z"/>
				</g>
			</g>
			<g>
				<g>
					<path fill="#DAE4EE" d="M35.3,61.2c0-0.1,0-0.2,0-0.2c-1.1-4-4.8-7-9.2-7.1c-5.4-0.1-9.8,4.2-9.9,9.5c-0.1,4.4,2.8,8.1,6.7,9.4
						c0.1,0,0.2,0,0.2,0C29.8,72.9,35.2,67.7,35.3,61.2z"/>
				</g>
			</g>
		</g>
		<g>
			<g>
				<g>
					<path fill="#213256" d="M38.4,94.2c0.1-2.9,2.5-5.3,5.4-5.2c2.4,0,4.4,1.7,5,3.9c0-3.5-2.8-6.4-6.4-6.5
						c-3.6-0.1-6.6,2.8-6.6,6.4c-0.1,3.6,2.7,6.5,6.3,6.6C39.9,98.7,38.4,96.6,38.4,94.2z"/>
				</g>
			</g>
			<g>
				<g>
					<path fill="#859FD7" d="M48.9,93c0,0,0-0.1,0-0.1c-0.6-2.2-2.6-3.8-5-3.9c-2.9-0.1-5.4,2.3-5.4,5.2c0,2.4,1.5,4.5,3.7,5.2
						c0,0,0.1,0,0.1,0C45.8,99.5,48.8,96.6,48.9,93z"/>
				</g>
			</g>
		</g>
		<g>
			<g>
				<g>
					<path fill="#3B64BE" d="M71.6,23.9c0-2,1.7-3.6,3.7-3.6c1.7,0,3,1.2,3.5,2.7c0-2.4-2-4.4-4.4-4.5c-2.5,0-4.5,1.9-4.6,4.4
						c0,2.4,1.9,4.5,4.3,4.6C72.6,27,71.5,25.5,71.6,23.9z"/>
				</g>
			</g>
			<g>
				<g>
					<path fill="#859FD7" d="M78.8,23C78.8,23,78.8,23,78.8,23c-0.4-1.6-1.8-2.7-3.5-2.8c-2,0-3.7,1.6-3.7,3.6c0,1.7,1,3.1,2.5,3.6
						c0,0,0.1,0,0.1,0C76.7,27.5,78.7,25.5,78.8,23z"/>
				</g>
			</g>
		</g>
		<g>
			<g>
				<g>
					<path fill="#3B64BE" d="M53.3,53.5c0.1-4.6,3.9-8.3,8.5-8.2c3.8,0.1,6.9,2.6,7.9,6.1c0-5.5-4.4-10.1-10-10.2
						c-5.6-0.1-10.3,4.4-10.4,10c-0.1,5.6,4.3,10.1,9.8,10.4C55.6,60.5,53.2,57.3,53.3,53.5z"/>
				</g>
			</g>
			<g>
				<g>
					<path fill="#859FD7" d="M69.6,51.6c0-0.1,0-0.1,0-0.2c-1-3.4-4.1-6-7.9-6.1c-4.6-0.1-8.4,3.6-8.5,8.2c-0.1,3.8,2.4,7,5.8,8.1
						c0.1,0,0.1,0,0.2,0C64.9,61.7,69.5,57.2,69.6,51.6z"/>
				</g>
			</g>
		</g>
		<g>
			<g>
				<g>
					<path fill="#213256" d="M76.1,82.5c0.1-3.3,2.8-6,6.2-5.9c2.7,0.1,5,1.9,5.7,4.4c0-4-3.2-7.3-7.3-7.4c-4.1-0.1-7.5,3.2-7.5,7.3
						c-0.1,4,3.1,7.4,7.1,7.5C77.8,87.6,76.1,85.3,76.1,82.5z"/>
				</g>
			</g>
			<g>
				<g>
					<path fill="#859FD7" d="M88,81.1c0-0.1,0-0.1,0-0.2c-0.7-2.5-3-4.4-5.7-4.4c-3.3-0.1-6.1,2.6-6.2,5.9c0,2.7,1.7,5.1,4.2,5.9
						c0.1,0,0.1,0,0.2,0C84.6,88.5,87.9,85.2,88,81.1z"/>
				</g>
			</g>
		</g>
	</g>
</g>
</svg>
