<?xml version="1.0" encoding="utf-8"?>
<!-- Generator: Adobe Illustrator 18.0.0, SVG Export Plug-In . SVG Version: 6.00 Build 0)  -->
<!DOCTYPE svg PUBLIC "-//W3C//DTD SVG 1.1//EN" "http://www.w3.org/Graphics/SVG/1.1/DTD/svg11.dtd">
<svg version="1.1" id="_x31_" xmlns="http://www.w3.org/2000/svg" xmlns:xlink="http://www.w3.org/1999/xlink" x="0px" y="0px"
	 viewBox="0 0 1198.4 332.7" enable-background="new 0 0 1198.4 332.7" xml:space="preserve">
<g>
	<g>
		<polygon fill="#001142" points="291,119.8 289.9,335.5 605.5,334.4 545.6,257.9 513.2,222.2 366.9,75.9 323,72 		"/>
		<polyline fill="#2B4482" points="289.2,119.8 273.3,81 235.4,104.9 220.1,69.1 0,289.2 0,334.4 288.1,335.5 		"/>
		<polygon fill="#D0E9FC" points="289.2,119.8 321.2,72 365.1,75.9 359.4,70.2 289.2,0 289.2,58.1 		"/>
		<polygon fill="#E3F2FF" points="273.3,81 289.2,119.8 289.2,58.1 289.2,0 239.6,49.6 220.1,69.1 235.4,104.9 		"/>
	</g>
	<g>
		<polyline fill="#001142" points="1198.4,197.6 1076.7,75.9 1032.7,72 1000.8,119.8 999.7,335.5 1198.4,332.7 		"/>
		<polyline fill="#2B4482" points="1000.8,119.8 984.9,81 947,104.9 931.7,69.1 668.3,332.5 711.6,334.4 999.7,335.5 		"/>
		<polygon fill="#D0E9FC" points="1000.8,119.8 1032.7,72 1076.7,75.9 1071,70.2 1000.8,0 1000.8,58.1 		"/>
		<polygon fill="#E3F2FF" points="984.9,81 1000.8,119.8 1000.8,58.1 1000.8,0 951.2,49.6 931.7,69.1 947,104.9 		"/>
	</g>
</g>
</svg>
