<svg viewBox="0 0 265 265" xmlns="http://www.w3.org/2000/svg" fill-rule="evenodd" clip-rule="evenodd" stroke-miterlimit="10"><clipPath id="a"><path d="M201.2 110.83h1.65v21.2h-1.66z"/></clipPath><g clip-path="url(#a)"><path d="M201.2 111.8l.3 20.22c.37 0 .74 0 1.1.02.08-6 .17-11.98.22-17.97 0-1.12.3-2.38-.74-3.24l-.9.97" fill="#fff" fill-rule="nonzero"/><path fill="none" stroke="#fff" d="M201.2 110.83h1.66v21.2h-1.67z"/></g><path d="M207.9 151.34c-1.3 2.56-3.6 2.7-5.88 1.9-1.22-.43-2.42-1.07-3.47-1.87-13.5-10.1-27-20.23-40.47-30.38-1.6-1.3-3.1-2.7-2.3-5.1.8-2.5 2.68-3.5 4.77-3.6 1.95 0 3.27 1.1 4.63 2.1 9.4 7.1 18.82 14.1 28.25 21.2 4.18 3.1 8.48 6 12.6 9.3 1.9 1.5 3.27 3.6 1.88 6.3m-12.4 3.9c1.8 1.4 3.6 3.3 2.3 6.2-1.3 2.7-3.6 3-6 2.7-1.9-.3-3.6-1.2-5.1-2.5-11.1-8.7-22.2-17.4-33.2-26.2-2-1.6-4-3.4-2.3-6.4 1.6-2.9 4-3.2 6.8-1.9 2.2 1 7.3 5.3 9.3 6.5 3.5 3.1 7.4 5.5 11 8.3 5.8 4.4 11.7 8.6 17.5 13.1m-8 18.2c-.9 1.9-2.4 2.3-4.2 2.2-2.2.2-4-1-5.8-2.3-9.9-7.6-19.9-15.2-29.9-22.7-1.4-1.1-2.8-2.1-2.5-4.3.4-2.3 2-3.1 3.7-3.7 2.5-.9 4.6.2 6.6 1.6 8.8 6.3 17.5 12.7 26.2 19.1 1.9 1.3 3.9 2.4 5.3 4.5 1.1 1.7 1.8 3.4.8 5.4m-10.7 6c1.7 1.3 3 2.9 2.2 5.5-.5 1.6-1.8 2.9-3.3 3.5-2.7 1.1-5-.3-7.1-1.8-6-4.3-11.9-8.7-17.9-13.1-2.9-2.1-6-4.1-8.8-6.4-1.7-1.4-2.8-3.3-2-5.8.8-2.4 2.4-3.8 4.8-3.8 1.2 0 2.3.2 3.4.9 9.6 7 19.3 13.9 28.9 20.9m29.9-35.9c-3.7-2-4.4-5.3-3.9-9.3.1-.8.2-2 .2-2.7H202c-.5 2.2.6 4.9-.4 7.5-3.5-2.7-6.72-5.5-10.3-7.6-3.53-2.2-5-5.1-4.3-9.5.2-1 .1-2.1.2-3.1.37-3.7 2.1-5.9 5.4-6.7 3.38-.8 6.8-.4 10.2-.6l.07-1c-4.9-1.5-9.6-.7-14.1 1.3-1-.6-.8-1.5-.8-2.2-.15-6.2-.15-6.2-5.6-6.2h-8l-17.84-.8c-3.5 0-2.8-9.3-6-8.3-.7.1-1.4 0-2.1-.1-1.1-.1-1.73-1.1-1.7-2.1-.04-.3-.1-.5-.1-.8 0 0-.1-.1-.6-.1-.5 1.5-.3 2.9.46 4.1 1.1 1 2.2-.2 3.2 1.3 1.7 2.5 1.7 3.1 2.6 5.5.5 1.5.3 1.8 1.3 1.9 9.5.7 20.1 1.5 30.1 1.2 1 0 2.2-.1 2.3 1.6.3 6.4-.5 12.7-.9 19.1-1.6 0-2.2-.8-3-1.4-5.7-4.2-11.4-8.6-17.3-12.7-3.3-2.4-7.4-1.3-9.3 2-1.7 3-.9 5.5 3.1 8.5 8.4 6.3 16.7 12.6 25.1 18.9 1 .8 2.4 1.2 1.9 3.2-1.6 0-2.6-1.2-3.7-2-4.4-3.2-9.3-7.1-13.7-10.3-1-.7-2.9-2.2-4.8-3.7-1.9-1.4-3.8-2.7-4.8-3.2-3.5-1.4-7.1-.1-8.5 3.1-1.3 3.1-.4 5.2 3.2 8l30.7 24.1c.9.7 2.2 1.3 1.1 3.1-.6-.4-1.3-.7-1.8-1.1-8.6-6.4-17.2-12.7-25.8-19.1-2-1.5-4-2.8-6.5-2.7-3 0-5.6 1.2-6.8 4.5-1.2 3.4 1.3 4.9 3.3 6.4 8.3 6.3 16.7 12.6 25 18.9 1.3.9 2.8 1.6 3.7 3.3-2.2 1.2-3.7.2-5.2-.9-6.8-4.9-13.6-9.7-20.4-14.7-3.1-2.3-6.1-3.6-9.5-1.1-3.2 2.4-2.9 5.9-1.8 9.3-1.6.8-5.1 2.5-6.6 3.2-.6.6-.8 1.7 0 2 3.6-3 8.3-3.8 14 .3 4.3 3.1 8.7 6.2 13 9.3 3 2.2 6.1 4.5 9.6 7.2l-.6.2.1.1 2.5.9c.8-.1 1.5-.2 2.3-.2 3.3-.18 5.7-1.5 6.8-4.98 1.1-3.4-.7-5.7-3.3-7.3-.4-.3-.8-.6-.6-1.7 4.2.06 8.9 2.95 12.6-1.8l.6-1.8c.6-3.1-2.1-4.9-2.6-8 2.8.46 5.2 1.56 7.8 1.3 6.2-3.76 6.5-8.1.6-12.7-3.1-2.45-6.3-4.8-9.5-7.26 1.9-1.8 2.9.2 4.1.6 1.8.7 3.4 2 4.8 3.4 4.3 4.2 8.6 7 13.4 4l1.8-3c.2-3.2-.8-6-3.3-7.2" fill="#fff" fill-rule="nonzero"/><path d="M206.03 144.97c1.9 1.5 3.27 3.68 1.9 6.37-1.33 2.56-3.62 2.7-5.9 1.9-1.22-.43-2.42-1.07-3.48-1.87-13.5-10.1-27-20.23-40.47-30.38-1.6-1.3-3.1-2.7-2.3-5.1.8-2.5 2.68-3.5 4.77-3.6 1.95 0 3.27 1.1 4.63 2.1 9.4 7.1 18.83 14.2 28.26 21.2 4.18 3.1 8.47 6.1 12.6 9.3m-10.54 10.3c1.8 1.4 3.6 3.3 2.25 6.2-1.28 2.7-3.58 3-6.06 2.7-1.9-.3-3.6-1.2-5.2-2.5-11.1-8.7-22.2-17.5-33.3-26.2-2-1.6-4-3.4-2.3-6.4 1.6-2.9 3.9-3.2 6.7-1.9 2.2 1 7.2 5.3 9.3 6.5 3.4 3.1 7.3 5.5 11 8.3 5.8 4.4 11.7 8.6 17.4 13.1m-8.7 13c1.1 1.6 1.7 3.4.8 5.4-.9 1.8-2.5 2.2-4.2 2.2-2.3.1-4.1-1-5.9-2.4-10-7.6-20-15.2-30-22.7-1.4-1.1-2.9-2.1-2.5-4.3.3-2.3 2-3.1 3.7-3.7 2.4-.9 4.6.2 6.6 1.6 8.7 6.4 17.4 12.7 26.1 19.2 1.8 1.3 3.9 2.4 5.2 4.5" fill="none" stroke="#fff"/><path d="M168.9 190.82c.7-.13 1.4-.27 2.1-.38l.12-.02c-.85-.3-1.7-.63-2.55-.94l.34 1.34" fill="#fff" fill-rule="nonzero"/><path d="M168.57 189.48l-.17-.06c-3.24 1.44-6.36 2.07-8.27 5 .23.3.46.6.7.87 3.03-2.7 6.47-4.3 10.17-4.9-.7.1-1.4.2-2.1.4l-.33-1.4m-3.94-104.2s0-.1-.03-.1c-4.2-.2-8.64-1-13.3-1.1l-8.88-.3c-2.33-1.1-4.47-3.1-4.48-6.3 0-1.7-.35-2.9-1.24-3.7-.02 0-.02-.1-.02-.1.4-1.1.86-1.8 1.4-2.2v-.1c-.27-.7-.68-1.2-1.64-5.6-.9-.8-1.74-1.8-1.26-3.4l-.4-3.1-.75.3h.07v.8h-.26l.02.2c.08 5.2 1.04 10.3 1.23 15.5.1-.3.5-.4 1.1-.2 0 .5.1 1.1.2 1.8.1 5.7 2.6 8.3 7.8 8.4h6.1c.9-.3 2-.3 3.3 0h-3.3l-.5.1 11.6.3c1.5.1 1.6.1 3.1 0v-.1c-.1-.7-.1-.7-.1-1.7" fill="#fff" fill-rule="nonzero"/><path d="M159.57 195.25l.63.93.62-.9-.7-.85-.55.82" fill="#fff" fill-rule="nonzero"/><path d="M159.57 195.25c-1.5 2.16-1.85 4.7-1.9 7.34-.06 3.6-.3 7.2-.14 10.9.02.2 0 .6 0 .9h1.3c-.1-6.1-.6-12.4 1.37-18.3l-.63-1" fill="#fff" fill-rule="nonzero"/><path d="M150.38 86.48h3.3c-1.3-.3-2.4-.25-3.3 0zm-4.7.02l4.24.13.46-.14-4.7-.1z" fill="#2d3853" fill-rule="nonzero" stroke="#fff"/><path d="M145.56 91.53c.2 0 .4.02.6.08v.2c.5-.7 1.87-4.2 3.37-4.9l.4-.1-4.25-.1-.12 5.1z" fill="#fff" fill-rule="nonzero" stroke="#fff"/><path d="M145.84 91.57l-.28-.04v.14c.5.06.57.1.6.1v-.16c-.03.1.04.1-.32 0z" fill="#2d3853" fill-rule="nonzero" stroke="#fff"/><path d="M146.16 91.6l-.32-.03c.36.05.3.08.3.04z" fill="#2d3853" fill-rule="nonzero" stroke="#fff"/><path d="M145.84 91.57l.3.04h-.58l.28.1zM132.7 53.9h7.28v.9h-7.3z" fill="#2d3853" fill-rule="nonzero" stroke="#fff"/><path d="M134 59.9c-.1.15-.13.3-.17.45v.3h.27v-.77h-.1" fill="#2d3853" fill-rule="nonzero"/><path d="M134 59.9c-.1.15-.13.3-.17.45v.3h.27v-.77h-.1z" fill="none" stroke="#fff"/><path d="M132.7 60.65h1.14v-.3c.03-.15.07-.3.14-.43 0-.02.02-.02.03-.03l.1-.1h-1.3v.7z" fill="#2d3853" fill-rule="nonzero" stroke="#fff"/><path d="M122.37 167.32c-2.87 2.25-5.9 4.27-8.84 6.4-5.97 4.36-11.92 8.75-17.9 13.1-2.14 1.52-4.4 2.86-7.15 1.78-1.5-.58-2.74-1.85-3.3-3.5-.9-2.56.4-4.22 2.13-5.47 9.7-6.95 19.3-13.9 28.9-20.87 1.1-.76 2.2-.93 3.4-.96 2.5-.07 4.1 1.36 4.8 3.76.8 2.42-.2 4.4-1.9 5.76m-35.7 6.17c-1.7 1.3-3.6 2.4-5.8 2.3-1.7 0-3.3-.4-4.2-2.2-1-2-.3-3.8.8-5.4 1.4-2.1 3.4-3.2 5.3-4.6 8.7-6.5 17.4-12.8 26.2-19.2 2.1-1.5 4.2-2.6 6.7-1.7 1.7.6 3.4 1.4 3.7 3.7.4 2.2-1.1 3.2-2.5 4.2-10 7.5-20 15.1-29.9 22.7m-14.2-9.2c-2.5.4-4.8 0-6-2.7-1.3-3 .5-4.9 2.3-6.3 5.7-4.5 11.6-8.7 17.4-13.2 3.7-2.8 7.6-5.2 11-8.3 2.1-1.2 7.2-5.6 9.3-6.6 2.8-1.3 5.2-1 6.8 1.9 1.7 3-.3 4.8-2.3 6.4-11.1 8.7-22.2 17.4-33.3 26.2-1.5 1.2-3.2 2.1-5.1 2.4m-7-12.8c-1 .8-2.2 1.4-3.4 1.8-2.3.8-4.6.7-5.9-1.9-1.4-2.7 0-4.9 1.9-6.4 4.1-3.2 8.4-6.2 12.6-9.3 9.5-7.1 18.9-14.1 28.3-21.2 1.4-1.1 2.7-2.1 4.7-2.2 2.1.1 4 1.1 4.8 3.6.8 2.4-.7 3.9-2.3 5.1-13.5 10.1-27 20.3-40.5 30.4m67 20.7c-.5-.3-.5-.8-.4-1.3.2-.5-.1-1-.6-1.2-1.6-.7-4-1.6-5.7-2.3-.4-.2-.7-.7-.5-1.2.9-3.2.9-6.3-2-8.5-3.3-2.5-6.4-1.3-9.4 1-6.7 5-13.6 9.8-20.4 14.7-1.1.8-2.3 1.6-3.7 1.4-.8-.2-1.2-1.1-.6-1.7.8-1 1.9-1.5 2.9-2.2l25.1-18.9c2-1.6 4.5-3.1 3.3-6.5-1.1-3.3-3.7-4.5-6.7-4.5-2.5 0-4.5 1.3-6.5 2.7-8.6 6.4-17.2 12.7-25.8 19.1h-.1c-1.1.7-2.3-.9-1.2-1.7l.5-.4 30.8-24.2c3.5-2.8 4.5-4.9 3.1-8-1.4-3.2-4.9-4.5-8.5-3.1-2 .8-7.5 5.4-9.5 6.8-4.4 3.2-9.3 7-13.6 10.2-.7.5-1.3 1.2-2.1 1.6-.9.5-1.9-.6-1.3-1.4.4-.6 1.1-1 1.7-1.4 8.4-6.3 16.7-12.6 25-18.9 4.1-3 4.9-5.5 3.1-8.5-1.9-3.3-6-4.4-9.4-2-5.8 4.1-11.5 8.5-17.3 12.7-.5.4-1 .9-1.8 1.2-.6.2-1.2-.3-1.2-.9-.4-6-1.2-12-.9-18 .1-1.7 1.3-1.7 2.3-1.7 10 .3 20.6-.5 30.1-1.2 1-.1.8-.4 1.4-1.9.9-2.4.9-2.9 2.6-5.4 1-1.4 2-.5 3.1-1.2l.3-.3c.7-1.2.8-2.6.4-4.1-.7.1-.6.1-.6 0 0 .4-.1.7-.1 1 0 1-.6 1.9-1.7 2-.7.1-1.4.2-2.1.1-3.2-1.1-2.5 8.3-6 8.3l-18 .9h-8c-5.4 0-5.4 0-5.5 6.1 0 .4.1.9 0 1.4-.2.5-.8.7-1.3.5-4.3-1.8-8.8-2.5-13.5-1.1v.1l.5.5c.2.2.5.3.7.3 3 .1 6.1-.2 9.1.5 3.3.8 5.1 3.1 5.4 6.7.1 1.1 0 2.1.2 3.1.7 4.3-.7 7.2-4.3 9.4-3.1 1.9-6 4.3-9.1 6.7-.6.5-1.5.1-1.6-.7-.3-2 .1-3.8-.3-5.6h-1.1c-.1.7-.2 1.5-.1 2.3.4 4-.2 7.3-4 9.3-2.3 1.2-3.4 3.9-3.3 6.9l2.2 3.7c4.6 2.5 8.8-.2 12.9-4.3 1.4-1.4 3-2.7 4.8-3.3 1.2-.4 2.1-2.5 4.1-.6-3.3 2.5-6.5 4.8-9.6 7.3-5.8 4.5-5.7 8.8.4 12.5.1.1.3.1.4.2 1.9.1 3.8-.5 5.8-1 .8-.2 1.5.6 1.1 1.3-1 2.1-2.6 3.8-2.1 6.3l.5 1.7c0 .1.1.2.2.3 3.6 4.5 8.3 1.7 12.4 1.6.2 1.1-.2 1.4-.6 1.7-2.6 1.6-4.3 3.8-3.2 7.3 1 3.4 3.5 4.8 6.8 4.9.7 0 1.4.1 2.1.2h.5l2.3-.9v-.1l-.6-.3 9.7-7.2c4.3-3.1 8.7-6.2 13-9.3 6.2-4.4 8.9-4.5 13.2-.7.2.2.5.3.7.3.6 0 1.7 0 1.1-.1" fill="#fff" fill-rule="nonzero"/><path fill="#2d3853" fill-rule="nonzero" stroke="#fff" d="M130.95 59.88h1.74v.77h-1.8zm0-5.1h1.74v5.1h-1.8z"/><path fill="#2d3853" fill-rule="nonzero" stroke="#fff" d="M130.95 53.9h1.74v.9h-1.8z"/><path fill="#2d3853" fill-rule="nonzero" stroke="#fff" d="M130.95 50.7h1.74v3.2h-1.8z"/><path d="M130.26 60.27v.38h.7v-.77h-.82c.05.12.1.25.12.4" fill="#2d3853" fill-rule="nonzero"/><path d="M130.26 60.27v.38h.7v-.77h-.82c.05.12.1.25.12.4z" fill="none" stroke="#fff"/><path fill="#2d3853" fill-rule="nonzero" stroke="#fff" d="M123.33 53.9h7.62v.9h-7.62zm6.52 5.98v.77h.4v-.38c0-.14-.06-.27-.1-.4h-.3z"/><path d="M129.85 59.88h.3l-.03-.05-.02-.02-.78-.3-.4 3.1c.48 1.7-.36 2.7-1.25 3.4-.42 2-.96 3.8-1.65 5.6v.1c.53.4 1 1.1 1.4 2.1v.1c-.92.8-1.27 2.1-1.27 3.7 0 3.3-2.14 5.3-4.45 6.3h-.02l-8.87.4c-4.6.1-9.1.9-13.3 1.1V87c0 .05 0 .1.1.1 1.6 0 1.6 0 3.2-.07l11.8-.36-.5-.2h-3.3c1.3-.3 2.4-.26 3.3 0h4.7v.07l1.5-.03c5.2-.1 7.7-2.7 7.8-8.4 0-.6.2-1.2.2-1.7.7-.2 1-.1 1.2.2.2-5.1 1.2-10.3 1.3-15.5v-.2h-.4V60z" fill="#fff" fill-rule="nonzero"/><path d="M114.33 86.54l.24.1c1.5.7 2.88 4.3 3.36 4.97h.6l-.1-5.1-4.1.1z" fill="#fff" fill-rule="nonzero" stroke="#fff"/><path d="M118.54 91.53c-.2 0-.4.02-.6.08.03.1-.1.1.6 0zm-4.2-5l4.1-.1v-.08h-4.7c.2.05.4.12.6.2zm-3.9-.2h3.3c-.9-.24-2-.3-3.3 0z" fill="#2d3853" fill-rule="nonzero" stroke="#fff"/><path d="M106.4 202.68c-.04-2.64-.37-5.18-1.9-7.35l-.6.93c2.04 6.1 1.4 12.43 1.33 18.7.45.13.9.24 1.37.33-.07-.5-.08-1.1-.05-1.8.15-3.6-.08-7.3-.14-10.9m-3.1-7.3l.7.9.6-1-.5-.8-.7.8m-7.6-5.9h-.1l-.3 1.3-2.2-.4c3.8.6 7.2 2.2 10.3 4.9l.7-.9c-1.9-3-5-3.6-8.2-5.1" fill="#fff" fill-rule="nonzero"/><path d="M95.17 190.9l.36-1.34c-.86.3-1.7.62-2.55.94.73.12 1.46.26 2.2.4M62.08 111l-.08-.1c-1.02.87-.74 2.14-.73 3.26.04 5.98.13 11.97.2 17.96.38 0 .74 0 1.1-.02l.32-20.22c-.3 0-.5-.02-.8-.04L62 111" fill="#fff" fill-rule="nonzero"/><path d="M62.15 111.84l.74.04-.9-.88v.84z" fill="#413f3d" fill-rule="nonzero" stroke="#fff"/><path d="M131.36 60.27h.9-.9z" fill="none" stroke="#fff"/><path d="M158.58 214.2l-1.02.17c-.03 0-.03.05-.06.05h-51.7c-.3 0-.55.28-.55.62 0 .34.24.6.55.6h52.48c.3 0 .56-.26.56-.6v-.7l-.26-.13z" fill="#fff" fill-rule="nonzero"/><path d="M131.97 172.16V58.42" fill="none" stroke="#fff" stroke-miterlimit="100" stroke-dasharray="10 3 1 3"/><path d="M104.57 86.34l8.22 8.7m-2.9-2.97l4.6-6.05m42.4.32l-6.9 9.23m2.5-3.33l-5-4.9m-21.7-6.42l-24.1 1.44v2.6m15.9-3.53v2.6m-5.7-2.45v3.38M109 81.8v2.96m-2.5-2.56v3.4m-2.7-3.24v3.4m33.6-4.6l25.05 1.36v2.57m-19.67-.9l-.2-2.8m3.43.1v2.6m5.8-2.5V85m2.9-3.2v3m2.5-2.87v3.4m2.7-3.2v3.4" fill="none" stroke="#fff" stroke-width=".5"/><path d="M125.8 62.22h2.86l3.3-2.9h-9.28l3.12 2.9z" fill="#fff" fill-rule="nonzero" stroke="#fff" stroke-width=".5"/><path d="M112.93 66.22h4.28m-2.1-3.97c-1 0-1.9.9-1.9 2 0 1.08.9 1.97 1.9 1.97s1.9-.9 1.9-1.98c0-1.1-.8-2-1.9-2zm0 3.97l-1 17.83m1.1-17.83l1.3 17.7m7.3-24.55l-6.7 5.4m34.4 1.45H147m2.14-3.97c-1.1 0-1.95.9-1.95 2 0 1.08.8 1.97 1.9 1.97s1.9-.9 1.9-1.98c0-1.1-.9-2-1.9-2zm0 3.97l1.04 18.1m-1.07-17.68l-1.3 17.68m-7.3-24.95l6.9 5.43" fill="none" stroke="#fff" stroke-width=".5"/><path fill="#fff" d="M130.32 40.07h3V59.8h-3z"/><path d="M131.82 59.82v-28.7" fill="none" stroke="#fff"/><path d="M124.8 78.52c-.64 0-1.16.54-1.16 1.2 0 .67.52 1.2 1.16 1.2.64 0 1.16-.53 1.16-1.2 0-.66-.52-1.2-1.16-1.2zm14.48 0c-.64 0-1.16.54-1.16 1.2 0 .67.52 1.2 1.16 1.2.65 0 1.17-.53 1.17-1.2 0-.66-.52-1.2-1.17-1.2zm-14.74 0l4.38-16.36m6.18 0l4.18 16.36" fill="none" stroke="#fff" stroke-width=".5"/><path d="M153.57 103.15l6.5-2h-6.23l-.27 2z" fill="#fff" fill-rule="nonzero" stroke="#fff" stroke-width=".5"/><path d="M153.15 101.16h6.92V104m-7.6-4.65l6.7.18m-.17-.03v1.76m-1.55-1.76v1.76m-1.37-1.66v1.76m-1.25-1.96v1.76" fill="none" stroke="#fff" stroke-width=".5"/><path d="M104.57 100.67l6.5 1.98-.26-1.98h-6.2z" fill="#fff" fill-rule="nonzero" stroke="#fff" stroke-width=".5"/><path d="M110.64 100.67h-5.98v2.83m7.56-4.5l-7.08.17m-.18-.17v1.76m5.68-1.86v1.77m-1.4-1.67v1.76m-1.4-1.76v1.76m-1.67-1.46v1.77M131.5 59.4l-2.75 2.76" fill="none" stroke="#fff" stroke-width=".5"/><path d="M134.65 62.22h2.86l3.2-2.9h-9.3l3.3 2.9z" fill="#fff" fill-rule="nonzero" stroke="#fff" stroke-width=".5"/><path d="M149.08 81.8v2.25m-34-2.55v2.8m5.87-3.08v2.7" fill="none" stroke="#fff" stroke-width=".5"/><path d="M131.97 89.8c-.7 0-1.25.52-1.25 1.16 0 .64.56 1.16 1.25 1.16.7 0 1.25-.52 1.25-1.16 0-.64-.56-1.16-1.25-1.16" fill="#fff" fill-rule="nonzero"/><path d="M131.97 89.8c-.7 0-1.25.52-1.25 1.16 0 .64.56 1.16 1.25 1.16.7 0 1.25-.52 1.25-1.16 0-.64-.56-1.16-1.25-1.16z" fill="none" stroke="#fff"/><path d="M131.97 123.3c-.7 0-1.25.52-1.25 1.16 0 .64.56 1.16 1.25 1.16.7 0 1.25-.52 1.25-1.16 0-.64-.56-1.16-1.25-1.16" fill="#fff" fill-rule="nonzero"/><path d="M131.97 123.3c-.7 0-1.25.52-1.25 1.16 0 .64.56 1.16 1.25 1.16.7 0 1.25-.52 1.25-1.16 0-.64-.56-1.16-1.25-1.16z" fill="none" stroke="#fff"/><path d="M131.97 158.3c-.7 0-1.25.53-1.25 1.17 0 .64.56 1.16 1.25 1.16.7 0 1.25-.52 1.25-1.16 0-.64-.56-1.16-1.25-1.16" fill="#fff" fill-rule="nonzero"/><path d="M131.97 158.3c-.7 0-1.25.53-1.25 1.17 0 .64.56 1.16 1.25 1.16.7 0 1.25-.52 1.25-1.16 0-.64-.56-1.16-1.25-1.16z" fill="none" stroke="#fff"/><path d="M126.78 89.43l.93 2.15 1-2.15h.5v2.64h-.3v-1.03l.1-1.1-.9 2.13h-.3l-.9-2.13.1 1.1v1.03h-.4v-2.64h.5zm9.84 36.13c-.1.13-.23.22-.4.3-.18.05-.38.08-.6.08-.24 0-.44-.05-.62-.15-.18-.1-.32-.3-.42-.5-.1-.2-.15-.4-.15-.7v-.3c0-.4.1-.7.3-.9.2-.2.48-.4.84-.4.3 0 .54 0 .72.2.1.1.2.3.3.6h-.4c-.1-.4-.3-.6-.7-.6-.3 0-.5.1-.6.2-.2.2-.2.4-.2.7v.2c0 .2 0 .5.2.7.1.1.3.2.6.2h.3c.1 0 .2-.1.2-.1v-.6h-.7v-.3h1v.9zm-9.56 35.54v-2.63h.93c.3 0 .5.06.7.17.1.12.2.3.2.53 0 .12-.1.23-.1.33-.1.1-.2.17-.3.22.1.04.2.1.3.23.1.1.1.24.1.4 0 .23-.1.42-.3.55-.2.14-.4.2-.7.2h-1zm.38-1.23v.95h.62c.17 0 .3-.04.4-.12.1-.1.16-.2.16-.35 0-.32-.2-.48-.56-.48h-.62zm0-.28h.56c.17 0 .3-.1.4-.2.1-.1.14-.2.14-.3 0-.2-.04-.3-.13-.4 0-.1-.2-.1-.4-.1h-.5v.8z" fill="#fff" fill-rule="nonzero"/><path d="M263.14 136.2c-.02.37-.02.78-.03 1.22 0 .8 0 1.74-.1 2.66l-.2 3.06c-1.6-4.72-4.3-7.77-7-9.73v-1c0-3.2-.1-6.3-.3-9.4 1.3.9 2.4 1.9 3.4 3 1.6 1.8 2.9 4.1 3.8 6.7l.1.3h.1l.5 1.7v1.8zm-1.06 13.28l-.15 1.2c-.1.78-.2 1.68-.38 2.56l-.57 3.22c-.5-2.23-1.24-4.16-2.23-5.83-1.03-1.74-2.3-3.28-3.76-4.6.3-3.55.6-7.13.7-10.75 2.8 2.4 5.7 6.3 6.6 12.56l-.3 1.64zm-2.37 12.97l-.2 1.05c-.2.84-.4 1.8-.7 2.73l-.8 2.97c-.6-4.97-2.7-8.5-4.9-10.96.7-3.4 1.3-6.88 1.8-10.38 1.1 1.06 2 2.26 2.8 3.57 1.2 2.03 2 4.48 2.4 7.28l.1.4h.1c.1.6.1 1.2.1 1.7l-.4 1.7zm-3.1 11.24l-.6 1.7c-.3.9-.7 2.2-1.2 3.4l-1.2 3c0-2.2-.3-4.2-1-6.2-.6-1.9-1.6-3.7-2.7-5.3 1.1-3.4 2.1-6.9 2.9-10.4 2.4 2.9 4.4 7.3 4 13.6m-4.7 10.7c0 .6-.1 1.2-.2 1.6l-1.4 3.2-2.3 4.6c.1-1.1.1-2.1.1-2.9-.1-1.9-.3-3.3-.7-4.6-.5-1.5-1.1-3-1.9-4.3 1.4-3.2 2.7-6.5 3.8-9.9.8 1.2 1.5 2.6 2 4 .8 2.4 1.1 5 .9 7.6v.3h.1zm-5.6 10.5c-.1 1-.4 2.1-.7 3.1-.2.5-1.4 2.6-2.8 4.6l-1.7 2.8c1-5.2 0-9.3-1.3-12.1 1.8-3.1 3.4-6.3 4.9-9.6.5.9.9 1.9 1.2 3 .5 1.5.7 3.1.8 5 0 .7 0 1.8-.1 2.9m-7.2 12.1l-.1.3h.1l-.5 1.6-1 1.4-1.4 1.9-.9 1.1c-.6.8-1.3 1.7-1.9 2.4l.1-.3c.2-.8.4-1.6.6-2.6.3-1.6.3-3.1.2-4.6-.1-1.6-.5-3.1-1-4.6 2.1-2.9 4-5.9 5.8-8.9 1.1 2.8 1.8 6.9.4 12M133 252c-66.7.2-120.5-53.6-120.5-119.96s53.64-120 120-120S252.6 66 252.6 132.36 198.76 252.5 132.4 252.5m97.8-33.24l-1.1 1.27-2.65 2.76-2.3 2.3c.9-1.9 1.4-4 1.5-6.1.2-2 .1-3.9-.4-6 2.4-2.7 4.6-5.5 6.8-8.4 1 3.6 1.2 8.4-1.7 14m-6.7 3.8c-.3 1.1-.8 2.3-1.5 3.7l-.1.3h.1l-.9 1.5s-.5.5-1.2 1.1l-2.94 2.6c-.8.7-1.6 1.4-2.4 2 .5-.9.9-1.8 1.2-2.6.6-1.5.9-3 1.1-4.5.2-1.5.2-3.1 0-4.7 2.6-2.4 5-5 7.4-7.6.1.4.1.9.2 1.3.1 1 .1 2.1 0 3.2s-.3 2.3-.6 3.5m-13 14.2l-4.5 3.1c-.7.5-1.5 1-2.1 1.4l-.5.4c.4-.6.8-1.3 1.2-1.9.6-1 1.1-2.2 1.5-3.7.6-2.1.8-4 .8-5.9 2.9-2.2 5.6-4.5 8.3-6.9.1 1.1.1 2.1-.1 3.2-.2 1.7-.6 3.4-1.3 4.9-.7 1.8-1.8 3.5-3.2 5.2m-9.5 5.7l-.2.2.1.1-1.1 1.3-4.9 2.8-2.7 1.4c.7-.7 1.2-1.5 1.7-2.3.8-1.3 1.4-2.6 2-4.3.5-1.5.8-3.1.9-4.6 3.1-1.9 6-3.9 8.8-5.9-.1 3.3-1.2 7.2-4.3 11.1m-13.1 7.9c-.4.2-2.7 1.2-5 2.2l-3 1.2c3.5-3.5 5.1-7.3 5.7-10.6 3.2-1.6 6.4-3.3 9.5-5.1-.2 1-.4 2.1-.7 3.1-1.1 3.3-3.3 6.4-6.5 9.1m-10.8 4l-.3.2h.1c-.4.3-.9.6-1.3 1h-.1l-1.6.5c-.3.1-.7.2-1.1.4l-2.5.8-2.9.8c3.9-3.2 5.8-6.8 6.7-10 3.3-1.2 6.6-2.5 9.7-4-.3 1.5-.9 2.9-1.6 4.2-1 2-2.6 4-4.9 5.9m-14.5 5l-1.6.4-1 .2c-.8.2-1.7.5-2.7.6l-3.2.6c1.9-1.2 3.4-2.6 4.7-4.1 1.3-1.5 2.3-3.3 3.1-5.1 3.5-.8 7-1.8 10.3-3-.3 1-.7 2-1.3 3-.4.8-.9 1.5-1.3 2-.5.7-1.1 1.4-1.8 2-1.7 1.6-3.3 2.7-5 3.6m-11.1 1.6l-.3.2v.1l-1.5.7-2.7.3c-.9.2-1.9.3-2.9.3l-3.1.3c4.5-2.3 7.1-5.5 8.6-8.4 3.5-.5 7-1.1 10.4-1.9-.6 1.3-1.4 2.6-2.4 3.8-1.5 1.8-3.6 3.4-6 4.7m-15.2 2l-1.6.1H133c-.3 0-.7 0-1-.1l-3.2-.1c2.1-.8 4-1.8 5.5-3.1 1.6-1.3 2.9-2.8 4-4.4 3.6-.2 7.2-.5 10.7-.9-1.9 3.2-5.3 6.6-11.4 8.4m-11.3-1l-.3.1v.1c-.5.12-1.1.3-1.6.4l-1.7-.18-1.2-.1c-.8-.1-1.7-.1-2.6-.3l-3.05-.4c4.8-1.3 8-3.94 10.08-6.5 2.4.15 4.8.2 7.3.2h3.2c-.9 1.2-2 2.3-3.1 3.3-1.9 1.42-4.2 2.6-6.9 3.42m-15.3-1.1l-1.6-.3c-.4 0-.8-.1-1.2-.2-.8-.1-1.7-.3-2.6-.5l-3.14-.7c2.2-.38 4.2-1 5.9-1.9 1.7-.96 3.3-2.16 4.7-3.55 3.5.6 7.1 1 10.7 1.25-2.5 2.7-6.6 5.4-12.9 5.9m-10.8-3l-.3.1h-2l-2.5-.7c-.9-.3-1.9-.6-2.9-1l-2.9-1c5-.34 8.64-2.3 11.2-4.36 3.36.9 6.8 1.7 10.3 2.3-1.16 1-2.4 1.8-3.74 2.5-2.1 1.1-4.6 1.8-7.4 2m-15-4.1l-1.6-.6c-.9-.3-2.2-.8-3.5-1.4l-3-1.34h.8c1.8 0 3.6-.2 5.4-.7 1.95-.6 3.75-1.4 5.4-2.5 3.35 1.3 6.8 2.4 10.2 3.4-2.5 1.8-6.1 3.4-10.85 3.4-1 0-2-.1-2.9-.2m-9.9-5l-.3-.1c-.6-.1-1.2-.2-1.7-.3l-1.6-.82c-1-.43-2.2-1.13-3.4-1.83l-2.7-1.5c.9.1 1.9.2 2.9.2 1.7 0 3.2-.2 4.6-.5 1.5-.3 3-.9 4.4-1.7 3.1 1.6 6.3 3.1 9.6 4.4-1.3.8-2.7 1.3-4.1 1.7-1.7.5-3.3.7-5 .7-.8 0-1.7 0-2.6-.2m-13.6-7c-.4-.3-2.5-1.6-4.5-3l-1.2-.8-1.5-1.1c1.7.4 3.4.6 5 .6 2.4 0 4.8-.5 7.1-1.4 3 1.93 6.1 3.7 9.3 5.4-1 .43-2 .8-3 1.1-1.4.3-2.8.44-4.3.44-2.3 0-4.5-.4-6.8-1.2m-9-7.1c-.6-.2-1.2-.4-1.6-.6l-1.4-1-3.2-2.7-2.2-1.9c2.3.8 4.6 1.2 6.8 1.2 1.8 0 3.6-.3 5.3-.8 2.8 2.2 5.7 4.2 8.6 6.2-1.8.6-3.6.9-5.5.9-2.1 0-4.2-.4-6.4-1.1l-.3-.2zM41 225.2l-.4-.3-.8-.9-2.66-2.8c-.8-.9-1.6-1.8-2.2-2.4.75.3 1.45.6 2.1.8 1.3.4 2.6.7 3.9.9.9.1 1.85.2 2.7.2h.8l2.46-.3c2.5 2.5 5.2 4.9 8 7.1-1 .28-2.1.4-3.2.4H51c-1.5 0-3-.1-4.6-.5-1.7-.4-3.6-1.2-5.6-2.3m-7.4-8.8l-.04.05-1.48-.97-.3-.35-3.23-4.1c-.6-.8-1.1-1.5-1.6-2.2l-.2-.3c.86.5 1.7 1 2.5 1.3 1.5.6 3 1 4.47 1.3 1 .2 2.1.3 3.1.3.5 0 1-.1 1.53-.1 2.3 2.7 4.66 5.3 7.15 7.72-.64.1-1.3.2-2 .2-.8 0-1.63-.1-2.5-.2-1.14-.2-2.33-.5-3.5-.8-1.2-.4-2.4-1-3.7-1.8l-.25-.2zM23.7 205l-3-4.6c-.5-.8-.94-1.56-1.34-2.3l-.37-.54c3.5 2.6 7.3 3.96 11.4 4.06 2 2.94 4.2 5.8 6.4 8.6h-.3c-1 0-2-.08-2.9-.25-1.9-.32-3.5-.82-4.9-1.54-1.9-.9-3.6-2.07-5.1-3.45m-5.3-9.82l-.3-.2c-.4-.4-.9-.8-1.2-1.2l-2.6-5.04-1.3-2.85c.7.65 1.4 1.25 2.2 1.8 1.1.8 2.4 1.5 4.1 2.2 1.5.56 3 .93 4.5 1.13 1.7 3.08 3.5 6.1 5.4 9.03-4-.32-7.6-1.97-11-4.9M11 181.67l-.6-1.6-.5-1.1c-.3-.75-.62-1.6-.92-2.44l-1.1-3.1c1.5 1.7 3.1 3.05 4.8 4 1.7 1.03 3.6 1.77 5.5 2.2 1.4 3.35 2.9 6.6 4.6 9.8-1.1-.2-2.1-.5-3.1-.9-1.7-.66-3.2-1.5-4.5-2.5-1.3-1.04-3-2.47-4.3-4.37m-3-10.6l-.2-.27c-.4-.5-.7-.9-1-1.5l-.5-1.7-.3-1.2c-.2-.8-.5-1.7-.7-2.6l-.6-3c3 4 6.5 6.1 9.6 7.2 1.1 3.3 2.2 6.7 3.5 9.9-1.4-.4-2.8-1-4.1-1.8-2-1.1-3.8-2.9-5.6-5.2m-4.6-16.3c0-.3-.1-.7-.17-1-.2-.9-.3-1.8-.4-2.8l-.4-3.3c1.1 1.9 2.4 3.5 3.9 4.9 1.5 1.3 3.2 2.4 5 3.2.7 3.6 1.6 7.1 2.5 10.5-3.4-1.4-7.3-4.3-10-10l-.3-1.7zM2 143.5l-.13-1.77-.08-1.07c-.1-.85-.2-1.83-.2-2.8l-.1-3.07c2 4.5 5.1 7.3 7.9 8.9.3 3.5.8 7 1.4 10.4-1.3-.7-2.6-1.6-3.7-2.6-1.8-1.7-3.3-3.8-4.5-6.3l-.2-.3c-.3-.6-.5-1.2-.6-1.6m-.4-15.1V127c0-.8 0-1.7.1-2.6l.2-3.24c.7 2.16 1.6 4 2.8 5.57 1.2 1.6 2.6 3 4.2 4.2l-.1 1.2c0 3.2.1 6.4.3 9.54-3.1-2.1-6.4-5.68-7.8-11.83v-1.68zm1-13.2l.1-1.2c.1-.8.2-1.8.4-2.7l.5-3c1.1 4.9 3.6 8.2 6 10.4-.3 3.4-.6 6.9-.7 10.5-1.1-1-2.2-2.1-3.1-3.3-1.4-1.9-2.4-4.3-3.2-7v-.3c-.1-.5-.2-1.1-.3-1.7l.2-1.8zm2.5-13l.2-1c.2-.8.4-1.8.6-2.7l.9-3.2c.2 2.2.8 4.2 1.6 6 .8 1.8 2 3.5 3.3 4.9-.8 3.5-1.4 7-1.8 10.6-2.6-2.7-5.1-6.8-5.3-13.2l.3-1.6zM8 91l.7-2c.35-1 .76-2.2 1.25-3.38l1.2-2.9c.1 5 1.8 8.76 3.8 11.44-1.05 3.3-2 6.7-2.8 10.14-.9-1.16-1.7-2.43-2.35-3.8-.94-2.24-1.5-4.76-1.6-7.5v-.3l-.1-.03c0-.6.04-1.2.07-1.7M13 78.7l1.43-3.18 2.42-4.73c-.18 2-.06 4.1.36 6.2.5 1.9 1.3 3.8 2.3 5.5-1.4 3.2-2.7 6.6-3.9 10-.6-.9-1.1-1.9-1.5-2.9-.6-1.4-1-3-1.2-5-.1-1-.1-2-.1-3 .1-1 .2-2 .4-3.2m5.5-9.6h.7l-.7-.4.4-1.7.9-1.5c.4-.7 1-1.5 1.5-2.4l1.3-2.1.9-1.4-.3 2.8c-.1 1.7 0 3.2.3 4.6.3 1.5.8 3 1.5 4.5-1.8 3.1-3.4 6.2-4.9 9.4-.7-1.4-1.2-2.8-1.5-4.2-.5-2.6-.5-5.2-.1-7.6m7.7-13.3l1-1.4c.4-.5.9-1.2 1.5-1.9l.9-1.2 2.1-2.6c-1.5 5-.8 9.2.2 12.1-2 2.9-4 5.9-5.8 9-.4-1-.7-2.1-.9-3.1-.6-3.8-.2-7.5 1.2-11.1m7.4-8.2l.1-.3H34c.2-.6.5-1.2.7-1.6l1.1-1.3 4.16-4.3.78-.8c-1.9 4.7-1.8 8.8-1 12.1-2.3 2.6-4.5 5.4-6.6 8.2-.4-1.5-.6-3-.6-4.5 0-2.8.5-5.2 1.5-7.5m7.52-6c.54-1.8 1.4-3.7 2.6-5.6 0 0 .5-.5 1.3-1.1l2.9-2.5c.8-.8 1.73-1.5 2.5-2.1-.4.7-.7 1.4-1 2-.5 1.2-.9 2.5-1.1 3.8-.4 2-.46 4-.2 5.9-2.63 2.4-5.15 5-7.55 7.7-.2-1-.3-2.1-.3-3.2.1-1.6.3-3.4.8-5M53 29l.2-.3v-.03c.4-.5.7-1 1.1-1.4l1.4-1 3.2-2.3c.8-.6 1.6-1.1 2.3-1.5l.38-.3L60 24.7c-.7 1.4-1.2 2.9-1.5 4.4-.4 1.5-.5 3.1-.5 4.7-2.8 2.14-5.5 4.4-8.1 6.75-.1-1.43 0-2.93.3-4.5.2-1.2.5-2.4 1-3.44.5-1.2 1.1-2.4 1.9-3.6m12.1-9l4.7-2.7 2.9-1.5c-3.2 3.9-4.4 7.8-4.6 11.2-3.1 1.9-6.1 3.9-9 6.1 0-1 .1-2.1.4-3.2.4-1.8 1-3.4 1.8-4.8 1-1.8 2.2-3.4 3.7-4.9m10.1-4.7l.2-.2h-.1c.4-.4.9-.8 1.3-1.1 0 0 2.6-1.2 5.1-2.3l2.9-1.1c-2 1.9-3.4 3.9-4.3 6.1-.7 1.5-1.1 3-1.4 4.5-3.2 1.5-6.3 3.2-9.3 5 .4-3.3 1.9-7.1 5.4-10.7m14-6.8l1.6-.6 1.1-.3c.8-.2 1.6-.5 2.5-.8l3.1-.9c-1.8 1.5-3.2 3-4.3 4.6-1.1 1.7-1.9 3.5-2.4 5.4-3.4 1.3-6.7 2.6-9.9 4.1.3-1 .6-2 1-3 .7-1.6 1.6-3 2.7-4.3 1.1-1.2 2.7-2.8 4.6-4m11-2.6l.3-.2v-.1l1.5-.8 1.7-.4 1.1-.2 2.7-.6 3-.5c-4.2 2.8-6.4 6.2-7.7 9.3-3.4.9-6.8 1.9-10.1 3 .5-1.4 1.2-2.8 2.1-4 1.3-1.9 3.2-3.7 5.5-5.4M115 2.8s2.3-.3 2.62-.33c.85-.1 1.8-.22 2.8-.3l3.25-.23c-2 1.08-3.7 2.28-5.1 3.6-1.4 1.48-2.6 3.1-3.5 4.8-3.6.5-7.12 1.2-10.6 2 1.6-3.32 4.66-7.1 10.53-9.5m11-.54l.3-.1v-.1c.57-.2 1.12-.4 1.6-.53l1.75-.04 1.14-.03h2.7l3 .1c-4.6 1.82-7.5 4.73-9.4 7.5-3.6.13-7.1.4-10.5.85.8-1.27 1.7-2.46 2.8-3.53 1.7-1.65 3.9-3.04 6.4-4.1m15.3-.5l1.6.14 1.2.1c.8.04 1.7.1 2.6.24l3.2.4c-2.2.62-4.1 1.45-5.8 2.53-1.7 1.1-3.2 2.47-4.4 4-2.5-.15-5-.23-7.5-.23-1.1 0-2.2 0-3.3.04 2.2-2.95 6-6.05 12.2-7.2m11 1.84l.3-.06v-.05c.5-.08 1.1-.15 1.7-.2l1.7.3c.3.08.7.15 1.2.22.8.1 1.7.3 2.6.5l3 .7c-4.9.8-8.4 3.1-10.7 5.4-3.4-.6-6.9-1-10.5-1.3 1-1.1 2.2-2.1 3.4-2.9 2-1.3 4.4-2.2 7.2-2.8m14.6 2.6h.5l2.3.6c.9.3 1.9.5 2.9.9l3.2 1.1c-2.2.1-4.3.5-6.2 1.3-1.9.7-3.6 1.8-5.1 3-3.5-.9-7-1.7-10.5-2.4 2.7-2.4 6.8-4.6 12.8-4.6m11.3 4c.6 0 1.2.1 1.7.1l1.7.6c1.3.5 2.5 1 3.6 1.5l2.8 1.3h-.5c-.8 0-1.5 0-2.4.1-1.7.1-3.2.5-4.5 1-1.5.5-2.9 1.2-4.2 2.1-3.3-1.3-6.6-2.4-10-3.4 1.2-.9 2.6-1.6 4-2.2 2.2-.8 4.6-1.2 7.1-1.2h.7zm13.9 5.5l1.5.8c.9.4 2.1 1.1 3.3 1.8l2.8 1.6c-.7-.1-1.5-.2-2.3-.2l-.7-.1c-1.1 0-2.2.1-3.3.2-1.9.3-3.8 1-5.6 1.9-3.2-1.6-6.5-3.1-9.8-4.4.9-.6 1.9-1 2.9-1.4 1.4-.6 3-.9 5-1h2.9c1 .1 2.1.3 3.1.5m9.7 6.1v-.1c.6.1 1.2.3 1.7.5.5.3 2.6 1.7 4.6 3.1l1.2.8 1.3.9-.2-.1c-.9-.2-1.8-.3-2.6-.4-.7-.1-1.5-.1-2.2-.1-.8 0-1.6 0-2.4.1-1.6.2-3.1.7-4.6 1.3-3-1.9-6-3.6-9.2-5.3 2.3-1 4.7-1.6 7.3-1.6 1.5 0 3.1.2 4.7.5h.3zm12.5 8.2l1.3 1.1 3.3 2.9c.7.6 1.4 1.2 2 1.8-1.9-.7-4-1.1-6.1-1.2l-.8-.1c-1.6 0-3.3.3-5.1.8-2.8-2.2-5.7-4.3-8.7-6.3 1-.4 2.1-.6 3.1-.8.8-.1 1.6-.2 2.4-.2 2.9 0 5.9.7 8.6 1.9m8.3 8l.1-.1 1.5.8.4.5c.2.2.5.4.8.8l2.7 2.8c.7.6 1.4 1.4 2.1 2.3-2.3-1.1-4.7-1.7-7.2-1.9-.5-.1-.9-.1-1.4-.1-1.1 0-2.2.1-3.4.3-2.55-2.4-5.2-4.8-7.9-7 1.2-.3 2.4-.4 3.64-.4h.8c2.6.1 5.1.7 7.4 1.8l.3.1zm10.6 10.7l.3.4 3.1 4c.6.7 1.1 1.5 1.6 2.2l.3.4c-.7-.4-1.4-.8-2-1.1-1.2-.5-2.4-.9-3.8-1.3-1.5-.3-3-.5-4.5-.5-.5 0-1 0-1.5.1-2.3-2.8-4.8-5.4-7.3-8 .7-.1 1.3-.1 2-.1.4 0 .8 0 1.2.1 1.6.1 3.3.4 5 1 1.8.7 3.6 1.7 5.4 2.9m6.2 9.3l.2.2v-.1c.5.3.9.7 1.4 1.1l3 4.7 1.6 2.7c-.8-.6-1.6-1.1-2.4-1.6-1.3-.7-2.8-1.3-4.3-1.8-1.3-.4-2.6-.6-4-.7h-.7c-2-2.9-4.1-5.8-6.3-8.5h.3c3.8 0 7.6 1.3 11.1 3.8m8.5 12.8l2.5 4.9 1.4 3c-3.8-3.5-7.7-4.8-10.9-5.2-1.7-3.2-3.6-6.2-5.5-9.2 1 .1 2.1.2 3.1.5 3.44.9 6.6 2.9 9.4 6m4.7 10.7h.03c.4.4.8.9 1.02 1.3l.62 1.6c.1.4.22.7.4 1.1.3.8.7 1.7 1 2.6l1 2.9c-1.9-2-3.8-3.6-5.9-4.6-1.5-.7-3-1.3-4.48-1.6-1.4-3.3-2.9-6.5-4.5-9.6 3 .6 6.9 2.1 10.4 6l.2.2zm6 15.6l.3 1.1c.2.7.45 1.6.64 2.5l.7 3.2c-1.3-1.9-2.75-3.4-4.3-4.5-1.6-1.2-3.4-2.1-5.3-2.8-1-3.5-2.2-6.9-3.5-10.2 1 .3 2 .7 3 1.2l2.1 1.2c.7.6 1.4 1.1 2.02 1.8 1.1 1 2.7 2.6 3.8 4.7l.5 1.7zm1.84 9.6l.8 1.5.3 1.7.2 1.1c.13.9.3 1.8.4 2.8l.4 3.1c-2.5-4.4-5.9-6.8-8.9-8.2-.6-3.4-1.5-6.8-2.4-10.2 1.35.6 2.7 1.3 3.9 2.2 1.9 1.4 3.6 3.4 5.05 5.8l.2.2h.06zm2.8 17.5c.05.8.12 1.8.13 2.8l.1 3.2c-.9-2.1-2.06-3.8-3.3-5.3-1.4-1.5-2.9-2.8-4.6-3.8-.4-3.6-.8-7.2-1.5-10.7 3.3 1.8 6.9 5 8.97 11l.2 2.7m1.8 7.8l-.1-3.7c0-1.9-.1-4.3-.3-6.8l-.2-2.5-.3-2.6c-.3-2.4-.6-4.7-.9-6.5l-.6-3.7-.1-.5-.1-.4-.8-3.7c-.4-2-1.1-4.4-1.8-6.9l-.6-2.1-.4-1.1c-.9-2.8-1.8-5.5-2.7-7.6l-1.1-2.8c-.3-.7-.4-1.1-.5-1.1l-1.7-3.8c-.4-1.1-1-2.2-1.6-3.5l-.2-.4c-.2-.5-.5-1-.7-1.4-.5-1-1-2-1.6-2.9l-2.5-4.3-2.8-4.3c-.5-.7-.9-1.4-1.2-1.8l-.4-.6-2.7-3.7-2.5-3-1.5-1.9L233 46c-1.86-2.24-3.88-4.34-5.5-6.04l-.7-.7c-.5-.6-1.1-1.15-1.5-1.57l-.6-.6-.7-.7h-.1s-4.8-4.7-10.1-8.7l-2-1.5-3.3-2.3c-.8-.5-1.5-1.1-2.2-1.5l-3.5-2.2c-.1 0-1.4-.9-3.6-2.1l-1.1-.7c-.8-.4-1.6-.9-2.5-1.4l-4.4-2.3c-1-.5-2-.9-2.9-1.3-.5-.2-1-.5-1.5-.7-1.7-.8-2.9-1.3-3.9-1.7l-4.3-1.7-3.7-1.3c-2.2-.7-5.5-1.7-8.9-2.6l-2.3-.5c-2.4-.6-4.8-1.1-6.7-1.4l-3.8-.9v-.1h-.4l-.46-.1-3.7-.5c-1.9-.2-4.1-.4-6.5-.6l-2.7-.2h-2.7c-1.6 0-3-.1-4.4-.1-.7 0-1.5 0-2.1.1l-3.7.1h-.8l-3.7.3c-1.9.1-4.3.4-6.8.8l-2.4.3-2.4.5c-2.5.4-4.8.9-6.7 1.3l-3.7.9v-.1l-.5.1-.4.1v.1L93.6 6l-1.4.46-2.3.8c-1 .38-2.07.7-3.1 1.1l-5 1.64c-.96.36-1.9.78-2.7 1.16l-1.24.56L75.08 13l-.6.3h-.02l-.38.2-.42.2v.02l-3.32 1.7c-.8.4-1.7.9-2.62 1.44-.37.2-2.2 1.26-2.2 1.26-1.05.6-2.14 1.22-3.18 1.92L58.2 22.7l-3.5 2.48c-1.12.8-1.92 1.4-2.44 1.82l-.55.43-.4.37-.2.2-2.9 2.3-1.7 1.52c-1.6 1.37-3.4 2.93-5.1 4.62-1.9 1.76-3.7 3.6-5.2 5.24L34.8 43c-1.7 1.87-2.8 3.15-2.8 3.15l-.3.35c-1.68 1.76-6.13 7.6-7.9 10.23-.94 1.25-1.76 2.54-2.56 3.8l-.2.3-.8 1.36c-.5.8-1 1.5-1.4 2.2L17 67.6l-.3.54-.16.25-.34.6-1.4 2.7-.6 1.2c-.43.8-.9 1.7-1.32 2.6L10.86 80l-1.2 3.05-.6 1.5-.83 2.15L6 93.1c-.2.6-.5 1.67-1.03 3.6-.6 2.2-1.45 5.55-2.2 8.96l-.4 2.42c-.44 2.46-.86 4.78-1.05 6.66l-.4 3-.07.7H.7l-.03.43-.04.45-.27 3.7c-.2 1.8-.24 4-.3 6.3 0 .96-.03 1.93-.06 2.93l.07 2.9c.05 2.3.1 4.5.28 6.3l.3 3.7H.62l.04.46.04.5h.03l.08.7.4 3c.2 1.9.6 4.2 1.1 6.7l.5 2.4c.7 3.4 1.6 6.8 2.2 9 .5 2 .8 3 1 3.6l2.2 6.4.9 2.1.6 1.6c.4 1 .8 2.1 1.3 3.1l2 4.5c.4.9.9 1.8 1.3 2.6l.6 1.2 1.4 2.7.4.6.5.8 1.9 3.2c.4.8.9 1.5 1.5 2.3l.9 1.4.2.3c.8 1.3 1.7 2.6 2.6 3.8 1.8 2.6 6.2 8.5 7.9 10.2l.3.4s1.1 1.3 2.8 3.2c.4.4.8.9 1.2 1.3 1.6 1.7 3.3 3.5 5.2 5.3 1.7 1.7 3.6 3.3 5.2 4.7l1.8 1.5 3 2.3.4.4.3.2.5.4c.5.4 1.3 1 2.5 1.8l3.5 2.5 4.1 2.6c1.1.7 2.2 1.3 3.2 1.9l2.2 1.3c1 .6 1.8 1.1 2.7 1.5l3 1.4.4.2.4.2.7.3 2.8 1.3 1.3.6c.8.4 1.7.8 2.7 1.2l4.6 1.8c1 .4 2.1.8 3.1 1.1l2.3.8 1.4.4 5.5 1.6.5.1.4.2v-.1l3.7.9c1.8.5 4.1.9 6.6 1.3.8.2 1.6.3 2.4.4l2.4.3c2.5.3 4.9.6 6.8.7l3.7.2h.5l.4.1 3.7.1c.7.1 1.4.1 2.1.1 1.3 0 2.8-.1 4.3-.1l2.7-.1 2.7-.2c2.4-.2 4.7-.3 6.5-.6l3.7-.5h.5l.4-.1 3.7-.7c1.9-.3 4.2-.8 6.7-1.4l2.3-.5c3.4-.9 6.7-1.9 8.9-2.6l3.5-1.2 4.3-1.7c1.1-.4 2.3-.9 4-1.7l1.5-.7c1-.4 2-.9 3-1.4l4.4-2.2c1-.5 1.8-.9 2.6-1.4l1.2-.6c2.2-1.2 3.6-2.1 3.6-2.1l3.6-2.3c.6-.4 1.4-1 2.2-1.5l3.2-2.3 2-1.5c5.3-4 10.1-8.7 10.2-8.7l.1-.1.8-.7.6-.6c.4-.5 1-1 1.6-1.6l.7-.8c1.6-1.7 3.6-3.8 5.5-6l1.6-1.9 1.5-1.9 2.7-3.4 2.6-3.7.4-.6c.3-.5.7-1.1 1.2-1.8l2.8-4.4 2.4-4.2c.6-1 1.1-2 1.6-2.9l.8-1.5.2-.4c.6-1.2 1.2-2.3 1.7-3.4l1.7-3.8s.2-.4.45-1.1l1.1-2.8c.9-2 1.8-4.7 2.74-7.5l.4-1.1.6-2c.7-2.5 1.4-4.9 1.8-6.9l.8-3.6.1-.5.1-.5.7-3.7c.4-1.9.7-4.2 1-6.6l.3-2.6.2-2.4c.2-2.5.3-4.8.3-6.7l.1-3.7v-.9z" fill="#fff" fill-rule="nonzero"/><path d="M38.72 63.2l1.97.75c.9.33 1.5.57 1.9.7l1.9.7 1.2.47c.6.22 1.1.4 1.5.57v-.1c-.5-.7-1-1.3-1.3-1.7-1-1.3-1.8-2.4-2.5-3.3l-.6-.8c-.4-.5-.6-.8-.7-1.1l-.7.9-.6-.4 1.7-2.3.4.3c-.2.3-.3.5-.3.7 0 .2.1.4.2.7.1.3.4.7.8 1.3l1.4 2c1.6 2.1 2.8 3.8 3.6 5l-.2.3-8.3-2.9 5.2 7.1-.3.3-8.3-3-.6-.2c-.8-.3-1.3-.5-1.5-.6l-.4.7-.6-.4 2.1-2.8.4.3c-.2.3-.3.6-.3.8 0 .2.1.3.3.5.2.1.4.3.8.4.7.3 1.4.6 2.3.9l.5.2.7.2c.2.1.4.2.7.3l.6.2c.5.2 1 .3 1.3.5-.4-.6-.9-1.2-1.3-1.7l-2.1-3c-.9-1.2-1.4-2-1.7-2.2l.3-.4zm7.48-8.9c.92-.97 1.77-1.52 2.55-1.65.77-.13 1.5.12 2.15.73.54.5.88 1.08 1.04 1.77.15.68-.03 1.46-.55 2.34.2-.1.4-.1.6 0 .2 0 .5.1 1 .2l1.9.4c.4.1.7.1.9.2.2 0 .4 0 .7-.1.2-.1.4-.2.6-.4l.4.3-1.3 1.3c-.4 0-.7 0-1-.1L54 59l-1.9-.46-.38-.1-.8-.15-.6-.1c-.04.1-.1.2-.25.3-.16.2-.3.3-.4.4l2.25 2.1.9.9.68-.8.5.4-2 2.5-.37-.4c.22-.3.32-.5.3-.7-.02-.2-.1-.4-.24-.6l-.8-.8-5-4.7c-.4-.3-.6-.6-.8-.8l-.7.8-.5-.5 1.5-1.7.7-.8zm.4.44c-.24.24-.34.47-.33.67 0 .3.08.4.22.6.1.2.4.4.8.8l2.2 2.1.4-.4c1.3-1.4 1.3-2.7.1-3.8-.6-.5-1.2-.8-1.8-.7-.6.1-1.2.4-1.8 1zM62.8 40c-.28.2-.4.44-.4.7 0 .28.18.6.5 1l.22.25 4.82 5.34c.17.1.38.4.64.7l.78-.7.43.5-2.5 2-.4-.4c.2-.3.4-.5.3-.8-.1-.3-.2-.6-.5-1-.1-.2-.2-.3-.3-.4l-4.6-5v.2l.1.3 3.1 8.9-.3.2-1.9-1-3.8-2.1-3-1.8.4.5c1.8 2.4 3.2 4.2 4 5.2.1.1.1.2.2.3.2.2.4.5.6.8l.8-.7.4.5-2.1 1.7-.4-.4c.3-.3.4-.6.3-.8l-.5-1-5.1-6.8-.8.6-.5-.5 1.7-1.4 4.8 2.7c1.7 1 3 1.7 3.9 2.2l-.7-2c-.4-1-.8-2.2-1.2-3.4-.5-1.5-.9-2.7-1.3-3.8l1.6-1.4.3.4zm12.42 1.58c.24.18.48.4.73.62.24.24.42.45.53.63l.77-.6.4.6-2.74 1.78-.2-.4c.5-.3.6-.7.3-1.1l-.5-.5-1.2-.9-3 2.1.5 1.7c.2.4.3.7.3 1.1l.9-.6.4.6-2.3 1.4-.3-.4c.2-.1.4-.3.4-.4.1-.2.1-.4.1-.6 0-.2-.1-.5-.2-.9l-.1-.5-2.4-9 .3-.2 7.6 5.8zm-6.68-3.6l.48 1.8.67 2.44.2.78 2.7-1.8-2.5-1.97-1.6-1.28v.02zm7.06-6.6c1.18-.63 2.16-.88 2.94-.76.77.13 1.38.6 1.8 1.4.36.62.5 1.3.43 2-.08.7-.5 1.37-1.26 2.03.3.05.5.12.7.22.2.1.5.28.9.52l1.7 1c.4.2.7.4.9.5.2.1.5.1.7.1.3 0 .5-.1.8-.2l.3.4-1.5.8c-.3-.1-.6-.2-.9-.4l-1.1-.6-1.7-1-.3-.2-.8-.2-.5-.3-.3.2-.5.2 1.4 2.7.5 1.1.9-.6.3.6-2.9 1.6-.3-.5c.2-.2.4-.4.5-.6 0-.2 0-.4-.1-.6l-.5-1-3.3-6c-.2-.4-.3-.8-.5-1.1l-.8.5-.3-.6c.9-.5 1.5-.9 2-1.1l.9-.5zm.23.54c-.3.16-.47.34-.52.54 0 .2 0 .4.1.58l.5 1 1.5 2.67c.3-.1.5-.2.6-.2 1.7-.9 2.2-2.1 1.4-3.6-.4-.7-.8-1.1-1.4-1.3-.5-.1-1.2 0-2 .4zm8.45-4.26c-.3.15-.48.33-.55.53-.06.2-.05.4.02.6.07.2.22.5.45 1l2.8 6.1c.24.5.4.9.5 1.1l.9-.5.28.6-2.9 1.3-.23-.5c.3-.2.48-.4.55-.6.06-.2.05-.4-.02-.6-.07-.3-.22-.6-.45-1.1l-2.85-6.2c-.2-.4-.33-.7-.44-1l-.9.5-.3-.7 2.92-1.3.22.4zm10.8-4.26c-.26.12-.43.25-.53.4-.1.16-.12.33-.08.52.03.2.1.43.2.73l.2.5 3.08 8.3-.65.25-9.02-6.46 2.4 6.32c.25.66.42 1.15.52 1.48l.94-.42.24.65-2.44.9-.18-.48c.36-.2.55-.4.58-.6.03-.3-.02-.6-.14-.9l-3.02-8.1-.87.3-.2-.7 1.6-.6 8.9 6.3-2.5-6.8c-.1-.4-.3-.8-.3-1.1l-.9.4-.2-.7 2.5-.9.2.5zm9.32-.25l-.44.13c-.23-.84-.55-1.36-.96-1.58-.4-.2-.9-.23-1.48-.05l-1.18.35c-.32.1-.54.23-.65.4-.2.17-.2.37-.2.6 0 .25.1.6.2 1.1l.6 2.44 2.6-.7-.5-1.28.6-.16.8 3.2-.5.12c-.1-.37-.2-.65-.4-.82-.1-.18-.3-.28-.5-.3-.2-.02-.4 0-.7.1l-.4.13-1 .32.9 3.5c.1.5.2.9.2 1.2l2.6-.77c.6-.2 1.1-.5 1.3-.95.2-.44.2-1.1 0-1.95l.4-.13.7 3-7.1 1.92-.2-.5c.3-.1.6-.24.6-.43.1-.2.1-.4.1-.6l-.3-1.1-1.8-6.6-.3-1.1-1 .33-.2-.67 6.6-1.8.8 2.65zm8.7-4.73a4.7 4.7 0 0 1 1.3-.02c.44.06.87.2 1.27.44l-.16-.66.8-.1.5 3.43-.5.1c-.2-.8-.5-1.4-1-1.9s-1.1-.7-1.9-.5c-.5.1-1 .3-1.2.7-.2.4-.3.9-.3 1.4.1.4.3.8.5 1s.6.5.9.7c.4.2.8.4 1.4.6.7.3 1.3.5 1.7.7.4.2.8.5 1.2.9.4.4.6.9.7 1.5.1.6 0 1.1-.1 1.6-.2.5-.5.9-1 1.2-.4.4-1 .6-1.7.7-.4.1-.9.1-1.3 0-.5 0-.9-.2-1.3-.4l.2.7-.7.1-.5-3.3.6-.1c.2.9.6 1.6 1.1 2 .6.4 1.3.6 2.1.5.6-.1 1.1-.3 1.4-.7.4-.4.5-.9.4-1.5 0-.4-.2-.8-.5-1.1-.2-.3-.6-.5-.9-.6-.4-.1-.8-.3-1.4-.5-.6-.2-1.2-.4-1.6-.6-.4-.2-.8-.4-1.1-.8-.3-.4-.5-.9-.6-1.5 0-.4 0-.9.1-1.3s.4-.8.7-1.2c.4-.4.9-.6 1.7-.7zm12.88 1.72l-.46.03c-.07-.86-.28-1.44-.63-1.73-.4-.3-.9-.4-1.5-.34l-1.2.12c-.4.04-.6.12-.7.27-.2.1-.3.3-.3.5v1.1l.2 2.5 2.7-.2-.2-1.4.6-.1.2 3.3h-.5c-.1-.4-.1-.7-.2-.9-.1-.2-.3-.3-.4-.4-.2-.1-.5-.1-.8-.1h-.5l-1 .1.2 3.6v1.2l2.7-.3c.6-.1 1.1-.3 1.5-.7.3-.4.4-1.1.3-1.9h.5l.1 3-7.4.5-.1-.5c.3 0 .5-.1.7-.3.1-.2.2-.4.2-.6 0-.3 0-.6-.1-1.2l-.5-6.8v-1.1l-1 .1-.1-.7 6.9-.5.3 2.8zm5.7-2.84c1.33.04 2.3.3 2.93.78.7.5 1 1.2 1 2.1 0 .72-.2 1.37-.6 1.94-.4.58-1.1.97-2.1 1.18.2.14.3.3.5.5l.6.88 1 1.7c.2.38.4.66.5.86.2.2.3.35.5.47.2.2.5.2.8.2v.6H135c-.27-.2-.5-.5-.66-.7l-.6-1-.92-1.7-.2-.3-.4-.7c-.1-.1-.2-.3-.32-.4h-.97l-.06 3.1c0 .6 0 1-.03 1.3h1v.7h-3.2V28c.34 0 .6-.1.7-.24.17-.18.25-.37.27-.6l.1-1.1.1-6.83c0-.47 0-.85.1-1.16l-1 .04v-.7h2.3c.5 0 .8 0 1.1.1zm-.07.6c-.3 0-.5.07-.7.22-.1.14-.2.32-.2.53v4.15c.3.03.5.04.7.04 2 .02 2.9-.82 3-2.5 0-.8-.2-1.4-.6-1.82-.4-.4-1-.6-1.9-.62zm15.1.92c-.4-.02-.7.07-1 .27s-.4.5-.7 1.1l-3.8 8.8-.4-.1-2.4-8.7c-.2-.9-.4-1.7-.4-2.2l-.8-.1.1-.7 3.3.3v.5c-.3 0-.5 0-.7.1-.1.1-.2.3-.2.5s0 .5.1.9l.3 1 .3 1.2.4 1.5.3 1c.3.9.5 1.6.6 2.1l.7-1.7.2-.6 1.6-3.8.5-1 .5-1.1-1.1-.1.1-.7 2.9.3v.5zm4.2.75c-.3-.04-.6 0-.7.14-.1.2-.3.3-.3.6l-.2 1.1-1.1 6.7c0 .6-.1 1-.2 1.2l1 .1-.1.7-3.1-.5.1-.5c.4.1.6 0 .8-.1.2-.1.3-.3.4-.5l.2-1.1 1.1-6.7.2-1.1-1-.1.1-.7 3.2.5-.1.5zm7 .67c1 .23 1.9.77 2.6 1.6l.1-.86.8.18-.8 3.57-.5-.12c.2-.9 0-1.7-.4-2.4-.3-.6-.9-1.1-1.7-1.2-.6-.1-1.3-.1-1.9.2-.6.3-1.2.8-1.7 1.4-.5.7-.8 1.5-1.1 2.5-.2 1-.2 1.9-.1 2.7.2.8.5 1.5 1 2.1.5.6 1.1.9 1.8 1.1.6.2 1.3.1 1.9 0 .7-.1 1.2-.5 1.7-.9l.3.4c-.7.7-1.5 1.1-2.2 1.3-.7.2-1.5.2-2.2 0-.9-.2-1.6-.6-2.2-1.3-.6-.6-1-1.4-1.2-2.3-.2-.9-.2-1.9 0-2.9.3-1 .7-1.9 1.2-2.7.6-.8 1.3-1.4 2.2-1.8.9-.4 1.8-.4 2.9-.2zm11.4 6.5l-.4-.14c.3-.82.3-1.43.1-1.84-.2-.4-.6-.7-1.2-.86l-1.2-.36c-.3-.1-.6-.1-.7-.02-.2.07-.3.22-.4.43-.1.2-.2.56-.4 1.04l-.8 2.4 2.6.8.4-1.3.6.2-1 3.1-.5-.2c.1-.4.2-.7.2-.9 0-.2-.1-.4-.2-.5-.2-.1-.4-.2-.7-.3l-.4-.2-1-.3-1.1 3.4-.4 1.1 2.6.8c.7.2 1.2.2 1.6-.1.5-.3.8-.8 1.1-1.7l.5.1-1 2.9-7-2.3.2-.5c.3.1.6 0 .8-.1.2-.1.3-.2.4-.4.1-.2.2-.6.4-1.1l2.1-6.5.4-1.1-1-.3.2-.7 6.5 2.1-.8 2.6zM179.5 28c1.6.76 2.7 1.8 3.2 3.1.54 1.28.4 2.76-.4 4.42-.42.9-1 1.63-1.74 2.2-.74.6-1.6.93-2.54 1.03-.95.1-1.95-.1-3-.6l-3.4-1.6.26-.48c.3.13.55.16.75.08.2-.08.33-.2.44-.4.1-.2.28-.52.5-1l2.95-6.16c.2-.4.36-.8.52-1.1l-.93-.4.3-.6 3.1 1.4zm-.4.46c-.3-.14-.56-.18-.76-.1-.2.07-.35.2-.46.38-.1.2-.28.52-.5 1l-2.9 6.08c-.25.5-.44.86-.58 1.1l1.35.68c.74.34 1.47.45 2.2.33.76-.13 1.45-.46 2.1-1 .6-.53 1.13-1.22 1.53-2.07.67-1.38.84-2.63.53-3.74-.3-1.1-1.1-2-2.5-2.66zm11.9 5.47c.92.57 1.56 1.3 1.92 2.18.37.9.48 1.9.34 2.8-.14 1-.45 1.9-.94 2.7-.5.8-1.12 1.5-1.9 2.1-.8.6-1.65.9-2.6 1-.92.1-1.84-.1-2.75-.7-.98-.6-1.64-1.3-2-2.2-.36-.8-.46-1.8-.3-2.7.14-.9.47-1.8.98-2.6.5-.8 1.13-1.4 1.9-2 .8-.5 1.65-.8 2.58-.9.96-.1 1.88.1 2.8.7zm-.38.5c-.6-.37-1.3-.5-2-.38-.67.12-1.33.43-1.95.93-.62.5-1.15 1.1-1.57 1.78-.43.7-.75 1.5-.95 2.35-.2.9-.2 1.7-.02 2.5.2.8.64 1.4 1.3 1.8.65.4 1.3.6 2 .4.7-.1 1.36-.4 1.97-.9.62-.5 1.14-1.1 1.56-1.8.47-.7.8-1.6.98-2.4.2-.8.18-1.6-.02-2.4s-.62-1.3-1.26-1.7zm12.15 8c.88.7 1.4 1.43 1.6 2.14.2.72.02 1.43-.53 2.12-.36.4-.84.7-1.46.8-.6.1-1.26 0-1.95-.4.8.6 1.24 1.3 1.35 2 .1.7-.1 1.4-.64 2.1-.4.5-.85.8-1.37 1-.5.1-1.05.2-1.6.1-.55-.2-1.08-.4-1.58-.8l-3.3-2.6.3-.4c.2.2.5.3.7.2.2-.1.4-.2.5-.3l.7-.9 4.1-5.2c.4-.5.6-.8.8-1l-.9-.6.4-.6 2.5 2zm-.3.5c-.24-.2-.44-.3-.62-.32-.18 0-.35.1-.53.2-.17.2-.38.4-.64.7l-1.84 2.3.83.6c.6.5 1.16.7 1.7.5.55-.1 1.03-.4 1.44-.9.5-.6.7-1.1.6-1.6-.1-.5-.4-.9-.9-1.3zm-2.84 4.18l-1.16-.8-2.27 2.7c-.35.5-.62.8-.8 1 .12.2.38.4.77.7l.38.3c.58.5 1.18.7 1.78.7.6 0 1.15-.3 1.63-.9.56-.7.8-1.3.67-1.9-.1-.6-.45-1.1-1.02-1.5zm10.3 1.6c.97 1 1.5 1.8 1.63 2.6.12.8-.13 1.5-.75 2.2-.5.5-1.1.9-1.7 1-.7.2-1.4 0-2.3-.5.1.2.1.5 0 .7 0 .3-.1.6-.2 1.1l-.5 1.9c-.1.4-.1.8-.2 1 0 .3 0 .5.1.7.1.2.2.4.4.6l-.3.4-1.3-1.2c0-.3 0-.7.1-1 0-.3.1-.7.2-1.1l.5-1.9.1-.3.2-.7c.1-.2.1-.4.1-.6l-.3-.3-.4-.4-2.1 2.2-.9.9.8.7-.5.5-2.3-2.2.4-.4c.3.2.5.3.7.3.2 0 .4-.1.6-.2.2-.1.5-.4.8-.8l4.7-4.9.8-.8-.8-.7.5-.5 1.7 1.5.8.7zm-.45.4c-.24-.2-.46-.3-.66-.3-.23 0-.4.1-.57.2-.16.2-.42.4-.8.8l-2.08 2.2.43.5c1.4 1.4 2.7 1.4 3.85.2.55-.6.82-1.1.8-1.7-.04-.5-.37-1.1-1-1.7zm3.62 15.6c-.14.3-.3.6-.5.8-.2.3-.4.5-.55.6l.68.7-.52.5-2.1-2.4.4-.3c.4.4.8.5 1.1.2.2-.1.3-.3.5-.6l.8-1.3-2.5-2.7-1.6.8c-.3.2-.6.3-1 .5l.8.8-.5.4-1.7-2 .4-.3c.2.2.3.3.5.3h.6c.2 0 .5-.1.9-.3l.5-.2 8.6-3.6.3.3-4.7 8.3zm2.63-7.1l-1.73.8-2.3 1-.75.4 2.17 2.5 1.6-2.7 1-1.8zm7.53 5.7c.25.4.46.7.63 1.2.1.4.2.9.2 1.4l.5-.4.4.6-2.8 2.1-.3-.4c.6-.5 1-1.1 1.2-1.8.2-.7 0-1.3-.4-1.9-.4-.4-.8-.7-1.3-.7s-1 .1-1.4.4c-.4.3-.6.6-.7.9-.1.4-.2.7-.2 1.1 0 .4.1.9.2 1.5.1.7.2 1.3.2 1.8s0 .9-.2 1.4c-.2.5-.5.9-1 1.3-.5.3-1 .6-1.5.6-.5.1-1 0-1.5-.3-.5-.2-1-.6-1.4-1.2-.3-.3-.5-.7-.7-1.2-.2-.4-.2-.9-.2-1.3l-.5.5-.5-.6 2.7-2.1.3.5c-.7.6-1.1 1.2-1.2 1.9-.1.7.1 1.4.6 2 .3.5.8.8 1.3.9.5.1 1 0 1.5-.4.4-.3.6-.6.7-.9.1-.4.1-.7.1-1.1-.1-.4-.1-.9-.2-1.5-.1-.7-.2-1.3-.2-1.7-.1-.5 0-.9.2-1.4.2-.5.5-.9 1-1.2.3-.3.7-.4 1.2-.6.4-.1.9-.1 1.4.1.5.2.9.6 1.4 1.1zm4.4 7.7c-.2-.3-.4-.4-.6-.4-.2 0-.4 0-.6.1-.2.1-.5.3-.96.6l-5.6 3.7-1.06.7.63.9-.58.4-1.8-2.7.4-.3c.2.3.4.4.6.5.2.1.4 0 .6-.1.2-.1.5-.3.9-.6l5.7-3.7c.3-.2.7-.4.9-.6l-.6-.8.5-.4 1.7 2.7-.5.3zm2.72 4.5c-.18-.3-.37-.4-.58-.5-.2 0-.4 0-.6.1-.2.1-.53.3-1 .6l-5.87 3.4c-.47.3-.84.5-1.1.6l1.38 2.3c.3.6.8.8 1.3.9.5.1 1.2-.1 2-.6l.3.4-2.9 1.6-3.5-6.1.5-.2c.2.3.4.5.6.5.2.1.4 0 .6 0l1-.5 5.9-3.4c.4-.2.7-.4 1-.5l-.6-.8.6-.4 1.6 2.8-.4.3z" fill="#fff" fill-rule="nonzero"/></svg>