<svg viewBox="0 0 286 300" xmlns="http://www.w3.org/2000/svg" fill-rule="evenodd" clip-rule="evenodd" stroke-linecap="round" stroke-linejoin="round" stroke-miterlimit="1.5"><path d="M27.67 33.74c-.94 1.87-2.47 3.24-4.45 4.23-.96.48-1.97.85-3.03 1.13-.1.03-.2.06-.3.05 0-.06.1-.07.2-.1.7-.32 1.1-.84 1.3-1.48.5-1.4.4-2.8-.3-4.16-.4-.6-.8-1.3-1.2-2-.3-.7-.7-1.5-.8-2.2v-.5c-.1.1-.2.1-.2.2-.6.8-.9 1.6-.9 2.5-.1.7 0 1.3.1 1.9v.2l-.1.1-.3-.2c-.7-.7-.9-1.5-.9-2.3-.1-.8.1-1.7.4-2.5.4-1.2.3-2.4-.1-3.5-.4-1-1.1-1.9-2.1-2.5l-.2-.1c-.1.1 0 .1 0 .2.9 2.5.1 5.2-2.2 6.7-1 .6-1.4.8-1.6.9-.1 0-.2.06-.4.16l-.2.1c-.3.2-.5.3-.7.5-1 .8-1.6 1.9-1.8 3.06-.1.8-.2 1.7.1 2.63.2.76.5 1.3.6 1.57.5.9 1.4 1.6 2.5 2.1v.02c-.08.1-.1 0-.18 0-3.1-.66-5.8-1.8-8-3.9-1.2-2-2-3.9-2.1-6-.08-2 .47-3.9 1.3-5.7.38-.9.88-1.73 1.34-2.6.7-1.26 1.17-2.6 1.35-4 .1-1.25 0-2.46-.7-3.6 0-.03-.1-.1 0-.12 0-.03.1 0 .1 0 .6.2 1.1.47 1.5.84.9.8 1.5 1.8 1.9 2.8.5 1.5.7 3.1.6 4.6V24c0 .07-.1.14 0 .16 0 .02 0-.03.1-.06.2-.16.3-.35.4-.55.3-.62.5-1.3.6-1.98.1-1.3.1-2.6-.1-3.9-.1-.6-.3-1.2-.5-1.8-.6-2.6-.6-5.2.1-7.8.6-2.25 1.8-4.2 3.7-5.8.8-.67 1.6-1.23 2.6-1.7l.2-.16v.1c0 .1 0 .1-.1.2-1 1.7-1.4 3.4-1.5 5.2-.3 3.8 1 7.1 3.2 10.2.8 1 1.6 2 2.6 2.9 0 .1.1.2.2.2-.1-2.3.7-4.3 2.4-6.1.8-.8 1.8-1.5 2.9-2.1.1.1 0 .1 0 .2-.9 2.4-.9 4.7-.3 7.1.2 1.1.6 2.1 1.2 3.1 1.1 2.3 1.9 4.7 2.1 7.2.1 1.9-.1 3.7-1 5.5z" fill="url(#a)" fill-rule="nonzero" transform="translate(79.89 -1.75) scale(4.2496)"/><path d="M39.16 299.86c1.77 0 3.03-.8 3.8-2.03l-1.5-1.02c-.5.8-1.14 1.4-2.33 1.4-1.67 0-2.8-1.3-2.84-3-.1-1.7 1-3 2.7-3 1 0 1.8.5 2.2 1.2l1.4-1c-.9-1.2-2.1-1.8-3.7-1.8-2.7 0-4.7 2-4.7 4.7s2.2 4.7 4.8 4.7zm9.56 0c2.66 0 4.73-2 4.7-4.73-.06-2.72-2.2-4.72-4.86-4.72-2.65 0-4.73 2-4.68 4.8.05 2.7 2.2 4.8 4.84 4.8zm-.02-1.7c-1.68 0-2.84-1.3-2.87-3.03-.03-1.72 1.08-3.03 2.76-3.03 1.6 0 2.8 1.3 2.8 3.03 0 1.72-1.1 3.03-2.8 3.03zm6.4 1.57h6.07l-.03-1.66h-4.17l-.13-7.54h-1.9l.16 9.2zm7.6 0h6.27l-.03-1.66h-4.38l-.03-1.33h3.7l-.02-1.62h-3.7v-2.93h4.2v-1.7h-6.1l.2 9.2zm10.13 0h1.9l-.13-7.54h2.62l-.03-1.7H70l.03 1.6h2.62l.12 7.5zm5.8-9.2h1.9l.16 9.2h-1.9zm7.53 9.3h.18l3.88-9.3h-1.84l-1.5 3.55c-.32.8-.65 2.08-.65 2.08s-.4-1.3-.76-2.08l-1.64-3.55H81.8l4.36 9.3zm9.1.03c2.65 0 4.73-2 4.68-4.73-.04-2.72-2.2-4.72-4.84-4.72-2.66 0-4.73 2-4.7 4.8.06 2.7 2.2 4.8 4.86 4.8zm-.03-1.7c-1.68 0-2.84-1.3-2.87-3.03-.03-1.72 1.1-3.03 2.77-3.03s2.83 1.3 2.86 3.03c0 1.72-1.1 3.03-2.8 3.03zm9.4 1.57h2.83c2.84 0 4.8-1.88 4.76-4.6-.04-2.72-2.1-4.6-4.92-4.6h-2.84l.17 9.2zm1.86-1.66l-.1-5.88h.8c2 0 3 1.2 3 2.9s-.9 2.9-3 2.9h-.9zm7.4 1.66h6.2l-.1-1.66h-4.4l-.1-1.33h3.7l-.1-1.62h-3.7l-.1-2.93h4.2l-.1-1.7h-6.1l.2 9.2zm11 0h2.8c2.8 0 4.8-1.88 4.7-4.6-.1-2.72-2.1-4.6-5-4.6h-2.9l.1 9.2zm1.8-1.66l-.1-5.88h.8c2 0 3 1.2 3 2.9s-.9 2.9-3 2.9h-.9zm7.4 1.66h6.3l-.1-1.66H136v-1.33h3.7l-.03-1.62H136l-.04-2.93h4.2l-.03-1.7h-6.1l.17 9.2zm10.7.13c1.8 0 3.1-.94 3.1-2.64-.1-1.6-1-2.3-2.6-2.98l-.5-.2c-.8-.36-1.2-.6-1.2-1.16 0-.46.3-.8.9-.8.5 0 .9.22 1.2.8l1.4-.94c-.7-1.1-1.5-1.52-2.7-1.52-1.7 0-2.8 1.08-2.8 2.5 0 1.55.9 2.28 2.3 2.86l.4.2c.8.38 1.4.6 1.4 1.26 0 .54-.5.94-1.3.94-.9 0-1.5-.5-1.9-1.15l-1.5.9c.6 1.1 1.7 1.93 3.5 1.93zm4.6-.13h6.2v-1.66h-4.4l-.1-1.33h3.7l-.1-1.62H151l-.05-2.93h4.2l-.05-1.7h-6.06l.13 9.2zm15.4.1h.2l-.2-9.3H163l.06 3.86c0 .6.15 1.6.15 1.6s-.6-.9-1.1-1.3l-4.7-4.4h-.2l.2 9.3h1.8l-.1-3.9c0-.7-.1-1.7-.1-1.7s.7.8 1.2 1.2l4.7 4.4zm5.6 0h.2l3.8-9.3h-1.9l-1.5 3.55c-.4.8-.7 2.08-.7 2.08s-.4-1.3-.8-2.08l-1.6-3.55h-2l4.3 9.3zm9.1.03c2.6 0 4.7-2 4.7-4.73-.1-2.72-2.2-4.72-4.9-4.72s-4.7 2-4.7 4.8c.1 2.7 2.2 4.8 4.9 4.8zm-.1-1.7c-1.7 0-2.8-1.3-2.9-3.03-.1-1.72 1.1-3.03 2.7-3.03 1.7 0 2.8 1.3 2.8 3.03 0 1.72-1.1 3.03-2.8 3.03zm6.4 1.57h6.1v-1.66h-4.2l-.1-7.54h-1.9l.1 9.2zm9.6.1h.2l3.9-9.3h-1.9l-1.5 3.55c-.4.8-.7 2.08-.7 2.08s-.4-1.3-.8-2.08l-1.7-3.55h-2l4.3 9.3zm5.5-.1h6.3l-.1-1.66H203l-.02-1.33h3.7l-.03-1.62h-3.7l-.05-2.93h4.2l-.03-1.7h-6.1l.17 9.2zm8 0h2.9c2.8 0 4.8-1.88 4.7-4.6-.1-2.72-2.1-4.6-4.9-4.6H209l.18 9.2zm1.8-1.66l-.1-5.88h.8c2 0 3 1.2 3 2.9s-.9 2.9-2.9 2.9h-.8zm11.8 1.8c2.6 0 4.7-2 4.7-4.74-.1-2.72-2.2-4.72-4.9-4.72s-4.7 2-4.7 4.8c0 2.7 2.2 4.8 4.8 4.8zm-.1-1.7c-1.7 0-2.9-1.3-2.9-3.04 0-1.72 1.1-3.03 2.8-3.03 1.6 0 2.8 1.3 2.8 3.03 0 1.72-1.1 3.03-2.8 3.03zm11.2-1.3c1.1-.5 1.8-1.43 1.7-2.86-.1-2.2-1.6-3.4-4.2-3.4H229l.14 9.2h1.9l-.03-2.3h1.2l1.6 2.4h2.2l-2-2.9zm-3-1.07l-.1-3.6h.6c1.5 0 2.2.5 2.2 1.8s-.7 1.8-2.2 1.8h-.6zm6.5 3.93h6.3v-1.66H239l-.02-1.33h3.7l-.06-1.62H239l-.06-2.93h4.2l-.03-1.7H237l.16 9.2zm10.8.13c1.8 0 3.1-.94 3.1-2.64-.1-1.6-1-2.3-2.6-2.98l-.5-.2c-.9-.36-1.2-.6-1.2-1.16 0-.46.3-.8.9-.8.5 0 .8.22 1.2.8l1.4-.94c-.6-1.1-1.5-1.52-2.7-1.52-1.7 0-2.8 1.08-2.7 2.5 0 1.55.9 2.28 2.3 2.86l.5.2c.9.38 1.4.6 1.4 1.26 0 .54-.5.94-1.3.94-.9 0-1.5-.5-1.9-1.15l-1.6.9c.6 1.1 1.72 1.93 3.5 1.93z" fill="none"/><path d="M39.16 299.86c1.77 0 3.03-.8 3.8-2.03l-1.5-1.02c-.5.8-1.14 1.4-2.33 1.4-1.67 0-2.8-1.3-2.84-3-.1-1.7 1-3 2.7-3 1 0 1.8.5 2.2 1.2l1.4-1c-.9-1.2-2.1-1.8-3.7-1.8-2.7 0-4.7 2-4.7 4.7s2.2 4.7 4.8 4.7zm9.56 0c2.66 0 4.73-2 4.7-4.73-.06-2.72-2.2-4.72-4.86-4.72-2.65 0-4.73 2-4.68 4.8.05 2.7 2.2 4.8 4.84 4.8zm-.02-1.7c-1.68 0-2.84-1.3-2.87-3.03-.03-1.72 1.08-3.03 2.76-3.03 1.6 0 2.8 1.3 2.8 3.03 0 1.72-1.1 3.03-2.8 3.03zm6.4 1.57h6.07l-.03-1.66h-4.17l-.13-7.54h-1.9l.16 9.2zm7.6 0h6.27l-.03-1.66h-4.38l-.03-1.33h3.7l-.02-1.62h-3.7v-2.93h4.2v-1.7h-6.1l.2 9.2zm10.13 0h1.9l-.13-7.54h2.62l-.03-1.7H70l.03 1.6h2.62l.12 7.5zm5.8-9.2h1.9l.16 9.2h-1.9zm7.53 9.3h.18l3.88-9.3h-1.84l-1.5 3.55c-.32.8-.65 2.08-.65 2.08s-.4-1.3-.76-2.08l-1.64-3.55H81.8l4.36 9.3zm9.1.03c2.65 0 4.73-2 4.68-4.73-.04-2.72-2.2-4.72-4.84-4.72-2.66 0-4.73 2-4.7 4.8.06 2.7 2.2 4.8 4.86 4.8zm-.03-1.7c-1.68 0-2.84-1.3-2.87-3.03-.03-1.72 1.1-3.03 2.77-3.03s2.83 1.3 2.86 3.03c0 1.72-1.1 3.03-2.8 3.03zm9.4 1.57h2.83c2.84 0 4.8-1.88 4.76-4.6-.04-2.72-2.1-4.6-4.92-4.6h-2.84l.17 9.2zm1.86-1.66l-.1-5.88h.8c2 0 3 1.2 3 2.9s-.9 2.9-3 2.9h-.9zm7.4 1.66h6.2l-.1-1.66h-4.4l-.1-1.33h3.7l-.1-1.62h-3.7l-.1-2.93h4.2l-.1-1.7h-6.1l.2 9.2zm11 0h2.8c2.8 0 4.8-1.88 4.7-4.6-.1-2.72-2.1-4.6-5-4.6h-2.9l.1 9.2zm1.8-1.66l-.1-5.88h.8c2 0 3 1.2 3 2.9s-.9 2.9-3 2.9h-.9zm7.4 1.66h6.3l-.1-1.66H136v-1.33h3.7l-.03-1.62H136l-.04-2.93h4.2l-.03-1.7h-6.1l.17 9.2zm10.7.13c1.8 0 3.1-.94 3.1-2.64-.1-1.6-1-2.3-2.6-2.98l-.5-.2c-.8-.36-1.2-.6-1.2-1.16 0-.46.3-.8.9-.8.5 0 .9.22 1.2.8l1.4-.94c-.7-1.1-1.5-1.52-2.7-1.52-1.7 0-2.8 1.08-2.8 2.5 0 1.55.9 2.28 2.3 2.86l.4.2c.8.38 1.4.6 1.4 1.26 0 .54-.5.94-1.3.94-.9 0-1.5-.5-1.9-1.15l-1.5.9c.6 1.1 1.7 1.93 3.5 1.93zm4.6-.13h6.2v-1.66h-4.4l-.1-1.33h3.7l-.1-1.62H151l-.05-2.93h4.2l-.05-1.7h-6.06l.13 9.2zm15.4.1h.2l-.2-9.3H163l.06 3.86c0 .6.15 1.6.15 1.6s-.6-.9-1.1-1.3l-4.7-4.4h-.2l.2 9.3h1.8l-.1-3.9c0-.7-.1-1.7-.1-1.7s.7.8 1.2 1.2l4.7 4.4zm5.6 0h.2l3.8-9.3h-1.9l-1.5 3.55c-.4.8-.7 2.08-.7 2.08s-.4-1.3-.8-2.08l-1.6-3.55h-2l4.3 9.3zm9.1.03c2.6 0 4.7-2 4.7-4.73-.1-2.72-2.2-4.72-4.9-4.72s-4.7 2-4.7 4.8c.1 2.7 2.2 4.8 4.9 4.8zm-.1-1.7c-1.7 0-2.8-1.3-2.9-3.03-.1-1.72 1.1-3.03 2.7-3.03 1.7 0 2.8 1.3 2.8 3.03 0 1.72-1.1 3.03-2.8 3.03zm6.4 1.57h6.1v-1.66h-4.2l-.1-7.54h-1.9l.1 9.2zm9.6.1h.2l3.9-9.3h-1.9l-1.5 3.55c-.4.8-.7 2.08-.7 2.08s-.4-1.3-.8-2.08l-1.7-3.55h-2l4.3 9.3zm5.5-.1h6.3l-.1-1.66H203l-.02-1.33h3.7l-.03-1.62h-3.7l-.05-2.93h4.2l-.03-1.7h-6.1l.17 9.2zm8 0h2.9c2.8 0 4.8-1.88 4.7-4.6-.1-2.72-2.1-4.6-4.9-4.6H209l.18 9.2zm1.8-1.66l-.1-5.88h.8c2 0 3 1.2 3 2.9s-.9 2.9-2.9 2.9h-.8zm11.8 1.8c2.6 0 4.7-2 4.7-4.74-.1-2.72-2.2-4.72-4.9-4.72s-4.7 2-4.7 4.8c0 2.7 2.2 4.8 4.8 4.8zm-.1-1.7c-1.7 0-2.9-1.3-2.9-3.04 0-1.72 1.1-3.03 2.8-3.03 1.6 0 2.8 1.3 2.8 3.03 0 1.72-1.1 3.03-2.8 3.03zm11.2-1.3c1.1-.5 1.8-1.43 1.7-2.86-.1-2.2-1.6-3.4-4.2-3.4H229l.14 9.2h1.9l-.03-2.3h1.2l1.6 2.4h2.2l-2-2.9zm-3-1.07l-.1-3.6h.6c1.5 0 2.2.5 2.2 1.8s-.7 1.8-2.2 1.8h-.6zm6.5 3.93h6.3v-1.66H239l-.02-1.33h3.7l-.06-1.62H239l-.06-2.93h4.2l-.03-1.7H237l.16 9.2zm10.8.13c1.8 0 3.1-.94 3.1-2.64-.1-1.6-1-2.3-2.6-2.98l-.5-.2c-.9-.36-1.2-.6-1.2-1.16 0-.46.3-.8.9-.8.5 0 .8.22 1.2.8l1.4-.94c-.6-1.1-1.5-1.52-2.7-1.52-1.7 0-2.8 1.08-2.7 2.5 0 1.55.9 2.28 2.3 2.86l.5.2c.9.38 1.4.6 1.4 1.26 0 .54-.5.94-1.3.94-.9 0-1.5-.5-1.9-1.15l-1.6.9c.6 1.1 1.72 1.93 3.5 1.93z" fill="#fff" fill-rule="nonzero"/><path d="M1469 944h7" fill="none" stroke="url(#b)" stroke-width=".03" transform="matrix(31.8977 0 0 1.0532 -46826.437 -709.4)"/><path d="M44.33 244.36H37.8c-.74 0-1.35-.18-1.82-.55-.47-.3-.8-.8-1.02-1.3l-3.4-9.2h-18.8l-3.4 9.3c-.17.5-.5.9-1 1.3-.48.4-1.08.6-1.8.6H0L17.84 199h8.64l17.85 45.43zm-29.4-17.15H29.4l-5.52-15.1c-.26-.6-.53-1.4-.84-2.3-.3-.9-.6-1.9-.9-3-.3 1.1-.58 2.1-.86 3-.28.9-.56 1.7-.83 2.4l-5.53 15.1zm33.64 27.7v-42.7h4.74c.5 0 1 .2 1.3.4.4.3.6.6.7 1.1l.7 3c1.3-1.4 2.8-2.6 4.5-3.6 1.7-.9 3.7-1.4 6-1.4 1.8 0 3.4.4 4.8 1.1 1.5.8 2.8 1.8 3.8 3.2 1.1 1.4 1.9 3.1 2.5 5.2.6 2 .9 4.4.9 7 0 2.4-.3 4.6-.9 6.7-.7 2.1-1.6 3.8-2.8 5.4-1.2 1.5-2.7 2.7-4.4 3.6-1.7.9-3.6 1.3-5.7 1.3-1.8 0-3.3-.3-4.6-.8-1.2-.5-2.4-1.3-3.4-2.3v13h-7.8zm15.08-37.2c-1.62 0-3 .4-4.14 1-1.1.7-2.2 1.7-3.1 2.9V236c.9 1.1 1.9 1.85 2.9 2.28 1.1.43 2.2.64 3.4.64 1.2 0 2.3-.22 3.2-.66 1-.44 1.8-1.1 2.5-2 .7-.9 1.2-2.04 1.5-3.4.4-1.4.6-3 .6-4.87 0-1.9-.1-3.5-.4-4.8-.3-1.3-.7-2.4-1.3-3.2-.5-.8-1.2-1.4-2-1.8-.8-.4-1.7-.6-2.7-.6zm34.2-6c2.4 0 4.6.4 6.55 1.2 1.96.8 3.63 1.9 5.02 3.3 1.38 1.5 2.45 3.2 3.2 5.3s1.13 4.4 1.13 6.9c0 2.6-.38 4.9-1.13 6.9-.75 2.1-1.82 3.8-3.2 5.3-1.4 1.5-3.06 2.6-5.02 3.4-1.95.8-4.14 1.2-6.54 1.2-2.4 0-4.6-.3-6.57-1.1-2-.8-3.7-1.9-5.1-3.3-1.4-1.4-2.5-3.2-3.3-5.2-.8-2-1.2-4.3-1.2-6.9 0-2.5.4-4.8 1.1-6.9.8-2 1.8-3.8 3.2-5.2 1.4-1.4 3.1-2.5 5-3.3 2-.7 4.1-1.1 6.6-1.1zm0 27.3c2.7 0 4.67-.9 5.96-2.7 1.3-1.8 2-4.4 2-7.9 0-3.4-.6-6.1-1.9-7.9-1.3-1.8-3.2-2.7-5.9-2.7s-4.7.9-6 2.8c-1.3 1.9-1.9 4.5-1.9 8s.7 6.1 2 7.9c1.3 1.8 3.4 2.7 6.1 2.7zm22.45-41.2h7.8v46.7h-7.8zm17.04 0h7.8v46.7h-7.8zm30.3 14c2.4 0 4.6.4 6.53 1.2 1.96.8 3.63 1.9 5.02 3.3 1.3 1.5 2.4 3.2 3.2 5.3.7 2.1 1.1 4.4 1.1 6.9 0 2.6-.4 4.9-1.2 6.9-.8 2.1-1.9 3.8-3.2 5.3-1.4 1.5-3.1 2.6-5.1 3.4-2 .8-4.2 1.2-6.6 1.2-2.4 0-4.6-.3-6.6-1.1s-3.7-1.9-5.1-3.3c-1.4-1.4-2.5-3.2-3.3-5.2-.8-2.1-1.2-4.4-1.2-6.9s.4-4.8 1.1-6.9c.7-2 1.8-3.8 3.2-5.2 1.4-1.4 3.1-2.5 5-3.3 1.9-.8 4.1-1.2 6.5-1.2zm0 27.3c2.67 0 4.65-.9 5.94-2.7 1.28-1.8 1.93-4.4 1.93-7.9s-.6-6.1-1.9-7.9c-1.3-1.8-3.2-2.7-5.9-2.7s-4.7 1-6 2.8c-1.3 1.9-1.9 4.5-1.9 8s.7 6.1 2 7.9c1.3 1.9 3.3 2.8 6 2.8zm52.8-1.3c1.63 0 3.1-.3 4.37-.8 1.3-.5 2.4-1.3 3.3-2.3.9-.9 1.6-2.1 2.1-3.5s.7-3 .7-4.7V199h8.5v27.2c0 2.7-.4 5.2-1.3 7.5-.8 2.3-2.1 4.26-3.7 5.93-1.6 1.64-3.6 2.94-5.9 3.9-2.3.9-4.9 1.4-7.8 1.4-2.9 0-5.5-.5-7.8-1.4-2.3-.96-4.3-2.26-5.9-3.9-1.6-1.7-2.8-3.66-3.7-5.96-.9-2.3-1.3-4.8-1.3-7.5v-27.2h8.5v27.18c0 1.77.3 3.34.7 4.74s1.2 2.6 2.1 3.6c.9 1 2 1.7 3.3 2.3 1.3.5 2.8.8 4.4.8zM258.8 221l-14.5-22.07h8.43c.58 0 1 .08 1.27.24.26.16.5.42.7.77l10.34 16.68c.1-.27.22-.54.35-.8.1-.26.2-.53.4-.8l9.4-14.93c.4-.8 1-1.2 1.8-1.2h8.1l-14.7 21.7 15 23.7H277c-.56 0-1.02-.2-1.36-.5-.36-.3-.64-.7-.87-1l-10.5-17.4c-.08.2-.17.5-.28.7-.1.2-.2.4-.4.6l-10.1 16.1c-.3.3-.5.7-.9 1-.4.3-.8.4-1.3.4h-8l15.1-23.4z" fill="none"/><path d="M44.33 244.36H37.8c-.74 0-1.35-.18-1.82-.55-.47-.3-.8-.8-1.02-1.3l-3.4-9.2h-18.8l-3.4 9.3c-.17.5-.5.9-1 1.3-.48.4-1.08.6-1.8.6H0L17.84 199h8.64l17.85 45.43zm-29.4-17.15H29.4l-5.52-15.1c-.26-.6-.53-1.4-.84-2.3-.3-.9-.6-1.9-.9-3-.3 1.1-.58 2.1-.86 3-.28.9-.56 1.7-.83 2.4l-5.53 15.1zm33.64 27.7v-42.7h4.74c.5 0 1 .2 1.3.4.4.3.6.6.7 1.1l.7 3c1.3-1.4 2.8-2.6 4.5-3.6 1.7-.9 3.7-1.4 6-1.4 1.8 0 3.4.4 4.8 1.1 1.5.8 2.8 1.8 3.8 3.2 1.1 1.4 1.9 3.1 2.5 5.2.6 2 .9 4.4.9 7 0 2.4-.3 4.6-.9 6.7-.7 2.1-1.6 3.8-2.8 5.4-1.2 1.5-2.7 2.7-4.4 3.6-1.7.9-3.6 1.3-5.7 1.3-1.8 0-3.3-.3-4.6-.8-1.2-.5-2.4-1.3-3.4-2.3v13h-7.8zm15.08-37.2c-1.62 0-3 .4-4.14 1-1.1.7-2.2 1.7-3.1 2.9V236c.9 1.1 1.9 1.85 2.9 2.28 1.1.43 2.2.64 3.4.64 1.2 0 2.3-.22 3.2-.66 1-.44 1.8-1.1 2.5-2 .7-.9 1.2-2.04 1.5-3.4.4-1.4.6-3 .6-4.87 0-1.9-.1-3.5-.4-4.8-.3-1.3-.7-2.4-1.3-3.2-.5-.8-1.2-1.4-2-1.8-.8-.4-1.7-.6-2.7-.6zm34.2-6c2.4 0 4.6.4 6.55 1.2 1.96.8 3.63 1.9 5.02 3.3 1.38 1.5 2.45 3.2 3.2 5.3s1.13 4.4 1.13 6.9c0 2.6-.38 4.9-1.13 6.9-.75 2.1-1.82 3.8-3.2 5.3-1.4 1.5-3.06 2.6-5.02 3.4-1.95.8-4.14 1.2-6.54 1.2-2.4 0-4.6-.3-6.57-1.1-2-.8-3.7-1.9-5.1-3.3-1.4-1.4-2.5-3.2-3.3-5.2-.8-2-1.2-4.3-1.2-6.9 0-2.5.4-4.8 1.1-6.9.8-2 1.8-3.8 3.2-5.2 1.4-1.4 3.1-2.5 5-3.3 2-.7 4.1-1.1 6.6-1.1zm0 27.3c2.7 0 4.67-.9 5.96-2.7 1.3-1.8 2-4.4 2-7.9 0-3.4-.6-6.1-1.9-7.9-1.3-1.8-3.2-2.7-5.9-2.7s-4.7.9-6 2.8c-1.3 1.9-1.9 4.5-1.9 8s.7 6.1 2 7.9c1.3 1.8 3.4 2.7 6.1 2.7zm22.45-41.2h7.8v46.7h-7.8zm17.04 0h7.8v46.7h-7.8zm30.3 14c2.4 0 4.6.4 6.53 1.2 1.96.8 3.63 1.9 5.02 3.3 1.3 1.5 2.4 3.2 3.2 5.3.7 2.1 1.1 4.4 1.1 6.9 0 2.6-.4 4.9-1.2 6.9-.8 2.1-1.9 3.8-3.2 5.3-1.4 1.5-3.1 2.6-5.1 3.4-2 .8-4.2 1.2-6.6 1.2-2.4 0-4.6-.3-6.6-1.1s-3.7-1.9-5.1-3.3c-1.4-1.4-2.5-3.2-3.3-5.2-.8-2.1-1.2-4.4-1.2-6.9s.4-4.8 1.1-6.9c.7-2 1.8-3.8 3.2-5.2 1.4-1.4 3.1-2.5 5-3.3 1.9-.8 4.1-1.2 6.5-1.2zm0 27.3c2.67 0 4.65-.9 5.94-2.7 1.28-1.8 1.93-4.4 1.93-7.9s-.6-6.1-1.9-7.9c-1.3-1.8-3.2-2.7-5.9-2.7s-4.7 1-6 2.8c-1.3 1.9-1.9 4.5-1.9 8s.7 6.1 2 7.9c1.3 1.9 3.3 2.8 6 2.8zm52.8-1.3c1.63 0 3.1-.3 4.37-.8 1.3-.5 2.4-1.3 3.3-2.3.9-.9 1.6-2.1 2.1-3.5s.7-3 .7-4.7V199h8.5v27.2c0 2.7-.4 5.2-1.3 7.5-.8 2.3-2.1 4.26-3.7 5.93-1.6 1.64-3.6 2.94-5.9 3.9-2.3.9-4.9 1.4-7.8 1.4-2.9 0-5.5-.5-7.8-1.4-2.3-.96-4.3-2.26-5.9-3.9-1.6-1.7-2.8-3.66-3.7-5.96-.9-2.3-1.3-4.8-1.3-7.5v-27.2h8.5v27.18c0 1.77.3 3.34.7 4.74s1.2 2.6 2.1 3.6c.9 1 2 1.7 3.3 2.3 1.3.5 2.8.8 4.4.8zM258.8 221l-14.5-22.07h8.43c.58 0 1 .08 1.27.24.26.16.5.42.7.77l10.34 16.68c.1-.27.22-.54.35-.8.1-.26.2-.53.4-.8l9.4-14.93c.4-.8 1-1.2 1.8-1.2h8.1l-14.7 21.7 15 23.7H277c-.56 0-1.02-.2-1.36-.5-.36-.3-.64-.7-.87-1l-10.5-17.4c-.08.2-.17.5-.28.7-.1.2-.2.4-.4.6l-10.1 16.1c-.3.3-.5.7-.9 1-.4.3-.8.4-1.3.4h-8l15.1-23.4z" fill="#fff" fill-rule="nonzero"/><defs><linearGradient id="a" x2="1" gradientUnits="userSpaceOnUse" gradientTransform="rotate(51.242 -8.59 16.678) scale(22.7836)"><stop offset="0" stop-color="#FFAD73"/><stop offset="1" stop-color="#FF714C"/></linearGradient><linearGradient id="b" x2="1" gradientUnits="userSpaceOnUse" gradientTransform="matrix(7 0 0 0 1469 944)"><stop offset="0" stop-color="#FF5F6D"/><stop offset=".5" stop-color="#FF8A74"/><stop offset="1" stop-color="#FEB47B"/></linearGradient></defs></svg>