<?xml version="1.0" encoding="UTF-8"?>
<svg width="249px" height="212px" viewBox="0 0 249 212" version="1.1" xmlns="http://www.w3.org/2000/svg" xmlns:xlink="http://www.w3.org/1999/xlink">
    <!-- Generator: Sketch 52.5 (67469) - http://www.bohemiancoding.com/sketch -->
    <title>img</title>
    <desc>Created with Sketch.</desc>
    <defs>
        <circle id="path-1" cx="86.5" cy="86.5" r="86.5"></circle>
        <path d="M46.9558861,207.716839 L534.699913,207.716839 C551.956487,207.716839 568.507332,200.866634 580.716342,188.671166 L580.716342,188.671166 C592.923893,176.477156 599.783163,159.930399 599.783163,142.675887 L599.783163,134.939223 C599.783163,112.731303 590.954741,91.4343215 575.242659,75.7396676 L549.812466,50.3376822 C518.448541,19.0085459 475.930804,1.41094201 431.600108,1.41094201 L326.342489,1.41094201 C286.629951,1.41094201 248.541506,17.1753127 220.444923,45.240731 L220.444923,45.240731 C192.34834,73.3061494 154.259895,89.07052 114.547357,89.07052 L57.6624777,89.07052 C42.7404696,89.07052 28.4287157,94.993991 17.8714091,105.539587 L17.8714091,105.539587 C7.31536372,116.083924 1.38405389,130.392143 1.38405389,145.312368 L1.38405389,184.930922 C1.38405389,197.515236 11.585656,207.716839 24.16997,207.716839 Z" id="path-3"></path>
        <path d="M45.9558861,206.716839 L533.699913,206.716839 C550.956487,206.716839 567.507332,199.866634 579.716342,187.671166 L579.716342,187.671166 C591.923893,175.477156 598.783163,158.930399 598.783163,141.675887 L598.783163,133.939223 C598.783163,111.731303 589.954741,90.4343215 574.242659,74.7396676 L548.812466,49.3376822 C517.448541,18.0085459 474.930804,0.410942014 430.600108,0.410942014 L325.342489,0.410942014 C285.629951,0.410942014 247.541506,16.1753127 219.444923,44.240731 L219.444923,44.240731 C191.34834,72.3061494 153.259895,88.07052 113.547357,88.07052 L56.6624777,88.07052 C41.7404696,88.07052 27.4287157,93.993991 16.8714091,104.539587 L16.8714091,104.539587 C6.31536372,115.083924 0.384053893,129.392143 0.384053893,144.312368 L0.384053893,183.930922 C0.384053893,196.515236 10.585656,206.716839 23.16997,206.716839 Z" id="path-5"></path>
        <path d="M89.3589903,0.231476284 L62.6331955,5.66967513 C54.6624567,7.29157122 46.5840294,8.32990259 38.4622156,8.7764044 L15.8083862,10.0218129 C11.673949,10.2491062 7.74863813,11.912907 4.710205,14.7259405 L1.8524184,17.3717283 C0.765083343,18.3784017 0.489440709,19.9898821 1.18036603,21.3007258 L1.18036603,21.3007258 C1.86503608,22.5997017 3.35913676,23.2499673 4.77635651,22.8657801 L10.3430178,21.3567411 C10.5290498,21.3063106 10.7149945,21.2555586 10.9008511,21.2044852 L14.6299062,20.1797426 C17.2842168,19.4503392 20.0392827,19.1563903 22.7877363,19.3093514 L55.8214985,21.1477966 C57.4181852,21.2366578 59.0160642,21.3026172 60.6146425,21.3456545 L67.8172078,21.5395635 C73.7157856,21.6983663 79.211639,18.5581879 82.069925,13.3959558 L89.3589903,0.231476284 Z" id="path-7"></path>
        <path d="M71.3894127,0.405216453 L70.4015,0.405216453 C63.4946402,0.405216453 57.7069435,5.62934338 57.0018236,12.5001162 L55.8817831,23.4139235 C55.5045373,27.0898515 52.2187908,29.7639617 48.5428628,29.3867159 C48.0069382,29.3317161 47.4796178,29.2121901 46.9723566,29.0307343 L26.7302086,21.7897808 C22.8903683,17.2943968 17.8922708,15.3361184 11.7359161,15.9149454 C2.50138408,16.783186 -0.609410615,19.918749 0.602480976,22.6154886 C1.4104087,24.413315 4.76289935,25.8271198 10.6599529,26.856903 L16.9263741,29.0234147 C21.0916943,30.4635054 25.0884793,32.3512597 28.8465712,34.653541 L54.3819328,50.2970072 C56.9188791,51.8511906 59.7920449,52.7732225 62.7596228,52.9855043 L62.7596228,52.9855043 C65.4589431,53.1785965 67.9806861,51.6284488 69.0271771,49.1327582 L75.8267546,32.9170034 C78.6914387,26.0852532 80.5528441,18.8750476 81.3531514,11.5103525 L81.3531514,11.5103525 C81.9511324,6.00753158 77.974974,1.06185443 72.472153,0.463873451 C72.1125625,0.424797435 71.7511202,0.405216453 71.3894127,0.405216453 Z" id="path-9"></path>
        <path d="M27.629598,0.343756782 L2.40277778,0 C1.29435312,0 0.740140796,0.382017159 0.740140796,1.14605148 C0.740140796,1.9100858 3.29973138,2.26498828 8.41891253,2.21075892 C9.18073075,5.24291013 11.0088859,6.75898573 13.903378,6.75898573 C16.79787,6.75898573 18.6454487,5.47299383 19.4461139,2.90101002 L20.7327576,2.90101002 C21.4193586,5.47299383 22.6898378,6.75898573 24.5441951,6.75898573 C27.3257311,6.75898573 28.418205,5.80202004 28.418205,2.90101002 C28.4742594,2.17334587 28.2113904,1.32092813 27.629598,0.343756782 Z" id="path-11"></path>
    </defs>
    <g id="Page-1" stroke="none" stroke-width="1" fill="none" fill-rule="evenodd">
        <g id="mobile_landing_drivers" transform="translate(-63.000000, -1176.000000)">
            <g id="img" transform="translate(63.000000, 1176.000000)">
                <rect id="Rectangle" fill="#FFFFFF" x="0" y="0" width="249" height="212"></rect>
                <g id="Group-6" transform="translate(38.000000, 25.000000)">
                    <g id="Group-3-Copy">
                        <g>
                            <mask id="mask-2" fill="white">
                                <use xlink:href="#path-1"></use>
                            </mask>
                            <circle stroke="#FFCB00" stroke-width="3" cx="86.5" cy="86.5" r="88"></circle>
                            <g mask="url(#mask-2)">
                                <g transform="translate(-357.212963, 24.027778)">
                                    <ellipse id="Oval-Copy-5" stroke="none" fill="#2D2D2D" fill-rule="evenodd" cx="478.782339" cy="183.427369" rx="47.7943841" ry="47.7413701"></ellipse>
                                    <g id="Path-3" stroke="none" stroke-width="1" fill="none" fill-rule="evenodd" transform="translate(15.092963, 0.000000)">
                                        <mask id="mask-4" fill="white">
                                            <use xlink:href="#path-3"></use>
                                        </mask>
                                        <use id="Mask" fill="#D3D3D3" xlink:href="#path-3"></use>
                                        <path d="M322.55311,38.15925 L300.533557,54.1499097 C275.388099,72.4106096 245.108755,82.2452414 214.032282,82.2452414 L140.264672,82.2452414 C136.569437,82.2452414 133.573857,79.2496617 133.573857,75.5544268 C133.573857,72.9877126 135.04218,70.6472279 137.353136,69.5303117 L225.927209,26.7212775 C226.835084,26.2824895 227.830394,26.0545779 228.838745,26.0545779 L318.621552,26.0545779 C322.316787,26.0545779 325.312367,29.0501577 325.312367,32.7453926 C325.312367,34.8876806 324.286538,36.9004303 322.55311,38.15925 Z" id="Path-2" fill="#FFFBE8" mask="url(#mask-4)"></path>
                                    </g>
                                    <g id="Oval-Copy-7" stroke="none" stroke-width="1" fill="none" fill-rule="evenodd" transform="translate(133.482679, 1.000000)">
                                        <mask id="mask-6" fill="white">
                                            <use xlink:href="#path-5"></use>
                                        </mask>
                                        <use id="Mask" fill="#ECECEC" xlink:href="#path-5"></use>
                                    </g>
                                    <path d="M423.413048,25.1270369 L501.0776,25.1270369 L500.955537,73.8073992 L502.405099,86.1864591 L347.196649,86.1864591 C345.349032,86.1864591 343.851242,84.6886692 343.851242,82.8410518 C343.851242,81.8806092 344.264034,80.9664933 344.984534,80.3314109 L395.76161,35.5741176 C403.399596,28.8416391 413.231442,25.1270369 423.413048,25.1270369 Z" id="Path" stroke="none" fill="#332B15" fill-rule="evenodd"></path>
                                    <g id="Path-15" stroke="none" stroke-width="1" fill="none" fill-rule="evenodd" transform="translate(350.492150, 58.629753)">
                                        <mask id="mask-8" fill="white">
                                            <use xlink:href="#path-7"></use>
                                        </mask>
                                        <use id="Mask" fill="#F0393C" xlink:href="#path-7"></use>
                                        <polygon fill="#FFCB00" mask="url(#mask-8)" points="59.5849429 4.3980494 53.0743009 21.8282954 72.8854531 21.8282954 88.0955114 -1.44571352"></polygon>
                                    </g>
                                    <path d="M465.580499,66.5060902 C462.757938,63.8780573 456.900462,61.1250163 448.008071,58.2469673 C434.669485,53.9298937 432.690744,60.7780746 423.660923,73.5820666 C417.641043,82.1180613 413.266992,86.1561532 410.538771,85.6963424 L453.546346,85.6963424 L467.875724,82.8758803 L465.580499,66.5060902 Z" id="Path-12" stroke="none" fill="#FFCB00" fill-rule="evenodd"></path>
                                    <path d="M431.942589,83.1476494 L498.231595,48.1266231" id="Path-14" stroke="#000000" stroke-width="6.69081463" fill="none" stroke-linecap="square"></path>
                                    <path d="M497.58038,25.1270369 L598.873445,25.1270369 C609.992619,25.1270369 620.656381,29.5392123 628.518824,37.3929348 L657.860413,66.701977 C661.788986,70.6261933 661.788986,76.9886051 657.860413,80.9128214 C653.305835,85.4623468 647.128503,88.0182436 640.687357,88.0182436 L345.461162,88.0182436 C343.608803,88.0182436 342.10717,86.5182759 342.10717,84.667972 C342.10717,83.7097169 342.517955,82.7973278 343.235663,82.1614896 L344.372748,81.1541129 L497.58038,81.1541129 L497.58038,25.1270369 Z" id="Path" stroke="none" fill="#FFFBE8" fill-rule="evenodd"></path>
                                    <path d="M298.505276,156.625197 L573.48184,156.625197" id="Path-5" stroke="#CDCDCD" stroke-width="5.01811098" fill="none" stroke-linecap="round"></path>
                                    <rect id="Rectangle" stroke="none" fill="#ECECEC" fill-rule="evenodd" x="493.036804" y="21.7767653" width="16.7699593" height="77.0562465"></rect>
                                    <g id="Path-8" stroke="none" stroke-width="1" fill="none" fill-rule="evenodd" transform="translate(393.417048, 66.330296)">
                                        <mask id="mask-10" fill="white">
                                            <use xlink:href="#path-9"></use>
                                        </mask>
                                        <use id="Mask" fill="#F0393C" xlink:href="#path-9"></use>
                                        <polygon fill="#FFCB00" mask="url(#mask-10)" points="78.1713219 26.373093 55.7664761 21.1693753 53.7762717 7.4353884 68.5322801 -4.42061421 88.3028993 4.38366396"></polygon>
                                    </g>
                                    <path d="M436.881397,36.8106569 C436.881397,36.8106569 436.881397,36.8106569 436.881397,36.8106569 C436.103494,39.0186789 436.458463,38.3581945 433.950339,38.3581945 C431.442215,38.3581945 429.627653,44.1013419 425.542022,39.7409176 C421.456392,35.3804933 423.142445,41.6132972 419.537427,38.9704206 C415.932409,36.327544 413.540611,42.9615461 418.278452,45.6177978 C423.016293,48.2740495 422.813629,52.4222191 426.177447,49.0200085 C429.541265,45.6177978 429.556004,51.6668539 433.2187,50.8975838 C436.881397,50.1283136 439.678574,54.1832383 441.514426,50.2231944 C442.658493,47.7553731 441.97075,43.2712351 439.451199,36.7707805 L439.451221,36.7707718 C439.177748,36.0652079 438.384081,35.7149298 437.678517,35.9884036 C437.305515,36.1329779 437.014326,36.4333476 436.881397,36.8106569 Z" id="Path-10" stroke="none" fill="#1F61A8" fill-rule="evenodd"></path>
                                    <path d="M466.167787,39.9043029 C465.990098,57.9698136 460.751942,65.9125311 450.45332,63.7324553 C444.918742,62.4867366 440.538737,57.5639804 440.538737,49.0856503 C439.022235,48.1307083 434.688494,45.0061875 436.421171,41.2939786 C436.815036,39.7779316 439.942617,36.0411846 441.208553,39.2012858 C442.05251,41.3080198 442.316724,38.2917394 442.001195,30.1524443 L466.167787,30.1524443 L466.167787,39.9043029 Z" id="Path-6" stroke="none" fill="#F0393C" fill-rule="evenodd"></path>
                                    <path d="M456.422705,36.0317783 C453.835426,33.4520038 451.080829,33.4520038 448.158915,36.0317783 C443.776043,39.9014402 447.804354,45.927185 443.645847,44.9538395 C439.487339,43.980494 444.536927,41.928289 440.277935,40.3324932 C437.438606,39.2686293 436.018942,40.4107425 436.018942,43.7588329 L437.015244,28.4773085 L450.021789,28.4773085 L456.422705,36.0317783 Z" id="Path-9" stroke="none" fill="#1F61A8" fill-rule="evenodd"></path>
                                    <path d="M474.01172,40.1340414 C468.357538,37.6282165 462.322132,36.7638619 455.9055,37.5409778 C454.161919,38.0610842 451.301644,35.8525287 447.324673,30.9153114 L438.043016,30.0190034 C436.203953,29.8414094 434.857067,28.2065863 435.034661,26.3675237 C435.057078,26.1353824 435.103709,25.9062215 435.173793,25.6837796 C437.764304,17.4616446 443.43959,14.0600694 452.199648,15.4790539 C467.284138,17.9224916 464.958161,26.9813461 464.900105,31.2288738 C467.944999,34.1184708 471.044637,36.3506131 474.199018,37.9253007 L474.802735,39.3572967 C474.930664,39.6607404 474.788382,40.0104373 474.484938,40.1383666 C474.333355,40.2022724 474.162106,40.200715 474.011711,40.1340628 Z" id="Path-7" stroke="none" fill="#FFCB00" fill-rule="evenodd" transform="translate(454.934328, 27.675491) rotate(-20.000000) translate(-454.934328, -27.675491) "></path>
                                    <path d="M440.509259,49.2080598 L437.988676,66.1032468 L430.50517,75.1084087 C430.041653,75.6661746 430.118057,76.4940877 430.675823,76.9576046 C430.792461,77.0545338 430.925009,77.1305254 431.067587,77.1822089 L431.067587,77.1822089 C432.189475,77.5888846 433.428922,77.5186956 434.497726,76.9879628 L442.689118,72.9203844 C446.5178,71.0191857 449.600569,67.8920056 451.446814,64.0365235 L440.509259,49.2080598 Z" id="Path-11" stroke="none" fill="#F0393C" fill-rule="evenodd"></path>
                                    <path d="M362.800219,81.2211838 L362.800219,76.5060177 C362.800219,74.9595968 361.546597,73.705975 360.000176,73.705975 L360.000176,73.705975 C358.453755,73.705975 357.200133,74.9595968 357.200133,76.5060177 L357.200133,81.2211838 L362.800219,81.2211838 Z" id="Path-13" stroke="none" fill="#000000" fill-rule="evenodd"></path>
                                </g>
                            </g>
                        </g>
                    </g>
                    <path d="M109.324042,68.4224605 L84.0972222,68.0787037 C84.5795507,68.5563392 84.7266282,69.1555345 84.538455,69.8762897 C85.1779312,69.9843573 87.0362319,70.1220816 90.113357,70.2894626 C90.8751752,73.3216138 92.7033303,74.8376894 95.5978224,74.8376894 C98.4923145,74.8376894 100.339893,73.5516975 101.140558,70.9797137 L102.427202,70.9797137 C103.113803,73.5516975 104.384282,74.8376894 106.23864,74.8376894 C109.020176,74.8376894 110.112649,73.8807237 110.112649,70.9797137 C110.168704,70.2520496 109.905835,69.3996318 109.324042,68.4224605 Z" id="Path-18" opacity="0.289550781"></path>
                    <g id="Combined-Shape" transform="translate(84.097222, 66.476852)">
                        <mask id="mask-12" fill="white">
                            <use xlink:href="#path-11"></use>
                        </mask>
                        <use id="Mask" fill="#515151" xlink:href="#path-11"></use>
                        <path d="M-0.800925926,0 L28.8333333,0 L28.8333333,0.800925926 L-0.800925926,0.800925926 L-0.800925926,0 Z M-0.800925926,1.60185185 L28.8333333,1.60185185 L28.8333333,2.40277778 L-0.800925926,2.40277778 L-0.800925926,1.60185185 Z M-0.800925926,3.2037037 L28.8333333,3.2037037 L28.8333333,4.00462963 L-0.800925926,4.00462963 L-0.800925926,3.2037037 Z M-0.800925926,4.80555556 L28.8333333,4.80555556 L28.8333333,5.60648148 L-0.800925926,5.60648148 L-0.800925926,4.80555556 Z" fill="#000000" opacity="0.263532366" mask="url(#mask-12)"></path>
                    </g>
                    <path d="M108.541497,50.5967746 C108.801172,53.7274773 104.17825,55.4924083 94.6727295,55.8915677 C94.2585788,53.3569969 90.7826855,44.3211602 98.1912503,42.4048824 C103.130293,41.1273638 106.580376,43.8579946 108.541497,50.5967746 Z" id="Path-19" fill="#FFFFFF"></path>
                </g>
                <g id="money-copy" transform="translate(50.039419, 58.477241) rotate(-30.000000) translate(-50.039419, -58.477241) translate(33.539419, 48.977241)">
                    <rect id="Rectangle" fill="#47E7B8" x="0" y="0" width="33" height="19" rx="0.785214227"></rect>
                    <ellipse id="Oval" fill="#28B289" cx="16.5654762" cy="9.5" rx="6.74404762" ry="6.84265734"></ellipse>
                    <path d="M12.5714286,11.2472028 L12.5714286,7.58006993 C12.5714286,7.29440559 12.7940476,7.06853147 13.0755952,7.06853147 L14.6666667,7.06853147 C15.2494048,7.06853147 15.7011905,7.23461538 16.002381,7.54020979 C16.2577381,7.7993007 16.3952381,8.16468531 16.3952381,8.60314685 L16.3952381,8.61643357 C16.3952381,9.3472028 16.035119,9.79895105 15.4785714,10.0314685 L16.1791667,10.8951049 C16.277381,11.0213287 16.3428571,11.1276224 16.3428571,11.2870629 C16.3428571,11.5727273 16.1071429,11.7587413 15.864881,11.7587413 C15.6357143,11.7587413 15.485119,11.6458042 15.3672619,11.493007 L14.385119,10.2307692 L13.5797619,10.2307692 L13.5797619,11.2472028 C13.5797619,11.5328671 13.3571429,11.7587413 13.0755952,11.7587413 C12.7940476,11.7587413 12.5714286,11.5328671 12.5714286,11.2472028 Z M13.5797619,9.32727273 L14.6011905,9.32727273 C15.0922619,9.32727273 15.3738095,9.06153846 15.3738095,8.66958042 L15.3738095,8.65629371 C15.3738095,8.21783217 15.072619,7.99195804 14.5815476,7.99195804 L13.5797619,7.99195804 L13.5797619,9.32727273 Z M18.3548469,6.98881119 C18.3548469,6.79615385 18.5054422,6.64335664 18.6953231,6.64335664 C18.8852041,6.64335664 19.0357993,6.79615385 19.0357993,6.98881119 L19.0357993,7.08181818 C19.3893708,7.13496503 19.7036565,7.24125874 19.9852041,7.4006993 C20.1096088,7.47377622 20.2209184,7.6 20.2209184,7.7993007 C20.2209184,8.05174825 20.0244898,8.24440559 19.7756803,8.24440559 C19.6971088,8.24440559 19.6185374,8.22447552 19.5465136,8.18461538 C19.3631803,8.08496503 19.1798469,8.00524476 19.0030612,7.95874126 L19.0030612,8.96853147 C19.9982993,9.24090909 20.4238946,9.6527972 20.4238946,10.3968531 C20.4238946,11.1409091 19.8607993,11.6192308 19.0357993,11.7122378 L19.0357993,12.0643357 C19.0357993,12.256993 18.8852041,12.4097902 18.6953231,12.4097902 C18.5054422,12.4097902 18.3548469,12.256993 18.3548469,12.0643357 L18.3548469,11.7055944 C17.889966,11.6458042 17.4512755,11.4797203 17.064966,11.2405594 C16.927466,11.1541958 16.8423469,11.0213287 16.8423469,10.841958 C16.8423469,10.5828671 17.0387755,10.3902098 17.2941327,10.3902098 C17.3792517,10.3902098 17.4709184,10.4234266 17.5494898,10.4765734 C17.8244898,10.6559441 18.0863946,10.7821678 18.387585,10.8486014 L18.387585,9.79230769 C17.4447279,9.53321678 16.9798469,9.16783217 16.9798469,8.37727273 C16.9798469,7.6465035 17.5298469,7.1548951 18.3548469,7.06853147 L18.3548469,6.98881119 Z M19.4679422,10.45 C19.4679422,10.2307692 19.3566327,10.0846154 19.0030612,9.95839161 L19.0030612,10.8818182 C19.3107993,10.8353147 19.4679422,10.6891608 19.4679422,10.45 Z M17.9357993,8.31748252 C17.9357993,8.52342657 18.027466,8.66293706 18.387585,8.7958042 L18.387585,7.89895105 C18.0732993,7.94545455 17.9357993,8.1048951 17.9357993,8.31748252 Z" id="R$" fill="#FFCB00"></path>
                </g>
                <g id="money-copy-5" transform="translate(215.039419, 29.477241) rotate(30.000000) translate(-215.039419, -29.477241) translate(198.539419, 19.977241)">
                    <rect id="Rectangle" fill="#47E7B8" x="0" y="0" width="33" height="19" rx="0.785214227"></rect>
                    <ellipse id="Oval" fill="#28B289" cx="16.5654762" cy="9.5" rx="6.74404762" ry="6.84265734"></ellipse>
                    <path d="M12.5714286,11.2472028 L12.5714286,7.58006993 C12.5714286,7.29440559 12.7940476,7.06853147 13.0755952,7.06853147 L14.6666667,7.06853147 C15.2494048,7.06853147 15.7011905,7.23461538 16.002381,7.54020979 C16.2577381,7.7993007 16.3952381,8.16468531 16.3952381,8.60314685 L16.3952381,8.61643357 C16.3952381,9.3472028 16.035119,9.79895105 15.4785714,10.0314685 L16.1791667,10.8951049 C16.277381,11.0213287 16.3428571,11.1276224 16.3428571,11.2870629 C16.3428571,11.5727273 16.1071429,11.7587413 15.864881,11.7587413 C15.6357143,11.7587413 15.485119,11.6458042 15.3672619,11.493007 L14.385119,10.2307692 L13.5797619,10.2307692 L13.5797619,11.2472028 C13.5797619,11.5328671 13.3571429,11.7587413 13.0755952,11.7587413 C12.7940476,11.7587413 12.5714286,11.5328671 12.5714286,11.2472028 Z M13.5797619,9.32727273 L14.6011905,9.32727273 C15.0922619,9.32727273 15.3738095,9.06153846 15.3738095,8.66958042 L15.3738095,8.65629371 C15.3738095,8.21783217 15.072619,7.99195804 14.5815476,7.99195804 L13.5797619,7.99195804 L13.5797619,9.32727273 Z M18.3548469,6.98881119 C18.3548469,6.79615385 18.5054422,6.64335664 18.6953231,6.64335664 C18.8852041,6.64335664 19.0357993,6.79615385 19.0357993,6.98881119 L19.0357993,7.08181818 C19.3893708,7.13496503 19.7036565,7.24125874 19.9852041,7.4006993 C20.1096088,7.47377622 20.2209184,7.6 20.2209184,7.7993007 C20.2209184,8.05174825 20.0244898,8.24440559 19.7756803,8.24440559 C19.6971088,8.24440559 19.6185374,8.22447552 19.5465136,8.18461538 C19.3631803,8.08496503 19.1798469,8.00524476 19.0030612,7.95874126 L19.0030612,8.96853147 C19.9982993,9.24090909 20.4238946,9.6527972 20.4238946,10.3968531 C20.4238946,11.1409091 19.8607993,11.6192308 19.0357993,11.7122378 L19.0357993,12.0643357 C19.0357993,12.256993 18.8852041,12.4097902 18.6953231,12.4097902 C18.5054422,12.4097902 18.3548469,12.256993 18.3548469,12.0643357 L18.3548469,11.7055944 C17.889966,11.6458042 17.4512755,11.4797203 17.064966,11.2405594 C16.927466,11.1541958 16.8423469,11.0213287 16.8423469,10.841958 C16.8423469,10.5828671 17.0387755,10.3902098 17.2941327,10.3902098 C17.3792517,10.3902098 17.4709184,10.4234266 17.5494898,10.4765734 C17.8244898,10.6559441 18.0863946,10.7821678 18.387585,10.8486014 L18.387585,9.79230769 C17.4447279,9.53321678 16.9798469,9.16783217 16.9798469,8.37727273 C16.9798469,7.6465035 17.5298469,7.1548951 18.3548469,7.06853147 L18.3548469,6.98881119 Z M19.4679422,10.45 C19.4679422,10.2307692 19.3566327,10.0846154 19.0030612,9.95839161 L19.0030612,10.8818182 C19.3107993,10.8353147 19.4679422,10.6891608 19.4679422,10.45 Z M17.9357993,8.31748252 C17.9357993,8.52342657 18.027466,8.66293706 18.387585,8.7958042 L18.387585,7.89895105 C18.0732993,7.94545455 17.9357993,8.1048951 17.9357993,8.31748252 Z" id="R$" fill="#FFCB00"></path>
                </g>
                <g id="money-copy-6" transform="translate(43.039419, 153.431724) rotate(-30.000000) translate(-43.039419, -153.431724) translate(26.539419, 143.931724)">
                    <rect id="Rectangle" fill="#47E7B8" x="0" y="0" width="33" height="19" rx="0.785214227"></rect>
                    <ellipse id="Oval" fill="#28B289" cx="16.5654762" cy="9.5" rx="6.74404762" ry="6.84265734"></ellipse>
                    <path d="M12.5714286,11.2472028 L12.5714286,7.58006993 C12.5714286,7.29440559 12.7940476,7.06853147 13.0755952,7.06853147 L14.6666667,7.06853147 C15.2494048,7.06853147 15.7011905,7.23461538 16.002381,7.54020979 C16.2577381,7.7993007 16.3952381,8.16468531 16.3952381,8.60314685 L16.3952381,8.61643357 C16.3952381,9.3472028 16.035119,9.79895105 15.4785714,10.0314685 L16.1791667,10.8951049 C16.277381,11.0213287 16.3428571,11.1276224 16.3428571,11.2870629 C16.3428571,11.5727273 16.1071429,11.7587413 15.864881,11.7587413 C15.6357143,11.7587413 15.485119,11.6458042 15.3672619,11.493007 L14.385119,10.2307692 L13.5797619,10.2307692 L13.5797619,11.2472028 C13.5797619,11.5328671 13.3571429,11.7587413 13.0755952,11.7587413 C12.7940476,11.7587413 12.5714286,11.5328671 12.5714286,11.2472028 Z M13.5797619,9.32727273 L14.6011905,9.32727273 C15.0922619,9.32727273 15.3738095,9.06153846 15.3738095,8.66958042 L15.3738095,8.65629371 C15.3738095,8.21783217 15.072619,7.99195804 14.5815476,7.99195804 L13.5797619,7.99195804 L13.5797619,9.32727273 Z M18.3548469,6.98881119 C18.3548469,6.79615385 18.5054422,6.64335664 18.6953231,6.64335664 C18.8852041,6.64335664 19.0357993,6.79615385 19.0357993,6.98881119 L19.0357993,7.08181818 C19.3893708,7.13496503 19.7036565,7.24125874 19.9852041,7.4006993 C20.1096088,7.47377622 20.2209184,7.6 20.2209184,7.7993007 C20.2209184,8.05174825 20.0244898,8.24440559 19.7756803,8.24440559 C19.6971088,8.24440559 19.6185374,8.22447552 19.5465136,8.18461538 C19.3631803,8.08496503 19.1798469,8.00524476 19.0030612,7.95874126 L19.0030612,8.96853147 C19.9982993,9.24090909 20.4238946,9.6527972 20.4238946,10.3968531 C20.4238946,11.1409091 19.8607993,11.6192308 19.0357993,11.7122378 L19.0357993,12.0643357 C19.0357993,12.256993 18.8852041,12.4097902 18.6953231,12.4097902 C18.5054422,12.4097902 18.3548469,12.256993 18.3548469,12.0643357 L18.3548469,11.7055944 C17.889966,11.6458042 17.4512755,11.4797203 17.064966,11.2405594 C16.927466,11.1541958 16.8423469,11.0213287 16.8423469,10.841958 C16.8423469,10.5828671 17.0387755,10.3902098 17.2941327,10.3902098 C17.3792517,10.3902098 17.4709184,10.4234266 17.5494898,10.4765734 C17.8244898,10.6559441 18.0863946,10.7821678 18.387585,10.8486014 L18.387585,9.79230769 C17.4447279,9.53321678 16.9798469,9.16783217 16.9798469,8.37727273 C16.9798469,7.6465035 17.5298469,7.1548951 18.3548469,7.06853147 L18.3548469,6.98881119 Z M19.4679422,10.45 C19.4679422,10.2307692 19.3566327,10.0846154 19.0030612,9.95839161 L19.0030612,10.8818182 C19.3107993,10.8353147 19.4679422,10.6891608 19.4679422,10.45 Z M17.9357993,8.31748252 C17.9357993,8.52342657 18.027466,8.66293706 18.387585,8.7958042 L18.387585,7.89895105 C18.0732993,7.94545455 17.9357993,8.1048951 17.9357993,8.31748252 Z" id="R$" fill="#FFCB00"></path>
                </g>
                <g id="money" transform="translate(203.700049, 165.723324) rotate(-20.000000) translate(-203.700049, -165.723324) translate(180.200049, 152.223324)">
                    <rect id="Rectangle" fill="#47E7B8" x="0" y="0" width="47" height="27" rx="1.12173463"></rect>
                    <ellipse id="Oval" fill="#28B289" cx="23.593254" cy="13.5" rx="9.60515873" ry="9.72377622"></ellipse>
                    <path d="M17.9047619,15.9828671 L17.9047619,10.7716783 C17.9047619,10.3657343 18.2218254,10.0447552 18.6228175,10.0447552 L20.8888889,10.0447552 C21.7188492,10.0447552 22.3623016,10.2807692 22.7912698,10.715035 C23.1549603,11.0832168 23.3507937,11.6024476 23.3507937,12.2255245 L23.3507937,12.2444056 C23.3507937,13.2828671 22.8378968,13.9248252 22.0452381,14.2552448 L23.0430556,15.4825175 C23.1829365,15.6618881 23.2761905,15.8129371 23.2761905,16.0395105 C23.2761905,16.4454545 22.9404762,16.7097902 22.5954365,16.7097902 C22.2690476,16.7097902 22.0545635,16.5493007 21.8867063,16.3321678 L20.4878968,14.5384615 L19.340873,14.5384615 L19.340873,15.9828671 C19.340873,16.3888112 19.0238095,16.7097902 18.6228175,16.7097902 C18.2218254,16.7097902 17.9047619,16.3888112 17.9047619,15.9828671 Z M19.340873,13.2545455 L20.7956349,13.2545455 C21.4950397,13.2545455 21.8960317,12.8769231 21.8960317,12.3199301 L21.8960317,12.301049 C21.8960317,11.677972 21.4670635,11.356993 20.7676587,11.356993 L19.340873,11.356993 L19.340873,13.2545455 Z M26.1417517,9.93146853 C26.1417517,9.65769231 26.3562358,9.44055944 26.6266723,9.44055944 C26.8971088,9.44055944 27.111593,9.65769231 27.111593,9.93146853 L27.111593,10.0636364 C27.6151644,10.1391608 28.0627834,10.2902098 28.4637755,10.5167832 C28.6409581,10.6206294 28.7994898,10.8 28.7994898,11.0832168 C28.7994898,11.441958 28.5197279,11.7157343 28.1653628,11.7157343 C28.0534581,11.7157343 27.9415533,11.6874126 27.8389739,11.6307692 C27.5778628,11.4891608 27.3167517,11.3758741 27.064966,11.3097902 L27.064966,12.7447552 C28.4824263,13.1318182 29.0885771,13.7171329 29.0885771,14.7744755 C29.0885771,15.8318182 28.286593,16.5115385 27.111593,16.6437063 L27.111593,17.1440559 C27.111593,17.4178322 26.8971088,17.634965 26.6266723,17.634965 C26.3562358,17.634965 26.1417517,17.4178322 26.1417517,17.1440559 L26.1417517,16.6342657 C25.4796485,16.5493007 24.8548469,16.3132867 24.3046485,15.9734266 C24.1088152,15.8506993 23.987585,15.6618881 23.987585,15.406993 C23.987585,15.0388112 24.2673469,14.765035 24.6310374,14.765035 C24.7522676,14.765035 24.8828231,14.8122378 24.9947279,14.8877622 C25.3863946,15.1426573 25.7594104,15.322028 26.1883787,15.4164336 L26.1883787,13.9153846 C24.8455215,13.5472028 24.1834184,13.027972 24.1834184,11.9045455 C24.1834184,10.8660839 24.9667517,10.1674825 26.1417517,10.0447552 L26.1417517,9.93146853 Z M27.7270692,14.85 C27.7270692,14.5384615 27.5685374,14.3307692 27.064966,14.1513986 L27.064966,15.4636364 C27.5032596,15.3975524 27.7270692,15.1898601 27.7270692,14.85 Z M25.5449263,11.8195804 C25.5449263,12.1122378 25.6754819,12.3104895 26.1883787,12.4993007 L26.1883787,11.2248252 C25.7407596,11.2909091 25.5449263,11.5174825 25.5449263,11.8195804 Z" id="R$" fill="#FFCB00"></path>
                </g>
            </g>
        </g>
    </g>
</svg>