<?xml version="1.0" encoding="UTF-8"?>
<svg width="179px" height="51px" viewBox="0 0 179 51" version="1.1" xmlns="http://www.w3.org/2000/svg" xmlns:xlink="http://www.w3.org/1999/xlink">
    <!-- Generator: Sketch 52.4 (67378) - http://www.bohemiancoding.com/sketch -->
    <title>logo yellow</title>
    <desc>Created with Sketch.</desc>
    <defs>
        <polygon id="path-1" points="0 0.0447509881 41.6166904 0.0447509881 41.6166904 50.798419 0 50.798419"></polygon>
        <path d="M16.0631048,20.1808814 C12.2755686,20.5421146 8.47985061,18.5857708 6.6477447,14.9534822 L0.13390078,2.03879051 L4.08427313,0.00564426877 L10.5859443,12.9326324 C11.7712954,15.2824625 14.5013946,16.3254427 16.8954448,15.4469526 C17.2771918,16.7717431 17.1077703,18.1719249 16.4841639,19.3449249" id="path-3"></path>
        <radialGradient cx="112.993004%" cy="81.6896579%" fx="112.993004%" fy="81.6896579%" r="55.4591526%" gradientTransform="translate(1.129930,0.816897),scale(1.000000,0.839067),rotate(-64.998592),translate(-1.129930,-0.816897)" id="radialGradient-5">
            <stop stop-color="#D7D9DD" offset="0%"></stop>
            <stop stop-color="#FFCB00" offset="100%"></stop>
        </radialGradient>
        <path d="M8.17433333,0.118126482 L12.1245061,2.15127273 L3.49878149,19.2336522 C2.96317837,20.2832846 2.23340914,21.2391818 1.33082609,22.0424822 L1.33082609,22.0426838 C1.49984838,20.2756245 1.19253512,18.4410356 0.33545039,16.7419091 L0.0536800446,16.1839328 L8.17433333,0.118126482 Z" id="path-6"></path>
        <radialGradient cx="-7.51006894%" cy="94.1252749%" fx="-7.51006894%" fy="94.1252749%" r="76.1266354%" gradientTransform="translate(-0.075101,0.941253),scale(1.000000,0.550562),rotate(-64.998592),translate(0.075101,-0.941253)" id="radialGradient-8">
            <stop stop-color="#D7D9DD" offset="0%"></stop>
            <stop stop-color="#FFCB00" offset="100%"></stop>
        </radialGradient>
    </defs>
    <g id="Page-1" stroke="none" stroke-width="1" fill="none" fill-rule="evenodd">
        <g id="newsite_desk" transform="translate(-357.000000, -5452.000000)">
            <g id="logo-yellow" transform="translate(357.000000, 5452.000000)">
                <path d="M58.3698246,27.8428755 L52.0363776,19.1525158 C51.7280666,18.7279862 51.5035682,18.2183893 51.5035682,17.595504 C51.5035682,16.4343972 52.4564389,15.5006739 53.6613464,15.5006739 C54.6421546,15.5006739 55.2587767,16.0384921 55.7915861,16.8309071 L60.5555404,23.766504 L65.4037065,16.7744644 C65.9359172,15.9816462 66.5806764,15.4720494 67.4772728,15.4720494 C68.7945292,15.4720494 69.5793754,16.4063775 69.5793754,17.595504 C69.5793754,18.1895632 69.2990019,18.7279862 69.0186284,19.1238913 L62.6851814,27.7578083 L62.6851814,33.4766621 C62.6851814,34.6940099 61.7327098,35.6563577 60.5276028,35.6563577 C59.3224958,35.6563577 58.3698246,34.6940099 58.3698246,33.4766621 L58.3698246,27.8428755 Z M73.0758221,33.3066285 L73.0758221,17.85 C73.0758221,16.6326522 74.0286928,15.6703043 75.2336002,15.6703043 L86.1069023,15.6703043 C87.172122,15.6703043 88.0405813,16.547585 88.0405813,17.6238261 C88.0405813,18.6992609 87.172122,19.5485217 86.1069023,19.5485217 L77.3632412,19.5485217 L77.3632412,23.568249 L84.8459202,23.568249 C85.9111398,23.568249 86.7795991,24.4461344 86.7795991,25.5217708 C86.7795991,26.5972055 85.9111398,27.4470711 84.8459202,27.4470711 L77.3632412,27.4470711 L77.3632412,31.6083083 L86.2473884,31.6083083 C87.3120094,31.6083083 88.1806682,32.4855889 88.1806682,33.5612253 C88.1806682,34.6372648 87.3120094,35.4863241 86.2473884,35.4863241 L75.2336002,35.4863241 C74.0286928,35.4863241 73.0758221,34.5241779 73.0758221,33.3066285 Z M92.7116431,17.6800672 C92.7116431,16.4631225 93.6643143,15.5007747 94.8698204,15.5007747 C96.0747279,15.5007747 97.0277981,16.4631225 97.0277981,17.6800672 L97.0277981,31.5232411 L105.014152,31.5232411 C106.107309,31.5232411 106.975968,32.4005217 106.975968,33.5047826 C106.975968,34.6090435 106.107309,35.4863241 105.014152,35.4863241 L94.8698204,35.4863241 C93.6643143,35.4863241 92.7116431,34.5241779 92.7116431,33.3066285 L92.7116431,17.6800672 Z M110.537229,17.6800672 C110.537229,16.4631225 111.489901,15.5007747 112.695008,15.5007747 C113.900314,15.5007747 114.852786,16.4631225 114.852786,17.6800672 L114.852786,31.5232411 L122.839738,31.5232411 C123.932496,31.5232411 124.801354,32.4005217 124.801354,33.5047826 C124.801354,34.6090435 123.932496,35.4863241 122.839738,35.4863241 L112.695008,35.4863241 C111.489901,35.4863241 110.537229,34.5241779 110.537229,33.3066285 L110.537229,17.6800672 Z M142.999648,25.6349383 L142.999648,25.5786972 C142.999648,22.1814522 140.533559,19.3502466 137.058524,19.3502466 C133.58309,19.3502466 131.173076,22.1246063 131.173076,25.5216498 L131.173076,25.5786972 C131.173076,28.9753375 133.639764,31.8059383 137.114399,31.8059383 C140.589434,31.8059383 142.999648,29.0321834 142.999648,25.6349383 Z M126.661358,25.6349383 L126.661358,25.5786972 C126.661358,19.9447091 131.061326,15.3307209 137.114399,15.3307209 C143.167672,15.3307209 147.511166,19.8880648 147.511166,25.5216498 L147.511166,25.5786972 C147.511166,31.2118791 143.111797,35.8260688 137.058524,35.8260688 C131.005251,35.8260688 126.661358,31.2683217 126.661358,25.6349383 Z M150.124945,18.4447648 C150.040933,18.1895632 149.95712,17.8783221 149.95712,17.6237253 C149.95712,16.4063775 150.965866,15.5002708 152.171173,15.5002708 C153.179919,15.5002708 153.992503,16.1517806 154.272876,17.0572826 L158.168371,29.2021364 L162.091604,17.1703696 C162.427853,16.1517806 163.184562,15.4440296 164.27732,15.4440296 L164.613568,15.4440296 C165.706526,15.4440296 166.463235,16.1229545 166.799683,17.1703696 L170.723315,29.2021364 L174.618611,17.0572826 C174.898785,16.2080217 175.626958,15.5002708 176.692377,15.5002708 C177.869147,15.5002708 178.821818,16.4063775 178.821818,17.595504 C178.821818,17.8501008 178.737806,18.1895632 178.653993,18.4447648 L173.161068,34.0144802 C172.768745,35.1181364 171.955961,35.7978676 170.919078,35.7978676 L170.470879,35.7978676 C169.433997,35.7978676 168.64915,35.1467609 168.256827,34.0144802 L164.389469,22.6622431 L160.52251,34.0144802 C160.129988,35.1467609 159.345341,35.7978676 158.308458,35.7978676 L157.859861,35.7978676 C156.822578,35.7978676 156.010194,35.1181364 155.617871,34.0144802 L150.124945,18.4447648 Z" id="YELLOW" fill="#FFFFFF"></path>
                <g id="Y">
                    <g id="Group-16" transform="translate(-0.000000, 0.156830)">
                        <mask id="mask-2" fill="white">
                            <use xlink:href="#path-1"></use>
                        </mask>
                        <g id="Clip-15"></g>
                        <path d="M36.9337465,7.86722372 L18.1718725,45.0633581 C17.6023452,46.192615 16.2292136,46.6435518 15.1111122,46.0678364 C13.9930107,45.4925241 13.5466082,44.1054451 14.1163351,42.975785 L21.100528,29.113864 C21.6377275,28.0402435 21.9699851,26.8708719 22.0845291,25.6708601 C22.9869126,24.8675597 23.7168814,23.911864 24.2522849,22.86203 L32.8782091,5.77985217 C33.4477365,4.65039368 34.820868,4.1996585 35.939169,4.77517233 C37.0570709,5.35068617 37.5034734,6.73776522 36.9337465,7.86722372 M11.1846863,20.7942119 L4.68301516,7.86722372 C4.11308874,6.73776522 4.55949119,5.35068617 5.67759264,4.77517233 C6.79569409,4.1996585 8.16882564,4.65039368 8.73855251,5.77985217 L17.1391802,22.4034332 C17.2878479,22.6985478 17.4059839,23.0015241 17.4941868,23.308532 C15.1001367,24.1870221 12.3698379,23.1440419 11.1846863,20.7942119 M37.9520709,0.784875889 L37.9518713,0.784875889 C34.6504488,-0.914452174 30.6102771,0.411547826 28.9280363,3.74670593 L20.8071835,19.8125123 L12.6887253,3.74670593 C11.0064845,0.411547826 6.96631282,-0.914452174 3.66469075,0.784875889 C0.363068673,2.48400237 -0.949597993,6.56541344 0.732642809,9.90036996 L7.24628718,22.8152632 C9.07859264,26.4473502 12.8743106,28.4036941 16.6618468,28.0424609 L10.1661623,40.9428403 C8.48392152,44.2775953 9.79678774,48.3590063 13.0982103,50.0581328 C16.3998323,51.7576625 20.440004,50.4316625 22.1220453,47.0965043 L40.8839193,9.90036996 C42.5663596,6.56541344 41.2532939,2.48400237 37.9520709,0.784875889" id="Fill-14" fill="#FCCF00" mask="url(#mask-2)"></path>
                    </g>
                    <g id="Group-23" transform="translate(0.598662, 3.785289)">
                        <g id="Group-19" transform="translate(0.000000, 4.233202)">
                            <mask id="mask-4" fill="white">
                                <use xlink:href="#path-3"></use>
                            </mask>
                            <g id="Clip-18"></g>
                            <path d="M16.0631048,20.1808814 L16.4841639,19.3449249 C17.1077703,18.1719249 17.2771918,16.7717431 16.8954448,15.4469526 C14.5013946,16.3254427 11.7712954,15.2824625 10.5859443,12.9326324 L4.08427313,0.00564426877 L0.13390078,2.03879051 L6.6477447,14.9534822 C8.47985061,18.5857708 12.2755686,20.5421146 16.0631048,20.1808814" id="Fill-17" fill="url(#radialGradient-5)" mask="url(#mask-4)"></path>
                        </g>
                        <g id="Group-22" transform="translate(20.154961, 0.000000)">
                            <mask id="mask-7" fill="white">
                                <use xlink:href="#path-6"></use>
                            </mask>
                            <g id="Clip-21"></g>
                            <path d="M8.17433333,0.118126482 L0.0536800446,16.1839328 L0.33545039,16.7419091 C1.19253512,18.4410356 1.49984838,20.2756245 1.33082609,22.0426838 L1.33082609,22.0424822 C2.23340914,21.2391818 2.96317837,20.2832846 3.49878149,19.2336522 L12.1245061,2.15127273 L8.17433333,0.118126482 Z" id="Fill-20" fill="url(#radialGradient-8)" mask="url(#mask-7)"></path>
                        </g>
                    </g>
                </g>
            </g>
        </g>
    </g>
</svg>