<?xml version="1.0" encoding="UTF-8"?>
<svg width="60px" height="60px" viewBox="0 0 60 60" version="1.1" xmlns="http://www.w3.org/2000/svg" xmlns:xlink="http://www.w3.org/1999/xlink">
    <!-- Generator: Sketch 52.4 (67378) - http://www.bohemiancoding.com/sketch -->
    <title>MODAL_PATINETE</title>
    <desc>Created with Sketch.</desc>
    <g id="Page-1" stroke="none" stroke-width="1" fill="none" fill-rule="evenodd">
        <g id="newsite_desk" transform="translate(-590.000000, -1935.000000)">
            <g id="MODAL_PATINETE" transform="translate(590.000000, 1935.000000)">
                <circle id="Oval-Copy-20" fill="#000000" cx="30" cy="30" r="30"></circle>
                <g id="Yellow/User-App/PIN/MODAIS/SCOOTER/#FFCB00" transform="translate(8.000000, 16.000000)" fill="#FFCB00" fill-rule="nonzero">
                    <path d="M31.9842313,21.1195781 L28.2485277,1.97626229 L23.7642791,3.9001565 C23.3091071,4.0954407 22.7818081,3.88475996 22.5865239,3.4295879 C22.3912397,2.97441585 22.6019204,2.44711687 23.0570925,2.25183267 L32.3779274,-1.74712056 C32.8330995,-1.94240476 33.3603984,-1.73172402 33.5556826,-1.27655196 C33.7509668,-0.821379908 33.5402861,-0.294080928 33.085114,-0.0987967305 L29.9348029,1.25279324 L33.7784415,20.9492139 C36.0316467,21.1881506 37.7870113,23.0932561 37.7870113,25.4080188 C37.7870113,27.8844958 35.7778124,29.892077 33.2993399,29.892077 C31.1550338,29.892077 29.3619899,28.3893556 28.9174667,26.3803682 L17.1317063,26.4297881 C16.6364153,26.431865 16.233219,26.0320359 16.2311421,25.5367449 C16.2310482,25.5143587 16.2317754,25.4921607 16.2332953,25.4701794 C16.2318625,25.4494491 16.2311342,25.428525 16.2311342,25.4074308 C16.2311342,21.9405248 13.4180938,19.1297494 9.94767161,19.1297494 C9.45237623,19.1297494 9.05085998,18.7282331 9.05085998,18.2329377 C9.05085998,17.7376423 9.45237623,17.3361261 9.94767161,17.3361261 C14.1468135,17.3361261 17.5977677,20.5382877 17.9880174,24.6325584 L28.8867491,24.586858 C29.1924224,22.9365199 30.4025811,21.6032384 31.9842313,21.1195781 Z M9.94767161,28.0978656 C11.4358766,28.0978656 12.6417198,26.8929934 12.6417198,25.4074308 C12.6417198,23.9218682 11.4358766,22.7169959 9.94767161,22.7169959 C8.45946664,22.7169959 7.25362346,23.9218682 7.25362346,25.4074308 C7.25362346,26.8929934 8.45946664,28.0978656 9.94767161,28.0978656 Z M9.94767161,29.8914889 C7.46919913,29.8914889 5.46000021,27.8839077 5.46000021,25.4074308 C5.46000021,22.9309538 7.46919913,20.9233726 9.94767161,20.9233726 C12.4261441,20.9233726 14.435343,22.9309538 14.435343,25.4074308 C14.435343,27.8839077 12.4261441,29.8914889 9.94767161,29.8914889 Z M33.2993399,28.0984537 C34.7875449,28.0984537 35.993388,26.8935814 35.993388,25.4080188 C35.993388,23.9224562 34.7875449,22.7175839 33.2993399,22.7175839 C31.8111349,22.7175839 30.6052917,23.9224562 30.6052917,25.4080188 C30.6052917,26.8935814 31.8111349,28.0984537 33.2993399,28.0984537 Z" id="Shape"></path>
                </g>
            </g>
        </g>
    </g>
</svg>