<?xml version="1.0" encoding="UTF-8"?>
<svg width="60px" height="60px" viewBox="0 0 60 60" version="1.1" xmlns="http://www.w3.org/2000/svg" xmlns:xlink="http://www.w3.org/1999/xlink">
    <!-- Generator: Sketch 52.4 (67378) - http://www.bohemiancoding.com/sketch -->
    <title>MODAL_BIKE</title>
    <desc>Created with Sketch.</desc>
    <g id="Page-1" stroke="none" stroke-width="1" fill="none" fill-rule="evenodd">
        <g id="newsite_desk" transform="translate(-490.000000, -1935.000000)">
            <g id="MODAL_BIKE" transform="translate(490.000000, 1935.000000)">
                <circle id="Oval" fill="#FFCB00" cx="30" cy="30" r="30"></circle>
                <g id="Yellow/User-App/PIN/MODAIS/BIKE/#000000" transform="translate(8.000000, 16.000000)" fill="#000000" fill-rule="nonzero">
                    <path d="M29.9957965,7.28794714 L32.8256033,7.28794714 C33.2324531,7.28794714 33.56227,6.95813023 33.56227,6.55128045 L33.56227,5.32174534 C33.56227,4.81916619 33.9696909,4.4117453 34.47227,4.4117453 C34.9748492,4.4117453 35.3822701,4.81916619 35.3822701,5.32174534 L35.3822701,6.55128045 C35.3822701,7.96328851 34.2376114,9.10794721 32.8256033,9.10794721 L30.7010025,9.10794721 C31.2054044,10.369037 31.757515,11.60966 32.3559655,12.8271824 C33.2029642,12.4955028 34.1250154,12.3134099 35.0896013,12.3134099 C39.2307999,12.3134099 42.5880016,15.6697284 42.5880016,19.8100769 C42.5880016,23.9504253 39.2307999,27.3067438 35.0896013,27.3067438 C30.9484028,27.3067438 27.591201,23.9504253 27.591201,19.8100769 C27.591201,17.284953 28.8399325,15.0514537 30.7536656,13.693101 C30.4116562,12.9995324 30.0841994,12.2986919 29.7715323,11.5910357 L25.0935373,17.9420639 C23.8069754,19.6887504 21.7501591,20.6784116 19.6050364,20.6139319 C19.5554601,20.622295 19.5045218,20.626649 19.4525666,20.626649 L16.4088309,20.626649 C16.0018484,24.3828713 12.8196156,27.3067438 8.95440034,27.3067438 C4.81320181,27.3067438 1.45600006,23.9504253 1.45600006,19.8100769 C1.45600006,15.6697284 4.81320181,12.3134099 8.95440034,12.3134099 C12.7552824,12.3134099 15.8957282,15.1407618 16.3862125,18.8066489 L18.618282,18.8066489 L15.1380962,9.08042392 C14.7989388,8.13256625 13.9007975,7.50002911 12.8940891,7.50002911 L9.89566704,7.50002911 C9.3930879,7.50002911 8.98566701,7.09260821 8.98566701,6.59002907 C8.98566701,6.08744993 9.3930879,5.68002904 9.89566704,5.68002904 L12.8940891,5.68002904 C14.6695567,5.68002904 16.2535513,6.79559455 16.8517016,8.4672708 L18.9452207,14.3181188 C19.8628442,14.7066218 20.9537144,14.4380879 21.5795128,13.6179089 L27.4971754,5.86214775 L27.0198554,4.62152236 C26.6657793,3.70122614 25.781536,3.09400012 24.7954756,3.09400012 L22.3166026,3.09400012 C21.8140234,3.09400012 21.4066025,2.68657922 21.4066025,2.18400008 C21.4066025,1.68142094 21.8140234,1.27400005 22.3166026,1.27400005 L24.7954756,1.27400005 C26.5345275,1.27400005 28.0940111,2.34492594 28.7184727,3.96799382 L29.9957965,7.28794714 Z M20.5278175,18.7410702 C21.7522878,18.5516231 22.8734748,17.8872701 23.6281472,16.8626974 L28.9518764,9.63499523 C28.8821345,9.4591485 28.8132884,9.28291978 28.7453415,9.10631573 L28.2645765,7.85673662 L23.0264328,14.721912 C22.2009967,15.8037386 20.9305224,16.357683 19.6581521,16.3105787 L20.5278175,18.7410702 Z M14.5443657,18.8066489 C14.0704071,16.1501469 11.7480302,14.13341 8.95440034,14.13341 C5.8182529,14.13341 3.27600012,16.6749939 3.27600012,19.8100769 C3.27600012,22.9451598 5.8182529,25.4867437 8.95440034,25.4867437 C11.813171,25.4867437 14.1784553,23.3748593 14.574488,20.626649 L8.54341893,20.626649 L8.54341893,18.8066489 L13.9979928,18.8066489 C14.2182028,18.8066489 14.4201439,18.8848672 14.5775487,19.0150364 C14.6139692,19.2748257 14.6328006,19.5402531 14.6328006,19.8100769 C14.6328006,20.0080947 14.6226584,20.2037449 14.6028651,20.3965364 C14.4420852,20.5396791 14.2301955,20.626649 13.9979928,20.626649 L8.54341893,20.626649 C7.33008555,20.626649 7.33008555,18.8066489 8.54341893,18.8066489 L14.5443657,18.8066489 Z M31.597109,15.3337628 C30.2665926,16.3726975 29.4112011,17.9915399 29.4112011,19.8100769 C29.4112011,22.9451598 31.9534539,25.4867437 35.0896013,25.4867437 C38.2257488,25.4867437 40.7680015,22.9451598 40.7680015,19.8100769 C40.7680015,16.6749939 38.2257488,14.13341 35.0896013,14.13341 C34.4243509,14.13341 33.7858236,14.247772 33.192616,14.457902 C34.0320142,16.0269768 34.9500865,17.5542625 35.9437429,19.0338146 C36.2239449,19.4510347 36.1128698,20.0164071 35.6956497,20.2966091 C35.2784296,20.5768111 34.7130572,20.4657359 34.4328552,20.0485158 C33.4089449,18.5239158 32.4626424,16.9503041 31.597109,15.3337628 Z" id="Shape"></path>
                </g>
            </g>
        </g>
    </g>
</svg>