<?xml version="1.0" encoding="UTF-8"?>
<svg width="494px" height="498px" viewBox="0 0 494 498" version="1.1" xmlns="http://www.w3.org/2000/svg" xmlns:xlink="http://www.w3.org/1999/xlink">
    <!-- Generator: Sketch 52.4 (67378) - http://www.bohemiancoding.com/sketch -->
    <title>route</title>
    <desc>Created with Sketch.</desc>
    <defs>
        <path d="M16.6010611,40.2541388 C7.12444923,38.3452534 7.28306304e-13,30.1533222 7.28306304e-13,20.3370058 C7.28306304e-13,9.10518765 9.3272654,2.06057393e-13 20.8330304,2.06057393e-13 C32.3387953,2.06057393e-13 41.6660607,9.10518765 41.6660607,20.3370058 C41.6660607,30.145577 34.5528496,38.3323253 25.0874267,40.2496086 L20.8419424,44.4278418 L16.6010611,40.2541388 Z" id="path-1"></path>
        <filter x="-4.8%" y="-2.3%" width="109.6%" height="109.0%" filterUnits="objectBoundingBox" id="filter-2">
            <feOffset dx="0" dy="1" in="SourceAlpha" result="shadowOffsetOuter1"></feOffset>
            <feGaussianBlur stdDeviation="0.5" in="shadowOffsetOuter1" result="shadowBlurOuter1"></feGaussianBlur>
            <feColorMatrix values="0 0 0 0 0   0 0 0 0 0   0 0 0 0 0  0 0 0 0.215636322 0" type="matrix" in="shadowBlurOuter1"></feColorMatrix>
        </filter>
        <path d="M16.6010611,40.2541388 C7.12444923,38.3452534 7.28306304e-13,30.1533222 7.28306304e-13,20.3370058 C7.28306304e-13,9.10518765 9.3272654,2.06057393e-13 20.8330304,2.06057393e-13 C32.3387953,2.06057393e-13 41.6660607,9.10518765 41.6660607,20.3370058 C41.6660607,30.145577 34.5528496,38.3323253 25.0874267,40.2496086 L20.8419424,44.4278418 L16.6010611,40.2541388 Z" id="path-3"></path>
        <filter x="-4.8%" y="-2.3%" width="109.6%" height="109.0%" filterUnits="objectBoundingBox" id="filter-4">
            <feOffset dx="0" dy="1" in="SourceAlpha" result="shadowOffsetOuter1"></feOffset>
            <feGaussianBlur stdDeviation="0.5" in="shadowOffsetOuter1" result="shadowBlurOuter1"></feGaussianBlur>
            <feColorMatrix values="0 0 0 0 0   0 0 0 0 0   0 0 0 0 0  0 0 0 0.215636322 0" type="matrix" in="shadowBlurOuter1"></feColorMatrix>
        </filter>
        <path d="M16.6010614,41.1486759 C7.12444935,39.1973708 7.28306304e-13,30.8233965 7.28306304e-13,20.7889396 C7.28306304e-13,9.30752532 9.32726556,2.06057393e-13 20.8330307,2.06057393e-13 C32.3387959,2.06057393e-13 41.6660614,9.30752532 41.6660614,20.7889396 C41.6660614,30.8154792 34.5528502,39.1841554 25.0874271,41.1440451 L20.8419427,45.415128 L16.6010614,41.1486759 Z" id="path-5"></path>
        <filter x="-4.8%" y="-2.2%" width="109.6%" height="108.8%" filterUnits="objectBoundingBox" id="filter-6">
            <feOffset dx="0" dy="1" in="SourceAlpha" result="shadowOffsetOuter1"></feOffset>
            <feGaussianBlur stdDeviation="0.5" in="shadowOffsetOuter1" result="shadowBlurOuter1"></feGaussianBlur>
            <feColorMatrix values="0 0 0 0 0   0 0 0 0 0   0 0 0 0 0  0 0 0 0.215636322 0" type="matrix" in="shadowBlurOuter1"></feColorMatrix>
        </filter>
        <path d="M16.6010614,41.1486759 C7.12444935,39.1973708 7.28306304e-13,30.8233965 7.28306304e-13,20.7889396 C7.28306304e-13,9.30752532 9.32726556,2.06057393e-13 20.8330307,2.06057393e-13 C32.3387959,2.06057393e-13 41.6660614,9.30752532 41.6660614,20.7889396 C41.6660614,30.8154792 34.5528502,39.1841554 25.0874271,41.1440451 L20.8419427,45.415128 L16.6010614,41.1486759 Z" id="path-7"></path>
        <filter x="-4.8%" y="-2.2%" width="109.6%" height="108.8%" filterUnits="objectBoundingBox" id="filter-8">
            <feOffset dx="0" dy="1" in="SourceAlpha" result="shadowOffsetOuter1"></feOffset>
            <feGaussianBlur stdDeviation="0.5" in="shadowOffsetOuter1" result="shadowBlurOuter1"></feGaussianBlur>
            <feColorMatrix values="0 0 0 0 0   0 0 0 0 0   0 0 0 0 0  0 0 0 0.215636322 0" type="matrix" in="shadowBlurOuter1"></feColorMatrix>
        </filter>
        <path d="M16.6010611,40.2541388 C7.12444923,38.3452534 7.28306304e-13,30.1533222 7.28306304e-13,20.3370058 C7.28306304e-13,9.10518765 9.3272654,2.06057393e-13 20.8330304,2.06057393e-13 C32.3387953,2.06057393e-13 41.6660607,9.10518765 41.6660607,20.3370058 C41.6660607,30.145577 34.5528496,38.3323253 25.0874267,40.2496086 L20.8419424,44.4278418 L16.6010611,40.2541388 Z" id="path-9"></path>
        <filter x="-4.8%" y="-2.3%" width="109.6%" height="109.0%" filterUnits="objectBoundingBox" id="filter-10">
            <feOffset dx="0" dy="1" in="SourceAlpha" result="shadowOffsetOuter1"></feOffset>
            <feGaussianBlur stdDeviation="0.5" in="shadowOffsetOuter1" result="shadowBlurOuter1"></feGaussianBlur>
            <feColorMatrix values="0 0 0 0 0   0 0 0 0 0   0 0 0 0 0  0 0 0 0.215636322 0" type="matrix" in="shadowBlurOuter1"></feColorMatrix>
        </filter>
        <path d="M16.6010614,41.1486759 C7.12444935,39.1973708 7.28306304e-13,30.8233965 7.28306304e-13,20.7889396 C7.28306304e-13,9.30752532 9.32726556,2.06057393e-13 20.8330307,2.06057393e-13 C32.3387959,2.06057393e-13 41.6660614,9.30752532 41.6660614,20.7889396 C41.6660614,30.8154792 34.5528502,39.1841554 25.0874271,41.1440451 L20.8419427,45.415128 L16.6010614,41.1486759 Z" id="path-11"></path>
        <filter x="-4.8%" y="-2.2%" width="109.6%" height="108.8%" filterUnits="objectBoundingBox" id="filter-12">
            <feOffset dx="0" dy="1" in="SourceAlpha" result="shadowOffsetOuter1"></feOffset>
            <feGaussianBlur stdDeviation="0.5" in="shadowOffsetOuter1" result="shadowBlurOuter1"></feGaussianBlur>
            <feColorMatrix values="0 0 0 0 0   0 0 0 0 0   0 0 0 0 0  0 0 0 0.215636322 0" type="matrix" in="shadowBlurOuter1"></feColorMatrix>
        </filter>
    </defs>
    <g id="Page-1" stroke="none" stroke-width="1" fill="none" fill-rule="evenodd">
        <g id="newsite_desk" transform="translate(-356.000000, -1250.000000)">
            <g id="route" transform="translate(357.000000, 1252.000000)">
                <path d="M466.171875,179.123353 L466.171875,214.83199 C466.171875,240.623247 445.26393,261.531191 419.472673,261.531191 L182.745607,261.531191 C156.95435,261.531191 136.046405,282.439136 136.046405,308.230393 L136.046405,308.782172 C136.046405,334.573429 115.138461,355.481374 89.3472036,355.481374 L33.7056013,355.481374" id="Path-26" stroke="#2D2D2D" stroke-width="9.93600039" stroke-linecap="round"></path>
                <path d="M25.833601,43.0248031 L25.833601,105.59695 C25.833601,131.388207 46.7415459,152.296152 72.5328029,152.296152 L445.835938,152.296152" id="Path-26-Copy" stroke="#2D2D2D" stroke-width="9.93600039" stroke-linecap="round"></path>
                <path d="M33.6336013,370.912816 L33.6336013,422.555363 C33.6336013,448.34662 54.5415462,469.254564 80.3328032,469.254564 L347.96875,469.254564" id="Path-26-Copy-2" stroke="#2D2D2D" stroke-width="9.93600039" stroke-linecap="round"></path>
                <g id="trabalho" transform="translate(440.000000, 127.000000)">
                    <circle id="Oval" stroke="#2D2D2D" stroke-width="2.98080012" fill="#000000" cx="25.7624102" cy="25.8176075" r="25.336801"></circle>
                    <g id="Group-28" transform="translate(11.000000, 13.000000)" stroke="#FFCB00">
                        <rect id="Rectangle" x="0.34880971" y="5.35280729" width="28.8144011" height="18.8784008" rx="0.993600039"></rect>
                        <path d="M1.89187472,5.35280729 L27.6201458,5.35280729 C28.168896,5.35280729 28.6137459,5.79765718 28.6137459,6.34640733 C28.6137459,6.4882446 28.5833787,6.62843805 28.524686,6.75756195 L24.4599586,15.6999623 C24.298727,16.0546718 23.9450522,16.2824077 23.5554184,16.2824077 L5.95660216,16.2824077 C5.56696837,16.2824077 5.2132936,16.0546718 5.05206199,15.6999623 L0.987334556,6.75756195 C0.760260128,6.25799821 0.981156361,5.66894158 1.4807201,5.44186716 C1.609844,5.38317448 1.75003745,5.35280729 1.89187472,5.35280729 Z" id="Rectangle-Copy"></path>
                        <path d="M11.2784101,0.384807088 L18.2336104,0.384807088 C19.3311107,0.384807088 20.2208105,1.27450687 20.2208105,2.37200717 L20.2208105,5.35280729 L9.29121006,5.35280729 L9.29121006,2.37200717 C9.29121006,1.27450687 10.1809098,0.384807088 11.2784101,0.384807088 Z" id="Rectangle"></path>
                        <rect id="Rectangle-Copy-2" fill="#000000" x="10.2848101" y="13.3016076" width="8.94240036" height="4.9680002"></rect>
                    </g>
                </g>
                <circle id="Oval-Copy-7" stroke="#2D2D2D" stroke-width="2.98080012" fill="#000000" cx="33.7368013" cy="354.436816" r="25.336801"></circle>
                <g id="icon-bus" transform="translate(21.900001, 342.000015)">
                    <rect id="Rectangle" stroke="#FFCB00" stroke-width="0.993600039" x="0.700800028" y="0.595200024" width="21.8592009" height="23.8464009" rx="2.98080012"></rect>
                    <path d="M2.68800011,24.441601 L2.68800011,25.435201 C2.68800011,26.5327013 3.57769989,27.4224011 4.67520019,27.4224011 C5.77270048,27.4224011 6.66240026,26.5327013 6.66240026,25.435201 L6.66240026,24.441601 L2.68800011,24.441601 Z" id="Rectangle-Copy-4" stroke="#FFCB00" stroke-width="0.993600039"></path>
                    <path d="M16.5984007,24.441601 L16.5984007,25.435201 C16.5984007,26.5327013 17.4881004,27.4224011 18.5856007,27.4224011 C19.683101,27.4224011 20.5728008,26.5327013 20.5728008,25.435201 L20.5728008,24.441601 L16.5984007,24.441601 Z" id="Rectangle-Copy-5" stroke="#FFCB00" stroke-width="0.993600039"></path>
                    <path d="M0.700800028,17.9832007 L22.5600009,17.9832007" id="Path-50" stroke="#FFCB00" stroke-width="0.993600039"></path>
                    <circle id="Oval" fill="#FFCB00" cx="4.67520019" cy="20.9640008" r="1"></circle>
                    <circle id="Oval-Copy-8" fill="#FFCB00" cx="18.5856007" cy="20.9640008" r="1"></circle>
                    <g id="Group" transform="translate(8.152800, 6.060000)" stroke="#FFCB00" stroke-linecap="round" stroke-width="0.993600039">
                        <path d="M7.94880032,0 L0,7.94880032" id="Path-51"></path>
                        <path d="M4.47120018,0.49680002 L0,4.9680002" id="Path-51-Copy"></path>
                        <path d="M7.4520003,3.47760014 L2.98080012,7.94880032" id="Path-51-Copy-2"></path>
                    </g>
                </g>
                <g id="Group-11" transform="translate(342.000000, 443.000000)">
                    <circle id="Oval-Copy-2" stroke="#2D2D2D" stroke-width="2.98080012" fill="#000000" cx="25.7624102" cy="25.7824201" r="25.336801"></circle>
                    <path d="M40.6664108,20.8080199 L40.6664108,39.9139114" id="Path-52" stroke="#FFCB00" stroke-width="0.993600039" stroke-linecap="round"></path>
                    <path d="M14.8328098,21.8016199 L14.8328098,36.4363113" id="Path-52-Copy" stroke="#FFCB00" stroke-width="0.993600039" stroke-linecap="round"></path>
                    <path d="M37.6856107,21.8016199 L37.6856107,36.4363113" id="Path-52-Copy-2" stroke="#FFCB00" stroke-width="0.993600039" stroke-linecap="round"></path>
                    <path d="M14.8328098,36.2088205 C14.8328098,37.5806959 19.9485835,38.6928206 26.2592103,38.6928206 C32.569837,38.6928206 37.6856107,37.5806959 37.6856107,36.2088205" id="Path" stroke="#FFCB00" stroke-width="0.993600039"></path>
                    <path d="M26.6395904,14.8718678 C26.3913331,14.798343 26.1270875,14.798343 25.8788302,14.8718678 L9.33148048,19.772591 C9.3151475,19.7774282 9.30237251,19.7902032 9.29753528,19.8065362 C9.28964665,19.8331722 9.30484443,19.86116 9.33148048,19.8690487 L25.8788302,24.7697718 C26.1270875,24.8432966 26.3913331,24.8432966 26.6395904,24.7697718 L43.18694,19.8690487 C43.203273,19.8642114 43.216048,19.8514364 43.2208852,19.8351034 C43.2287739,19.8084674 43.2135761,19.7804796 43.18694,19.772591 L26.6395904,14.8718678 Z" id="Rectangle" stroke="#FFCB00" stroke-width="0.893000986"></path>
                </g>
                <g id="Group-9" transform="translate(141.000000, 110.000000)">
                    <circle id="Oval-Copy-6" fill="#1A1A1A" cx="20.9400035" cy="42.3208075" r="4.9680002"></circle>
                    <g id="Yellow-/-User-App-/-PIN-/-CONTENT" transform="translate(0.000000, -0.000000)">
                        <g id="Yellow-/-User-App-/-PIN-/-BASE-/-#ffffff" fill-rule="nonzero">
                            <g id="Combined-Shape">
                                <use fill="black" fill-opacity="1" filter="url(#filter-2)" xlink:href="#path-1"></use>
                                <use fill="#FFFFFF" xlink:href="#path-1"></use>
                            </g>
                        </g>
                        <g id="Yellow/User-App/PIN/COLOR/#FFCB00" transform="translate(1.211223, 1.182384)" fill="#FFCB00" fill-rule="evenodd">
                            <ellipse id="Oval-Copy" cx="19.706401" cy="19.213741" rx="19.2213204" ry="18.7407874"></ellipse>
                        </g>
                        <g id="Yellow/User-App/PIN/MODAIS/BIKE/#000000" transform="translate(6.056113, 11.232649)" fill="#000000" fill-rule="nonzero">
                            <path d="M20.1830839,4.73469901 L22.0871584,4.73469901 C22.3609128,4.73469901 22.5828347,4.52042965 22.5828347,4.25611499 L22.5828347,3.45733331 C22.5828347,3.13082696 22.8569734,2.86614128 23.1951407,2.86614128 C23.533308,2.86614128 23.8074467,3.13082696 23.8074467,3.45733331 L23.8074467,4.25611499 C23.8074467,5.17344233 23.0372474,5.91708307 22.0871584,5.91708307 L20.6575915,5.91708307 C20.9969852,6.73636461 21.3684805,7.54234966 21.7711561,8.33332717 C22.3410709,8.11784765 22.9614857,7.99954892 23.6105206,7.99954892 C26.3969829,7.99954892 28.6559223,10.18002 28.6559223,12.8698452 C28.6559223,15.5596703 26.3969829,17.7401414 23.6105206,17.7401414 C20.8240582,17.7401414 18.5651189,15.5596703 18.5651189,12.8698452 C18.5651189,11.2293693 19.405345,9.77835071 20.6930266,8.89588115 C20.4629009,8.44529633 20.2425671,7.98998723 20.0321847,7.5302502 L16.8845315,11.656269 C16.0188506,12.791024 14.6348935,13.4339688 13.1915182,13.3920789 C13.1581601,13.397512 13.1238856,13.4003407 13.0889268,13.4003407 L11.0409074,13.4003407 C10.7670636,15.8406139 8.62585455,17.7401414 6.02509135,17.7401414 C3.23862899,17.7401414 0.97968965,15.5596703 0.97968965,12.8698452 C0.97968965,10.18002 3.23862899,7.99954892 6.02509135,7.99954892 C8.5825671,7.99954892 10.6956592,9.8363707 11.0256883,12.2179566 L12.5275669,12.2179566 L10.1858761,5.89920225 C9.95766939,5.28341557 9.35334268,4.87248051 8.67596507,4.87248051 L6.65843558,4.87248051 C6.3202683,4.87248051 6.04612955,4.60779482 6.04612955,4.28128848 C6.04612955,3.95478214 6.3202683,3.69009645 6.65843558,3.69009645 L8.67596507,3.69009645 C9.87061285,3.69009645 10.9364254,4.41483646 11.338899,5.50086025 L12.7475522,9.30193121 C13.3649877,9.5543267 14.0989948,9.37987051 14.5200718,8.84703175 L18.5018524,3.80841197 L18.1806811,3.00242536 C17.9424361,2.4045443 17.3474608,2.0100529 16.6839766,2.0100529 L15.0160328,2.0100529 C14.6778655,2.0100529 14.4037267,1.74536721 14.4037267,1.41886087 C14.4037267,1.09235453 14.6778655,0.827668842 15.0160328,0.827668842 L16.6839766,0.827668842 C17.8541216,0.827668842 18.9034415,1.52340822 19.3236191,2.577853 L20.1830839,4.73469901 Z M13.8124242,12.1753527 C14.6363258,12.0522762 15.3907319,11.6206715 15.8985236,10.9550461 L19.480668,6.25948591 C19.4337412,6.14524505 19.3874171,6.03075603 19.3416981,5.91602316 L19.0182088,5.10421967 L15.4936518,9.56426011 C14.9382458,10.2670812 14.0833897,10.6269576 13.2272578,10.5963558 L13.8124242,12.1753527 Z M9.7863764,12.2179566 C9.46746679,10.4921294 7.90482363,9.18193298 6.02509135,9.18193298 C3.91489144,9.18193298 2.20430171,10.8331023 2.20430171,12.8698452 C2.20430171,14.906588 3.91489144,16.5577574 6.02509135,16.5577574 C7.94865446,16.5577574 9.54016854,15.1857473 9.80664457,13.4003407 L5.74855685,13.4003407 L5.74855685,12.2179566 L9.41874184,12.2179566 C9.56691315,12.2179566 9.70279201,12.268772 9.808704,12.3533379 C9.83321006,12.5221131 9.84588098,12.6945511 9.84588098,12.8698452 C9.84588098,12.9984898 9.8390567,13.1255961 9.8257385,13.2508454 C9.71755554,13.3438397 9.5749826,13.4003407 9.41874184,13.4003407 L5.74855685,13.4003407 C4.93214881,13.4003407 4.93214881,12.2179566 5.74855685,12.2179566 L9.7863764,12.2179566 Z M21.2605491,9.96175607 C20.3652928,10.636712 19.7897309,11.6884117 19.7897309,12.8698452 C19.7897309,14.906588 21.5003207,16.5577574 23.6105206,16.5577574 C25.7207205,16.5577574 27.4313102,14.906588 27.4313102,12.8698452 C27.4313102,10.8331023 25.7207205,9.18193298 23.6105206,9.18193298 C23.1628977,9.18193298 22.7332558,9.25622959 22.3341079,9.39274297 C22.8989085,10.4121105 23.5166461,11.4043293 24.1852415,12.3655374 C24.3737792,12.6365893 24.2990408,13.00389 24.0183085,13.1859264 C23.7375762,13.3679629 23.3571577,13.2958017 23.1686199,13.0247498 C22.4796678,12.0342758 21.8429351,11.0119608 21.2605491,9.96175607 Z" id="Shape"></path>
                        </g>
                    </g>
                </g>
                <g id="Group-9-Copy" transform="translate(262.000000, 219.000000)">
                    <circle id="Oval-Copy-6" fill="#1A1A1A" cx="20.9400035" cy="42.3208075" r="4.9680002"></circle>
                    <g id="Yellow-/-User-App-/-PIN-/-CONTENT" transform="translate(0.000000, -0.000000)">
                        <g id="Yellow-/-User-App-/-PIN-/-BASE-/-#ffffff" fill-rule="nonzero">
                            <g id="Combined-Shape">
                                <use fill="black" fill-opacity="1" filter="url(#filter-4)" xlink:href="#path-3"></use>
                                <use fill="#FFFFFF" xlink:href="#path-3"></use>
                            </g>
                        </g>
                        <g id="Yellow/User-App/PIN/COLOR/#FFCB00" transform="translate(1.211223, 1.182384)" fill="#FFCB00" fill-rule="evenodd">
                            <ellipse id="Oval-Copy" cx="19.706401" cy="19.213741" rx="19.2213204" ry="18.7407874"></ellipse>
                        </g>
                        <g id="Yellow/User-App/PIN/MODAIS/BIKE/#000000" transform="translate(6.056113, 11.232649)" fill="#000000" fill-rule="nonzero">
                            <path d="M20.1830839,4.73469901 L22.0871584,4.73469901 C22.3609128,4.73469901 22.5828347,4.52042965 22.5828347,4.25611499 L22.5828347,3.45733331 C22.5828347,3.13082696 22.8569734,2.86614128 23.1951407,2.86614128 C23.533308,2.86614128 23.8074467,3.13082696 23.8074467,3.45733331 L23.8074467,4.25611499 C23.8074467,5.17344233 23.0372474,5.91708307 22.0871584,5.91708307 L20.6575915,5.91708307 C20.9969852,6.73636461 21.3684805,7.54234966 21.7711561,8.33332717 C22.3410709,8.11784765 22.9614857,7.99954892 23.6105206,7.99954892 C26.3969829,7.99954892 28.6559223,10.18002 28.6559223,12.8698452 C28.6559223,15.5596703 26.3969829,17.7401414 23.6105206,17.7401414 C20.8240582,17.7401414 18.5651189,15.5596703 18.5651189,12.8698452 C18.5651189,11.2293693 19.405345,9.77835071 20.6930266,8.89588115 C20.4629009,8.44529633 20.2425671,7.98998723 20.0321847,7.5302502 L16.8845315,11.656269 C16.0188506,12.791024 14.6348935,13.4339688 13.1915182,13.3920789 C13.1581601,13.397512 13.1238856,13.4003407 13.0889268,13.4003407 L11.0409074,13.4003407 C10.7670636,15.8406139 8.62585455,17.7401414 6.02509135,17.7401414 C3.23862899,17.7401414 0.97968965,15.5596703 0.97968965,12.8698452 C0.97968965,10.18002 3.23862899,7.99954892 6.02509135,7.99954892 C8.5825671,7.99954892 10.6956592,9.8363707 11.0256883,12.2179566 L12.5275669,12.2179566 L10.1858761,5.89920225 C9.95766939,5.28341557 9.35334268,4.87248051 8.67596507,4.87248051 L6.65843558,4.87248051 C6.3202683,4.87248051 6.04612955,4.60779482 6.04612955,4.28128848 C6.04612955,3.95478214 6.3202683,3.69009645 6.65843558,3.69009645 L8.67596507,3.69009645 C9.87061285,3.69009645 10.9364254,4.41483646 11.338899,5.50086025 L12.7475522,9.30193121 C13.3649877,9.5543267 14.0989948,9.37987051 14.5200718,8.84703175 L18.5018524,3.80841197 L18.1806811,3.00242536 C17.9424361,2.4045443 17.3474608,2.0100529 16.6839766,2.0100529 L15.0160328,2.0100529 C14.6778655,2.0100529 14.4037267,1.74536721 14.4037267,1.41886087 C14.4037267,1.09235453 14.6778655,0.827668842 15.0160328,0.827668842 L16.6839766,0.827668842 C17.8541216,0.827668842 18.9034415,1.52340822 19.3236191,2.577853 L20.1830839,4.73469901 Z M13.8124242,12.1753527 C14.6363258,12.0522762 15.3907319,11.6206715 15.8985236,10.9550461 L19.480668,6.25948591 C19.4337412,6.14524505 19.3874171,6.03075603 19.3416981,5.91602316 L19.0182088,5.10421967 L15.4936518,9.56426011 C14.9382458,10.2670812 14.0833897,10.6269576 13.2272578,10.5963558 L13.8124242,12.1753527 Z M9.7863764,12.2179566 C9.46746679,10.4921294 7.90482363,9.18193298 6.02509135,9.18193298 C3.91489144,9.18193298 2.20430171,10.8331023 2.20430171,12.8698452 C2.20430171,14.906588 3.91489144,16.5577574 6.02509135,16.5577574 C7.94865446,16.5577574 9.54016854,15.1857473 9.80664457,13.4003407 L5.74855685,13.4003407 L5.74855685,12.2179566 L9.41874184,12.2179566 C9.56691315,12.2179566 9.70279201,12.268772 9.808704,12.3533379 C9.83321006,12.5221131 9.84588098,12.6945511 9.84588098,12.8698452 C9.84588098,12.9984898 9.8390567,13.1255961 9.8257385,13.2508454 C9.71755554,13.3438397 9.5749826,13.4003407 9.41874184,13.4003407 L5.74855685,13.4003407 C4.93214881,13.4003407 4.93214881,12.2179566 5.74855685,12.2179566 L9.7863764,12.2179566 Z M21.2605491,9.96175607 C20.3652928,10.636712 19.7897309,11.6884117 19.7897309,12.8698452 C19.7897309,14.906588 21.5003207,16.5577574 23.6105206,16.5577574 C25.7207205,16.5577574 27.4313102,14.906588 27.4313102,12.8698452 C27.4313102,10.8331023 25.7207205,9.18193298 23.6105206,9.18193298 C23.1628977,9.18193298 22.7332558,9.25622959 22.3341079,9.39274297 C22.8989085,10.4121105 23.5166461,11.4043293 24.1852415,12.3655374 C24.3737792,12.6365893 24.2990408,13.00389 24.0183085,13.1859264 C23.7375762,13.3679629 23.3571577,13.2958017 23.1686199,13.0247498 C22.4796678,12.0342758 21.8429351,11.0119608 21.2605491,9.96175607 Z" id="Shape"></path>
                        </g>
                    </g>
                </g>
                <g id="Group-10" transform="translate(114.000000, 271.000000)">
                    <circle id="Oval-Copy-9" fill="#1A1A1A" cx="21.2168074" cy="45.6168118" r="4.9680002"></circle>
                    <g id="Yellow-/-User-App-/-PIN-/-CONTENT" transform="translate(0.450000, 0.904810)">
                        <g id="Yellow-/-User-App-/-PIN-/-BASE-/-#ffffff" fill-rule="nonzero">
                            <g id="Combined-Shape">
                                <use fill="black" fill-opacity="1" filter="url(#filter-6)" xlink:href="#path-5"></use>
                                <use fill="#FFFFFF" xlink:href="#path-5"></use>
                            </g>
                        </g>
                        <g id="Yellow/User-App/PIN/COLOR/#000000" transform="translate(1.211223, 1.208659)" fill="#000000" fill-rule="evenodd">
                            <circle id="Oval-Copy" cx="19.7064013" cy="19.7064013" r="19.2213207"></circle>
                        </g>
                        <g id="Yellow/User-App/PIN/MODAIS/SCOOTER/#FFCB00" transform="translate(6.056114, 11.482263)" fill="#FFCB00" fill-rule="nonzero">
                            <path d="M21.52103,13.720578 L19.0074105,1.28390164 L15.9901221,2.53378175 C15.6838533,2.66065038 15.329053,2.52377921 15.1976533,2.22807142 C15.0662537,1.93236363 15.2080131,1.58979776 15.5142819,1.46292912 L21.7859339,-1.13503706 C22.0922026,-1.2619057 22.447003,-1.12503453 22.5784027,-0.829326738 C22.7098023,-0.53361895 22.5680429,-0.191053074 22.2617741,-0.0641844379 L20.1420439,0.81389161 L22.7282891,13.6098989 C24.2443892,13.765127 25.4255104,15.0028007 25.4255104,16.5066131 C25.4255104,18.115485 24.0735932,19.4197333 22.4059189,19.4197333 C20.9630931,19.4197333 19.7566188,18.443473 19.4575152,17.1383111 L11.5273043,17.1704173 C11.1940409,17.1717666 10.9227447,16.912013 10.9213473,16.5902414 C10.9212841,16.575698 10.9217734,16.5612769 10.9227961,16.5469964 C10.921832,16.5335288 10.9213419,16.5199352 10.9213419,16.506231 C10.9213419,14.2539155 9.02854901,12.4278628 6.69342769,12.4278628 C6.36016137,12.4278628 6.08999565,12.1670131 6.08999565,11.8452387 C6.08999565,11.5234644 6.36016137,11.2626147 6.69342769,11.2626147 C9.51887804,11.2626147 11.8409,13.342936 12.103485,16.0028263 L19.4368465,15.9731364 C19.642523,14.9009753 20.4567949,14.0347935 21.52103,13.720578 Z M6.69342769,18.2541032 C7.69478688,18.2541032 8.50615504,17.471344 8.50615504,16.506231 C8.50615504,15.5411181 7.69478688,14.7583589 6.69342769,14.7583589 C5.6920685,14.7583589 4.88070033,15.5411181 4.88070033,16.506231 C4.88070033,17.471344 5.6920685,18.2541032 6.69342769,18.2541032 Z M6.69342769,19.4193512 C5.02575339,19.4193512 3.67383625,18.1151029 3.67383625,16.506231 C3.67383625,14.8973592 5.02575339,13.5931109 6.69342769,13.5931109 C8.36110199,13.5931109 9.71301912,14.8973592 9.71301912,16.506231 C9.71301912,18.1151029 8.36110199,19.4193512 6.69342769,19.4193512 Z M22.4059189,18.2544852 C23.4072781,18.2544852 24.2186463,17.471726 24.2186463,16.5066131 C24.2186463,15.5415002 23.4072781,14.758741 22.4059189,14.758741 C21.4045597,14.758741 20.5931916,15.5415002 20.5931916,16.5066131 C20.5931916,17.471726 21.4045597,18.2544852 22.4059189,18.2544852 Z" id="Shape"></path>
                        </g>
                    </g>
                </g>
                <g id="Group-10-Copy" transform="translate(352.000000, 106.700000)">
                    <circle id="Oval-Copy-9" fill="#1A1A1A" cx="21.2168074" cy="45.6168118" r="4.9680002"></circle>
                    <g id="Yellow-/-User-App-/-PIN-/-CONTENT" transform="translate(0.450000, 0.904810)">
                        <g id="Yellow-/-User-App-/-PIN-/-BASE-/-#ffffff" fill-rule="nonzero">
                            <g id="Combined-Shape">
                                <use fill="black" fill-opacity="1" filter="url(#filter-8)" xlink:href="#path-7"></use>
                                <use fill="#FFFFFF" xlink:href="#path-7"></use>
                            </g>
                        </g>
                        <g id="Yellow/User-App/PIN/COLOR/#000000" transform="translate(1.211223, 1.208659)" fill="#000000" fill-rule="evenodd">
                            <circle id="Oval-Copy" cx="19.7064013" cy="19.7064013" r="19.2213207"></circle>
                        </g>
                        <g id="Yellow/User-App/PIN/MODAIS/SCOOTER/#FFCB00" transform="translate(6.056114, 11.482263)" fill="#FFCB00" fill-rule="nonzero">
                            <path d="M21.52103,13.720578 L19.0074105,1.28390164 L15.9901221,2.53378175 C15.6838533,2.66065038 15.329053,2.52377921 15.1976533,2.22807142 C15.0662537,1.93236363 15.2080131,1.58979776 15.5142819,1.46292912 L21.7859339,-1.13503706 C22.0922026,-1.2619057 22.447003,-1.12503453 22.5784027,-0.829326738 C22.7098023,-0.53361895 22.5680429,-0.191053074 22.2617741,-0.0641844379 L20.1420439,0.81389161 L22.7282891,13.6098989 C24.2443892,13.765127 25.4255104,15.0028007 25.4255104,16.5066131 C25.4255104,18.115485 24.0735932,19.4197333 22.4059189,19.4197333 C20.9630931,19.4197333 19.7566188,18.443473 19.4575152,17.1383111 L11.5273043,17.1704173 C11.1940409,17.1717666 10.9227447,16.912013 10.9213473,16.5902414 C10.9212841,16.575698 10.9217734,16.5612769 10.9227961,16.5469964 C10.921832,16.5335288 10.9213419,16.5199352 10.9213419,16.506231 C10.9213419,14.2539155 9.02854901,12.4278628 6.69342769,12.4278628 C6.36016137,12.4278628 6.08999565,12.1670131 6.08999565,11.8452387 C6.08999565,11.5234644 6.36016137,11.2626147 6.69342769,11.2626147 C9.51887804,11.2626147 11.8409,13.342936 12.103485,16.0028263 L19.4368465,15.9731364 C19.642523,14.9009753 20.4567949,14.0347935 21.52103,13.720578 Z M6.69342769,18.2541032 C7.69478688,18.2541032 8.50615504,17.471344 8.50615504,16.506231 C8.50615504,15.5411181 7.69478688,14.7583589 6.69342769,14.7583589 C5.6920685,14.7583589 4.88070033,15.5411181 4.88070033,16.506231 C4.88070033,17.471344 5.6920685,18.2541032 6.69342769,18.2541032 Z M6.69342769,19.4193512 C5.02575339,19.4193512 3.67383625,18.1151029 3.67383625,16.506231 C3.67383625,14.8973592 5.02575339,13.5931109 6.69342769,13.5931109 C8.36110199,13.5931109 9.71301912,14.8973592 9.71301912,16.506231 C9.71301912,18.1151029 8.36110199,19.4193512 6.69342769,19.4193512 Z M22.4059189,18.2544852 C23.4072781,18.2544852 24.2186463,17.471726 24.2186463,16.5066131 C24.2186463,15.5415002 23.4072781,14.758741 22.4059189,14.758741 C21.4045597,14.758741 20.5931916,15.5415002 20.5931916,16.5066131 C20.5931916,17.471726 21.4045597,18.2544852 22.4059189,18.2544852 Z" id="Shape"></path>
                        </g>
                    </g>
                </g>
                <g id="trem" transform="translate(0.000000, 0.300001)">
                    <circle id="Oval-Copy-5" fill="#000000" cx="26.330401" cy="25.336801" r="25.336801"></circle>
                    <path d="M4.47120018,12.3479467 L31.836805,12.3479467 C34.5391159,12.3479467 36.9968177,13.9131967 38.1395423,16.3620055 L44.5570994,30.114549 C45.485298,32.103638 44.6252764,34.4685668 42.6361875,35.3967654 C42.1099369,35.6423377 41.5362635,35.7696014 40.9555352,35.7696014 L4.47120018,35.7696014" id="Path-46" stroke="#FFCB00" stroke-width="0.993600039"></path>
                    <path d="M6.45840026,40.3313149 L46.2024018,40.3313149" id="Path-47" stroke="#FFCB00" stroke-width="0.993600039"></path>
                    <path d="M38.7504015,17.8848007 L26.064372,17.8848007 C24.8394204,17.8848007 23.8464009,18.8778202 23.8464009,20.1027718 L23.8464009,20.1027718 C23.8464009,21.3277234 24.8394204,22.3207428 26.064372,22.3207428 L40.7376016,22.3207428" id="Path-48" stroke="#FFCB00" stroke-width="0.993600039"></path>
                    <path d="M14.9040006,17.8848007 L2.21797105,17.8848007 C0.993019466,17.8848007 -1.50013304e-16,18.8778202 0,20.1027718 L0,20.1027718 C1.50013304e-16,21.3277234 0.993019466,22.3207428 2.21797105,22.3207428 L16.8912007,22.3207428" id="Path-48-Copy" stroke="#FFCB00" stroke-width="0.993600039" transform="translate(8.445600, 20.102772) scale(-1, 1) translate(-8.445600, -20.102772) "></path>
                    <path d="M34.7760014,35.7696014 L34.7760014,40.3313149" id="Path-49" stroke="#FFCB00" stroke-width="0.993600039"></path>
                    <path d="M14.9040006,35.7696014 L14.9040006,40.3313149" id="Path-49-Copy" stroke="#FFCB00" stroke-width="0.993600039"></path>
                    <circle id="Oval-Copy-12" stroke="#2D2D2D" stroke-width="2.98080012" cx="26.330401" cy="25.336801" r="25.336801"></circle>
                </g>
                <circle id="Oval-Copy-10" fill="#1A1A1A" cx="147.216807" cy="469.27922" r="4.9680002"></circle>
                <circle id="Oval-Copy-11" fill="#1A1A1A" cx="279.940004" cy="469.27922" r="4.9680002"></circle>
                <g id="Yellow-/-User-App-/-PIN-/-CONTENT" transform="translate(126.848007, 425.560818)">
                    <g id="Yellow-/-User-App-/-PIN-/-BASE-/-#ffffff" fill-rule="nonzero">
                        <g id="Combined-Shape">
                            <use fill="black" fill-opacity="1" filter="url(#filter-10)" xlink:href="#path-9"></use>
                            <use fill="#FFFFFF" xlink:href="#path-9"></use>
                        </g>
                    </g>
                    <g id="Yellow/User-App/PIN/COLOR/#FFCB00" transform="translate(1.211223, 1.182384)" fill="#FFCB00" fill-rule="evenodd">
                        <ellipse id="Oval-Copy" cx="19.706401" cy="19.213741" rx="19.2213204" ry="18.7407874"></ellipse>
                    </g>
                    <g id="Yellow/User-App/PIN/MODAIS/BIKE/#000000" transform="translate(6.056113, 11.232649)" fill="#000000" fill-rule="nonzero">
                        <path d="M20.1830839,4.73469901 L22.0871584,4.73469901 C22.3609128,4.73469901 22.5828347,4.52042965 22.5828347,4.25611499 L22.5828347,3.45733331 C22.5828347,3.13082696 22.8569734,2.86614128 23.1951407,2.86614128 C23.533308,2.86614128 23.8074467,3.13082696 23.8074467,3.45733331 L23.8074467,4.25611499 C23.8074467,5.17344233 23.0372474,5.91708307 22.0871584,5.91708307 L20.6575915,5.91708307 C20.9969852,6.73636461 21.3684805,7.54234966 21.7711561,8.33332717 C22.3410709,8.11784765 22.9614857,7.99954892 23.6105206,7.99954892 C26.3969829,7.99954892 28.6559223,10.18002 28.6559223,12.8698452 C28.6559223,15.5596703 26.3969829,17.7401414 23.6105206,17.7401414 C20.8240582,17.7401414 18.5651189,15.5596703 18.5651189,12.8698452 C18.5651189,11.2293693 19.405345,9.77835071 20.6930266,8.89588115 C20.4629009,8.44529633 20.2425671,7.98998723 20.0321847,7.5302502 L16.8845315,11.656269 C16.0188506,12.791024 14.6348935,13.4339688 13.1915182,13.3920789 C13.1581601,13.397512 13.1238856,13.4003407 13.0889268,13.4003407 L11.0409074,13.4003407 C10.7670636,15.8406139 8.62585455,17.7401414 6.02509135,17.7401414 C3.23862899,17.7401414 0.97968965,15.5596703 0.97968965,12.8698452 C0.97968965,10.18002 3.23862899,7.99954892 6.02509135,7.99954892 C8.5825671,7.99954892 10.6956592,9.8363707 11.0256883,12.2179566 L12.5275669,12.2179566 L10.1858761,5.89920225 C9.95766939,5.28341557 9.35334268,4.87248051 8.67596507,4.87248051 L6.65843558,4.87248051 C6.3202683,4.87248051 6.04612955,4.60779482 6.04612955,4.28128848 C6.04612955,3.95478214 6.3202683,3.69009645 6.65843558,3.69009645 L8.67596507,3.69009645 C9.87061285,3.69009645 10.9364254,4.41483646 11.338899,5.50086025 L12.7475522,9.30193121 C13.3649877,9.5543267 14.0989948,9.37987051 14.5200718,8.84703175 L18.5018524,3.80841197 L18.1806811,3.00242536 C17.9424361,2.4045443 17.3474608,2.0100529 16.6839766,2.0100529 L15.0160328,2.0100529 C14.6778655,2.0100529 14.4037267,1.74536721 14.4037267,1.41886087 C14.4037267,1.09235453 14.6778655,0.827668842 15.0160328,0.827668842 L16.6839766,0.827668842 C17.8541216,0.827668842 18.9034415,1.52340822 19.3236191,2.577853 L20.1830839,4.73469901 Z M13.8124242,12.1753527 C14.6363258,12.0522762 15.3907319,11.6206715 15.8985236,10.9550461 L19.480668,6.25948591 C19.4337412,6.14524505 19.3874171,6.03075603 19.3416981,5.91602316 L19.0182088,5.10421967 L15.4936518,9.56426011 C14.9382458,10.2670812 14.0833897,10.6269576 13.2272578,10.5963558 L13.8124242,12.1753527 Z M9.7863764,12.2179566 C9.46746679,10.4921294 7.90482363,9.18193298 6.02509135,9.18193298 C3.91489144,9.18193298 2.20430171,10.8331023 2.20430171,12.8698452 C2.20430171,14.906588 3.91489144,16.5577574 6.02509135,16.5577574 C7.94865446,16.5577574 9.54016854,15.1857473 9.80664457,13.4003407 L5.74855685,13.4003407 L5.74855685,12.2179566 L9.41874184,12.2179566 C9.56691315,12.2179566 9.70279201,12.268772 9.808704,12.3533379 C9.83321006,12.5221131 9.84588098,12.6945511 9.84588098,12.8698452 C9.84588098,12.9984898 9.8390567,13.1255961 9.8257385,13.2508454 C9.71755554,13.3438397 9.5749826,13.4003407 9.41874184,13.4003407 L5.74855685,13.4003407 C4.93214881,13.4003407 4.93214881,12.2179566 5.74855685,12.2179566 L9.7863764,12.2179566 Z M21.2605491,9.96175607 C20.3652928,10.636712 19.7897309,11.6884117 19.7897309,12.8698452 C19.7897309,14.906588 21.5003207,16.5577574 23.6105206,16.5577574 C25.7207205,16.5577574 27.4313102,14.906588 27.4313102,12.8698452 C27.4313102,10.8331023 25.7207205,9.18193298 23.6105206,9.18193298 C23.1628977,9.18193298 22.7332558,9.25622959 22.3341079,9.39274297 C22.8989085,10.4121105 23.5166461,11.4043293 24.1852415,12.3655374 C24.3737792,12.6365893 24.2990408,13.00389 24.0183085,13.1859264 C23.7375762,13.3679629 23.3571577,13.2958017 23.1686199,13.0247498 C22.4796678,12.0342758 21.8429351,11.0119608 21.2605491,9.96175607 Z" id="Shape"></path>
                    </g>
                </g>
                <g id="Yellow-/-User-App-/-PIN-/-CONTENT" transform="translate(259.571203, 425.560818)">
                    <g id="Yellow-/-User-App-/-PIN-/-BASE-/-#ffffff" fill-rule="nonzero">
                        <g id="Combined-Shape">
                            <use fill="black" fill-opacity="1" filter="url(#filter-12)" xlink:href="#path-11"></use>
                            <use fill="#FFFFFF" xlink:href="#path-11"></use>
                        </g>
                    </g>
                    <g id="Yellow/User-App/PIN/COLOR/#000000" transform="translate(1.211223, 1.208659)" fill="#000000" fill-rule="evenodd">
                        <circle id="Oval-Copy" cx="19.7064013" cy="19.7064013" r="19.2213207"></circle>
                    </g>
                    <g id="Yellow/User-App/PIN/MODAIS/SCOOTER/#FFCB00" transform="translate(6.056114, 11.482263)" fill="#FFCB00" fill-rule="nonzero">
                        <path d="M21.52103,13.720578 L19.0074105,1.28390164 L15.9901221,2.53378175 C15.6838533,2.66065038 15.329053,2.52377921 15.1976533,2.22807142 C15.0662537,1.93236363 15.2080131,1.58979776 15.5142819,1.46292912 L21.7859339,-1.13503706 C22.0922026,-1.2619057 22.447003,-1.12503453 22.5784027,-0.829326738 C22.7098023,-0.53361895 22.5680429,-0.191053074 22.2617741,-0.0641844379 L20.1420439,0.81389161 L22.7282891,13.6098989 C24.2443892,13.765127 25.4255104,15.0028007 25.4255104,16.5066131 C25.4255104,18.115485 24.0735932,19.4197333 22.4059189,19.4197333 C20.9630931,19.4197333 19.7566188,18.443473 19.4575152,17.1383111 L11.5273043,17.1704173 C11.1940409,17.1717666 10.9227447,16.912013 10.9213473,16.5902414 C10.9212841,16.575698 10.9217734,16.5612769 10.9227961,16.5469964 C10.921832,16.5335288 10.9213419,16.5199352 10.9213419,16.506231 C10.9213419,14.2539155 9.02854901,12.4278628 6.69342769,12.4278628 C6.36016137,12.4278628 6.08999565,12.1670131 6.08999565,11.8452387 C6.08999565,11.5234644 6.36016137,11.2626147 6.69342769,11.2626147 C9.51887804,11.2626147 11.8409,13.342936 12.103485,16.0028263 L19.4368465,15.9731364 C19.642523,14.9009753 20.4567949,14.0347935 21.52103,13.720578 Z M6.69342769,18.2541032 C7.69478688,18.2541032 8.50615504,17.471344 8.50615504,16.506231 C8.50615504,15.5411181 7.69478688,14.7583589 6.69342769,14.7583589 C5.6920685,14.7583589 4.88070033,15.5411181 4.88070033,16.506231 C4.88070033,17.471344 5.6920685,18.2541032 6.69342769,18.2541032 Z M6.69342769,19.4193512 C5.02575339,19.4193512 3.67383625,18.1151029 3.67383625,16.506231 C3.67383625,14.8973592 5.02575339,13.5931109 6.69342769,13.5931109 C8.36110199,13.5931109 9.71301912,14.8973592 9.71301912,16.506231 C9.71301912,18.1151029 8.36110199,19.4193512 6.69342769,19.4193512 Z M22.4059189,18.2544852 C23.4072781,18.2544852 24.2186463,17.471726 24.2186463,16.5066131 C24.2186463,15.5415002 23.4072781,14.758741 22.4059189,14.758741 C21.4045597,14.758741 20.5931916,15.5415002 20.5931916,16.5066131 C20.5931916,17.471726 21.4045597,18.2544852 22.4059189,18.2544852 Z" id="Shape"></path>
                    </g>
                </g>
            </g>
        </g>
    </g>
</svg>