<?xml version="1.0" encoding="UTF-8"?>
<svg width="319px" height="237px" viewBox="0 0 319 237" version="1.1" xmlns="http://www.w3.org/2000/svg" xmlns:xlink="http://www.w3.org/1999/xlink">
    <!-- Generator: Sketch 52.4 (67378) - http://www.bohemiancoding.com/sketch -->
    <title>thumb_02</title>
    <desc>Created with Sketch.</desc>
    <defs>
        <rect id="path-1" x="0" y="0" width="320" height="237" rx="118.5"></rect>
        <ellipse id="path-3" cx="161.792006" cy="161.637416" rx="161.792006" ry="161.637416"></ellipse>
        <radialGradient cx="52.043371%" cy="50%" fx="52.043371%" fy="50%" r="50.2692514%" gradientTransform="translate(0.520434,0.500000),scale(0.999045,1.000000),rotate(86.161882),translate(-0.520434,-0.500000)" id="radialGradient-5">
            <stop stop-color="#E8E8E8" offset="0%"></stop>
            <stop stop-color="#FFFFFF" offset="100%"></stop>
        </radialGradient>
        <path d="M13.5689759,33.7044461 C5.82321087,32.1061527 7.28306304e-13,25.2471188 7.28306304e-13,17.028001 C7.28306304e-13,7.62369575 7.62369575,2.06057393e-13 17.028001,2.06057393e-13 C26.4323063,2.06057393e-13 34.0560021,7.62369575 34.0560021,17.028001 C34.0560021,25.2406338 28.2419767,32.0953281 20.5053571,33.7006531 L17.0352853,37.199052 L13.5689759,33.7044461 Z" id="path-6"></path>
        <filter x="-5.9%" y="-2.7%" width="111.7%" height="110.8%" filterUnits="objectBoundingBox" id="filter-7">
            <feOffset dx="0" dy="1" in="SourceAlpha" result="shadowOffsetOuter1"></feOffset>
            <feGaussianBlur stdDeviation="0.5" in="shadowOffsetOuter1" result="shadowBlurOuter1"></feGaussianBlur>
            <feColorMatrix values="0 0 0 0 0   0 0 0 0 0   0 0 0 0 0  0 0 0 0.215636322 0" type="matrix" in="shadowBlurOuter1"></feColorMatrix>
        </filter>
        <path d="M13.5689759,33.7044461 C5.82321087,32.1061527 7.28306304e-13,25.2471188 7.28306304e-13,17.028001 C7.28306304e-13,7.62369575 7.62369575,2.06057393e-13 17.028001,2.06057393e-13 C26.4323063,2.06057393e-13 34.0560021,7.62369575 34.0560021,17.028001 C34.0560021,25.2406338 28.2419767,32.0953281 20.5053571,33.7006531 L17.0352853,37.199052 L13.5689759,33.7044461 Z" id="path-8"></path>
        <filter x="-5.9%" y="-2.7%" width="111.7%" height="110.8%" filterUnits="objectBoundingBox" id="filter-9">
            <feOffset dx="0" dy="1" in="SourceAlpha" result="shadowOffsetOuter1"></feOffset>
            <feGaussianBlur stdDeviation="0.5" in="shadowOffsetOuter1" result="shadowBlurOuter1"></feGaussianBlur>
            <feColorMatrix values="0 0 0 0 0   0 0 0 0 0   0 0 0 0 0  0 0 0 0.215636322 0" type="matrix" in="shadowBlurOuter1"></feColorMatrix>
        </filter>
        <path d="M13.5689759,33.7044461 C5.82321087,32.1061527 7.28306304e-13,25.2471188 7.28306304e-13,17.028001 C7.28306304e-13,7.62369575 7.62369575,2.06057393e-13 17.028001,2.06057393e-13 C26.4323063,2.06057393e-13 34.0560021,7.62369575 34.0560021,17.028001 C34.0560021,25.2406338 28.2419767,32.0953281 20.5053571,33.7006531 L17.0352853,37.199052 L13.5689759,33.7044461 Z" id="path-10"></path>
        <filter x="-5.9%" y="-2.7%" width="111.7%" height="110.8%" filterUnits="objectBoundingBox" id="filter-11">
            <feOffset dx="0" dy="1" in="SourceAlpha" result="shadowOffsetOuter1"></feOffset>
            <feGaussianBlur stdDeviation="0.5" in="shadowOffsetOuter1" result="shadowBlurOuter1"></feGaussianBlur>
            <feColorMatrix values="0 0 0 0 0   0 0 0 0 0   0 0 0 0 0  0 0 0 0.215636322 0" type="matrix" in="shadowBlurOuter1"></feColorMatrix>
        </filter>
        <path d="M13.5689759,33.7044461 C5.82321087,32.1061527 7.28306304e-13,25.2471188 7.28306304e-13,17.028001 C7.28306304e-13,7.62369575 7.62369575,2.06057393e-13 17.028001,2.06057393e-13 C26.4323063,2.06057393e-13 34.0560021,7.62369575 34.0560021,17.028001 C34.0560021,25.2406338 28.2419767,32.0953281 20.5053571,33.7006531 L17.0352853,37.199052 L13.5689759,33.7044461 Z" id="path-12"></path>
        <filter x="-5.9%" y="-2.7%" width="111.7%" height="110.8%" filterUnits="objectBoundingBox" id="filter-13">
            <feOffset dx="0" dy="1" in="SourceAlpha" result="shadowOffsetOuter1"></feOffset>
            <feGaussianBlur stdDeviation="0.5" in="shadowOffsetOuter1" result="shadowBlurOuter1"></feGaussianBlur>
            <feColorMatrix values="0 0 0 0 0   0 0 0 0 0   0 0 0 0 0  0 0 0 0.215636322 0" type="matrix" in="shadowBlurOuter1"></feColorMatrix>
        </filter>
        <path d="M5.71095016,16.1513298 C2.39566534,15.0704851 0,11.9543578 0,8.27877567 C0,3.70653412 3.7070822,0 8.27999984,0 C12.8529175,0 16.5599997,3.70653412 16.5599997,8.27877567 C16.5599997,11.9543578 14.1643343,15.0704851 10.8490495,16.1513298 L8.27999984,18.7199996 L5.71095016,16.1513298 Z" id="path-14"></path>
        <filter x="-12.1%" y="-5.3%" width="124.2%" height="121.4%" filterUnits="objectBoundingBox" id="filter-15">
            <feOffset dx="0" dy="1" in="SourceAlpha" result="shadowOffsetOuter1"></feOffset>
            <feGaussianBlur stdDeviation="0.5" in="shadowOffsetOuter1" result="shadowBlurOuter1"></feGaussianBlur>
            <feColorMatrix values="0 0 0 0 0   0 0 0 0 0   0 0 0 0 0  0 0 0 0.215636322 0" type="matrix" in="shadowBlurOuter1"></feColorMatrix>
        </filter>
        <path d="M5.71095016,16.1513298 C2.39566534,15.0704851 0,11.9543578 0,8.27877567 C0,3.70653412 3.7070822,0 8.27999984,0 C12.8529175,0 16.5599997,3.70653412 16.5599997,8.27877567 C16.5599997,11.9543578 14.1643343,15.0704851 10.8490495,16.1513298 L8.27999984,18.7199996 L5.71095016,16.1513298 Z" id="path-16"></path>
        <filter x="-12.1%" y="-5.3%" width="124.2%" height="121.4%" filterUnits="objectBoundingBox" id="filter-17">
            <feOffset dx="0" dy="1" in="SourceAlpha" result="shadowOffsetOuter1"></feOffset>
            <feGaussianBlur stdDeviation="0.5" in="shadowOffsetOuter1" result="shadowBlurOuter1"></feGaussianBlur>
            <feColorMatrix values="0 0 0 0 0   0 0 0 0 0   0 0 0 0 0  0 0 0 0.215636322 0" type="matrix" in="shadowBlurOuter1"></feColorMatrix>
        </filter>
    </defs>
    <g id="Page-1" stroke="none" stroke-width="1" fill="none" fill-rule="evenodd">
        <g id="newsite_desk" transform="translate(-800.000000, -2112.000000)">
            <g id="thumb_02" transform="translate(799.000000, 2112.000000)">
                <mask id="mask-2" fill="white">
                    <use xlink:href="#path-1"></use>
                </mask>
                <g id="Mask"></g>
                <g id="Group-3" mask="url(#mask-2)">
                    <g transform="translate(-81.066667, -111.679856)" id="map">
                        <g>
                            <g id="Group-6">
                                <g transform="translate(229.607800, 229.771947) rotate(45.000000) translate(-229.607800, -229.771947) translate(67.607800, 67.771947)">
                                    <mask id="mask-4" fill="white">
                                        <use xlink:href="#path-3"></use>
                                    </mask>
                                    <g id="Mask" fill-rule="nonzero"></g>
                                    <g id="Group-5" transform="translate(31.720001, 31.690649)" fill="url(#radialGradient-5)" fill-rule="nonzero">
                                        <path d="M11.1978189,251.022937 L42.7606185,251.022937 L42.7606185,219.490295 L11.1978189,219.490295 L11.1978189,251.022937 Z M5.54264175,256.67271 L0.957818522,256.67271 L0.957818522,5.0262308 L5.54264175,5.0262308 L5.54264175,0.445788304 L257.429796,0.445788304 L257.429796,5.0262308 L262.014619,5.0262308 L262.014619,256.67271 L257.429796,256.67271 L257.429796,261.253153 L5.54264175,261.253153 L5.54264175,256.67271 Z M251.774619,251.022937 L251.774619,219.490295 L220.211819,219.490295 L220.211819,251.022937 L251.774619,251.022937 Z M209.971819,251.022937 L209.971819,219.490295 L178.409019,219.490295 L178.409019,251.022937 L209.971819,251.022937 Z M168.169019,251.022937 L168.169019,219.490295 L136.606219,219.490295 L136.606219,251.022937 L168.169019,251.022937 Z M126.366219,251.022937 L126.366219,219.490295 L94.803419,219.490295 L94.803419,251.022937 L126.366219,251.022937 Z M84.5634186,251.022937 L84.5634186,219.490295 L53.0006189,219.490295 L53.0006189,251.022937 L84.5634186,251.022937 Z M11.1978189,209.260079 L42.7606185,209.260079 L42.7606185,177.727437 L11.1978189,177.727437 L11.1978189,209.260079 Z M251.774619,209.260079 L251.774619,177.727437 L220.211819,177.727437 L220.211819,209.260079 L251.774619,209.260079 Z M209.971819,209.260079 L209.971819,177.727437 L178.409019,177.727437 L178.409019,209.260079 L209.971819,209.260079 Z M168.169019,209.260079 L168.169019,177.727437 L136.606219,177.727437 L136.606219,209.260079 L168.169019,209.260079 Z M126.366219,209.260079 L126.366219,177.727437 L94.803419,177.727437 L94.803419,209.260079 L126.366219,209.260079 Z M84.5634186,209.260079 L84.5634186,177.727437 L53.0006189,177.727437 L53.0006189,209.260079 L84.5634186,209.260079 Z M11.1978189,167.49722 L42.7606185,167.49722 L42.7606185,135.964579 L11.1978189,135.964579 L11.1978189,167.49722 Z M251.774619,167.49722 L251.774619,135.964579 L220.211819,135.964579 L220.211819,167.49722 L251.774619,167.49722 Z M209.971819,167.49722 L209.971819,135.964579 L178.409019,135.964579 L178.409019,167.49722 L209.971819,167.49722 Z M168.169019,167.49722 L168.169019,135.964579 L136.606219,135.964579 L136.606219,167.49722 L168.169019,167.49722 Z M126.366219,167.49722 L126.366219,135.964579 L94.803419,135.964579 L94.803419,167.49722 L126.366219,167.49722 Z M84.5634186,167.49722 L84.5634186,135.964579 L53.0006189,135.964579 L53.0006189,167.49722 L84.5634186,167.49722 Z M11.1978189,125.734362 L42.7606185,125.734362 L42.7606185,94.2017206 L11.1978189,94.2017206 L11.1978189,125.734362 Z M251.774619,125.734362 L251.774619,94.2017206 L220.211819,94.2017206 L220.211819,125.734362 L251.774619,125.734362 Z M209.971819,125.734362 L209.971819,94.2017206 L178.409019,94.2017206 L178.409019,125.734362 L209.971819,125.734362 Z M168.169019,125.734362 L168.169019,94.2017206 L136.606219,94.2017206 L136.606219,125.734362 L168.169019,125.734362 Z M126.366219,125.734362 L126.366219,94.2017206 L94.803419,94.2017206 L94.803419,125.734362 L126.366219,125.734362 Z M84.5634186,125.734362 L84.5634186,94.2017206 L53.0006189,94.2017206 L53.0006189,125.734362 L84.5634186,125.734362 Z M11.1978189,83.9715044 L42.7606185,83.9715044 L42.7606185,52.4388626 L11.1978189,52.4388626 L11.1978189,83.9715044 Z M251.774619,83.9715044 L251.774619,52.4388626 L220.211819,52.4388626 L220.211819,83.9715044 L251.774619,83.9715044 Z M209.971819,83.9715044 L209.971819,52.4388626 L178.409019,52.4388626 L178.409019,83.9715044 L209.971819,83.9715044 Z M168.169019,83.9715044 L168.169019,52.4388626 L136.606219,52.4388626 L136.606219,83.9715044 L168.169019,83.9715044 Z M126.366219,83.9715044 L126.366219,52.4388626 L94.803419,52.4388626 L94.803419,83.9715044 L126.366219,83.9715044 Z M84.5634186,83.9715044 L84.5634186,52.4388626 L53.0006189,52.4388626 L53.0006189,83.9715044 L84.5634186,83.9715044 Z M11.1978189,42.2086463 L42.7606185,42.2086463 L42.7606185,10.6760045 L11.1978189,10.6760045 L11.1978189,42.2086463 Z M53.0006189,42.2086463 L84.5634186,42.2086463 L84.5634186,10.6760045 L53.0006189,10.6760045 L53.0006189,42.2086463 Z M94.803419,42.2086463 L126.366219,42.2086463 L126.366219,10.6760045 L94.803419,10.6760045 L94.803419,42.2086463 Z M136.606219,42.2086463 L168.169019,42.2086463 L168.169019,10.6760045 L136.606219,10.6760045 L136.606219,42.2086463 Z M178.409019,42.2086463 L209.971819,42.2086463 L209.971819,10.6760045 L178.409019,10.6760045 L178.409019,42.2086463 Z M220.211819,42.2086463 L251.774619,42.2086463 L251.774619,10.6760045 L220.211819,10.6760045 L220.211819,42.2086463 Z" id="Combined-Shape"></path>
                                    </g>
                                    <path d="M130.679196,244.194971 L193.67281,244.194971 C198.757803,244.194971 202.880005,240.072769 202.880005,234.987776 L202.880005,172.071946 C202.880005,166.986953 207.002206,162.864751 212.087199,162.864751 L234.120812,162.864751 C239.205805,162.864751 243.328006,158.74255 243.328006,153.657557 L243.328006,89.2071946 C243.328006,84.1222014 239.205805,80 234.120812,80 L130.679196,80 C125.594203,80 121.472002,84.1222014 121.472002,89.2071946 L121.472002,152.890291 C121.472002,157.975284 117.3498,162.097485 112.264807,162.097485 L89.2071946,162.097485 C84.1222014,162.097485 80,166.219687 80,171.30468 L80,194.578422 C80,199.663415 84.1222014,203.785616 89.2071946,203.785616 L112.264807,203.785616 C117.3498,203.785616 121.472002,207.907818 121.472002,212.992811 L121.472002,234.987776 C121.472002,240.072769 125.594203,244.194971 130.679196,244.194971 Z" id="Path-76" stroke="#FFCB00" stroke-width="3.06906487" stroke-linecap="round" stroke-dasharray="1.705035971223022" fill-rule="nonzero"></path>
                                    <path d="M163.703302,90.9799396 L163.373084,155.961918 C163.356477,159.229886 160.727589,161.883546 157.45992,161.9308 L132.593926,162.290396 C129.280564,162.338311 126.55571,159.691144 126.507795,156.377782 C126.506946,156.319122 126.506959,156.260453 126.507831,156.201794 L127.468352,91.6205926 C127.516028,88.4150642 130.075231,85.813304 133.279537,85.712772 L157.515228,84.9524007 C160.827307,84.8484874 163.596515,87.4492194 163.700429,90.7612982 C163.702714,90.8341552 163.703672,90.9070477 163.703302,90.9799396 Z" id="Path-5" stroke="#424242" stroke-width="3" stroke-linecap="round" fill-rule="nonzero"></path>
                                </g>
                            </g>
                        </g>
                    </g>
                </g>
                <g id="Yellow-/-User-App-/-PIN-/-CONTENT" mask="url(#mask-2)">
                    <g transform="translate(132.000000, 66.000000)">
                        <g id="Yellow-/-User-App-/-PIN-/-BASE-/-#ffffff" fill-rule="nonzero">
                            <g id="Combined-Shape">
                                <use fill="black" fill-opacity="1" filter="url(#filter-7)" xlink:href="#path-6"></use>
                                <use fill="#FFFFFF" xlink:href="#path-6"></use>
                            </g>
                        </g>
                        <g id="Yellow/User-App/PIN/COLOR/#000000" transform="translate(0.990000, 0.990000)" fill-rule="evenodd">
                            <circle id="Oval-Copy" fill="#000000" cx="16.087501" cy="16.087501" r="15.691501"></circle>
                        </g>
                        <g id="Yellow/User-App/PIN/MODAIS/SCOOTER/#FFCB00" transform="translate(4.950000, 9.405001)" fill-rule="nonzero">
                            <path d="M17.3980163,11.4881224 L15.3659577,1.07499984 L12.9267236,2.12151375 C12.67913,2.22773977 12.3923025,2.11313871 12.2860765,1.86554511 C12.1798505,1.61795152 12.2944515,1.33112404 12.5420451,1.22489802 L17.6121697,-0.95035681 C17.8597633,-1.05658283 18.1465908,-0.94198177 18.2528168,-0.694388173 C18.3590428,-0.446794576 18.2444418,-0.159967102 17.9968482,-0.05374108 L16.2832173,0.681464473 L18.3739879,11.3954518 C19.5996325,11.5254229 20.5544737,12.5617165 20.5544737,13.8208457 C20.5544737,15.1679404 19.4615577,16.2599763 18.1133776,16.2599763 C16.9469693,16.2599763 15.9716323,15.4425619 15.7298311,14.349761 L9.31889542,14.3766433 C9.04947886,14.377773 8.83015777,14.1602836 8.82902806,13.890867 C8.828977,13.87869 8.82937254,13.8666152 8.83019931,13.8546583 C8.82941993,13.843382 8.82902377,13.8320002 8.82902377,13.8205258 C8.82902377,11.9346814 7.2988534,10.405743 5.41109622,10.405743 C5.1416773,10.405743 4.92327011,10.1873358 4.92327011,9.91791691 C4.92327011,9.64849799 5.1416773,9.4300908 5.41109622,9.4300908 C7.69524486,9.4300908 9.5724123,11.171926 9.78469102,13.3990294 L15.7131221,13.3741703 C15.879395,12.4764589 16.5376681,11.7512124 17.3980163,11.4881224 Z M5.41109622,15.2840042 C6.22061433,15.2840042 6.87654003,14.6286066 6.87654003,13.8205258 C6.87654003,13.0124451 6.22061433,12.3570475 5.41109622,12.3570475 C4.60157811,12.3570475 3.94565242,13.0124451 3.94565242,13.8205258 C3.94565242,14.6286066 4.60157811,15.2840042 5.41109622,15.2840042 Z M5.41109622,16.2596564 C4.06291611,16.2596564 2.97000018,15.1676205 2.97000018,13.8205258 C2.97000018,12.4734312 4.06291611,11.3813953 5.41109622,11.3813953 C6.75927634,11.3813953 7.85219226,12.4734312 7.85219226,13.8205258 C7.85219226,15.1676205 6.75927634,16.2596564 5.41109622,16.2596564 Z M18.1133776,15.2843241 C18.9228957,15.2843241 19.5788214,14.6289265 19.5788214,13.8208457 C19.5788214,13.012765 18.9228957,12.3573674 18.1133776,12.3573674 C17.3038595,12.3573674 16.6479338,13.012765 16.6479338,13.8208457 C16.6479338,14.6289265 17.3038595,15.2843241 18.1133776,15.2843241 Z" id="Shape" fill="#FFCB00"></path>
                        </g>
                    </g>
                </g>
                <g id="Yellow-/-User-App-/-PIN-/-CONTENT" mask="url(#mask-2)">
                    <g transform="translate(162.000000, 22.000000)">
                        <g id="Yellow-/-User-App-/-PIN-/-BASE-/-#ffffff" fill-rule="nonzero">
                            <g id="Combined-Shape">
                                <use fill="black" fill-opacity="1" filter="url(#filter-9)" xlink:href="#path-8"></use>
                                <use fill="#FFFFFF" xlink:href="#path-8"></use>
                            </g>
                        </g>
                        <g id="Yellow/User-App/PIN/COLOR/#000000" transform="translate(0.990000, 0.990000)" fill-rule="evenodd">
                            <circle id="Oval-Copy" fill="#000000" cx="16.087501" cy="16.087501" r="15.691501"></circle>
                        </g>
                        <g id="Yellow/User-App/PIN/MODAIS/SCOOTER/#FFCB00" transform="translate(4.950000, 9.405001)" fill-rule="nonzero">
                            <path d="M17.3980163,11.4881224 L15.3659577,1.07499984 L12.9267236,2.12151375 C12.67913,2.22773977 12.3923025,2.11313871 12.2860765,1.86554511 C12.1798505,1.61795152 12.2944515,1.33112404 12.5420451,1.22489802 L17.6121697,-0.95035681 C17.8597633,-1.05658283 18.1465908,-0.94198177 18.2528168,-0.694388173 C18.3590428,-0.446794576 18.2444418,-0.159967102 17.9968482,-0.05374108 L16.2832173,0.681464473 L18.3739879,11.3954518 C19.5996325,11.5254229 20.5544737,12.5617165 20.5544737,13.8208457 C20.5544737,15.1679404 19.4615577,16.2599763 18.1133776,16.2599763 C16.9469693,16.2599763 15.9716323,15.4425619 15.7298311,14.349761 L9.31889542,14.3766433 C9.04947886,14.377773 8.83015777,14.1602836 8.82902806,13.890867 C8.828977,13.87869 8.82937254,13.8666152 8.83019931,13.8546583 C8.82941993,13.843382 8.82902377,13.8320002 8.82902377,13.8205258 C8.82902377,11.9346814 7.2988534,10.405743 5.41109622,10.405743 C5.1416773,10.405743 4.92327011,10.1873358 4.92327011,9.91791691 C4.92327011,9.64849799 5.1416773,9.4300908 5.41109622,9.4300908 C7.69524486,9.4300908 9.5724123,11.171926 9.78469102,13.3990294 L15.7131221,13.3741703 C15.879395,12.4764589 16.5376681,11.7512124 17.3980163,11.4881224 Z M5.41109622,15.2840042 C6.22061433,15.2840042 6.87654003,14.6286066 6.87654003,13.8205258 C6.87654003,13.0124451 6.22061433,12.3570475 5.41109622,12.3570475 C4.60157811,12.3570475 3.94565242,13.0124451 3.94565242,13.8205258 C3.94565242,14.6286066 4.60157811,15.2840042 5.41109622,15.2840042 Z M5.41109622,16.2596564 C4.06291611,16.2596564 2.97000018,15.1676205 2.97000018,13.8205258 C2.97000018,12.4734312 4.06291611,11.3813953 5.41109622,11.3813953 C6.75927634,11.3813953 7.85219226,12.4734312 7.85219226,13.8205258 C7.85219226,15.1676205 6.75927634,16.2596564 5.41109622,16.2596564 Z M18.1133776,15.2843241 C18.9228957,15.2843241 19.5788214,14.6289265 19.5788214,13.8208457 C19.5788214,13.012765 18.9228957,12.3573674 18.1133776,12.3573674 C17.3038595,12.3573674 16.6479338,13.012765 16.6479338,13.8208457 C16.6479338,14.6289265 17.3038595,15.2843241 18.1133776,15.2843241 Z" id="Shape" fill="#FFCB00"></path>
                        </g>
                    </g>
                </g>
                <g id="Yellow-/-User-App-/-PIN-/-CONTENT" mask="url(#mask-2)">
                    <g transform="translate(203.000000, 97.000000)">
                        <g id="Yellow-/-User-App-/-PIN-/-BASE-/-#ffffff" fill-rule="nonzero">
                            <g id="Combined-Shape">
                                <use fill="black" fill-opacity="1" filter="url(#filter-11)" xlink:href="#path-10"></use>
                                <use fill="#FFFFFF" xlink:href="#path-10"></use>
                            </g>
                        </g>
                        <g id="Yellow/User-App/PIN/COLOR/#FFCB00" transform="translate(0.990000, 0.990000)" fill-rule="evenodd">
                            <circle id="Oval-Copy" fill="#FFCB00" cx="16.087501" cy="16.087501" r="15.691501"></circle>
                        </g>
                        <g id="Yellow/User-App/PIN/MODAIS/BIKE/#000000" transform="translate(4.950000, 9.405001)" fill-rule="nonzero">
                            <path d="M16.3163952,3.96432299 L17.8556857,3.96432299 C18.0769941,3.96432299 18.2564,3.78491708 18.2564,3.56360868 L18.2564,2.89479561 C18.2564,2.62141464 18.4780191,2.39979558 18.7514001,2.39979558 C19.024781,2.39979558 19.2464001,2.62141464 19.2464001,2.89479561 L19.2464001,3.56360868 C19.2464001,4.33167902 18.6237561,4.95432305 17.8556857,4.95432305 L16.6999962,4.95432305 C16.9743687,5.64030048 17.2746926,6.31514486 17.6002234,6.97742356 C18.0609535,6.79700441 18.5625088,6.6979539 19.0872012,6.6979539 C21.3398312,6.6979539 23.1660014,8.52364368 23.1660014,10.7758113 C23.1660014,13.0279789 21.3398312,14.8536687 19.0872012,14.8536687 C16.8345711,14.8536687 15.0084009,13.0279789 15.0084009,10.7758113 C15.0084009,9.40225486 15.6876559,8.18732942 16.7286427,7.4484452 C16.5426046,7.07117438 16.3644825,6.68994797 16.1944053,6.30501409 L13.6497816,9.75969435 C12.9499485,10.709815 11.8311308,11.2481472 10.6642783,11.2130731 C10.6373109,11.2176222 10.6096028,11.2199906 10.5813414,11.2199906 L8.92568295,11.2199906 C8.70430234,13.2632105 6.97330754,14.8536687 4.8708003,14.8536687 C2.61817028,14.8536687 0.792000049,13.0279789 0.792000049,10.7758113 C0.792000049,8.52364368 2.61817028,6.6979539 4.8708003,6.6979539 C6.93831313,6.6979539 8.64657761,8.23590906 8.91337952,10.2299906 L10.1275272,10.2299906 L8.2344591,4.93935159 C8.0499724,4.42375867 7.56142301,4.07968626 7.01381785,4.07968626 L5.38280802,4.07968626 C5.10942705,4.07968626 4.88780799,3.8580672 4.88780799,3.58468623 C4.88780799,3.31130526 5.10942705,3.0896862 5.38280802,3.0896862 L7.01381785,3.0896862 C7.97959421,3.0896862 8.84121769,3.69650481 9.16658514,4.60582324 L10.3053676,7.78842744 C10.8045144,7.99975603 11.3978999,7.85368536 11.7383067,7.40754402 L14.9572551,3.18875077 L14.697614,2.51390508 C14.5050121,2.01330438 14.0240226,1.6830001 13.4876491,1.6830001 L12.1392511,1.6830001 C11.8658702,1.6830001 11.6442511,1.46138104 11.6442511,1.18800007 C11.6442511,0.914619105 11.8658702,0.693000043 12.1392511,0.693000043 L13.4876491,0.693000043 C14.433617,0.693000043 15.2819075,1.27553667 15.6215872,2.15841427 L16.3163952,3.96432299 Z M11.1662307,10.1943186 C11.8322887,10.0912678 12.4421651,9.72988889 12.8526738,9.17256637 L15.7485485,5.24101401 C15.710612,5.14536112 15.6731627,5.04950044 15.6362026,4.9534356 L15.3746876,4.27371947 L12.5253676,8.00807319 C12.0763666,8.59653931 11.3852845,8.89786075 10.6931709,8.87223808 L11.1662307,10.1943186 Z M7.91149584,10.2299906 C7.65368314,8.78497024 6.39041221,7.68795396 4.8708003,7.68795396 C3.16487391,7.68795396 1.78200011,9.07046394 1.78200011,10.7758113 C1.78200011,12.4811586 3.16487391,13.8636686 4.8708003,13.8636686 C6.4258459,13.8636686 7.71245665,12.7148963 7.92788102,11.2199906 L4.64724447,11.2199906 L4.64724447,10.2299906 L7.61429295,10.2299906 C7.73407751,10.2299906 7.8439246,10.2725379 7.9295459,10.3433442 C7.94935707,10.4846582 7.95960049,10.629039 7.95960049,10.7758113 C7.95960049,10.8835243 7.95408361,10.9899494 7.94331692,11.0948195 C7.85585973,11.1726829 7.740601,11.2199906 7.61429295,11.2199906 L4.64724447,11.2199906 C3.98724443,11.2199906 3.98724443,10.2299906 4.64724447,10.2299906 L7.91149584,10.2299906 Z M17.1874388,8.34089316 C16.4636964,8.90602798 15.998401,9.78660711 15.998401,10.7758113 C15.998401,12.4811586 17.3812748,13.8636686 19.0872012,13.8636686 C20.7931276,13.8636686 22.1760014,12.4811586 22.1760014,10.7758113 C22.1760014,9.07046394 20.7931276,7.68795396 19.0872012,7.68795396 C18.7253342,7.68795396 18.3780034,7.75016187 18.0553245,7.86446335 C18.5119203,8.71797109 19.0113112,9.5487474 19.5518167,10.3535587 C19.7042342,10.5805081 19.6438143,10.8880459 19.4168648,11.0404634 C19.1899154,11.192881 18.8823777,11.132461 18.7299601,10.9055116 C18.1729979,10.0761962 17.6582509,9.22022059 17.1874388,8.34089316 Z" id="Shape" fill="#000000"></path>
                        </g>
                    </g>
                </g>
                <g id="Yellow-/-User-App-/-PIN-/-CONTENT" mask="url(#mask-2)">
                    <g transform="translate(110.000000, 131.000000)">
                        <g id="Yellow-/-User-App-/-PIN-/-BASE-/-#ffffff" fill-rule="nonzero">
                            <g id="Combined-Shape">
                                <use fill="black" fill-opacity="1" filter="url(#filter-13)" xlink:href="#path-12"></use>
                                <use fill="#FFFFFF" xlink:href="#path-12"></use>
                            </g>
                        </g>
                        <g id="Yellow/User-App/PIN/COLOR/#FFCB00" transform="translate(0.990000, 0.990000)" fill-rule="evenodd">
                            <circle id="Oval-Copy" fill="#FFCB00" cx="16.087501" cy="16.087501" r="15.691501"></circle>
                        </g>
                        <g id="Yellow/User-App/PIN/MODAIS/BIKE/#000000" transform="translate(4.950000, 9.405001)" fill-rule="nonzero">
                            <path d="M16.3163952,3.96432299 L17.8556857,3.96432299 C18.0769941,3.96432299 18.2564,3.78491708 18.2564,3.56360868 L18.2564,2.89479561 C18.2564,2.62141464 18.4780191,2.39979558 18.7514001,2.39979558 C19.024781,2.39979558 19.2464001,2.62141464 19.2464001,2.89479561 L19.2464001,3.56360868 C19.2464001,4.33167902 18.6237561,4.95432305 17.8556857,4.95432305 L16.6999962,4.95432305 C16.9743687,5.64030048 17.2746926,6.31514486 17.6002234,6.97742356 C18.0609535,6.79700441 18.5625088,6.6979539 19.0872012,6.6979539 C21.3398312,6.6979539 23.1660014,8.52364368 23.1660014,10.7758113 C23.1660014,13.0279789 21.3398312,14.8536687 19.0872012,14.8536687 C16.8345711,14.8536687 15.0084009,13.0279789 15.0084009,10.7758113 C15.0084009,9.40225486 15.6876559,8.18732942 16.7286427,7.4484452 C16.5426046,7.07117438 16.3644825,6.68994797 16.1944053,6.30501409 L13.6497816,9.75969435 C12.9499485,10.709815 11.8311308,11.2481472 10.6642783,11.2130731 C10.6373109,11.2176222 10.6096028,11.2199906 10.5813414,11.2199906 L8.92568295,11.2199906 C8.70430234,13.2632105 6.97330754,14.8536687 4.8708003,14.8536687 C2.61817028,14.8536687 0.792000049,13.0279789 0.792000049,10.7758113 C0.792000049,8.52364368 2.61817028,6.6979539 4.8708003,6.6979539 C6.93831313,6.6979539 8.64657761,8.23590906 8.91337952,10.2299906 L10.1275272,10.2299906 L8.2344591,4.93935159 C8.0499724,4.42375867 7.56142301,4.07968626 7.01381785,4.07968626 L5.38280802,4.07968626 C5.10942705,4.07968626 4.88780799,3.8580672 4.88780799,3.58468623 C4.88780799,3.31130526 5.10942705,3.0896862 5.38280802,3.0896862 L7.01381785,3.0896862 C7.97959421,3.0896862 8.84121769,3.69650481 9.16658514,4.60582324 L10.3053676,7.78842744 C10.8045144,7.99975603 11.3978999,7.85368536 11.7383067,7.40754402 L14.9572551,3.18875077 L14.697614,2.51390508 C14.5050121,2.01330438 14.0240226,1.6830001 13.4876491,1.6830001 L12.1392511,1.6830001 C11.8658702,1.6830001 11.6442511,1.46138104 11.6442511,1.18800007 C11.6442511,0.914619105 11.8658702,0.693000043 12.1392511,0.693000043 L13.4876491,0.693000043 C14.433617,0.693000043 15.2819075,1.27553667 15.6215872,2.15841427 L16.3163952,3.96432299 Z M11.1662307,10.1943186 C11.8322887,10.0912678 12.4421651,9.72988889 12.8526738,9.17256637 L15.7485485,5.24101401 C15.710612,5.14536112 15.6731627,5.04950044 15.6362026,4.9534356 L15.3746876,4.27371947 L12.5253676,8.00807319 C12.0763666,8.59653931 11.3852845,8.89786075 10.6931709,8.87223808 L11.1662307,10.1943186 Z M7.91149584,10.2299906 C7.65368314,8.78497024 6.39041221,7.68795396 4.8708003,7.68795396 C3.16487391,7.68795396 1.78200011,9.07046394 1.78200011,10.7758113 C1.78200011,12.4811586 3.16487391,13.8636686 4.8708003,13.8636686 C6.4258459,13.8636686 7.71245665,12.7148963 7.92788102,11.2199906 L4.64724447,11.2199906 L4.64724447,10.2299906 L7.61429295,10.2299906 C7.73407751,10.2299906 7.8439246,10.2725379 7.9295459,10.3433442 C7.94935707,10.4846582 7.95960049,10.629039 7.95960049,10.7758113 C7.95960049,10.8835243 7.95408361,10.9899494 7.94331692,11.0948195 C7.85585973,11.1726829 7.740601,11.2199906 7.61429295,11.2199906 L4.64724447,11.2199906 C3.98724443,11.2199906 3.98724443,10.2299906 4.64724447,10.2299906 L7.91149584,10.2299906 Z M17.1874388,8.34089316 C16.4636964,8.90602798 15.998401,9.78660711 15.998401,10.7758113 C15.998401,12.4811586 17.3812748,13.8636686 19.0872012,13.8636686 C20.7931276,13.8636686 22.1760014,12.4811586 22.1760014,10.7758113 C22.1760014,9.07046394 20.7931276,7.68795396 19.0872012,7.68795396 C18.7253342,7.68795396 18.3780034,7.75016187 18.0553245,7.86446335 C18.5119203,8.71797109 19.0113112,9.5487474 19.5518167,10.3535587 C19.7042342,10.5805081 19.6438143,10.8880459 19.4168648,11.0404634 C19.1899154,11.192881 18.8823777,11.132461 18.7299601,10.9055116 C18.1729979,10.0761962 17.6582509,9.22022059 17.1874388,8.34089316 Z" id="Shape" fill="#000000"></path>
                        </g>
                    </g>
                </g>
                <g id="Yellow/User-App/PIN/PARKING-GRENN" mask="url(#mask-2)">
                    <g transform="translate(91.000000, 90.000000)" id="pin_parking">
                        <g>
                            <g id="pin">
                                <g id="Combined-Shape" fill-rule="nonzero">
                                    <use fill="black" fill-opacity="1" filter="url(#filter-15)" xlink:href="#path-14"></use>
                                    <use fill="#47E7B8" xlink:href="#path-14"></use>
                                </g>
                                <ellipse id="Oval-Copy" fill="#FFFFFF" cx="8.27999984" cy="8.22545438" rx="7.28689641" ry="7.24363622"></ellipse>
                            </g>
                            <path d="M6.7726107,11.6606058 C6.4081657,11.6606058 6.11999988,11.3422128 6.11999988,10.9395392 L6.11999988,5.8265211 C6.11999988,5.42384751 6.4081657,5.10545444 6.7726107,5.10545444 L10.0610912,5.10545444 C10.3831589,5.10545444 10.6458983,5.39575401 10.6458983,5.75160508 C10.6458983,6.10745616 10.3831589,6.38839122 10.0610912,6.38839122 L7.41674606,6.38839122 L7.41674606,7.7181505 L9.67969528,7.7181505 C10.001763,7.7181505 10.2645024,8.00845006 10.2645024,8.36430113 C10.2645024,8.72015221 10.001763,9.00108727 9.67969528,9.00108727 L7.41674606,9.00108727 L7.41674606,10.3776691 L10.1034685,10.3776691 C10.4255362,10.3776691 10.6882756,10.6679686 10.6882756,11.0238197 C10.6882756,11.3796708 10.4255362,11.6606058 10.1034685,11.6606058 L6.7726107,11.6606058 Z" id="E-Copy" fill="#000000"></path>
                        </g>
                    </g>
                </g>
                <g id="Yellow/User-App/PIN/PARKING-GRENN" mask="url(#mask-2)">
                    <g transform="translate(172.000000, 63.000000)" id="pin_parking">
                        <g>
                            <g id="pin">
                                <g id="Combined-Shape" fill-rule="nonzero">
                                    <use fill="black" fill-opacity="1" filter="url(#filter-17)" xlink:href="#path-16"></use>
                                    <use fill="#47E7B8" xlink:href="#path-16"></use>
                                </g>
                                <ellipse id="Oval-Copy" fill="#FFFFFF" cx="8.27999984" cy="8.22545438" rx="7.28689641" ry="7.24363622"></ellipse>
                            </g>
                            <path d="M6.7726107,11.6606058 C6.4081657,11.6606058 6.11999988,11.3422128 6.11999988,10.9395392 L6.11999988,5.8265211 C6.11999988,5.42384751 6.4081657,5.10545444 6.7726107,5.10545444 L10.0610912,5.10545444 C10.3831589,5.10545444 10.6458983,5.39575401 10.6458983,5.75160508 C10.6458983,6.10745616 10.3831589,6.38839122 10.0610912,6.38839122 L7.41674606,6.38839122 L7.41674606,7.7181505 L9.67969528,7.7181505 C10.001763,7.7181505 10.2645024,8.00845006 10.2645024,8.36430113 C10.2645024,8.72015221 10.001763,9.00108727 9.67969528,9.00108727 L7.41674606,9.00108727 L7.41674606,10.3776691 L10.1034685,10.3776691 C10.4255362,10.3776691 10.6882756,10.6679686 10.6882756,11.0238197 C10.6882756,11.3796708 10.4255362,11.6606058 10.1034685,11.6606058 L6.7726107,11.6606058 Z" id="E-Copy" fill="#000000"></path>
                        </g>
                    </g>
                </g>
            </g>
        </g>
    </g>
</svg>