<?xml version="1.0" encoding="UTF-8"?>
<svg width="205px" height="165px" viewBox="0 0 205 165" version="1.1" xmlns="http://www.w3.org/2000/svg" xmlns:xlink="http://www.w3.org/1999/xlink">
    <!-- Generator: Sketch 52.4 (67378) - http://www.bohemiancoding.com/sketch -->
    <title>thumb_04</title>
    <desc>Created with Sketch.</desc>
    <g id="Page-1" stroke="none" stroke-width="1" fill="none" fill-rule="evenodd">
        <g id="newsite_desk" transform="translate(-383.000000, -2666.000000)">
            <g id="thumb_04" transform="translate(386.000000, 2669.000000)">
                <g id="qr-code" fill-rule="nonzero" stroke="#000000" stroke-width="4.06285707">
                    <rect id="Rectangle" x="0" y="0" width="24.4285714" height="24.4285714" rx="2.70857138"></rect>
                    <rect id="Rectangle-Copy" x="8.14285714" y="8.14285714" width="8.14285714" height="8.14285714" rx="1.35428569"></rect>
                    <rect id="Rectangle-Copy-5" x="0" y="32.5714286" width="24.4285714" height="24.4285714" rx="2.70857138"></rect>
                    <path d="M32.5714286,40.0357143 L32.5714286,35.2857143 C32.5714286,33.7866557 33.7866557,32.5714286 35.2857143,32.5714286 L42.0714286,32.5714286 M57,35.2857143 L57,35.9642857 L57,42.75 M44.7857143,40.0357143 L44.7857143,45.47 C44.7857143,46.9659027 45.998383,48.1785714 47.4942857,48.1785714 L54.2914286,48.1785714 C55.7873313,48.1785714 57,49.3912401 57,50.8871428 L57,54.2857143 C57,55.7847729 55.7847729,57 54.2857143,57 L44.7857143,57 M37.3214286,57 L35.2857143,57 C33.7866557,57 32.5714286,55.7847729 32.5714286,54.2857143 L32.5714286,46.8214286" id="Rectangle-Copy-6" stroke-linecap="round" stroke-linejoin="round"></path>
                    <rect id="Rectangle-Copy-4" x="8.14285714" y="40.7142857" width="8.14285714" height="8.14285714" rx="1.35428569"></rect>
                    <rect id="Rectangle-Copy-3" x="32.5714286" y="0" width="24.4285714" height="24.4285714" rx="2.70857138"></rect>
                    <rect id="Rectangle-Copy-2" x="40.7142857" y="8.14285714" width="8.14285714" height="8.14285714" rx="1.35428569"></rect>
                </g>
                <g id="Yellow/User-App/PIN/MODAIS/BIKE/#000000" transform="translate(108.000000, 102.000000)" fill="#000000" fill-rule="nonzero">
                    <path d="M65.9248249,16.0174656 L72.1441804,16.0174656 C73.0383557,16.0174656 73.763228,15.2925933 73.763228,14.398418 L73.763228,11.6961432 C73.763228,10.5915737 74.6586585,9.69614315 75.763228,9.69614315 C76.8677975,9.69614315 77.763228,10.5915737 77.763228,11.6961432 L77.763228,14.398418 C77.763228,17.5017323 75.2474947,20.0174656 72.1441804,20.0174656 L67.4747282,20.0174656 C68.5833037,22.7890914 69.7967336,25.5157352 71.1120094,28.1916086 C72.973545,27.4626424 75.000031,27.0624383 77.12,27.0624383 C86.2215349,27.0624383 93.6,34.4389622 93.6,43.5386288 C93.6,52.6382954 86.2215349,60.0148193 77.12,60.0148193 C68.0184651,60.0148193 60.64,52.6382954 60.64,43.5386288 C60.64,37.9889062 63.3844646,33.0801168 67.5904713,30.0947262 C66.8388024,28.5703998 66.1191171,27.0300912 65.4319366,25.4748028 L55.1506293,39.4331061 C52.323021,43.2719773 47.8025458,45.4470567 43.0879904,45.305343 C42.9790315,45.3237234 42.8670793,45.3332928 42.7528921,45.3332928 L36.0633632,45.3332928 C35.1688962,53.5887261 28.1749782,60.0148193 19.68,60.0148193 C10.5784651,60.0148193 3.2,52.6382954 3.2,43.5386288 C3.2,34.4389622 10.5784651,27.0624383 19.68,27.0624383 C28.0335867,27.0624383 34.935665,33.2763982 36.0136524,41.3332928 L40.9192995,41.3332928 L33.2705398,19.9569749 C32.525139,17.8737713 30.5512022,16.4835798 28.3386563,16.4835798 L21.7487179,16.4835798 C20.6441484,16.4835798 19.7487179,15.5881493 19.7487179,14.4835798 C19.7487179,13.3790103 20.6441484,12.4835798 21.7487179,12.4835798 L28.3386563,12.4835798 C32.2407827,12.4835798 35.7220895,14.9353721 37.0367054,18.6093857 L41.6378461,31.4683918 C43.6546009,32.3222446 46.0521179,31.7320601 47.4274988,29.9294689 L60.4333503,12.8838407 L59.3842953,10.1571916 C58.606106,8.13456264 56.6627143,6.8 54.4955487,6.8 L49.0474763,6.8 C47.9429068,6.8 47.0474763,5.9045695 47.0474763,4.8 C47.0474763,3.6954305 47.9429068,2.8 49.0474763,2.8 L54.4955487,2.8 C58.3176407,2.8 61.7450771,5.1536832 63.11752,8.72086521 L65.9248249,16.0174656 Z M45.1160807,41.1891637 C47.8072241,40.7727965 50.2713712,39.31268 51.9299919,37.060872 L63.6304953,21.1758129 C63.4772163,20.7893366 63.3259061,20.4020207 63.1765722,20.01388 L62.1199461,17.2675524 L50.6075426,32.3558493 C48.7933975,34.73349 46.0011465,35.9509503 43.2047281,35.8474244 L45.1160807,41.1891637 Z M31.9656378,41.3332928 C30.9239704,35.4948271 25.8198457,31.0624383 19.68,31.0624383 C12.7873685,31.0624383 7.2,36.6483369 7.2,43.5386288 C7.2,50.4289207 12.7873685,56.0148193 19.68,56.0148193 C25.9630122,56.0148193 31.1614391,51.3733153 32.0318405,45.3332928 L18.7767442,45.3332928 L18.7767442,41.3332928 L30.7648181,41.3332928 C31.2487961,41.3332928 31.6926227,41.5052011 32.0385673,41.7912872 C32.1186125,42.3622526 32.16,42.9456097 32.16,43.5386288 C32.16,43.9738329 32.1377096,44.4038331 32.0942078,44.8275508 C31.7408454,45.1421502 31.2751536,45.3332928 30.7648181,45.3332928 L18.7767442,45.3332928 C16.1100775,45.3332928 16.1100775,41.3332928 18.7767442,41.3332928 L31.9656378,41.3332928 Z M69.444193,33.7005764 C66.5199812,35.9839492 64.64,39.5418445 64.64,43.5386288 C64.64,50.4289207 70.2273685,56.0148193 77.12,56.0148193 C84.0126315,56.0148193 89.6,50.4289207 89.6,43.5386288 C89.6,36.6483369 84.0126315,31.0624383 77.12,31.0624383 C75.6579112,31.0624383 74.2545546,31.3137834 72.9508017,31.7756075 C74.7956328,35.2241234 76.8133739,38.5807952 78.9972342,41.832558 C79.6130628,42.7495252 79.3689416,43.9921018 78.4519743,44.6079303 C77.5350071,45.2237589 76.2924306,44.9796377 75.676602,44.0626705 C73.4262497,40.7119012 71.3464641,37.2534142 69.444193,33.7005764 Z" id="Shape"></path>
                </g>
                <g id="Yellow/User-App/PIN/MODAIS/SCOOTER/#000000" transform="translate(108.000000, 23.000000)" fill="#000000" fill-rule="nonzero">
                    <path d="M70.2950112,46.4166535 L62.0846739,4.34343344 L52.2291829,8.5717722 C51.2288048,9.00096822 50.069906,8.53793366 49.64071,7.53755555 C49.211514,6.53717744 49.6745485,5.37827863 50.6749266,4.94908261 L71.1602773,-3.83982526 C72.1606554,-4.26902128 73.3195542,-3.80598671 73.7487502,-2.80560861 C74.1779463,-1.8052305 73.7149117,-0.646331686 72.7145336,-0.217135663 L65.7907731,2.75339164 L74.2383303,46.0422265 C79.1904294,46.5673623 83.0483733,50.7544071 83.0483733,55.8417975 C83.0483733,61.2846037 78.6325516,65.69687 73.1853596,65.69687 C68.4725991,65.69687 64.5318435,62.3941857 63.5548694,57.9788289 L37.6521004,58.0874442 C36.5635487,58.0920087 35.677403,57.2132635 35.6728385,56.1247118 C35.6726321,56.0755116 35.6742303,56.0267247 35.6775708,55.9784141 C35.6744218,55.9328531 35.6728211,55.886866 35.6728211,55.840505 C35.6728211,48.2209319 29.490315,42.0434036 21.8630137,42.0434036 C20.7744525,42.0434036 19.8919992,41.1609503 19.8919992,40.0723891 C19.8919992,38.9838279 20.7744525,38.1013746 21.8630137,38.1013746 C31.0918965,38.1013746 38.676411,45.1390921 39.5341027,54.137489 L63.4873583,54.0370484 C64.1591677,50.409932 66.8188571,47.479643 70.2950112,46.4166535 Z M21.8630137,61.7535485 C25.1337937,61.7535485 27.7839984,59.1054777 27.7839984,55.840505 C27.7839984,52.5755324 25.1337937,49.9274616 21.8630137,49.9274616 C18.5922337,49.9274616 15.942029,52.5755324 15.942029,55.840505 C15.942029,59.1054777 18.5922337,61.7535485 21.8630137,61.7535485 Z M21.8630137,65.6955775 C16.4158216,65.6955775 12,61.2833113 12,55.840505 C12,50.3976988 16.4158216,45.9854326 21.8630137,45.9854326 C27.3102058,45.9854326 31.7260274,50.3976988 31.7260274,55.840505 C31.7260274,61.2833113 27.3102058,65.6955775 21.8630137,65.6955775 Z M73.1853596,61.754841 C76.4561396,61.754841 79.1063443,59.1067701 79.1063443,55.8417975 C79.1063443,52.5768249 76.4561396,49.928754 73.1853596,49.928754 C69.9145795,49.928754 67.2643749,52.5768249 67.2643749,55.8417975 C67.2643749,59.1067701 69.9145795,61.754841 73.1853596,61.754841 Z" id="Shape"></path>
                </g>
                <circle id="Oval-Copy-18" fill="#FFCB00" opacity="0.8" cx="167" cy="67" r="9"></circle>
                <path d="M64,30 L155,62" id="Path-18" stroke="#FFCB00" stroke-linecap="round" stroke-dasharray="3"></path>
                <path d="M60,60 L122,123" id="Path-28" stroke="#FFCB00" stroke-linecap="round" stroke-dasharray="3"></path>
            </g>
        </g>
    </g>
</svg>