<?xml version="1.0" encoding="UTF-8"?>
<svg width="149px" height="149px" viewBox="0 0 149 149" version="1.1" xmlns="http://www.w3.org/2000/svg" xmlns:xlink="http://www.w3.org/1999/xlink">
    <!-- Generator: Sketch 52.4 (67378) - http://www.bohemiancoding.com/sketch -->
    <title>thumb_05</title>
    <desc>Created with Sketch.</desc>
    <defs>
        <ellipse id="path-1" cx="74.5" cy="74.0957447" rx="74.5" ry="74.0957447"></ellipse>
        <path d="M54.5512093,80.4955738 C52.9262194,123.169064 69.7148532,136.440453 69.7148532,136.440453 C39.1174272,171.946036 12.5981865,137.963532 12.5981865,137.963532 C26.547901,125.588694 27.676521,94.6451884 27.3165524,79.3484729 C19.4820877,74.4012573 13.4179836,65.5986588 10.6582739,54.8918112 C7.37923476,56.0122811 3.65667274,54.7082233 1.85832169,51.6096072 C-0.183530159,48.0914314 1.03054392,43.5935453 4.56515503,41.562773 C5.97402566,40.7539532 7.53915416,40.458378 9.04158601,40.6177916 C9.55209267,18.0757902 24.0793571,0.000274428684 41.9235939,0.000274428684 C59.9017435,0.000274428684 74.5102471,18.3481052 74.8119641,41.1260428 C75.6780581,40.7719975 76.6266053,40.5767508 77.6209587,40.5767508 C81.7046624,40.5767508 85.0157735,43.869895 85.0157735,47.9314395 C85.0157735,51.992984 81.7046624,55.2861283 77.6209587,55.2861283 C76.0573533,55.2861283 74.6070131,54.8033401 73.4124329,53.9794854 C70.5558563,65.9921613 63.5679869,75.7226325 54.5512093,80.4955738 Z" id="path-3"></path>
    </defs>
    <g id="Page-1" stroke="none" stroke-width="1" fill="none" fill-rule="evenodd">
        <g id="newsite_desk" transform="translate(-886.000000, -2673.000000)">
            <g id="thumb_05" transform="translate(886.000000, 2673.000000)">
                <mask id="mask-2" fill="white">
                    <use xlink:href="#path-1"></use>
                </mask>
                <use id="Mask" fill="#FFF9E2" xlink:href="#path-1"></use>
                <g id="avatar" mask="url(#mask-2)">
                    <g transform="translate(30.982540, 21.954295)">
                        <g id="face" transform="translate(1.261376, 19.210008)">
                            <mask id="mask-4" fill="white">
                                <use xlink:href="#path-3"></use>
                            </mask>
                            <use id="Mask" fill="#D63276" xlink:href="#path-3"></use>
                            <path d="M80.8857143,32.6081306 C80.8857143,8.53664626 71.2283069,-13.7214342 42.2560847,-13.7214342 C13.2838624,-13.7214342 3.62645503,8.53664626 3.62645503,32.6081306 C3.62645503,56.6796149 1.77389749,25.6428259 42.2560847,26.070725 C82.7382718,26.4986241 80.8857143,56.6796149 80.8857143,32.6081306 Z" id="Oval" fill="#8B2425" opacity="0.332217262" mask="url(#mask-4)"></path>
                        </g>
                        <g id="capacete" transform="translate(4.257143, 0.000000)">
                            <path d="M38.9278267,19.2102823 C20.7608638,19.2102823 6.03193783,37.9455286 6.03193783,61.055168 C6.03193783,84.1648075 20.7594841,98.7943262 38.9264471,98.7943262 C57.0934101,98.7943262 71.8209563,84.1648075 71.8209563,61.055168 C71.8209563,37.9455286 57.0947897,19.2102823 38.9278267,19.2102823 Z" id="Fill-1" stroke="#000000" stroke-width="5.49408951"></path>
                            <path d="M77.8899471,46.3295648 C77.8899471,22.2580805 68.2325397,2.5795779e-13 39.2603175,2.5795779e-13 C10.2880952,2.61046174e-13 0.630687831,22.2580805 0.630687831,46.3295648 C0.630687831,70.4010491 -1.22186971,39.3642601 39.2603175,39.7921592 C79.7425046,40.2200583 77.8899471,70.4010491 77.8899471,46.3295648 Z" id="Oval-Copy" fill="#FFCB00"></path>
                            <rect id="Rectangle" fill="#F5A623" x="33.7417989" y="24.6985816" width="13.7962963" height="8.23286052" rx="4.11643026"></rect>
                            <path d="M37.8806878,98.7943262 C47.9979718,98.8780381 53.0566138,102.537087 53.0566138,109.771474" id="Path-4" stroke="#000000" stroke-width="5.49408951" stroke-linecap="round"></path>
                        </g>
                    </g>
                </g>
            </g>
        </g>
    </g>
</svg>