<?xml version="1.0" encoding="UTF-8"?>
<svg width="208px" height="224px" viewBox="0 0 208 224" version="1.1" xmlns="http://www.w3.org/2000/svg" xmlns:xlink="http://www.w3.org/1999/xlink">
    <!-- Generator: Sketch 52.4 (67378) - http://www.bohemiancoding.com/sketch -->
    <title>Group 33</title>
    <desc>Created with Sketch.</desc>
    <defs>
        <linearGradient x1="0%" y1="0%" x2="100%" y2="100%" id="linearGradient-1">
            <stop stop-color="#47E7B8" offset="0%"></stop>
            <stop stop-color="#D63276" offset="100%"></stop>
        </linearGradient>
        <path d="M9.52836139,0.159051959 C12.3275608,1.06169949 14.7992293,1.89182396 15.8822053,3.5484375 C18.4654555,7.5 14.5797654,10.2287109 12.9400241,11.7117188 C11.3002828,13.1947266 2.10642945,23.1269531 2.81435343,26.5683594 C3.52227741,30.0097656 4.7563216,28.7009766 4.7563216,29.6 C4.7563216,30.4990234 3.5587161,30.4863281 2.23191887,29.6 C0.905121628,28.7136719 0.98754706,28.7136719 0.498645048,28.0294922 C0.00974303597,27.3453125 -0.148288026,26.8664063 0.98754706,24.9382813 C2.12338215,23.0101563 2.60293105,13.6912109 7.97403386,8.36074219 C8.54087968,7.84335938 8.25534854,7.5 6.88853881,7.5 C6.70480173,7.5 6.43176303,7.50772245 6.07256138,7.50365057 C7.2006072,5.92634831 8.35254053,3.47814877 9.52836139,0.159051959 Z" id="path-2"></path>
    </defs>
    <g id="Page-1" stroke="none" stroke-width="1" fill="none" fill-rule="evenodd">
        <g id="iPhone-8-Copy" transform="translate(-81.000000, -4358.000000)">
            <g id="Group-44" transform="translate(0.000000, 2268.000000)">
                <g id="Group-43" transform="translate(28.000000, 0.000000)">
                    <g id="Group-36" transform="translate(10.000000, 2091.000000)">
                        <g id="Group-33" transform="translate(25.000000, 0.000000)">
                            <path d="M40,140.841238 C48.837089,169.723912 72.1443756,192.283881 101.467905,200.065771 M151.350229,198.685305 C177.81263,190.05477 198.756211,169.206675 207.521454,142.801654 M208,88.8392824 C199.944771,63.037931 180.323457,42.3437532 155.206465,32.8281741 M98.2814182,31 C73.1979127,38.6879482 52.8879194,57.296396 42.8944439,81.2814064" id="Shape" stroke="url(#linearGradient-1)" stroke-width="2" stroke-dasharray="3"></path>
                            <g id="c02" transform="translate(175.000000, 91.000000)" fill="#000000">
                                <g id="icon-c02" transform="translate(23.000000, 0.000000)">
                                    <path d="M22.152942,18.4953074 C24.5764106,18.38448 26.5,16.323587 26.5,13.8086957 C26.5,11.7332133 25.1807592,9.92451376 23.2888364,9.32426558 C23.0167016,9.2379257 22.871989,8.94162671 22.9712063,8.67391826 C23.0878568,8.35917178 23.1484375,8.02342722 23.1484375,7.67826087 C23.1484375,6.1360851 21.9368833,4.89130435 20.4492188,4.89130435 C20.1826515,4.89130435 19.921801,4.93105141 19.672104,5.00841689 C19.4593835,5.07432565 19.2287148,4.99160528 19.1063573,4.8055338 C17.7567595,2.75317466 15.5113949,1.5 13.0605469,1.5 C9.56046441,1.5 6.56875651,4.05759621 5.90226481,7.55438824 C5.86531962,7.74822354 5.71782887,7.90220103 5.52576214,7.94744972 C3.18899805,8.49796417 1.5,10.6495329 1.5,13.1565217 C1.5,16.1106255 3.82559564,18.5 6.6875,18.5 L22.103535,18.5 C22.1197566,18.4976486 22.1362381,18.4960713 22.152942,18.4953074 Z M22.1757812,19.5 L6.6875,19.5 C3.26716533,19.5 0.5,16.6569459 0.5,13.1565217 C0.5,10.2989552 2.35835572,7.82419648 4.98510784,7.05621813 C5.85458496,3.25418421 9.17853533,0.5 13.0605469,0.5 C15.7336606,0.5 18.1902904,1.80702962 19.7390048,3.96111895 C19.9712642,3.9148497 20.2088187,3.89130435 20.4492188,3.89130435 C22.4953136,3.89130435 24.1484375,5.58976472 24.1484375,7.67826087 C24.1484375,7.97136253 24.1158142,8.26017594 24.0520451,8.54042056 C26.1095146,9.40331469 27.5,11.4688271 27.5,13.8086957 C27.5,16.827061 25.2010163,19.3159292 22.2744156,19.4902733 C22.242528,19.4966532 22.2095453,19.5 22.1757812,19.5 Z M18.094818,12.8941014 C18.1515108,12.6238413 17.9783802,12.3587936 17.70812,12.3021008 C17.4378599,12.2454081 17.1728122,12.4185387 17.1161195,12.6887988 C16.8023719,14.1844659 15.5179936,15.2653187 14.0253953,15.2653187 C12.532783,15.2653187 11.2483961,14.1844459 10.934663,12.6887601 C10.8779734,12.4184993 10.6129278,12.2453656 10.342667,12.3020552 C10.0724062,12.3587447 9.89927246,12.6237904 9.95596202,12.8940512 C10.3653629,14.8458219 12.0521323,16.2653187 14.0253953,16.2653187 C15.9986399,16.2653187 17.6853981,14.845848 18.094818,12.8941014 Z" id="icon-C02" fill-rule="nonzero"></path>
                                    <g id="Group-18" transform="translate(9.000000, 7.000000)">
                                        <circle id="Oval" cx="1.5" cy="1.5" r="1.5"></circle>
                                        <circle id="Oval-Copy-4" cx="8.5" cy="1.5" r="1.5"></circle>
                                    </g>
                                </g>
                                <path d="M30.8265,38.144 C28.3785,38.144 26.5545,36.236 26.5545,33.824 L26.5545,33.8 C26.5545,31.412 28.3425,29.456 30.8865,29.456 C32.1825,29.456 33.0345,29.84 33.7665,30.404 C33.9225,30.524 34.0545,30.728 34.0545,30.992 C34.0545,31.4 33.7305,31.712 33.3225,31.712 C33.1185,31.712 32.9745,31.64 32.8785,31.568 C32.3025,31.1 31.6785,30.812 30.8745,30.812 C29.2785,30.812 28.1025,32.132 28.1025,33.776 L28.1025,33.8 C28.1025,35.444 29.2665,36.776 30.8745,36.776 C31.7625,36.776 32.3625,36.488 32.9745,35.972 C33.0825,35.876 33.2385,35.804 33.4185,35.804 C33.7905,35.804 34.1145,36.116 34.1145,36.488 C34.1145,36.716 34.0065,36.896 33.8745,37.016 C33.0825,37.712 32.1825,38.144 30.8265,38.144 Z M39.1505,38.144 C36.5705,38.144 34.7705,36.188 34.7705,33.824 L34.7705,33.8 C34.7705,31.436 36.5945,29.456 39.1745,29.456 C41.7545,29.456 43.5545,31.412 43.5545,33.776 L43.5545,33.8 C43.5545,36.164 41.7305,38.144 39.1505,38.144 Z M39.1745,36.776 C40.8425,36.776 42.0065,35.456 42.0065,33.824 L42.0065,33.8 C42.0065,32.168 40.8185,30.812 39.1505,30.812 C37.4825,30.812 36.3185,32.144 36.3185,33.776 L36.3185,33.8 C36.3185,35.432 37.5065,36.776 39.1745,36.776 Z M44.1635,37.594 C44.1635,37.426 44.2405,37.286 44.3875,37.167 L45.8925,35.886 C46.5645,35.319 46.8095,35.004 46.8095,34.563 C46.8095,34.08 46.4665,33.8 46.0185,33.8 C45.6265,33.8 45.3535,33.982 45.0525,34.346 C44.9895,34.416 44.8915,34.479 44.7515,34.479 C44.5345,34.479 44.3595,34.304 44.3595,34.087 C44.3595,33.996 44.3945,33.898 44.4575,33.821 C44.8565,33.324 45.3115,33.03 46.0815,33.03 C47.0405,33.03 47.6985,33.618 47.6985,34.493 L47.6985,34.507 C47.6985,35.277 47.2925,35.697 46.4245,36.404 L45.4165,37.244 L47.4045,37.244 C47.6145,37.244 47.7825,37.412 47.7825,37.622 C47.7825,37.832 47.6145,38 47.4045,38 L44.6255,38 C44.3595,38 44.1635,37.846 44.1635,37.594 Z" id="CO2"></path>
                            </g>
                            <g id="time" transform="translate(0.000000, 90.000000)">
                                <path d="M21.168,39.108 C20.1,39.108 19.344,38.64 19.344,37.248 L19.344,33.912 L19.104,33.912 C18.756,33.912 18.48,33.636 18.48,33.288 C18.48,32.94 18.756,32.664 19.104,32.664 L19.344,32.664 L19.344,31.584 C19.344,31.188 19.668,30.864 20.076,30.864 C20.472,30.864 20.796,31.188 20.796,31.584 L20.796,32.664 L21.936,32.664 C22.284,32.664 22.572,32.94 22.572,33.288 C22.572,33.636 22.284,33.912 21.936,33.912 L20.796,33.912 L20.796,37.02 C20.796,37.584 21.084,37.812 21.576,37.812 C21.744,37.812 21.888,37.776 21.936,37.776 C22.26,37.776 22.548,38.04 22.548,38.376 C22.548,38.64 22.368,38.856 22.164,38.94 C21.852,39.048 21.552,39.108 21.168,39.108 Z M24.488,35.388 L27.74,35.388 C27.644,34.452 27.092,33.72 26.132,33.72 C25.244,33.72 24.62,34.404 24.488,35.388 Z M28.58,38.304 C28.004,38.82 27.284,39.144 26.3,39.144 C24.464,39.144 23.048,37.812 23.048,35.856 L23.048,35.832 C23.048,34.02 24.332,32.532 26.144,32.532 C28.16,32.532 29.156,34.188 29.156,35.652 C29.156,36.06 28.844,36.348 28.472,36.348 L24.5,36.348 C24.656,37.38 25.388,37.956 26.324,37.956 C26.936,37.956 27.416,37.74 27.824,37.404 C27.932,37.32 28.028,37.272 28.196,37.272 C28.52,37.272 28.772,37.524 28.772,37.86 C28.772,38.04 28.688,38.196 28.58,38.304 Z M30.244,38.34 L30.244,33.324 C30.244,32.916 30.556,32.592 30.964,32.592 C31.372,32.592 31.696,32.916 31.696,33.324 L31.696,33.624 C32.104,33.06 32.656,32.532 33.628,32.532 C34.54,32.532 35.188,32.976 35.524,33.648 C36.028,32.976 36.7,32.532 37.66,32.532 C39.04,32.532 39.88,33.408 39.88,34.956 L39.88,38.34 C39.88,38.748 39.568,39.06 39.16,39.06 C38.752,39.06 38.428,38.748 38.428,38.34 L38.428,35.4 C38.428,34.392 37.96,33.852 37.144,33.852 C36.352,33.852 35.788,34.404 35.788,35.424 L35.788,38.34 C35.788,38.748 35.464,39.06 35.068,39.06 C34.66,39.06 34.336,38.748 34.336,38.34 L34.336,35.388 C34.336,34.404 33.856,33.852 33.052,33.852 C32.248,33.852 31.696,34.452 31.696,35.424 L31.696,38.34 C31.696,38.748 31.372,39.06 30.964,39.06 C30.568,39.06 30.244,38.748 30.244,38.34 Z M41.244,40.26 L41.244,33.324 C41.244,32.916 41.556,32.592 41.964,32.592 C42.372,32.592 42.696,32.916 42.696,33.324 L42.696,33.72 C43.164,33.06 43.824,32.532 44.856,32.532 C46.344,32.532 47.796,33.708 47.796,35.82 L47.796,35.844 C47.796,37.944 46.356,39.132 44.856,39.132 C43.8,39.132 43.14,38.604 42.696,38.016 L42.696,40.26 C42.696,40.668 42.372,40.98 41.964,40.98 C41.568,40.98 41.244,40.668 41.244,40.26 Z M44.508,37.872 C45.504,37.872 46.32,37.092 46.32,35.844 L46.32,35.82 C46.32,34.596 45.492,33.792 44.508,33.792 C43.524,33.792 42.66,34.608 42.66,35.82 L42.66,35.844 C42.66,37.056 43.524,37.872 44.508,37.872 Z M51.908,39.144 C49.976,39.144 48.548,37.668 48.548,35.868 L48.548,35.844 C48.548,34.032 49.988,32.532 51.932,32.532 C53.876,32.532 55.304,34.008 55.304,35.82 L55.304,35.844 C55.304,37.644 53.864,39.144 51.908,39.144 Z M51.932,37.872 C53.108,37.872 53.852,36.96 53.852,35.868 L53.852,35.844 C53.852,34.728 53.048,33.804 51.908,33.804 C50.744,33.804 50,34.716 50,35.82 L50,35.844 C50,36.948 50.804,37.872 51.932,37.872 Z" id="tempo" fill="#000000"></path>
                                <g id="icon_time" transform="translate(26.000000, 0.000000)" fill-rule="nonzero">
                                    <circle id="Oval-4" stroke="#000000" cx="10.1" cy="12" r="9.5"></circle>
                                    <path d="M10,6 L10,6 C10.2761424,6 10.5,6.22385763 10.5,6.5 L10.5,11.92711 C10.5,12.2032523 10.2761424,12.42711 10,12.42711 L10,12.42711 C9.72385763,12.42711 9.5,12.2032523 9.5,11.92711 L9.5,6.5 C9.5,6.22385763 9.72385763,6 10,6 Z" id="Rectangle-31" fill="#000000" transform="translate(10.000000, 9.213555) scale(1, -1) translate(-10.000000, -9.213555) "></path>
                                    <rect id="Rectangle-4" fill="#000000" transform="translate(11.820972, 12.000000) scale(1, -1) translate(-11.820972, -12.000000) " x="9.5" y="11.5" width="4.64194373" height="1" rx="0.5"></rect>
                                    <path d="M8.5,0 L12.1419437,0 C12.4180861,-5.07265313e-17 12.6419437,0.223857625 12.6419437,0.5 L12.6419437,0.5 C12.6419437,0.776142375 12.4180861,1 12.1419437,1 L8.5,1 C8.22385763,1 8,0.776142375 8,0.5 L8,0.5 C8,0.223857625 8.22385763,1.61748834e-16 8.5,1.11022302e-16 Z" id="Rectangle-4" fill="#000000" transform="translate(10.320972, 0.500000) scale(1, -1) translate(-10.320972, -0.500000) "></path>
                                    <rect id="Rectangle-31-Copy" fill="#000000" transform="translate(21.500000, 11.856777) scale(1, -1) translate(-21.500000, -11.856777) " x="21" y="10" width="1" height="3.71355499" rx="0.5"></rect>
                                </g>
                            </g>
                            <g id="km" transform="translate(89.000000, 184.000000)" fill="#000000">
                                <path d="M18.68,29.9 L18.68,37.34 C18.68,37.748 18.356,38.06 17.96,38.06 C17.552,38.06 17.228,37.748 17.228,37.34 L17.228,36.944 C16.76,37.604 16.1,38.132 15.068,38.132 C13.58,38.132 12.128,36.944 12.128,34.844 L12.128,34.82 C12.128,32.72 13.556,31.532 15.068,31.532 C16.112,31.532 16.772,32.048 17.228,32.648 L17.228,29.9 C17.228,29.492 17.552,29.18 17.948,29.18 C18.356,29.18 18.68,29.492 18.68,29.9 Z M15.416,32.792 C14.42,32.792 13.592,33.56 13.592,34.82 L13.592,34.844 C13.592,36.068 14.432,36.872 15.416,36.872 C16.388,36.872 17.252,36.056 17.252,34.844 L17.252,34.82 C17.252,33.596 16.388,32.792 15.416,32.792 Z M20.08,30.032 L20.08,29.96 C20.08,29.528 20.44,29.252 20.908,29.252 C21.376,29.252 21.736,29.528 21.736,29.96 L21.736,30.032 C21.736,30.464 21.376,30.752 20.908,30.752 C20.44,30.752 20.08,30.464 20.08,30.032 Z M20.188,37.34 L20.188,32.324 C20.188,31.916 20.5,31.592 20.908,31.592 C21.316,31.592 21.64,31.916 21.64,32.324 L21.64,37.34 C21.64,37.748 21.316,38.06 20.908,38.06 C20.512,38.06 20.188,37.748 20.188,37.34 Z M25.308,38.12 C24.504,38.12 23.628,37.868 22.896,37.364 C22.74,37.28 22.62,37.1 22.62,36.86 C22.62,36.536 22.872,36.272 23.208,36.272 C23.328,36.272 23.436,36.308 23.52,36.356 C24.132,36.764 24.768,36.968 25.344,36.968 C25.968,36.968 26.328,36.704 26.328,36.284 L26.328,36.26 C26.328,35.768 25.656,35.6 24.912,35.372 C23.976,35.108 22.932,34.724 22.932,33.512 L22.932,33.488 C22.932,32.288 23.928,31.556 25.188,31.556 C25.86,31.556 26.568,31.748 27.18,32.072 C27.384,32.18 27.528,32.372 27.528,32.624 C27.528,32.96 27.264,33.212 26.928,33.212 C26.808,33.212 26.736,33.188 26.64,33.14 C26.124,32.876 25.596,32.708 25.152,32.708 C24.588,32.708 24.264,32.972 24.264,33.332 L24.264,33.356 C24.264,33.824 24.948,34.016 25.692,34.256 C26.616,34.544 27.66,34.964 27.66,36.104 L27.66,36.128 C27.66,37.46 26.628,38.12 25.308,38.12 Z M30.752,38.108 C29.684,38.108 28.928,37.64 28.928,36.248 L28.928,32.912 L28.688,32.912 C28.34,32.912 28.064,32.636 28.064,32.288 C28.064,31.94 28.34,31.664 28.688,31.664 L28.928,31.664 L28.928,30.584 C28.928,30.188 29.252,29.864 29.66,29.864 C30.056,29.864 30.38,30.188 30.38,30.584 L30.38,31.664 L31.52,31.664 C31.868,31.664 32.156,31.94 32.156,32.288 C32.156,32.636 31.868,32.912 31.52,32.912 L30.38,32.912 L30.38,36.02 C30.38,36.584 30.668,36.812 31.16,36.812 C31.328,36.812 31.472,36.776 31.52,36.776 C31.844,36.776 32.132,37.04 32.132,37.376 C32.132,37.64 31.952,37.856 31.748,37.94 C31.436,38.048 31.136,38.108 30.752,38.108 Z M34.984,38.132 C33.796,38.132 32.74,37.448 32.74,36.176 L32.74,36.152 C32.74,34.784 33.808,34.112 35.356,34.112 C36.064,34.112 36.568,34.22 37.06,34.376 L37.06,34.22 C37.06,33.32 36.508,32.84 35.488,32.84 C34.936,32.84 34.48,32.936 34.084,33.092 C34,33.116 33.928,33.128 33.856,33.128 C33.52,33.128 33.244,32.864 33.244,32.528 C33.244,32.264 33.424,32.036 33.64,31.952 C34.24,31.724 34.852,31.58 35.68,31.58 C36.628,31.58 37.336,31.832 37.78,32.288 C38.248,32.744 38.464,33.416 38.464,34.244 L38.464,37.364 C38.464,37.76 38.152,38.06 37.756,38.06 C37.336,38.06 37.048,37.772 37.048,37.448 L37.048,37.208 C36.616,37.724 35.956,38.132 34.984,38.132 Z M35.392,37.076 C36.352,37.076 37.084,36.524 37.084,35.72 L37.084,35.288 C36.712,35.144 36.22,35.036 35.644,35.036 C34.708,35.036 34.156,35.432 34.156,36.092 L34.156,36.116 C34.156,36.728 34.696,37.076 35.392,37.076 Z M35.764,30.056 L35.14,30.596 C34.828,30.86 34.588,30.92 34.252,30.92 C34.072,30.92 33.928,30.836 33.928,30.68 C33.928,30.596 34,30.488 34.072,30.392 L34.864,29.396 C35.044,29.18 35.224,29.048 35.56,29.048 L35.992,29.048 C36.328,29.048 36.52,29.18 36.688,29.396 L37.48,30.392 C37.552,30.488 37.624,30.596 37.624,30.68 C37.624,30.836 37.468,30.92 37.276,30.92 C36.94,30.92 36.712,30.86 36.388,30.596 L35.764,30.056 Z M39.804,37.34 L39.804,32.324 C39.804,31.916 40.116,31.592 40.524,31.592 C40.932,31.592 41.256,31.916 41.256,32.324 L41.256,32.636 C41.664,32.048 42.252,31.532 43.236,31.532 C44.664,31.532 45.492,32.492 45.492,33.956 L45.492,37.34 C45.492,37.748 45.18,38.06 44.772,38.06 C44.364,38.06 44.04,37.748 44.04,37.34 L44.04,34.4 C44.04,33.416 43.548,32.852 42.684,32.852 C41.844,32.852 41.256,33.44 41.256,34.424 L41.256,37.34 C41.256,37.748 40.932,38.06 40.524,38.06 C40.128,38.06 39.804,37.748 39.804,37.34 Z M49.772,38.144 C47.888,38.144 46.496,36.668 46.496,34.868 L46.496,34.844 C46.496,33.044 47.888,31.532 49.796,31.532 C50.792,31.532 51.476,31.856 52.016,32.324 C52.112,32.408 52.244,32.588 52.244,32.828 C52.244,33.2 51.944,33.488 51.572,33.488 C51.392,33.488 51.236,33.416 51.14,33.344 C50.768,33.032 50.36,32.804 49.784,32.804 C48.728,32.804 47.948,33.716 47.948,34.82 L47.948,34.844 C47.948,35.972 48.728,36.872 49.844,36.872 C50.42,36.872 50.864,36.644 51.26,36.308 C51.344,36.236 51.488,36.152 51.656,36.152 C52.004,36.152 52.28,36.44 52.28,36.788 C52.28,36.98 52.208,37.136 52.076,37.244 C51.512,37.784 50.828,38.144 49.772,38.144 Z M53.272,30.032 L53.272,29.96 C53.272,29.528 53.632,29.252 54.1,29.252 C54.568,29.252 54.928,29.528 54.928,29.96 L54.928,30.032 C54.928,30.464 54.568,30.752 54.1,30.752 C53.632,30.752 53.272,30.464 53.272,30.032 Z M53.38,37.34 L53.38,32.324 C53.38,31.916 53.692,31.592 54.1,31.592 C54.508,31.592 54.832,31.916 54.832,32.324 L54.832,37.34 C54.832,37.748 54.508,38.06 54.1,38.06 C53.704,38.06 53.38,37.748 53.38,37.34 Z M58.152,38.132 C56.964,38.132 55.908,37.448 55.908,36.176 L55.908,36.152 C55.908,34.784 56.976,34.112 58.524,34.112 C59.232,34.112 59.736,34.22 60.228,34.376 L60.228,34.22 C60.228,33.32 59.676,32.84 58.656,32.84 C58.104,32.84 57.648,32.936 57.252,33.092 C57.168,33.116 57.096,33.128 57.024,33.128 C56.688,33.128 56.412,32.864 56.412,32.528 C56.412,32.264 56.592,32.036 56.808,31.952 C57.408,31.724 58.02,31.58 58.848,31.58 C59.796,31.58 60.504,31.832 60.948,32.288 C61.416,32.744 61.632,33.416 61.632,34.244 L61.632,37.364 C61.632,37.76 61.32,38.06 60.924,38.06 C60.504,38.06 60.216,37.772 60.216,37.448 L60.216,37.208 C59.784,37.724 59.124,38.132 58.152,38.132 Z M58.56,37.076 C59.52,37.076 60.252,36.524 60.252,35.72 L60.252,35.288 C59.88,35.144 59.388,35.036 58.812,35.036 C57.876,35.036 57.324,35.432 57.324,36.092 L57.324,36.116 C57.324,36.728 57.864,37.076 58.56,37.076 Z" id="distância"></path>
                                <path d="M41.9013763,18.9111874 L41.9878033,18.9111874 C42.0095043,18.9111874 42.0309098,18.9124383 42.0519502,18.914871 C42.150495,18.9010193 42.2450708,18.8550838 42.3173695,18.7771288 C42.5048024,18.5750905 46.9071274,13.7917273 46.9071274,10.5334353 C46.9071009,7.90796393 44.7003008,5.77197591 41.9877901,5.77197591 C39.2752793,5.77197591 37.0684792,7.90796393 37.0684792,10.5334353 C37.0684792,13.7917273 41.4708043,18.5750905 41.6582371,18.7771288 C41.7251341,18.8492461 41.8109888,18.8939154 41.9013763,18.9111874 Z M41.8275112,19.9918267 L33.5833587,19.9918267 C31.3008519,19.9918267 29.4505145,18.1622015 29.4505145,15.9052444 L29.4505145,10.3270416 C28.579153,9.32293881 26,6.15947483 26,3.89573951 C26,1.74762657 27.7930251,0 29.9969401,0 C32.200855,0 33.9938801,1.74762657 33.9939017,3.89573951 C33.9939017,6.15947483 31.4147487,9.32293881 30.5433871,10.3270416 L30.5433871,15.9052444 C30.5433871,17.5653809 31.9044287,18.9111874 33.5833587,18.9111874 L40.3202709,18.9111874 C39.7416018,18.2405448 39.0593045,17.3796207 38.3904111,16.4105781 C36.8817952,14.2250083 35.9756067,12.2414836 35.9756067,10.5334353 C35.9756067,7.30591662 38.676865,4.69133663 41.9877901,4.69133663 C45.2987083,4.69133663 47.9999674,7.30590763 48,10.5334353 C48,12.2414836 47.0938115,14.2250083 45.5851955,16.4105781 C44.6965557,17.697973 43.7842581,18.7945416 43.1228268,19.5075141 C42.7791416,19.8780872 42.2942468,20.0395782 41.8275112,19.9918267 Z M41.9878033,12.3647836 C43.0327524,12.3647836 43.8798511,11.5448668 43.8798511,10.5334481 C43.8798511,9.52202949 43.0327524,8.70211267 41.9878033,8.70211267 C40.9428542,8.70211267 40.0957556,9.52202949 40.0957556,10.5334481 C40.0957556,11.5448668 40.9428542,12.3647836 41.9878033,12.3647836 Z M41.9878033,13.4454229 C40.3444399,13.4454229 39.002883,12.1469141 39.002883,10.5334481 C39.002883,8.91998218 40.3444399,7.62147339 41.9878033,7.62147339 C43.6311668,7.62147339 44.9727236,8.91998218 44.9727236,10.5334481 C44.9727236,12.1469141 43.6311668,13.4454229 41.9878033,13.4454229 Z M31.2817694,7.59956855 C32.2997134,6.11453476 32.9010291,4.78913155 32.9010291,3.89575023 C32.9010136,2.34795711 31.6007695,1.08063928 29.9969401,1.08063928 C28.39311,1.08063928 27.0928726,2.34795536 27.0928726,3.89573951 C27.0928726,4.78913155 27.6941882,6.11453476 28.7121322,7.59956855 C29.1523529,8.24178721 29.6033113,8.82414444 29.9969513,9.29511047 C30.3905827,8.8241544 30.841545,8.2417927 31.2817694,7.59956855 Z M30.0031621,5.0248213 C29.366825,5.0248213 28.8509719,4.52202934 28.8509719,3.90180401 C28.8509719,3.28157869 29.366825,2.77878672 30.0031621,2.77878672 C30.6394992,2.77878672 31.1553523,3.28157869 31.1553523,3.90180401 C31.1553523,4.52202934 30.6394992,5.0248213 30.0031621,5.0248213 Z" id="icon_km" fill-rule="nonzero"></path>
                            </g>
                            <g id="calorias" transform="translate(89.000000, 0.000000)">
                                <path d="M18.912,39.144 C17.028,39.144 15.636,37.668 15.636,35.868 L15.636,35.844 C15.636,34.044 17.028,32.532 18.936,32.532 C19.932,32.532 20.616,32.856 21.156,33.324 C21.252,33.408 21.384,33.588 21.384,33.828 C21.384,34.2 21.084,34.488 20.712,34.488 C20.532,34.488 20.376,34.416 20.28,34.344 C19.908,34.032 19.5,33.804 18.924,33.804 C17.868,33.804 17.088,34.716 17.088,35.82 L17.088,35.844 C17.088,36.972 17.868,37.872 18.984,37.872 C19.56,37.872 20.004,37.644 20.4,37.308 C20.484,37.236 20.628,37.152 20.796,37.152 C21.144,37.152 21.42,37.44 21.42,37.788 C21.42,37.98 21.348,38.136 21.216,38.244 C20.652,38.784 19.968,39.144 18.912,39.144 Z M24.26,39.132 C23.072,39.132 22.016,38.448 22.016,37.176 L22.016,37.152 C22.016,35.784 23.084,35.112 24.632,35.112 C25.34,35.112 25.844,35.22 26.336,35.376 L26.336,35.22 C26.336,34.32 25.784,33.84 24.764,33.84 C24.212,33.84 23.756,33.936 23.36,34.092 C23.276,34.116 23.204,34.128 23.132,34.128 C22.796,34.128 22.52,33.864 22.52,33.528 C22.52,33.264 22.7,33.036 22.916,32.952 C23.516,32.724 24.128,32.58 24.956,32.58 C25.904,32.58 26.612,32.832 27.056,33.288 C27.524,33.744 27.74,34.416 27.74,35.244 L27.74,38.364 C27.74,38.76 27.428,39.06 27.032,39.06 C26.612,39.06 26.324,38.772 26.324,38.448 L26.324,38.208 C25.892,38.724 25.232,39.132 24.26,39.132 Z M24.668,38.076 C25.628,38.076 26.36,37.524 26.36,36.72 L26.36,36.288 C25.988,36.144 25.496,36.036 24.92,36.036 C23.984,36.036 23.432,36.432 23.432,37.092 L23.432,37.116 C23.432,37.728 23.972,38.076 24.668,38.076 Z M29.164,38.34 L29.164,30.9 C29.164,30.504 29.476,30.18 29.884,30.18 C30.292,30.18 30.616,30.504 30.616,30.9 L30.616,38.34 C30.616,38.748 30.292,39.06 29.884,39.06 C29.488,39.06 29.164,38.748 29.164,38.34 Z M35.124,39.144 C33.192,39.144 31.764,37.668 31.764,35.868 L31.764,35.844 C31.764,34.032 33.204,32.532 35.148,32.532 C37.092,32.532 38.52,34.008 38.52,35.82 L38.52,35.844 C38.52,37.644 37.08,39.144 35.124,39.144 Z M35.148,37.872 C36.324,37.872 37.068,36.96 37.068,35.868 L37.068,35.844 C37.068,34.728 36.264,33.804 35.124,33.804 C33.96,33.804 33.216,34.716 33.216,35.82 L33.216,35.844 C33.216,36.948 34.02,37.872 35.148,37.872 Z M39.596,38.34 L39.596,33.324 C39.596,32.916 39.908,32.592 40.316,32.592 C40.724,32.592 41.048,32.916 41.048,33.324 L41.048,33.972 C41.384,33.18 42.008,32.58 42.644,32.58 C43.1,32.58 43.364,32.88 43.364,33.3 C43.364,33.684 43.112,33.936 42.788,33.996 C41.756,34.176 41.048,34.968 41.048,36.468 L41.048,38.34 C41.048,38.736 40.724,39.06 40.316,39.06 C39.92,39.06 39.596,38.748 39.596,38.34 Z M44.128,31.032 L44.128,30.96 C44.128,30.528 44.488,30.252 44.956,30.252 C45.424,30.252 45.784,30.528 45.784,30.96 L45.784,31.032 C45.784,31.464 45.424,31.752 44.956,31.752 C44.488,31.752 44.128,31.464 44.128,31.032 Z M44.236,38.34 L44.236,33.324 C44.236,32.916 44.548,32.592 44.956,32.592 C45.364,32.592 45.688,32.916 45.688,33.324 L45.688,38.34 C45.688,38.748 45.364,39.06 44.956,39.06 C44.56,39.06 44.236,38.748 44.236,38.34 Z M49.008,39.132 C47.82,39.132 46.764,38.448 46.764,37.176 L46.764,37.152 C46.764,35.784 47.832,35.112 49.38,35.112 C50.088,35.112 50.592,35.22 51.084,35.376 L51.084,35.22 C51.084,34.32 50.532,33.84 49.512,33.84 C48.96,33.84 48.504,33.936 48.108,34.092 C48.024,34.116 47.952,34.128 47.88,34.128 C47.544,34.128 47.268,33.864 47.268,33.528 C47.268,33.264 47.448,33.036 47.664,32.952 C48.264,32.724 48.876,32.58 49.704,32.58 C50.652,32.58 51.36,32.832 51.804,33.288 C52.272,33.744 52.488,34.416 52.488,35.244 L52.488,38.364 C52.488,38.76 52.176,39.06 51.78,39.06 C51.36,39.06 51.072,38.772 51.072,38.448 L51.072,38.208 C50.64,38.724 49.98,39.132 49.008,39.132 Z M49.416,38.076 C50.376,38.076 51.108,37.524 51.108,36.72 L51.108,36.288 C50.736,36.144 50.244,36.036 49.668,36.036 C48.732,36.036 48.18,36.432 48.18,37.092 L48.18,37.116 C48.18,37.728 48.72,38.076 49.416,38.076 Z M56,39.12 C55.196,39.12 54.32,38.868 53.588,38.364 C53.432,38.28 53.312,38.1 53.312,37.86 C53.312,37.536 53.564,37.272 53.9,37.272 C54.02,37.272 54.128,37.308 54.212,37.356 C54.824,37.764 55.46,37.968 56.036,37.968 C56.66,37.968 57.02,37.704 57.02,37.284 L57.02,37.26 C57.02,36.768 56.348,36.6 55.604,36.372 C54.668,36.108 53.624,35.724 53.624,34.512 L53.624,34.488 C53.624,33.288 54.62,32.556 55.88,32.556 C56.552,32.556 57.26,32.748 57.872,33.072 C58.076,33.18 58.22,33.372 58.22,33.624 C58.22,33.96 57.956,34.212 57.62,34.212 C57.5,34.212 57.428,34.188 57.332,34.14 C56.816,33.876 56.288,33.708 55.844,33.708 C55.28,33.708 54.956,33.972 54.956,34.332 L54.956,34.356 C54.956,34.824 55.64,35.016 56.384,35.256 C57.308,35.544 58.352,35.964 58.352,37.104 L58.352,37.128 C58.352,38.46 57.32,39.12 56,39.12 Z" fill="#000000"></path>
                                <path d="M37.5,22 C42.1944204,22 46,18.2667336 46,13.6615161 C46,9.13481277 42.0885398,6.03008964 42.3455811,6.38903161 C44.4228516,13.4720051 37.9952171,13.7562716 37.9952171,13.7562716 C44.7494118,8.02356396 37.0586911,-0.488206027 37.1189187,0.0219062774 C37.1189187,6.79174248 29.3505194,5.53604706 29,13.6615161 C29,18.2667336 32.8055796,22 37.5,22 Z" id="icon_calorias" stroke="#000000" stroke-linejoin="round"></path>
                            </g>
                            <g id="Group-11-Copy" transform="translate(80.000000, 59.000000)">
                                <g id="Group-10-Copy-2" transform="translate(0.000000, 69.200000)">
                                    <path d="M14.8654292,25.3120482 C14.8654292,19.0659073 9.81367983,14.0024096 3.58203114,14.0024096" id="Path-Copy" stroke="#FFFFFF" stroke-width="1.25999999" stroke-linecap="round" transform="translate(9.223730, 19.657229) scale(-1, -1) translate(-9.223730, -19.657229) "></path>
                                    <ellipse id="Oval-Copy-7" stroke="#000000" stroke-width="1.79999998" cx="14.8654292" cy="14.9" rx="14.8654292" ry="14.9"></ellipse>
                                    <ellipse id="Oval-Copy-10" stroke="#000000" stroke-width="1.79999998" fill="#000000" cx="14.8654292" cy="14.7204819" rx="2.32832024" ry="2.33373494"></ellipse>
                                </g>
                                <g id="Group-10-Copy-3" transform="translate(56.269142, 69.200000)">
                                    <path d="M14.8654292,25.3120482 C14.8654292,19.0659073 9.81367983,14.0024096 3.58203114,14.0024096" id="Path-Copy" stroke="#FFFFFF" stroke-width="1.25999999" stroke-linecap="round" transform="translate(9.223730, 19.657229) scale(-1, -1) translate(-9.223730, -19.657229) "></path>
                                    <ellipse id="Oval-Copy-7" stroke="#000000" stroke-width="1.79999998" cx="14.8654292" cy="14.9" rx="14.8654292" ry="14.9"></ellipse>
                                    <ellipse id="Oval-Copy-10" stroke="#000000" stroke-width="1.79999998" fill="#000000" cx="14.8654292" cy="14.7204819" rx="2.32832024" ry="2.33373494"></ellipse>
                                </g>
                                <g id="Group-20" transform="translate(45.793503, 16.200000) rotate(-90.000000) translate(-45.793503, -16.200000) translate(29.631090, 1.900000)">
                                    <path d="M23.3624773,28.5879123 C23.2907071,28.39864 23.1561853,28.3040039 22.9589119,28.3040039 C22.6488257,28.3040039 22.1177041,27.8507471 21.3655471,26.9442336 C12.5298452,18.5814112 7.16582228,13.5448568 5.27347828,11.8345703 C2.4349623,9.26914062 -1.15122897,4.07753906 0.64245124,1.6 C1.83823805,-0.0516927083 3.17328433,-0.318359375 4.64759009,0.8 L22.0878662,23.9105968 C22.7094298,24.7342481 23.5798692,25.335675 24.5701346,25.6257046 C24.8722405,25.7141874 25.1502354,25.7837129 25.4041194,25.8342812 L23.3624773,28.5879123 Z" id="Combined-Shape" fill="#F0393C"></path>
                                    <path d="M16.0047876,21.8763236 C10.3237348,16.5132465 6.74663172,13.1659955 5.27347828,11.8345703 C2.4349623,9.26914062 -1.15122897,4.07753906 0.64245124,1.6 C1.83823805,-0.0516927083 3.17328433,-0.318359375 4.64759009,0.8 L18.6552529,19.3619451 L16.0047876,21.8763236 Z" id="Combined-Shape-Copy-3" fill="#FFAB00"></path>
                                    <path d="M22.3480278,28 C22.6449935,28.260241 23.0941443,28.3903614 23.6954802,28.3903614 C24.597484,28.3903614 26.3178972,27.8091309 27.0199753,27.8091309 C27.4563868,27.8091309 29.0231781,27.6905691 31.7203493,27.4534455 L31.7203463,27.4534115 C32.0624287,27.4233371 32.324826,27.1368589 32.324826,26.793457 L32.324826,26.793457 C32.324826,26.4584726 32.0532674,26.1869141 31.718283,26.1869141 L29.3527093,26.1869141 C28.5386559,26.1869141 27.7253619,26.1372129 26.9173662,26.0380879 L25.3758497,25.8489746 L22.3480278,28 Z" id="Path-75" fill="#F0393C"></path>
                                </g>
                                <path d="M38.5991692,56.876848 C42.6521148,59.2958042 40.9695164,65.0559969 40.1456329,67.1082284 C39.3217493,69.1604598 35.9683089,82.6952546 38.1123568,85.4781604 C40.2564047,88.2610661 40.7920166,86.5433745 41.1859176,87.351486 C41.5798187,88.1595974 40.4979552,88.6734552 38.9172094,88.4586879 C37.3364635,88.2439207 37.4105402,88.2077689 36.6713899,87.8072077 C35.9322396,87.4066466 35.5803858,87.0454811 35.7563783,84.8141571 C35.9323707,82.5828331 33.8192301,73.8069801 36.3107899,66.659781 C36.5935326,65.9460991 35.7900101,62.0044307 34.5616433,62.6039129 C34.3965168,62.6844999 29.9457051,62.4463356 29.6211026,62.6002212 C29.9438053,60.6876601 32.9727661,62.2938547 32.5752493,58.7946804 C35.4864092,58.3783218 36.9000528,55.8627491 38.5991692,56.876848 Z" id="Path" fill="#CF3033" transform="translate(35.444182, 72.572762) rotate(20.000000) translate(-35.444182, -72.572762) "></path>
                                <path d="M64.0494018,63.4 L52.3854568,77.6459283 C48.5868064,82.285465 42.906922,84.9758471 36.9106693,84.9758471 L35.8505275,84.9758471 L15.7373351,84.5691342 C14.9642945,84.5535024 14.3502933,83.9141571 14.3659252,83.1411164 C14.3730617,82.7881922 14.5132553,82.4509904 14.7584332,82.1970333 L30.2993747,66.0996094" id="Path-22" stroke="#FFCB00" stroke-width="2.00000003" stroke-linecap="round" stroke-linejoin="round"></path>
                                <path d="M63.517265,59.4 L50.6487676,74.7301961 C46.8486928,79.2572121 41.2408438,81.8715503 35.3303072,81.8715503 L34.1206497,81.8715503" id="Path-22-Copy" stroke="#FFCB00" stroke-width="1.20000002" stroke-linecap="round" stroke-linejoin="round"></path>
                                <path d="M35.3568908,85.3956177 L28.3341067,54.6" id="Path-23" stroke="#FFCB00" stroke-width="1.60000002"></path>
                                <ellipse id="Oval-Copy-8" fill="#000000" cx="35.5174014" cy="84.6" rx="5.18793503" ry="5.2"></ellipse>
                                <path d="M58.4640371,51.4 L64.4348129,51.4 C65.1669407,51.4 65.7604476,51.9935069 65.7604476,52.7256348 L65.7604476,52.7256348 C65.7604476,53.4577626 65.1669407,54.0512695 64.4348129,54.0512695 L58.4640371,54.0512695" id="Path-7" stroke="#000000" stroke-width="1.20000002" stroke-linecap="round"></path>
                                <g id="Group-5" transform="translate(18.556845, 12.200000)">
                                    <g id="Group-6">
                                        <path d="M20.1262417,17 L22.3778413,13.5707031 C22.6922144,13.056901 23.1802721,12.8 23.8420144,12.8 C24.8346279,12.8 25.3710756,13.2035156 25.8241236,11.6 C26.2771715,9.99648438 28.1242432,6.4884164 26.2736641,4.20967975 C24.4230849,1.9309431 21.1644522,1.07281004 19.2213149,2.76725243 C17.92589,3.89688068 17.6531519,6.33559602 18.4031005,10.0833984 L16.8216221,11.2 L20.1262417,17 Z" id="Path-15" fill="#F0393C"></path>
                                        <path d="M19.7749103,27.4 C17.977594,32.5880315 11.8071119,31.0521484 15.7910111,37.8 C19.7749103,44.5478516 30.2595119,43.796875 32.8427621,47.7484375 C35.4260124,51.7 31.5403223,54.4287109 29.900581,55.9117188 C28.2608396,57.3947266 19.0669863,67.3269531 19.7749103,70.7683594 C20.4828343,74.2097656 21.7168784,72.9009766 21.7168784,73.8 C21.7168784,74.6990234 20.5192729,74.6863281 19.1924757,73.8 C17.8656785,72.9136719 17.9481039,72.9136719 17.4592019,72.2294922 C16.9702999,71.5453125 16.8122688,71.0664063 17.9481039,69.1382813 C19.083939,67.2101563 19.5634879,57.8912109 24.9345907,52.5607422 C25.5014365,52.0433594 25.2159054,51.7 23.8490957,51.7 C22.4822859,51.7 16.1737148,52.1273437 6.21542833,44.9478516 C-3.74285818,37.7683594 12.3069261,12.7628906 13.8287776,12.1814453 C15.350629,11.6 16.9702999,10.2355469 17.4592019,10.9177734 C17.9481039,11.6 19.4898311,16 20.2067186,16 C20.9236061,16 22.1030897,18.6472656 21.7168784,20.6947266 C21.3306672,22.7421875 21.5722266,22.2119685 19.7749103,27.4 Z" id="Path-7-Copy" fill="#FFCB00"></path>
                                        <g id="Group-10" transform="translate(12.371230, 13.200000)">
                                            <path d="M23.823113,29.0054688 C24.1074778,29.5601563 24.6923805,29.8375 25.5778214,29.8375 C25.8182095,29.8375 26.0585977,29.8375 26.2989858,29.8375 L26.2989858,29.8375 C27.1826414,29.8375 27.8989858,29.1211556 27.8989858,28.2375 L27.8989858,26.9442336 C27.8349421,26.2717107 27.4320704,25.9354492 26.6903708,25.9354492 C26.2479666,25.9354492 25.6742452,25.832201 24.9692065,25.6257046 L24.9692049,25.6257101 C23.9789411,25.335675 23.1085017,24.7342481 22.4869381,23.9105968 L5.04666201,0.8 C3.57235626,-0.318359375 2.23730997,-0.0516927083 1.04152317,1.6 C-0.752157048,4.07753906 2.83403422,9.26914063 5.67255021,11.8345703 C7.5648942,13.5448568 12.9289171,18.5814112 21.764619,26.9442336 C22.516776,27.8507471 23.0478976,28.3040039 23.3579838,28.3040039 C23.66807,28.3040039 23.823113,28.5378255 23.823113,29.0054688 Z" id="Path-6" fill="#F0393C"></path>
                                            <path d="M16.4038596,21.8763236 C10.7228068,16.5132465 7.14570365,13.1659955 5.67255021,11.8345703 C2.83403422,9.26914062 -0.752157048,4.07753906 1.04152317,1.6 C2.23730997,-0.0516927083 3.57235626,-0.318359375 5.04666201,0.8 L19.0543248,19.3619451 L16.4038596,21.8763236 Z" id="Combined-Shape" fill="#FFCB00"></path>
                                            <path d="M1.93573267,0.8 C-0.300603007,2.29401042 -0.440576965,4.29401042 1.5158108,6.8 C3.47219856,9.30598958 5.42624801,11.4799479 7.37795914,13.321875" id="Path-20" stroke="#FFAB00" stroke-width="0.5" stroke-linecap="round"></path>
                                        </g>
                                        <g id="Path-46" transform="translate(16.960557, 44.200000)">
                                            <mask id="mask-3" fill="white">
                                                <use xlink:href="#path-2"></use>
                                            </mask>
                                            <use id="Mask" fill="#F0393C" xlink:href="#path-2"></use>
                                            <polyline fill="#50E3C2" mask="url(#mask-3)" points="4.33484085 22.5839844 1.70579865 21.5003906 -1.61869653 27.3898438 1.10816506 31.5076172 5.56362384 31.5076172 5.8715016 28.2 5.18793503 24.2712891"></polyline>
                                        </g>
                                        <path d="M26.5318527,44.2375 C24.8608689,48.9821132 23.2380803,51.9696132 21.663487,53.2 C19.3015969,55.0455802 20.088439,57.3 15.4244807,53.4 C10.7605224,49.5 5.74255485,48.4 3.54821877,40.8 C2.08532805,35.7333333 8.35361985,37.2666667 22.3530942,45.4 L26.5318527,44.2375 Z" id="Path-17" fill="#FFCB00"></path>
                                        <path d="M21.4450497,7.2 C21.8802355,8.85078125 21.5657326,10.1841146 20.5015407,11.2 C18.905253,12.7238281 17.0712369,10.2476562 13.9265969,12.7238281 C10.7819569,15.2 8.40072018,23.2111328 4.25202563,20 C0.103331079,16.7888672 -2.17774797,9.75654297 3.94629133,8.8 C10.0703306,7.84345703 11.4752665,9.55625 13.9265969,9.178125 C15.5608173,8.92604167 16.8409782,8.1578776 17.7670796,6.87363281 L21.4450497,7.2 Z" id="Path-26" fill="#50E3C2"></path>
                                        <path d="M26.0804063,7.2 L23.3797156,7.2 C22.9378878,7.2 22.5797156,7.5581722 22.5797156,8 L22.5797156,8.0988961 C22.5797156,8.48610509 22.2658207,8.8 21.8786117,8.8 L21.7775078,8.8 C21.4461369,8.8 21.1775078,8.53137085 21.1775078,8.2 L21.1775078,8.2 C21.1775078,7.86862915 20.9088786,7.6 20.5775078,7.6 L18.4166752,7.59996401 C17.930001,7.59996401 17.5140018,7.24958496 17.4312668,6.76999486 C16.829823,3.28360892 17.8532477,1.18084223 20.5015407,0.461694812 C24.7798724,-0.700091688 27.6820633,2.12416992 27.4425765,5.96577148 C27.4425765,5.96577148 27.4425765,5.96577148 27.4425765,5.96577148 L27.4425765,5.96577148 C27.3733779,6.66621169 26.7842564,7.2 26.0804063,7.2 Z" id="Path-24" fill="#FFCB00"></path>
                                        <path d="M21.8272663,7.84345703 C21.8416859,9.89777426 22.5140805,11.5245646 23.8444501,12.7238281" id="Path-25" stroke="#000000" stroke-width="1.00000001" stroke-linecap="round"></path>
                                    </g>
                                </g>
                                <path d="M24.894665,68.600169 L19.9616416,73.7803435 C19.5767835,74.1844835 18.9436382,74.218662 18.5175106,73.8583008 L18.5175106,73.8583008 C18.0870038,73.4942361 18.0031151,72.8628708 18.3236179,72.3990204 L22.3894678,66.514685 C22.7662107,65.9694407 23.513629,65.8328433 24.0588733,66.2095862 C24.0987391,66.2371319 24.1368998,66.267067 24.1731458,66.2992271 L24.8220854,66.8750134 C25.3178224,67.3148672 25.3631247,68.0733135 24.9232709,68.5690505 C24.913919,68.5795905 24.9043823,68.5899649 24.894665,68.600169 Z" id="Path-29" fill="#000000"></path>
                                <path d="M71.3169591,84.7 L68.3387772,80.4751294 C66.2370594,77.4936172 64.9907932,73.994075 64.7348553,70.3552388 L63.9876777,59.7321305 L63.8515081,55.8" id="Path-21" stroke="#FFCB00" stroke-width="1.60000002" stroke-linecap="round"></path>
                                <path d="M63.9512761,57.5305786 L63.9512761,54.4" id="Path-27" stroke="#000000" stroke-width="1.60000002" stroke-linecap="round"></path>
                                <path d="M63.8515081,57.8 L66.1817387,57.8 C66.7340235,57.8 67.1817387,58.2477153 67.1817387,58.8 L67.1817387,61.6918509 C67.1817387,62.7964204 68.0771692,63.6918509 69.1817387,63.6918509 L75.6023418,63.6918509 C76.7069113,63.6918509 77.6023418,62.7964204 77.6023418,61.6918509 L77.6023418,57.8" id="Path-30" stroke="#000000" stroke-width="1.20000002" stroke-linecap="round" stroke-linejoin="round"></path>
                            </g>
                        </g>
                    </g>
                </g>
            </g>
        </g>
    </g>
</svg>