<?xml version="1.0" encoding="UTF-8"?>
<svg width="224px" height="244px" viewBox="0 0 224 244" version="1.1" xmlns="http://www.w3.org/2000/svg" xmlns:xlink="http://www.w3.org/1999/xlink">
    <!-- Generator: Sketch 52.4 (67378) - http://www.bohemiancoding.com/sketch -->
    <title>thumb_03</title>
    <desc>Created with Sketch.</desc>
    <defs>
        <rect id="path-1" x="0.390000114" y="0.260004106" width="136.356331" height="99.5321162"></rect>
        <path d="M28.2234697,69.054694 C12.1122786,65.7800618 7.28306304e-13,51.7270646 7.28306304e-13,34.8874863 C7.28306304e-13,15.6196597 15.8572871,2.06057393e-13 35.4182421,2.06057393e-13 C54.9791971,2.06057393e-13 70.8364842,15.6196597 70.8364842,34.8874863 C70.8364842,51.7137779 58.7433115,65.7578842 42.6511427,69.0469227 L35.4333934,76.2145487 L28.2234697,69.054694 Z" id="path-3"></path>
        <filter x="-5.6%" y="-2.6%" width="111.3%" height="110.5%" filterUnits="objectBoundingBox" id="filter-4">
            <feOffset dx="0" dy="2" in="SourceAlpha" result="shadowOffsetOuter1"></feOffset>
            <feGaussianBlur stdDeviation="1" in="shadowOffsetOuter1" result="shadowBlurOuter1"></feGaussianBlur>
            <feColorMatrix values="0 0 0 0 0   0 0 0 0 0   0 0 0 0 0  0 0 0 0.215636322 0" type="matrix" in="shadowBlurOuter1"></feColorMatrix>
        </filter>
        <polygon id="path-5" points="0 0.0347474096 23.1325527 0.0347474096 23.1325527 35.196744 0 35.196744"></polygon>
    </defs>
    <g id="Page-1" stroke="none" stroke-width="1" fill="none" fill-rule="evenodd">
        <g id="newsite_desk" transform="translate(-1317.000000, -2100.000000)">
            <g id="thumb_03" transform="translate(1317.000000, 2100.000000)">
                <g id="Group-27" transform="translate(46.000000, 0.000000)">
                    <g id="Group-14" transform="translate(0.000000, 28.600002)">
                        <g id="Group-12" transform="translate(56.160006, 10.140001)"></g>
                        <g id="Shape" transform="translate(0.000000, 74.100004)">
                            <mask id="mask-2" fill="white">
                                <use xlink:href="#path-1"></use>
                            </mask>
                            <use id="Mask" fill="#FFF49D" xlink:href="#path-1"></use>
                            <path d="M129.452646,5.33000466 L148.131595,5.33000466 C148.131595,10.4880541 143.95017,14.6694794 138.792121,14.6694794 C133.634071,14.6694794 129.452646,10.4880541 129.452646,5.33000466 Z M110.773696,5.33000466 L129.452646,5.33000466 C129.452646,10.4880541 125.271221,14.6694794 120.113171,14.6694794 C114.955122,14.6694794 110.773696,10.4880541 110.773696,5.33000466 Z M92.094747,5.33000466 L110.773696,5.33000466 C110.773696,10.4880541 106.592271,14.6694794 101.434222,14.6694794 C96.2761723,14.6694794 92.094747,10.4880541 92.094747,5.33000466 Z M73.4157976,5.33000466 L92.094747,5.33000466 C92.094747,10.4880541 87.9133218,14.6694794 82.7552723,14.6694794 C77.5972229,14.6694794 73.4157976,10.4880541 73.4157976,5.33000466 Z M54.7368482,5.33000466 L73.4157976,5.33000466 C73.4157976,10.4880541 69.2343724,14.6694794 64.0763229,14.6694794 C58.9182735,14.6694794 54.7368482,10.4880541 54.7368482,5.33000466 Z M36.0578988,5.33000466 L54.7368482,5.33000466 C54.7368482,10.4880541 50.5554229,14.6694794 45.3973735,14.6694794 C40.239324,14.6694794 36.0578988,10.4880541 36.0578988,5.33000466 Z M17.3789494,5.33000466 L36.0578988,5.33000466 C36.0578988,10.4880541 31.8764735,14.6694794 26.7184241,14.6694794 C21.5603746,14.6694794 17.3789494,10.4880541 17.3789494,5.33000466 Z M-1.30000007,5.33000466 L17.3789494,5.33000466 C17.3789494,10.4880541 13.1975241,14.6694794 8.03947464,14.6694794 C2.88142519,14.6694794 -1.30000007,10.4880541 -1.30000007,5.33000466 Z" fill="#F6B629" opacity="0.336611793" mask="url(#mask-2)"></path>
                            <rect id="Rectangle" fill="#FCDE76" mask="url(#mask-2)" x="0" y="-10.4000006" width="136.500008" height="16.9000009"></rect>
                        </g>
                        <path d="M17.3789394,74.3743419 L0.390000114,74.3743419 L0.390000021,37.1800041 L136.746331,37.1800041 L148.126987,74.3600082 L148.131595,74.3600082 C148.131595,79.5180576 143.95017,83.6994829 138.792121,83.6994829 C133.63885,83.6994829 129.460395,79.5258019 129.452657,74.3743419 L129.452636,74.3743419 C129.444897,79.5258019 125.266442,83.6994829 120.113171,83.6994829 C114.9599,83.6994829 110.781445,79.5258019 110.773707,74.3743419 L110.773686,74.3743419 C110.765948,79.5258019 106.587492,83.6994829 101.434222,83.6994829 C96.280951,83.6994829 92.1024957,79.5258019 92.0947578,74.3743419 L92.0947371,74.3743419 C92.0869984,79.5258019 87.9085431,83.6994829 82.7552723,83.6994829 C77.6020016,83.6994829 73.4235463,79.5258019 73.4158084,74.3743419 L73.4157876,74.3743419 C73.4080489,79.5258019 69.2295936,83.6994829 64.0763229,83.6994829 C58.9230522,83.6994829 54.7445969,79.5258019 54.736859,74.3743419 L54.7368382,74.3743419 C54.7290995,79.5258019 50.5506442,83.6994829 45.3973735,83.6994829 C40.2441028,83.6994829 36.0656475,79.5258019 36.0579095,74.3743419 L36.0578888,74.3743419 C36.0501501,79.5258019 31.8716948,83.6994829 26.7184241,83.6994829 C21.5651533,83.6994829 17.386698,79.5258019 17.3789601,74.3743419 L17.3789394,74.3743419 L17.3789494,74.3600082 L0.390000021,74.3600082 L0.390000021,79.7196884 C2.07939135,82.1263772 4.87572373,83.6994829 8.03947464,83.6994829 C13.1927454,83.6994829 17.3712007,79.5258019 17.3789386,74.3743419 L17.3789394,74.3743419 Z" id="Path" fill="#AC4467"></path>
                        <rect id="Rectangle" stroke="#FBE27B" stroke-width="1.69000019" fill="#FBE27B" x="92.4950102" y="100.555011" width="27.040003" height="62.5300069"></rect>
                        <path d="M114.577446,123.370014 L98.4100109,139.537448" id="Path-3" stroke="#FFF49D" stroke-width="1.69000019"></path>
                        <path d="M111.563729,133.143731 L103.480011,141.227448" id="Path-3-Copy-2" stroke="#FFF49D" stroke-width="1.69000019"></path>
                        <path d="M108.183728,124.69373 L100.100011,132.777447" id="Path-3-Copy-3" stroke="#FFF49D" stroke-width="1.69000019"></path>
                    </g>
                    <g id="Yellow-/-User-App-/-PIN-/-CONTENT" transform="translate(30.000000, 0.000000)">
                        <g id="Yellow-/-User-App-/-PIN-/-BASE-/-#ffffff" fill-rule="nonzero">
                            <g id="Combined-Shape">
                                <use fill="black" fill-opacity="1" filter="url(#filter-4)" xlink:href="#path-3"></use>
                                <use fill="#FFFFFF" xlink:href="#path-3"></use>
                            </g>
                        </g>
                        <g id="Yellow/User-App/PIN/COLOR/#FFCB00" transform="translate(2.059200, 2.028342)" fill="#FFCB00" fill-rule="evenodd">
                            <ellipse id="Oval-Copy" cx="33.5183353" cy="33.0254186" rx="32.6932686" ry="32.2124853"></ellipse>
                        </g>
                        <g id="Yellow/User-App/PIN/Yellow-Point" transform="translate(10.296001, 19.269251)" fill="#000000" fill-rule="nonzero">
                            <path d="M5.10927114,6.164053 L8.80741025,-1.00100006 L40.2415927,-1.00100006 L43.9397318,6.164053 L43.9397318,9.77562704 C43.9397318,11.3585612 43.2255275,12.7807724 42.0906622,13.7594314 L42.0906622,29.4504754 C42.0906622,31.4290502 40.4259505,33.033002 38.3724245,33.033002 L10.6765784,33.033002 C8.62305241,33.033002 6.95834069,31.4290502 6.95834069,29.4504754 L6.95834069,13.7594314 C5.82347544,12.7807724 5.10927114,11.3585612 5.10927114,9.77562704 L5.10927114,6.164053 Z M7.18558697,6.164053 L41.863416,6.164053 L39.0898116,0.790263205 L9.9591913,0.790263205 L7.18558697,6.164053 Z M40.2315434,14.8196551 C39.6560355,15.014437 39.0371189,15.1203693 38.3925231,15.1203693 C36.4630461,15.1203693 34.7636516,14.1712239 33.7698492,12.731087 C32.7760469,14.1712239 31.0766524,15.1203693 29.1471754,15.1203693 C27.2176983,15.1203693 25.5183038,14.1712239 24.5245015,12.731087 C23.5306991,14.1712239 21.8313046,15.1203693 19.9018276,15.1203693 C17.9723505,15.1203693 16.272956,14.1712239 15.2791537,12.731087 C14.2853513,14.1712239 12.5859568,15.1203693 10.6564798,15.1203693 C10.0118841,15.1203693 9.39296739,15.014437 8.81745954,14.8196551 L8.81745954,29.4504754 C8.81745954,30.4397628 9.6498154,31.2417387 10.6765784,31.2417387 L18.052758,31.2417387 L18.052758,24.0766856 C18.052758,22.0981109 19.7174697,20.4941591 21.7709957,20.4941591 L27.2780072,20.4941591 C29.3315332,20.4941591 30.9962449,22.0981109 30.9962449,24.0766856 L30.9962449,31.2417387 L38.3724245,31.2417387 C39.3991875,31.2417387 40.2315434,30.4397628 40.2315434,29.4504754 L40.2315434,14.8196551 Z M19.9118769,31.2417387 L29.1371261,31.2417387 L29.1371261,24.0766856 C29.1371261,23.0873983 28.3047702,22.2854224 27.2780072,22.2854224 L21.7709957,22.2854224 C20.7442327,22.2854224 19.9118769,23.0873983 19.9118769,24.0766856 L19.9118769,31.2417387 Z M6.96838998,7.95531626 L6.96838998,9.77562704 C6.96838998,11.7381593 8.61960404,13.3291061 10.6564798,13.3291061 C12.6933556,13.3291061 14.3445696,11.7381593 14.3445696,9.77562704 L14.3445696,7.95531626 L6.96838998,7.95531626 Z M16.2137378,7.95531626 L16.2137378,9.77562704 C16.2137378,11.7381593 17.8649518,13.3291061 19.9018276,13.3291061 C21.9387033,13.3291061 23.5899174,11.7381593 23.5899174,9.77562704 L23.5899174,7.95531626 L16.2137378,7.95531626 Z M25.4590855,9.77562704 C25.4590855,11.7381593 27.1102996,13.3291061 29.1471754,13.3291061 C31.1840511,13.3291061 32.8352652,11.7381593 32.8352652,9.77562704 L32.8352652,7.95531626 L25.4590855,7.95531626 L25.4590855,9.77562704 Z M34.7044333,9.77562704 C34.7044333,11.7381593 36.3556474,13.3291061 38.3925231,13.3291061 C40.4293989,13.3291061 42.0806129,11.7381593 42.0806129,9.77562704 L42.0806129,7.95531626 L34.7044333,7.95531626 L34.7044333,9.77562704 Z" id="Shape"></path>
                        </g>
                    </g>
                    <g id="Group-9" transform="translate(50.000000, 156.000000)">
                        <ellipse id="Oval" fill="#FBE27B" cx="15.6000009" cy="81.5234801" rx="15.6000009" ry="5.5765247"></ellipse>
                        <g id="Group-40" transform="translate(2.133333, 0.000000)">
                            <path d="M21.1594912,79.1624598 C21.0422641,79.8756509 20.4984872,80.4378369 19.9418019,80.8993528 C18.7505986,81.8870464 17.3710288,82.6469431 15.8998574,83.1288986 C15.4412757,83.2791396 14.9573554,83.4036878 14.4802239,83.3313849 C14.0030924,83.259082 13.5338015,82.9451328 13.4138972,82.4782682 C13.2782159,81.9496071 13.6068533,81.4243844 13.9196183,80.9769088 C14.2627896,80.4858796 14.605961,79.9950414 14.9492279,79.5041077 C15.5721762,78.612786 16.2265826,77.692333 17.1730049,77.1557444 C18.5493237,76.3754081 21.5022801,77.0751319 21.1594912,79.1624598" id="Fill-1" fill="#3D1149"></path>
                            <path d="M20.4095916,72.32978 C20.4095916,72.32978 22.9204124,82.8376718 14.0005394,82.8376718 C11.2382444,82.8376718 19.1203803,78.8801156 17.3800456,72.32978 L20.4095916,72.32978 Z" id="Fill-3" fill="#EF393C"></path>
                            <path d="M14.5303275,81.1091744 C14.4284948,81.0987635 14.312702,81.090645 14.248447,81.0108921 C14.1605745,80.9017215 14.2284629,80.7415472 14.2982637,80.6201509 C14.5938175,80.1062942 14.9516184,79.5442038 15.5296264,79.4104864 C15.8979451,79.3250983 16.2804152,79.4362748 16.640989,79.55003 C17.4966703,79.819757 20.0259453,81.2685846 18.2247978,82.030487 C17.797005,82.2113874 16.4857061,82.7476895 16.1428216,82.5156899 C15.9190766,82.3642073 15.8028057,81.7913239 15.5513315,81.5675384 C15.2688773,81.3160542 14.9079211,81.1477614 14.5303275,81.1091744" id="Fill-5" fill="#C2B9D8"></path>
                            <path d="M4.60411818,79.1624598 C4.72124966,79.8756509 5.26502658,80.4378369 5.82171187,80.8993528 C7.01301074,81.8870464 8.39258054,82.6469431 9.86375194,83.1288986 C10.322238,83.2791396 10.806254,83.4036878 11.2833855,83.3313849 C11.760517,83.259082 12.2298078,82.9451328 12.3496166,82.4782682 C12.4852979,81.9496071 12.1566604,81.4243844 11.8439911,80.9769088 C11.5007241,80.4858796 11.1575528,79.9950414 10.8143815,79.5041077 C10.1914332,78.612786 9.53702682,77.692333 8.59050884,77.1557444 C7.21428566,76.3754081 4.2612337,77.0751319 4.60411818,79.1624598" id="Fill-7" fill="#3D1149"></path>
                            <path d="M5.35402739,72.32978 C5.35402739,72.32978 2.84311091,82.8376718 11.7630795,82.8376718 C14.5252789,82.8376718 6.64314299,78.8801156 8.38347775,72.32978 L5.35402739,72.32978 Z" id="Fill-9" fill="#EF393C"></path>
                            <polygon id="Fill-11" fill="#3D1149" points="4.31259944 37.2581249 2.84314916 73.9673592 11.9139066 73.9673592 11.9139066 44.9001672 13.265843 73.9673592 23.9218435 73.1486269 18.0474847 35.2111032"></polygon>
                            <path d="M5.41948715,3.29455683 C4.87915246,4.13506591 4.53225204,5.08207132 4.10159066,5.98361283 C3.67092929,6.88524984 3.13049898,7.77160488 2.31545511,8.35050551 C1.88661046,8.65519005 1.37840326,8.87926213 1.07290524,9.30725318 C0.768937094,9.73295193 0.721223944,10.3071725 0.868474948,10.8089946 C1.01563033,11.3107212 1.33920007,11.7458757 1.71861045,12.1061484 C2.79497705,13.1282266 4.29005283,13.5789496 5.75261864,13.8361645 C7.91778211,14.2168769 10.1444276,14.2456261 12.3185792,13.920884 C13.9096549,13.6832491 15.535918,13.2236435 16.7311372,12.1480784 C17.6152169,11.3524601 18.2158863,10.222835 18.2788982,9.03580695 C18.3420058,7.84887441 17.834946,6.62354588 16.8887149,5.90280934 C16.1921411,5.37214247 15.2988821,5.12218653 14.6627387,4.52064946 C14.2938462,4.1719337 14.0347227,3.72598632 13.7234876,3.32492977 C12.1972405,1.35852056 9.30108099,0.569970223 7.06649919,1.71077028 C6.3789135,2.06187385 5.83245929,2.65223597 5.41948715,3.29455683" id="Fill-13" fill="#3D1149"></path>
                            <path d="M13.309894,6.12265977 C13.2128422,6.12265977 13.1192326,6.13584048 13.0291609,6.15828589 C12.8330493,3.60609916 11.0534157,1.64532519 8.99725627,1.75201253 C6.90112867,1.86070564 5.3123477,4.07678425 5.44879393,6.70165592 C5.45481783,6.8171304 5.46514452,6.93088567 5.4775748,7.04397234 C5.03448315,7.20739405 4.7179891,7.63175563 4.7179891,8.13118995 C4.7179891,8.77179159 5.23786164,9.29109248 5.87916845,9.29109248 C5.98712065,9.29109248 6.09115253,9.27523742 6.19021229,9.24772985 C6.93430795,10.5211011 8.15429208,11.3268437 9.49140769,11.2575017 C11.0187066,11.1782264 12.2757903,9.97992788 12.7932724,8.3204 C12.9490334,8.39786055 13.1240135,8.44265587 13.309894,8.44265587 C13.9512008,8.44265587 14.4711689,7.92325946 14.4711689,7.28265782 C14.4711689,6.64196067 13.9512008,6.12265977 13.309894,6.12265977" id="Fill-15" fill="#EF393C"></path>
                            <g id="Group-19" transform="translate(0.000000, 14.297060)">
                                <mask id="mask-6" fill="white">
                                    <use xlink:href="#path-5"></use>
                                </mask>
                                <g id="Clip-18"></g>
                                <path d="M4.31259944,0.85357518 C4.31259944,0.85357518 9.19358776,0.0347474096 14.7686638,0.0347474096 C14.7686638,0.0347474096 18.5938433,0.307721837 21.7360267,8.90507913 C24.8782101,17.5024364 21.7360267,32.3771549 21.7360267,32.3771549 C21.7360267,32.3771549 21.1895725,35.7888577 19.0037556,35.1065172 C16.8178432,34.4241766 18.0528392,32.4210906 18.320664,31.5583272 C19.9147995,26.4214795 19.047166,19.6899568 17.2276599,10.0738643 L19.9600266,23.2339443 C19.9600266,23.2339443 13.1292055,25.9633065 3.4295715,24.3257465 L3.4295715,18.7112413 C3.4295715,18.7112413 0.266925911,18.8954847 0.00120478085,11.9918487 C0.00120478085,11.9918487 -0.19194264,1.39646764 4.31259944,0.85357518" id="Fill-17" fill="#C2B9D8" mask="url(#mask-6)"></path>
                            </g>
                            <path d="M8.51865226,8.60878058 C8.07001479,9.01814671 9.83616628,16.3468128 4.71795086,15.3180488 C4.71795086,15.3180488 9.98265234,19.884401 14.354286,14.6986509 C14.354286,14.6986509 9.78768819,15.647089 10.1191942,8.60878058 L8.51865226,8.60878058 Z" id="Fill-20" fill="#EF393C"></path>
                            <path d="M19.0037078,49.4035385 C21.1895247,50.085879 21.7359789,46.6742718 21.7359789,46.6742718 C21.7359789,46.6742718 21.7664809,46.530048 21.81821,46.2628044 C20.5333971,46.1834336 19.3433413,45.9202969 18.3867835,45.6375802 C18.3649827,45.7104562 18.3430863,45.7831411 18.3206161,45.855444 C18.052887,46.7182075 16.817891,48.7211979 19.0037078,49.4035385" id="Fill-22" fill="#EF393C"></path>
                            <path d="M11.4212564,1.54053854 C11.4212564,0.689714114 10.4546587,1.91024792e-05 9.26221246,1.91024792e-05 C8.06976618,1.91024792e-05 7.1030729,0.689714114 7.1030729,1.54053854 C7.1030729,2.39136296 8.06976618,3.08105797 9.26221246,3.08105797 C10.4546587,3.08105797 11.4212564,2.39136296 11.4212564,1.54053854" id="Fill-24" fill="#3D1149"></path>
                            <path d="M6.32560672,5.92109996 C7.95301717,6.4060164 9.71410093,6.17802831 11.3457186,5.70715219 C11.992858,5.52042546 12.7271051,5.1901436 12.8562844,4.52977089 C12.9687306,3.95516832 12.556619,3.4164784 12.1324596,3.01246097 C11.7257983,2.62506269 11.2778301,2.27309951 10.7696229,2.03364993 C9.62469854,1.49438695 7.43247531,1.04662483 6.47486569,2.14406226 C5.72283378,3.00567959 4.82240345,5.47314682 6.32560672,5.92109996" id="Fill-26" fill="#3D1149"></path>
                            <path d="M11.2331958,81.1091744 C11.3351241,81.0987635 11.450917,81.090645 11.5151719,81.0108921 C11.6029488,80.9017215 11.5350604,80.7415472 11.4652596,80.6201509 C11.1698014,80.1062942 10.8120006,79.5442038 10.2339926,79.4104864 C9.86557823,79.3250983 9.48310809,79.4362748 9.12262998,79.55003 C8.26685304,79.819757 5.737578,81.2685846 7.53872551,82.030487 C7.96661398,82.2113874 9.27791286,82.7476895 9.62070172,82.5156899 C9.84444676,82.3642073 9.9608133,81.7913239 10.2121918,81.5675384 C10.494646,81.3160542 10.8556978,81.1477614 11.2331958,81.1091744" id="Fill-28" fill="#C2B9D8"></path>
                            <path d="M18.8250847,33.9808081 C18.7914273,33.9808081 18.7573875,33.9736446 18.7247819,33.9586492 C18.6049731,33.903252 18.5528616,33.7612251 18.6083197,33.641548 C18.9668855,32.8679931 18.9394433,31.9594792 18.8806385,31.0952831 C18.6676982,27.9678252 18.097244,24.86138 17.1850527,21.8624818 C17.1466145,21.7363099 17.2178496,21.6029746 17.3442559,21.5646741 C17.4700886,21.5258961 17.6039532,21.5974349 17.6423914,21.7237023 C18.5651962,24.757176 19.1422481,27.8993428 19.3575788,31.0628088 C19.4206863,31.988897 19.4483198,32.9661799 19.0422321,33.8423151 C19.0017859,33.9294224 18.9153477,33.9808081 18.8250847,33.9808081" id="Fill-30" fill="#9F98B1"></path>
                            <polygon id="Fill-32" fill="#000000" points="7.08196055 23.6891564 4.17872533 24.0407375 2.22105192 18.2843009 2.46296428 17.9328153 5.30041463 17.7351046 7.38994463 23.3376707"></polygon>
                            <path d="M2.63901528,25.161203 C2.63901528,25.161203 3.21291173,26.009353 5.47971664,25.7266363 C5.47971664,25.7266363 5.59091983,24.4362639 5.7379796,23.0537219 C5.91009116,21.4345003 4.33192374,21.5373671 4.33192374,21.5373671 C4.33192374,21.5373671 2.4668081,21.3831146 2.63901528,25.161203" id="Fill-34" fill="#EF393C"></path>
                            <polygon id="Fill-36" fill="#000000" points="7.11361951 23.6530622 5.01452777 18.1085676 2.22765909 18.2747592 2.46297384 17.9328248 5.3004242 17.7351142 7.38995419 23.3375848"></polygon>
                            <path d="M3.87363846,31.7668594 C3.81971017,31.7668594 3.76539941,31.7488075 3.7206504,31.7115577 C3.61929582,31.6271247 3.60552689,31.4765017 3.69005279,31.375163 C5.56243537,29.1307172 5.52667441,26.7735668 5.44119233,25.9383109 C4.52173411,26.3111913 3.54509661,25.8856836 3.49920019,25.8652439 C3.37862648,25.8114705 3.32450696,25.6703986 3.37824401,25.549862 C3.43207668,25.4296119 3.57282569,25.3755519 3.69349502,25.4289433 C3.70468228,25.4337189 4.72492138,25.8728849 5.50037959,25.3715404 C5.56616445,25.3290373 5.64858676,25.3214919 5.72125609,25.3511962 C5.79373418,25.3810916 5.84708877,25.4445118 5.86372622,25.5209217 C5.89202901,25.65015 6.52798124,28.7194409 4.05741536,31.6809937 C4.01008468,31.7375371 3.94210062,31.7668594 3.87363846,31.7668594" id="Fill-38" fill="#9F98B1"></path>
                        </g>
                    </g>
                </g>
                <g id="money" transform="translate(28.900635, 165.942632) rotate(-30.000000) translate(-28.900635, -165.942632) translate(3.900635, 151.442632)">
                    <rect id="Rectangle" fill="#47E7B8" x="0" y="0" width="50" height="29" rx="1.19232015"></rect>
                    <ellipse id="Oval" fill="#28B289" cx="25.0992063" cy="14.5" rx="10.218254" ry="10.4440559"></ellipse>
                    <path d="M19.047619,17.1667832 L19.047619,11.5695804 C19.047619,11.1335664 19.3849206,10.7888112 19.8115079,10.7888112 L22.2222222,10.7888112 C23.1051587,10.7888112 23.7896825,11.0423077 24.2460317,11.5087413 C24.6329365,11.9041958 24.8412698,12.4618881 24.8412698,13.1311189 L24.8412698,13.1513986 C24.8412698,14.2667832 24.2956349,14.9562937 23.452381,15.3111888 L24.5138889,16.6293706 C24.6626984,16.822028 24.7619048,16.9842657 24.7619048,17.2276224 C24.7619048,17.6636364 24.4047619,17.9475524 24.0376984,17.9475524 C23.6904762,17.9475524 23.4623016,17.7751748 23.2837302,17.541958 L21.7956349,15.6153846 L20.5753968,15.6153846 L20.5753968,17.1667832 C20.5753968,17.6027972 20.2380952,17.9475524 19.8115079,17.9475524 C19.3849206,17.9475524 19.047619,17.6027972 19.047619,17.1667832 Z M20.5753968,14.2363636 L22.1230159,14.2363636 C22.8670635,14.2363636 23.2936508,13.8307692 23.2936508,13.2325175 L23.2936508,13.2122378 C23.2936508,12.543007 22.8373016,12.1982517 22.093254,12.1982517 L20.5753968,12.1982517 L20.5753968,14.2363636 Z M27.8103742,10.6671329 C27.8103742,10.3730769 28.0385488,10.1398601 28.3262472,10.1398601 C28.6139456,10.1398601 28.8421202,10.3730769 28.8421202,10.6671329 L28.8421202,10.8090909 C29.3778345,10.8902098 29.8540249,11.0524476 30.2806122,11.2958042 C30.4691043,11.4073427 30.6377551,11.6 30.6377551,11.9041958 C30.6377551,12.2895105 30.3401361,12.5835664 29.9631519,12.5835664 C29.8441043,12.5835664 29.7250567,12.5531469 29.6159297,12.4923077 C29.3381519,12.3402098 29.0603742,12.2185315 28.792517,12.1475524 L28.792517,13.6888112 C30.3004535,14.1045455 30.9452948,14.7332168 30.9452948,15.8688811 C30.9452948,17.0045455 30.0921202,17.7346154 28.8421202,17.8765734 L28.8421202,18.413986 C28.8421202,18.708042 28.6139456,18.9412587 28.3262472,18.9412587 C28.0385488,18.9412587 27.8103742,18.708042 27.8103742,18.413986 L27.8103742,17.8664336 C27.1060091,17.7751748 26.4413265,17.5216783 25.8560091,17.1566434 C25.6476757,17.0248252 25.5187075,16.822028 25.5187075,16.5482517 C25.5187075,16.1527972 25.8163265,15.8587413 26.2032313,15.8587413 C26.3321995,15.8587413 26.4710884,15.9094406 26.5901361,15.9905594 C27.0068027,16.2643357 27.4036281,16.456993 27.8599773,16.5583916 L27.8599773,14.9461538 C26.4314059,14.5506993 25.7270408,13.993007 25.7270408,12.7863636 C25.7270408,11.670979 26.5603742,10.9206294 27.8103742,10.7888112 L27.8103742,10.6671329 Z M29.4968821,15.95 C29.4968821,15.6153846 29.3282313,15.3923077 28.792517,15.1996503 L28.792517,16.6090909 C29.2587869,16.5381119 29.4968821,16.315035 29.4968821,15.95 Z M27.1754535,12.6951049 C27.1754535,13.0094406 27.3143424,13.2223776 27.8599773,13.4251748 L27.8599773,12.0562937 C27.3837869,12.1272727 27.1754535,12.3706294 27.1754535,12.6951049 Z" id="R$" fill="#FFCB00"></path>
                </g>
                <g id="money" transform="translate(195.451608, 214.823953) rotate(20.000000) translate(-195.451608, -214.823953) translate(170.451608, 200.323953)">
                    <rect id="Rectangle" fill="#47E7B8" x="0" y="0" width="50" height="29" rx="1.19232015"></rect>
                    <ellipse id="Oval" fill="#28B289" cx="25.0992063" cy="14.5" rx="10.218254" ry="10.4440559"></ellipse>
                    <path d="M19.047619,17.1667832 L19.047619,11.5695804 C19.047619,11.1335664 19.3849206,10.7888112 19.8115079,10.7888112 L22.2222222,10.7888112 C23.1051587,10.7888112 23.7896825,11.0423077 24.2460317,11.5087413 C24.6329365,11.9041958 24.8412698,12.4618881 24.8412698,13.1311189 L24.8412698,13.1513986 C24.8412698,14.2667832 24.2956349,14.9562937 23.452381,15.3111888 L24.5138889,16.6293706 C24.6626984,16.822028 24.7619048,16.9842657 24.7619048,17.2276224 C24.7619048,17.6636364 24.4047619,17.9475524 24.0376984,17.9475524 C23.6904762,17.9475524 23.4623016,17.7751748 23.2837302,17.541958 L21.7956349,15.6153846 L20.5753968,15.6153846 L20.5753968,17.1667832 C20.5753968,17.6027972 20.2380952,17.9475524 19.8115079,17.9475524 C19.3849206,17.9475524 19.047619,17.6027972 19.047619,17.1667832 Z M20.5753968,14.2363636 L22.1230159,14.2363636 C22.8670635,14.2363636 23.2936508,13.8307692 23.2936508,13.2325175 L23.2936508,13.2122378 C23.2936508,12.543007 22.8373016,12.1982517 22.093254,12.1982517 L20.5753968,12.1982517 L20.5753968,14.2363636 Z M27.8103742,10.6671329 C27.8103742,10.3730769 28.0385488,10.1398601 28.3262472,10.1398601 C28.6139456,10.1398601 28.8421202,10.3730769 28.8421202,10.6671329 L28.8421202,10.8090909 C29.3778345,10.8902098 29.8540249,11.0524476 30.2806122,11.2958042 C30.4691043,11.4073427 30.6377551,11.6 30.6377551,11.9041958 C30.6377551,12.2895105 30.3401361,12.5835664 29.9631519,12.5835664 C29.8441043,12.5835664 29.7250567,12.5531469 29.6159297,12.4923077 C29.3381519,12.3402098 29.0603742,12.2185315 28.792517,12.1475524 L28.792517,13.6888112 C30.3004535,14.1045455 30.9452948,14.7332168 30.9452948,15.8688811 C30.9452948,17.0045455 30.0921202,17.7346154 28.8421202,17.8765734 L28.8421202,18.413986 C28.8421202,18.708042 28.6139456,18.9412587 28.3262472,18.9412587 C28.0385488,18.9412587 27.8103742,18.708042 27.8103742,18.413986 L27.8103742,17.8664336 C27.1060091,17.7751748 26.4413265,17.5216783 25.8560091,17.1566434 C25.6476757,17.0248252 25.5187075,16.822028 25.5187075,16.5482517 C25.5187075,16.1527972 25.8163265,15.8587413 26.2032313,15.8587413 C26.3321995,15.8587413 26.4710884,15.9094406 26.5901361,15.9905594 C27.0068027,16.2643357 27.4036281,16.456993 27.8599773,16.5583916 L27.8599773,14.9461538 C26.4314059,14.5506993 25.7270408,13.993007 25.7270408,12.7863636 C25.7270408,11.670979 26.5603742,10.9206294 27.8103742,10.7888112 L27.8103742,10.6671329 Z M29.4968821,15.95 C29.4968821,15.6153846 29.3282313,15.3923077 28.792517,15.1996503 L28.792517,16.6090909 C29.2587869,16.5381119 29.4968821,16.315035 29.4968821,15.95 Z M27.1754535,12.6951049 C27.1754535,13.0094406 27.3143424,13.2223776 27.8599773,13.4251748 L27.8599773,12.0562937 C27.3837869,12.1272727 27.1754535,12.3706294 27.1754535,12.6951049 Z" id="R$" fill="#FFCB00"></path>
                </g>
                <g id="money" transform="translate(195.070508, 31.959292) rotate(30.000000) translate(-195.070508, -31.959292) translate(175.070508, 20.459292)">
                    <rect id="Rectangle" fill="#47E7B8" x="0" y="0" width="40" height="23" rx="0.953856066"></rect>
                    <ellipse id="Oval" fill="#28B289" cx="20.0793651" cy="11.5" rx="8.17460317" ry="8.28321678"></ellipse>
                    <path d="M15.2380952,13.615035 L15.2380952,9.17587413 C15.2380952,8.83006993 15.5079365,8.55664336 15.8492063,8.55664336 L17.7777778,8.55664336 C18.484127,8.55664336 19.031746,8.75769231 19.3968254,9.12762238 C19.7063492,9.44125874 19.8730159,9.88356643 19.8730159,10.4143357 L19.8730159,10.4304196 C19.8730159,11.315035 19.4365079,11.8618881 18.7619048,12.1433566 L19.6111111,13.1888112 C19.7301587,13.3416084 19.8095238,13.4702797 19.8095238,13.6632867 C19.8095238,14.0090909 19.5238095,14.2342657 19.2301587,14.2342657 C18.952381,14.2342657 18.7698413,14.0975524 18.6269841,13.9125874 L17.4365079,12.3846154 L16.4603175,12.3846154 L16.4603175,13.615035 C16.4603175,13.9608392 16.1904762,14.2342657 15.8492063,14.2342657 C15.5079365,14.2342657 15.2380952,13.9608392 15.2380952,13.615035 Z M16.4603175,11.2909091 L17.6984127,11.2909091 C18.2936508,11.2909091 18.6349206,10.9692308 18.6349206,10.4947552 L18.6349206,10.4786713 C18.6349206,9.9479021 18.2698413,9.67447552 17.6746032,9.67447552 L16.4603175,9.67447552 L16.4603175,11.2909091 Z M22.2482993,8.46013986 C22.2482993,8.22692308 22.430839,8.04195804 22.6609977,8.04195804 C22.8911565,8.04195804 23.0736961,8.22692308 23.0736961,8.46013986 L23.0736961,8.57272727 C23.5022676,8.63706294 23.88322,8.76573427 24.2244898,8.95874126 C24.3752834,9.0472028 24.5102041,9.2 24.5102041,9.44125874 C24.5102041,9.74685315 24.2721088,9.98006993 23.9705215,9.98006993 C23.8752834,9.98006993 23.7800454,9.95594406 23.6927438,9.90769231 C23.4705215,9.78706294 23.2482993,9.69055944 23.0340136,9.63426573 L23.0340136,10.8566434 C24.2403628,11.1863636 24.7562358,11.684965 24.7562358,12.5856643 C24.7562358,13.4863636 24.0736961,14.0653846 23.0736961,14.177972 L23.0736961,14.6041958 C23.0736961,14.8374126 22.8911565,15.0223776 22.6609977,15.0223776 C22.430839,15.0223776 22.2482993,14.8374126 22.2482993,14.6041958 L22.2482993,14.1699301 C21.6848073,14.0975524 21.1530612,13.8965035 20.6848073,13.606993 C20.5181406,13.5024476 20.414966,13.3416084 20.414966,13.1244755 C20.414966,12.8108392 20.6530612,12.5776224 20.962585,12.5776224 C21.0657596,12.5776224 21.1768708,12.6178322 21.2721088,12.6821678 C21.6054422,12.8993007 21.9229025,13.0520979 22.2879819,13.1325175 L22.2879819,11.8538462 C21.1451247,11.5402098 20.5816327,11.0979021 20.5816327,10.1409091 C20.5816327,9.25629371 21.2482993,8.66118881 22.2482993,8.55664336 L22.2482993,8.46013986 Z M23.5975057,12.65 C23.5975057,12.3846154 23.462585,12.2076923 23.0340136,12.0548951 L23.0340136,13.1727273 C23.4070295,13.1164336 23.5975057,12.9395105 23.5975057,12.65 Z M21.7403628,10.0685315 C21.7403628,10.3178322 21.8514739,10.4867133 22.2879819,10.6475524 L22.2879819,9.56188811 C21.9070295,9.61818182 21.7403628,9.81118881 21.7403628,10.0685315 Z" id="R$" fill="#FFCB00"></path>
                </g>
            </g>
        </g>
    </g>
</svg>