<?xml version="1.0" encoding="UTF-8"?>
<svg width="50px" height="59px" viewBox="0 0 50 59" version="1.1" xmlns="http://www.w3.org/2000/svg" xmlns:xlink="http://www.w3.org/1999/xlink">
    <!-- Generator: Sketch 52.4 (67378) - http://www.bohemiancoding.com/sketch -->
    <title>Y</title>
    <desc>Created with Sketch.</desc>
    <defs>
        <path d="M18.9176966,23.4432846 C14.4422281,23.8626041 9.95685615,21.59168 7.79198389,17.3755531 L0.0952628685,2.38394386 L4.76290763,0.0236335227 L12.4457165,15.0292825 C13.8463636,17.7569654 17.0723322,18.967657 19.9012149,17.9481395 C20.3522988,19.4859565 20.1518695,21.1112877 19.414997,22.4731402" id="path-1"></path>
        <radialGradient cx="112.992739%" cy="81.6899669%" fx="112.992739%" fy="81.6899669%" r="54.657594%" gradientTransform="translate(1.129927,0.816900),scale(1.000000,0.854113),rotate(-64.606029),translate(-1.129927,-0.816900)" id="radialGradient-3">
            <stop stop-color="#BBBDC0" offset="0%"></stop>
            <stop stop-color="#FEFEFE" offset="100%"></stop>
        </radialGradient>
        <path d="M9.59584761,0.154436881 L14.2634924,2.51451322 L4.07107283,22.3437408 C3.43842363,23.5621542 2.57587024,24.6715258 1.50958635,25.6042309 L1.50958635,25.6046989 C1.70930825,23.5532623 1.34617752,21.4236714 0.33342004,19.4513252 L0.000235799165,18.8038603 L9.59584761,0.154436881 Z" id="path-4"></path>
        <radialGradient cx="-7.5093336%" cy="94.1245264%" fx="-7.5093336%" fy="94.1245264%" r="76.8143034%" gradientTransform="translate(-0.075093,0.941245),scale(1.000000,0.560437),rotate(-64.606029),translate(0.075093,-0.941245)" id="radialGradient-6">
            <stop stop-color="#BBBDC0" offset="0%"></stop>
            <stop stop-color="#FEFEFE" offset="100%"></stop>
        </radialGradient>
    </defs>
    <g id="Page-1" stroke="none" stroke-width="1" fill="none" fill-rule="evenodd">
        <g id="newsite_desk" transform="translate(-377.000000, -13.000000)">
            <g id="Group-3" transform="translate(377.000000, 13.000000)">
                <g id="Y">
                    <path d="M44.2758839,9.08025683 L22.1062808,52.2575329 C21.4330742,53.5686084 19.81054,54.0918218 18.4893572,53.4237653 C17.1681744,52.7557088 16.6409274,51.1458213 17.3141341,49.8345118 L25.5668696,33.7433588 C26.201641,32.4973339 26.5940108,31.1399273 26.7295953,29.7467195 C27.7956434,28.8142483 28.6584326,27.7048767 29.2910818,26.4864633 L39.4835014,6.65723576 C40.156708,5.34616024 41.7792422,4.8231808 43.100425,5.49100331 C44.4216078,6.15905982 44.9488547,7.7691813 44.2758839,9.08025683 M13.8500084,24.0859058 L6.16719949,9.08025683 C5.49399283,7.7691813 6.0214756,6.15905982 7.3426584,5.49100331 C8.6638412,4.8231808 10.2863754,5.34616024 10.9593462,6.65723576 L20.8857843,25.9541241 C21.0616905,26.2966931 21.2010478,26.648388 21.3055068,27.0047628 C18.4766241,28.0242803 15.2504197,26.8135887 13.8500084,24.0859058 M45.4789313,0.859066851 C41.5776339,-1.11327932 36.8036437,0.425941598 34.8158566,4.29715942 L25.2202448,22.9465828 L15.626991,4.29715942 C13.6394397,0.425941598 8.8654495,-1.11327932 4.96415207,0.859066851 C1.06285465,2.83164702 -0.488232352,7.56911534 1.49955473,11.4405672 L9.19627575,26.4319424 C11.361148,30.6483033 15.84652,32.9192274 20.3219884,32.4999079 L12.6464893,47.4742015 C10.6587023,51.3456533 12.2097893,56.0831216 16.1110867,58.0557018 C20.0123841,60.0282819 24.7861385,58.488827 26.7739256,54.6176092 L48.9435286,11.4405672 C50.9313157,7.56911534 49.3799929,2.83164702 45.4789313,0.859066851" id="Fill-15" fill="#FEFEFE"></path>
                    <g id="Group-23" transform="translate(1.404221, 4.142652)">
                        <g id="Group-19" transform="translate(0.000000, 4.913901)">
                            <mask id="mask-2" fill="white">
                                <use xlink:href="#path-1"></use>
                            </mask>
                            <g id="Clip-18"></g>
                            <path d="M18.9176966,23.4432846 L19.414997,22.4731402 C20.1518695,21.1112877 20.3522988,19.4859565 19.9012149,17.9481395 C17.0723322,18.967657 13.8463636,17.7569654 12.4457165,15.0292825 L4.76290763,0.0236335227 L0.0952628685,2.38394386 L7.79198389,17.3755531 C9.95685615,21.59168 14.4422281,23.8626041 18.9176966,23.4432846" id="Fill-17" fill="url(#radialGradient-3)" mask="url(#mask-2)"></path>
                        </g>
                        <g id="Group-22" transform="translate(23.815717, 0.000000)">
                            <mask id="mask-5" fill="white">
                                <use xlink:href="#path-4"></use>
                            </mask>
                            <g id="Clip-21"></g>
                            <path d="M9.59584761,0.154436881 L0.000235799165,18.8038603 L0.33342004,19.4513252 C1.34617752,21.4236714 1.70930825,23.5532623 1.50958635,25.6046989 L1.50958635,25.6042309 C2.57587024,24.6715258 3.43842363,23.5621542 4.07107283,22.3437408 L14.2634924,2.51451322 L9.59584761,0.154436881 Z" id="Fill-20" fill="url(#radialGradient-6)" mask="url(#mask-5)"></path>
                        </g>
                    </g>
                </g>
            </g>
        </g>
    </g>
</svg>