<?xml version="1.0" encoding="UTF-8"?>
<svg width="503px" height="525px" viewBox="0 0 503 525" version="1.1" xmlns="http://www.w3.org/2000/svg" xmlns:xlink="http://www.w3.org/1999/xlink">
    <!-- Generator: Sketch 52.4 (67378) - http://www.bohemiancoding.com/sketch -->
    <title>yellow</title>
    <desc>Created with Sketch.</desc>
    <defs>
        <linearGradient x1="7.18031759%" y1="50%" x2="58.8464231%" y2="50%" id="linearGradient-1">
            <stop stop-color="#FFFFFF" offset="0%"></stop>
            <stop stop-color="#FECA00" offset="100%"></stop>
        </linearGradient>
        <path d="M111.563706,136.263423 L13.249955,234.498964 L6.1308006,241.611802 C-1.25962819,248.996351 -1.26028186,261.080338 6.1308006,268.465541 C13.5218831,275.850743 25.6148366,275.850743 33.005919,268.465541 L40.1250735,261.35205 L102.197877,199.328626 C109.587652,191.944077 121.681913,191.943423 129.071688,199.328626 C136.462771,206.713829 136.462771,218.797815 129.071688,226.183018 L66.9995382,288.206441 L59.8810375,295.318626 C52.489955,302.703829 52.489955,314.787815 59.8810375,322.173018 C66.8406957,329.126486 77.9694813,329.529482 85.4154723,323.386577 L100.934327,307.880068 C108.325409,300.494865 120.418363,300.494865 127.809445,307.880068 C135.200528,315.264617 135.200528,327.348604 127.809445,334.733153 L120.687022,341.84991 L120.749121,341.912613 L113.630621,349.02545 C106.239538,356.410653 106.239538,368.49464 113.630621,375.879842 C120.409865,382.653041 131.142525,383.208874 138.576096,377.556486 L190.914399,325.260473 C198.304828,317.875923 210.399088,317.875923 217.788864,325.260473 C225.179946,332.645676 225.179946,344.729009 217.788864,352.113559 L174.373853,395.494685 L167.254699,402.607523 C159.86427,409.992072 159.86427,422.076712 167.254699,429.461261 C170.932264,433.135901 175.774675,434.982365 180.621661,435 L180.763508,435 C185.610495,434.982365 190.452906,433.135901 194.129817,429.461261 L201.248972,422.34777 L299.562723,324.113536 L435.851616,187.93241 L247.8526,0.0829504505 L111.563706,136.263423 Z" id="path-2"></path>
        <polygon id="path-4" points="0.614053587 0.643630114 142.441097 0.643630114 142.441097 142.266715 0.614053587 142.266715"></polygon>
        <polygon id="path-6" points="0.0489729132 0.113667692 17.1046817 0.113667692 17.1046817 19.9719267 0.0489729132 19.9719267"></polygon>
        <polygon id="path-8" points="0 0.0443797431 24.2170264 0.0443797431 24.2170264 24.7802026 0 24.7802026"></polygon>
        <polygon id="path-10" points="0.189845594 0.119273477 20.4378966 0.119273477 20.4378966 36.2882281 0.189845594 36.2882281"></polygon>
        <polygon id="path-12" points="0 130.886332 52.928318 130.886332 52.928318 0.201538462 0 0.201538462"></polygon>
        <polygon id="path-14" points="0 0.216112713 14.2351176 0.216112713 14.2351176 14.1062619 0 14.1062619"></polygon>
        <polygon id="path-16" points="0.130262976 0.216112713 14.3655017 0.216112713 14.3655017 14.1062619 0.130262976 14.1062619"></polygon>
        <polygon id="path-18" points="0.240830435 0.119924092 0.361245653 0.119924092 0.361245653 0.239848183 0.240830435 0.239848183"></polygon>
        <polygon id="path-20" points="0.176959576 0.0856655681 32.5808772 0.0856655681 32.5808772 50.0173267 0.176959576 50.0173267"></polygon>
        <polygon id="path-22" points="0 0.030636365 25.7125049 0.030636365 25.7125049 40.3388243 0 40.3388243"></polygon>
    </defs>
    <g id="Page-1" stroke="none" stroke-width="1" fill="none" fill-rule="evenodd">
        <g id="newsite_desk-copy" transform="translate(-1281.000000, -1553.000000)">
            <g id="yellow" transform="translate(1256.000000, 1498.000000)">
                <rect id="Rectangle" fill="url(#linearGradient-1)" opacity="0.3" transform="translate(287.085353, 287.085353) scale(-1, 1) rotate(45.000000) translate(-287.085353, -287.085353) " x="14.0853532" y="154.085353" width="546" height="266" rx="133"></rect>
                <g id="Group-50" transform="translate(25.000000, 105.000000)">
                    <g id="Group-23" transform="translate(0.000000, 201.000000)">
                        <polygon id="Fill-4" fill="#E5E5E6" points="10.6069469 217.600551 283.898993 217.600551 283.898993 83.6441198 10.6069469 83.6441198"></polygon>
                        <polygon id="Fill-6" fill="#6D6E71" points="10.6069469 67.4703473 283.898993 67.4703473 283.898993 0.492131737 10.6069469 0.492131737"></polygon>
                        <path d="M294.506593,69.0400126 L294.506593,82.6075754 C294.506593,88.0079707 290.088772,92.4254078 284.689358,92.4254078 C279.290597,92.4254078 274.872777,88.0079707 274.872777,82.6075754 C274.872777,88.0079707 270.454956,92.4254078 265.055542,92.4254078 C259.656781,92.4254078 255.23896,88.0079707 255.23896,82.6075754 C255.23896,88.0079707 250.821139,92.4254078 245.421726,92.4254078 C240.022965,92.4254078 235.605144,88.0079707 235.605144,82.6075754 C235.605144,88.0079707 231.187323,92.4254078 225.787909,92.4254078 C220.389148,92.4254078 215.971327,88.0079707 215.971327,82.6075754 C215.971327,88.0079707 211.553507,92.4254078 206.154093,92.4254078 C200.755332,92.4254078 196.337511,88.0079707 196.337511,82.6075754 C196.337511,88.0079707 191.91969,92.4254078 186.520277,92.4254078 C181.121515,92.4254078 176.703695,88.0079707 176.703695,82.6075754 C176.703695,88.0079707 172.285874,92.4254078 166.887113,92.4254078 C161.487699,92.4254078 157.069878,88.0079707 157.069878,82.6075754 C157.069878,88.0079707 152.65271,92.4254078 147.253296,92.4254078 C141.853883,92.4254078 137.436062,88.0079707 137.436062,82.6075754 C137.436062,88.0079707 133.018894,92.4254078 127.61948,92.4254078 C122.220066,92.4254078 117.802246,88.0079707 117.802246,82.6075754 C117.802246,88.0079707 113.385077,92.4254078 107.985664,92.4254078 C102.58625,92.4254078 98.1684292,88.0079707 98.1684292,82.6075754 C98.1684292,88.0079707 93.7512611,92.4254078 88.3518473,92.4254078 C82.9524336,92.4254078 78.5346128,88.0079707 78.5346128,82.6075754 C78.5346128,88.0079707 74.1174447,92.4254078 68.718031,92.4254078 C63.3186173,92.4254078 58.9014491,88.0079707 58.9014491,82.6075754 C58.9014491,88.0079707 54.4836283,92.4254078 49.0842146,92.4254078 C43.6848009,92.4254078 39.2676327,88.0079707 39.2676327,82.6075754 C39.2676327,88.0079707 34.8498119,92.4254078 29.4503982,92.4254078 C24.0509845,92.4254078 19.6338164,88.0079707 19.6338164,82.6075754 C19.6338164,88.0079707 15.2159956,92.4254078 9.81658186,92.4254078 C4.41716814,92.4254078 0,88.0079707 0,82.6075754 L0,69.0400126 L10.6069469,60.0184677 L283.944027,60.0184677 L294.506593,69.0400126 Z" id="Fill-7" fill="#B9BCBD"></path>
                        <polygon id="Fill-8" fill="#B9BCBD" points="19.6103208 155.268868 105.941549 155.268868 105.941549 95.6458683 19.6103208 95.6458683"></polygon>
                        <polygon id="Fill-9" fill="#B9BCBD" points="179.397854 155.268868 283.898993 155.268868 283.898993 95.6458683 179.397854 95.6458683"></polygon>
                        <polygon id="Fill-10" fill="#B9BCBD" points="118.230387 217.601204 163.138263 217.601204 163.138263 95.6458683 118.230387 95.6458683"></polygon>
                        <path d="M104.973466,155.268411 L20.5780122,155.268411 C18.1194613,155.268411 16.1262533,157.261741 16.1262533,159.720441 C16.1262533,162.179142 18.1194613,164.173124 20.5780122,164.173124 L104.973466,164.173124 C107.432017,164.173124 109.425225,162.179142 109.425225,159.720441 C109.425225,157.261741 107.432017,155.268411 104.973466,155.268411" id="Fill-11" fill="#6D6E71"></path>
                        <polygon id="Fill-12" fill="#6D6E71" points="294.506593 69.0400126 283.944027 60.0184677 10.6069469 60.0184677 0 69.0400126"></polygon>
                        <path d="M221.799992,119.234447 C221.799992,119.234447 216.101663,116.235316 221.799992,113.167651 C221.799992,113.167651 220.785114,110.412627 224.141718,110.178962 C224.141718,110.178962 223.595446,108.070759 227.810291,106.978148 C232.025789,105.885537 230.15528,104.74789 228.981154,104.558609 C227.340379,104.29231 228.051121,103.326322 229.137791,102.91904 C230.842525,102.279399 232.669306,101.591459 233.167282,103.465346 C233.665258,105.338579 234.133211,106.587837 236.319605,107.212465 C238.504694,107.837094 239.753875,108.539393 239.519572,110.022968 C239.519572,110.022968 243.032813,111.037256 241.939616,113.614094 C241.939616,113.614094 246.49841,115.876986 242.150424,118.921807 C237.802437,121.96728 231.089229,122.434609 231.089229,122.434609 L221.799992,119.234447 Z" id="Fill-13" fill="#E36D9C"></path>
                        <path d="M220.160719,117.595009 C220.160719,117.595009 231.635697,114.003883 243.032356,117.595009 L235.851195,148.35259 C235.851195,148.35259 230.776803,149.054889 228.357412,148.35259 L220.160719,117.595009 Z" id="Fill-14" fill="#E0C7A8"></path>
                        <path d="M229.785094,123.395963 C229.785094,121.732897 229.259054,120.385735 228.609663,120.385735 C227.960271,120.385735 227.434231,121.732897 227.434231,123.395963 C227.434231,125.059029 227.960271,126.40619 228.609663,126.40619 C229.259054,126.40619 229.785094,125.059029 229.785094,123.395963" id="Fill-15" fill="#FFFFFF"></path>
                        <path d="M235.759105,123.395963 C235.759105,121.732897 235.232413,120.385735 234.583674,120.385735 C233.934282,120.385735 233.40759,121.732897 233.40759,123.395963 C233.40759,125.059029 233.934282,126.40619 234.583674,126.40619 C235.232413,126.40619 235.759105,125.059029 235.759105,123.395963" id="Fill-16" fill="#FFFFFF"></path>
                        <path d="M236.442043,127.983949 C236.442043,130.659997 234.272618,132.829554 231.596733,132.829554 C228.920848,132.829554 226.750771,130.659997 226.750771,127.983949 L236.442043,127.983949 Z" id="Fill-17" fill="#FFFFFF"></path>
                        <path d="M52.9271117,119.234447 C52.9271117,119.234447 47.2287821,116.235316 52.9271117,113.167651 C52.9271117,113.167651 51.9122334,110.412627 55.2688374,110.178962 C55.2688374,110.178962 54.7225653,108.070759 58.9380631,106.978148 C63.1529082,105.885537 61.2823993,104.74789 60.1089259,104.558609 C58.4674989,104.29231 59.17824,103.326322 60.2649104,102.91904 C61.9696449,102.279399 63.7964259,101.591459 64.2944015,103.465346 C64.7923772,105.338579 65.2609834,106.587837 67.4467246,107.212465 C69.6324657,107.837094 70.8809945,108.539393 70.6466914,110.022968 C70.6466914,110.022968 74.1599325,111.037256 73.0667356,113.614094 C73.0667356,113.614094 77.6255299,115.876986 73.2775431,118.921807 C68.9295564,121.96728 62.2163485,122.434609 62.2163485,122.434609 L52.9271117,119.234447 Z" id="Fill-18" fill="#E36D9C"></path>
                        <path d="M51.2878385,117.595009 C51.2878385,117.595009 62.7628164,114.003883 74.1594757,117.595009 L66.9783142,148.35259 C66.9783142,148.35259 61.9045752,149.054889 59.484531,148.35259 L51.2878385,117.595009 Z" id="Fill-19" fill="#E0C7A8"></path>
                        <path d="M60.9126051,123.395963 C60.9126051,121.732897 60.3859126,120.385735 59.7371737,120.385735 C59.0877821,120.385735 58.5610896,121.732897 58.5610896,123.395963 C58.5610896,125.059029 59.0877821,126.40619 59.7371737,126.40619 C60.3859126,126.40619 60.9126051,125.059029 60.9126051,123.395963" id="Fill-20" fill="#FFFFFF"></path>
                        <path d="M66.8862246,123.395963 C66.8862246,121.732897 66.3601847,120.385735 65.7107931,120.385735 C65.0614015,120.385735 64.5353617,121.732897 64.5353617,123.395963 C64.5353617,125.059029 65.0614015,126.40619 65.7107931,126.40619 C66.3601847,126.40619 66.8862246,125.059029 66.8862246,123.395963" id="Fill-21" fill="#FFFFFF"></path>
                        <path d="M67.5694889,127.983949 C67.5694889,130.659997 65.4000642,132.829554 62.7241792,132.829554 C60.0476416,132.829554 57.8782168,130.659997 57.8782168,127.983949 L67.5694889,127.983949 Z" id="Fill-22" fill="#FFFFFF"></path>
                    </g>
                    <g id="Group-43" transform="translate(11.000000, 0.000000)">
                        <mask id="mask-3" fill="white">
                            <use xlink:href="#path-2"></use>
                        </mask>
                        <g id="Clip-25"></g>
                        <polygon id="Fill-24" fill="#FECA00" mask="url(#mask-3)" points="-0.488947526 418.924595 273.229499 418.924595 273.229499 284.874054 -0.488947526 284.874054"></polygon>
                        <polygon id="Fill-26" fill="#E36D9C" mask="url(#mask-3)" points="-0.488947526 268.688919 273.229499 268.688919 273.229499 201.663649 -0.488947526 201.663649"></polygon>
                        <path d="M283.853649,270.259687 L283.853649,283.836782 C283.853649,289.240971 279.428936,293.661511 274.021097,293.661511 C268.613913,293.661511 264.189199,289.240971 264.189199,283.836782 C264.189199,289.240971 259.764486,293.661511 254.356648,293.661511 C248.949463,293.661511 244.52475,289.240971 244.52475,283.836782 C244.52475,289.240971 240.100036,293.661511 234.692198,293.661511 C229.285013,293.661511 224.8603,289.240971 224.8603,283.836782 C224.8603,289.240971 220.435586,293.661511 215.027748,293.661511 C209.620564,293.661511 205.19585,289.240971 205.19585,283.836782 C205.19585,289.240971 200.771136,293.661511 195.363298,293.661511 C189.956114,293.661511 185.5314,289.240971 185.5314,283.836782 C185.5314,289.240971 181.106687,293.661511 175.698849,293.661511 C170.291664,293.661511 165.866951,289.240971 165.866951,283.836782 C165.866951,289.240971 161.442237,293.661511 156.035052,293.661511 C150.627214,293.661511 146.202501,289.240971 146.202501,283.836782 C146.202501,289.240971 141.778441,293.661511 136.370603,293.661511 C130.962765,293.661511 126.538051,289.240971 126.538051,283.836782 C126.538051,289.240971 122.113991,293.661511 116.706153,293.661511 C111.298315,293.661511 106.873601,289.240971 106.873601,283.836782 C106.873601,289.240971 102.449541,293.661511 97.0417031,293.661511 C91.6338651,293.661511 87.2091514,289.240971 87.2091514,283.836782 C87.2091514,289.240971 82.7850915,293.661511 77.3772534,293.661511 C71.9694153,293.661511 67.5447016,289.240971 67.5447016,283.836782 C67.5447016,289.240971 63.1206417,293.661511 57.7128036,293.661511 C52.3049655,293.661511 47.8809055,289.240971 47.8809055,283.836782 C47.8809055,289.240971 43.4561919,293.661511 38.0483538,293.661511 C32.6405157,293.661511 28.2164558,289.240971 28.2164558,283.836782 C28.2164558,289.240971 23.7917421,293.661511 18.383904,293.661511 C12.976066,293.661511 8.552006,289.240971 8.552006,283.836782 C8.552006,289.240971 4.12729235,293.661511 -1.28054573,293.661511 C-6.68838381,293.661511 -11.1124438,289.240971 -11.1124438,283.836782 L-11.1124438,270.259687 L-0.488947526,261.231804 L273.274603,261.231804 L283.853649,270.259687 Z" id="Fill-27" fill="#E36D9C" mask="url(#mask-3)"></path>
                        <polygon id="Fill-28" fill="#47E5B6" mask="url(#mask-3)" points="8.52847376 356.549122 94.9943988 356.549122 94.9943988 296.884234 8.52847376 296.884234"></polygon>
                        <polygon id="Fill-29" fill="#47E5B6" mask="url(#mask-3)" points="168.565313 356.549122 273.229499 356.549122 273.229499 296.884234 168.565313 296.884234"></polygon>
                        <polygon id="Fill-30" fill="#47E5B6" mask="url(#mask-3)" points="107.302411 418.925248 152.280354 418.925248 152.280354 296.884234 107.302411 296.884234"></polygon>
                        <path d="M94.0248054,356.548664 L9.49767496,356.548664 C7.03528816,356.548664 5.03897031,358.543394 5.03897031,361.003822 C5.03897031,363.46425 7.03528816,365.459633 9.49767496,365.459633 L94.0248054,365.459633 C96.4871922,365.459633 98.48351,363.46425 98.48351,361.003822 C98.48351,358.543394 96.4871922,356.548664 94.0248054,356.548664" id="Fill-31" fill="#FEAE02" mask="url(#mask-3)"></path>
                        <polygon id="Fill-32" fill="#AC4467" mask="url(#mask-3)" points="283.853649 270.259687 273.274603 261.231804 -0.488947526 261.231804 -11.1124438 270.259687"></polygon>
                        <path d="M211.033609,320.489385 C211.033609,320.489385 205.326389,317.488146 211.033609,314.418327 C211.033609,314.418327 210.017147,311.661367 213.378988,311.427538 C213.378988,311.427538 212.831864,309.317854 217.053285,308.224475 C221.27536,307.131097 219.401933,305.992651 218.225975,305.803236 C216.58264,305.53675 217.294491,304.570083 218.382856,304.162516 C220.090251,303.522426 221.919882,302.834002 222.418634,304.709205 C222.917387,306.583755 223.386071,307.83389 225.575876,308.458957 C227.764374,309.084025 229.015504,309.786818 228.780835,311.271435 C228.780835,311.271435 232.299558,312.286435 231.204655,314.865083 C231.204655,314.865083 235.770563,317.129565 231.415792,320.176525 C227.061021,323.224137 220.337339,323.691795 220.337339,323.691795 L211.033609,320.489385 Z" id="Fill-33" fill="#E36D9C" mask="url(#mask-3)"></path>
                        <path d="M209.391778,318.848795 C209.391778,318.848795 220.88466,315.255146 232.2991,318.848795 L225.106735,349.627984 C225.106735,349.627984 220.024426,350.330777 217.601259,349.627984 L209.391778,318.848795 Z" id="Fill-34" fill="#E0C7A8" mask="url(#mask-3)"></path>
                        <path d="M219.031169,324.653824 C219.031169,322.98959 218.504309,321.641482 217.853904,321.641482 C217.203499,321.641482 216.676639,322.98959 216.676639,324.653824 C216.676639,326.318059 217.203499,327.666167 217.853904,327.666167 C218.504309,327.666167 219.031169,326.318059 219.031169,324.653824" id="Fill-35" fill="#FFFFFF" mask="url(#mask-3)"></path>
                        <path d="M225.014501,324.653824 C225.014501,322.98959 224.486987,321.641482 223.837236,321.641482 C223.186831,321.641482 222.659317,322.98959 222.659317,324.653824 C222.659317,326.318059 223.186831,327.666167 223.837236,327.666167 C224.486987,327.666167 225.014501,326.318059 225.014501,324.653824" id="Fill-36" fill="#FFFFFF" mask="url(#mask-3)"></path>
                        <path d="M225.698505,329.245034 C225.698505,331.922962 223.525695,334.094043 220.845635,334.094043 C218.165575,334.094043 215.992112,331.922962 215.992112,329.245034 L225.698505,329.245034 Z" id="Fill-37" fill="#FFFFFF" mask="url(#mask-3)"></path>
                        <path d="M41.8972468,320.489385 C41.8972468,320.489385 36.1900264,317.488146 41.8972468,314.418327 C41.8972468,314.418327 40.880785,311.661367 44.2426261,311.427538 C44.2426261,311.427538 43.6955016,309.317854 47.9175766,308.224475 C52.1389979,307.131097 50.2655706,305.992651 49.0902663,305.803236 C47.4462783,305.53675 48.1581283,304.570083 49.2464942,304.162516 C50.9538885,303.522426 52.7835196,302.834002 53.2822723,304.709205 C53.7810249,306.583755 54.2503622,307.83389 56.4395136,308.458957 C58.6286651,309.084025 59.8791418,309.786818 59.6444732,311.271435 C59.6444732,311.271435 63.1631958,312.286435 62.0682933,314.865083 C62.0682933,314.865083 66.6342003,317.129565 62.2794297,320.176525 C57.9246591,323.224137 51.2009769,323.691795 51.2009769,323.691795 L41.8972468,320.489385 Z" id="Fill-38" fill="#E36D9C" mask="url(#mask-3)"></path>
                        <path d="M40.2554159,318.848795 C40.2554159,318.848795 51.7482975,315.255146 63.1627382,318.848795 L55.9703724,349.627984 C55.9703724,349.627984 50.8887172,350.330777 48.4648972,349.627984 L40.2554159,318.848795 Z" id="Fill-39" fill="#E0C7A8" mask="url(#mask-3)"></path>
                        <path d="M49.8951994,324.653824 C49.8951994,322.98959 49.3676852,321.641482 48.717934,321.641482 C48.0675292,321.641482 47.540015,322.98959 47.540015,324.653824 C47.540015,326.318059 48.0675292,327.666167 48.717934,327.666167 C49.3676852,327.666167 49.8951994,326.318059 49.8951994,324.653824" id="Fill-40" fill="#FFFFFF" mask="url(#mask-3)"></path>
                        <path d="M55.8781391,324.653824 C55.8781391,322.98959 55.3512786,321.641482 54.7008738,321.641482 C54.050469,321.641482 53.5236084,322.98959 53.5236084,324.653824 C53.5236084,326.318059 54.050469,327.666167 54.7008738,327.666167 C55.3512786,327.666167 55.8781391,326.318059 55.8781391,324.653824" id="Fill-41" fill="#FFFFFF" mask="url(#mask-3)"></path>
                        <path d="M56.5624696,329.245034 C56.5624696,331.922962 54.38966,334.094043 51.7096,334.094043 C49.0288864,334.094043 46.8560768,331.922962 46.8560768,329.245034 L56.5624696,329.245034 Z" id="Fill-42" fill="#FFFFFF" mask="url(#mask-3)"></path>
                    </g>
                    <g id="Group-49" transform="translate(66.000000, 14.000000)">
                        <path d="M139.314032,17.0320802 L17.035684,139.133621 C13.2300607,142.934414 7.00166756,142.934414 3.19604425,139.133621 C-0.610232287,135.33348 -0.610232287,129.11406 3.19604425,125.313919 L125.474393,3.21172568 C129.280016,-0.588415227 135.507756,-0.588415227 139.314032,3.21172568 C143.120309,7.01251886 143.120309,13.231287 139.314032,17.0320802" id="Fill-44" fill="#FECA00" opacity="0.2"></path>
                        <g id="Group-48" transform="translate(293.946188, 144.152273)">
                            <mask id="mask-5" fill="white">
                                <use xlink:href="#path-4"></use>
                            </mask>
                            <g id="Clip-47"></g>
                            <path d="M139.586749,17.3139273 L17.309054,139.41612 C13.5027774,143.216914 7.2743843,143.216914 3.46876099,139.41612 C-0.337515546,135.61598 -0.337515546,129.396559 3.46876099,125.595766 L125.747109,3.494225 C129.552733,-0.306568182 135.781126,-0.306568182 139.586749,3.494225 C143.393026,7.29436591 143.393026,13.5137864 139.586749,17.3139273" id="Fill-46" fill="#FECA00" opacity="0.2" mask="url(#mask-5)"></path>
                        </g>
                    </g>
                </g>
                <g id="Group-41" transform="translate(135.500000, 489.500000) scale(-1, 1) translate(-135.500000, -489.500000) translate(109.000000, 424.000000)">
                    <path d="M26.9174816,8.34222108 C26.9174816,4.13893492 23.4842594,0.731524154 19.249133,0.731524154 C15.0142096,0.731524154 11.5809874,4.13893492 11.5809874,8.34222108 C11.5809874,12.5453057 15.0142096,15.9527165 19.249133,15.9527165 C23.4842594,15.9527165 26.9174816,12.5453057 26.9174816,8.34222108" id="Fill-1" fill="#1F62A7"></path>
                    <g id="Group-5" transform="translate(12.590038, 0.087871)">
                        <mask id="mask-7" fill="white">
                            <use xlink:href="#path-6"></use>
                        </mask>
                        <g id="Clip-4"></g>
                        <path d="M15.8210889,14.3494982 C17.0861847,8.41640738 18.7417747,1.37243662 13.476905,0.266595077 C8.21183218,-0.839448 2.70836092,4.22057815 0.87752567,10.0065458 C-1.24227126,16.7054828 0.791222989,21.0828982 5.99578238,19.7247305 C12.3817747,18.0582089 14.55579,20.2825889 15.8210889,14.3494982" id="Fill-3" fill="#1A5189" mask="url(#mask-7)"></path>
                    </g>
                    <path d="M28.4111272,14.4373689 C29.676223,8.50427815 31.331813,1.46030738 26.0669433,0.354465846 C20.8018705,-0.751577231 17.7812766,4.48902738 15.9506444,10.2749951 C13.8306444,16.973932 15.8643418,21.3513474 21.0689011,19.9929782 C27.4546904,18.3266582 27.1458284,20.3704597 28.4111272,14.4373689" id="Fill-6" fill="#1A5189"></path>
                    <g id="Group-10" transform="translate(0.000000, 13.389409)">
                        <mask id="mask-9" fill="white">
                            <use xlink:href="#path-8"></use>
                        </mask>
                        <g id="Clip-9"></g>
                        <path d="M0.114873946,18.0566974 C-0.241505364,16.304522 0.202598084,14.1329451 1.84905019,13.4086158 C3.4063567,12.7231835 5.42055977,13.6071312 6.83226858,12.6613112 C7.996441,11.8813574 8.14914598,10.2603835 8.09878582,8.86755123 C8.04842567,7.47471892 7.96537203,5.91501277 8.89967471,4.87426815 C9.93997739,3.715422 11.7675636,3.73174662 13.1159161,2.94574662 C14.4421345,2.17264508 15.2803874,0.634503538 16.7489544,0.182049692 C17.5165406,-0.0545564615 18.3482954,0.0484296923 19.1309084,0.231426615 C20.9576824,0.658688154 22.7826287,1.61256969 23.6541843,3.262162 C24.7592648,5.35433277 24.0538165,7.91830508 23.1083452,10.0862543 C21.1481575,14.5817712 18.2262533,18.6613128 14.5930119,21.9764189 C13.5724065,22.9075266 12.4717935,23.7938928 11.1778625,24.2882666 C6.5205636,26.0678512 1.07841801,22.7964789 0.114873946,18.0566974" id="Fill-8" fill="#3D1149" mask="url(#mask-9)"></path>
                    </g>
                    <g id="Group-13" transform="translate(32.490421, 12.583255)">
                        <mask id="mask-11" fill="white">
                            <use xlink:href="#path-10"></use>
                        </mask>
                        <g id="Clip-12"></g>
                        <path d="M5.35886858,22.6377674 C5.35886858,22.6377674 7.98206398,28.0003028 9.04003333,25.1983135 C10.0980027,22.3963243 17.0003897,4.54646585 17.0003897,4.54646585 C17.0003897,4.54646585 15.043451,3.52527046 15.2296617,2.354332 C15.4160755,1.18359508 17.9507345,-1.04179262 20.059769,0.859521231 C22.1686004,2.76103662 14.7719529,28.8393074 14.7719529,28.8393074 C14.7719529,28.8393074 11.4418877,38.6016289 7.28453525,35.7744474 C3.12738582,32.9468628 0.189845594,25.250512 0.189845594,25.250512 L5.35886858,22.6377674 Z" id="Fill-11" fill="#BE2F32" mask="url(#mask-11)"></path>
                    </g>
                    <path d="M19.3021533,112.429944 L13.8157395,112.212282 C13.1370958,103.205528 12.4797739,92.5844515 13.3243218,84.5297654 C14.2409579,75.7872285 17.8400843,60.0452608 17.8400843,60.0452608 L29.4082989,70.70201 C29.4082989,70.70201 21.2192912,84.7865254 19.9328736,100.904161 C19.5338506,105.906345 19.3315977,109.610824 19.3021533,112.429944" id="Fill-14" fill="#EE393C"></path>
                    <path d="M24.4545249,130.883491 C20.6078621,130.90042 15.7858774,127.99222 14.4903218,126.48048 C13.1947663,124.96874 14.718567,123.927189 13.9893602,114.484104 C13.9318927,113.740629 13.8738161,112.981837 13.8157395,112.212161 L19.3021533,112.430024 C19.2369693,118.694041 20.0260805,120.58286 21.4079387,122.600058 C23.4117854,125.525389 28.3803831,126.677988 28.1342682,128.892895 C27.8883563,131.107601 26.7751533,130.873212 24.4545249,130.883491" id="Fill-16" fill="#3D1149"></path>
                    <path d="M11.5809061,106.282819 C11.5809061,106.282819 18.8171322,107.917498 24.0570249,106.282819 C24.0570249,106.282819 32.0033697,77.5117931 31.3917375,68.3575131 L12.6388755,65.0881562 C12.6388755,65.0881562 11.6531973,93.8589808 11.5809061,106.282819" id="Fill-18" fill="#C1B8D7"></path>
                    <path d="M37.0695402,108.490693 L31.5831264,108.273032 C30.9044828,99.2662778 30.2471609,88.6452009 31.0917088,80.5907163 C32.0081418,71.8481794 29.6948238,57.2414778 29.6948238,57.2414778 L36.6227969,70.1111194 C36.6227969,70.1111194 38.9866782,80.8472748 37.7002605,96.9651117 C37.3010345,101.967095 37.0989847,105.671775 37.0695402,108.490693" id="Fill-20" fill="#EE393C"></path>
                    <path d="M42.2219322,126.94424 C38.3752693,126.961169 33.5532847,124.052969 32.2577291,122.541431 C30.9621736,121.029691 32.4859743,119.98814 31.7567674,110.544854 C31.6993,109.80158 31.6412234,109.042586 31.5831467,108.272911 L37.0695605,108.490774 C37.0043766,114.754992 37.7934877,116.643609 39.175346,118.661009 C41.1791927,121.58634 46.1477904,122.738938 45.9016755,124.953645 C45.6555605,127.168552 44.5425605,126.934163 42.2219322,126.94424" id="Fill-22" fill="#3D1149"></path>
                    <path d="M28.1432031,65.0880755 C28.1432031,65.0880755 28.6524904,93.0035709 28.5801992,105.427208 C28.5801992,105.427208 35.8164253,106.430466 41.0565211,104.795586 C41.0565211,104.795586 40.5175862,68.357634 36.6368084,64.1071878 C32.7562337,59.8569432 28.1432031,65.0880755 28.1432031,65.0880755" id="Fill-24" fill="#C1B8D7"></path>
                    <mask id="mask-13" fill="white">
                        <use xlink:href="#path-12"></use>
                    </mask>
                    <g id="Clip-27"></g>
                    <polygon id="Fill-26" fill="#47E5B6" mask="url(#mask-13)" points="47.8866169 20.2403062 49.2812682 20.2403062 49.2812682 8.81549385 47.8866169 8.81549385"></polygon>
                    <path d="M30.7542958,25.1787442 C30.7542958,25.1787442 33.5259318,25.2768934 35.1096368,28.0276918 C36.6935448,30.7784903 38.3763456,35.2975872 38.3763456,35.2975872 L32.3382038,39.8166842 L30.7542958,25.1787442 Z" id="Fill-28" fill="#1A5189" mask="url(#mask-13)"></path>
                    <path d="M5.82924866,45.9610074 L10.9438502,46.1865289 L10.6678847,65.0301735 C10.6678847,67.2410505 12.0298425,69.2274135 14.1029345,70.0365905 C19.2532755,72.0467351 29.1669153,74.8064012 36.6228579,70.1111597 C37.9178042,69.2957351 38.5265935,67.7376412 38.1547812,66.2609689 C36.8900916,61.2364135 34.0333713,48.9941612 34.3590877,42.1216997 C34.7761835,33.3265612 35.5059996,25.9796782 32.1696395,25.2555505 C28.8334824,24.5312212 15.5148464,24.8867351 15.5148464,24.8867351 C15.5148464,24.8867351 5.27122567,28.7736058 4.85412989,33.3265612 C4.54425249,36.7093843 4.32737893,42.3369428 4.2774249,44.7622566 C4.26747471,45.2558243 4.54750153,45.6828843 4.95708391,45.8914766 C5.22533295,46.0281197 5.53967778,46.0450489 5.82924866,45.9610074" id="Fill-29" fill="#1F62A7" mask="url(#mask-13)"></path>
                    <path d="M34.7713912,36.1554962 C34.7713912,36.1554962 36.9632762,38.4699638 38.50251,37.3590838 L38.50251,48.5144392 L37.6163337,48.7460069 L34.7713912,36.1554962 Z" id="Fill-30" fill="#FFFFFF" mask="url(#mask-13)"></path>
                    <path d="M5.60634406,45.7876238 C5.60634406,45.7876238 8.15278084,43.6589746 13.4769456,44.7023392 C14.1525433,44.8345485 14.6108613,45.4625423 14.5361333,46.1419285 C14.3009839,48.2796469 14.064413,52.5869269 16.0548575,52.1084746 C18.6906429,51.4750392 28.8428843,48.95601 34.114049,44.8869485 C39.3854169,40.8178869 39.8733824,39.6552115 40.2638766,41.5930038 C40.6543709,43.5305946 40.0868038,47.9972915 39.0129954,48.5609946 C37.939187,49.1246977 19.5120414,58.3823669 19.5120414,58.3823669 C19.5120414,58.3823669 11.5971716,62.6487346 8.86391494,57.5141392 C6.13045517,52.3791408 5.60634406,45.7876238 5.60634406,45.7876238" id="Fill-31" fill="#EE393C" mask="url(#mask-13)"></path>
                    <path d="M14.0728199,25.4172851 C14.0728199,25.4172851 18.2744406,24.824762 16.9833525,15.9526358 L25.9915249,17.1366743 C25.9915249,17.1366743 24.049613,25.432602 27.8725172,26.8042728 C28.5517701,27.0479328 28.9576973,27.7466666 28.7980881,28.445602 C28.2049349,31.0438358 25.5888467,35.3428528 14.0728199,25.4172851" id="Fill-32" fill="#EE393C" mask="url(#mask-13)"></path>
                    <path d="M31.3916563,13.4044843 C31.3916563,8.09011662 28.10789,3.78203046 24.0571467,3.78203046 C20.0066065,3.78203046 16.7228402,8.09011662 16.7228402,13.4044843 C16.7228402,18.718852 20.0066065,23.0269382 24.0571467,23.0269382 C28.10789,23.0269382 31.3916563,18.718852 31.3916563,13.4044843" id="Fill-33" fill="#EE393C" mask="url(#mask-13)"></path>
                    <path d="M20.0208008,13.2669142 C20.6153755,13.2076618 20.9979502,12.6258203 21.2544215,12.0905342 C21.6826858,11.1967111 22.0114483,10.2561311 22.2329923,9.29116492 C22.4234674,8.46082646 22.5830766,7.53052492 23.2633448,7.01136185 C23.8579195,6.55769877 24.6984061,6.56193108 25.4158352,6.77979415 C26.1332644,6.99725415 26.7779962,7.39831569 27.4676054,7.69155415 C27.8769847,7.86548185 28.3164176,8.00353569 28.7601149,7.96806492 C29.2040153,7.93259415 29.6531954,7.69236031 29.8300651,7.28666338 C30.0457203,6.79128185 29.8128046,6.223548 29.5526782,5.749328 C28.8372797,4.44476954 27.7971801,3.19926185 26.359682,2.78530185 C25.4507625,2.52350338 24.4805172,2.62205569 23.5415441,2.738948 C22.2478161,2.90017877 20.8856552,3.12328185 19.8851533,3.95301569 C19.1679272,4.54815877 18.7175287,5.39099262 18.2112874,6.171148 C17.7182452,6.93054492 17.1573793,7.648828 16.7313487,8.44692031 C16.2701877,9.31010954 15.5097088,11.1618449 16.726272,11.7025726 C17.2672375,11.9434111 17.7998774,11.9873465 18.3097739,12.3368142 C18.8277931,12.6917234 19.320023,13.336848 20.0208008,13.2669142" id="Fill-34" fill="#3D1149" mask="url(#mask-13)"></path>
                    <path d="M18.4918625,13.1444997 L26.5458318,12.0348289 C26.5458318,12.0348289 27.4090617,15.724192 29.1899429,15.2026105 C30.9708241,14.6810289 30.1788701,12.2528935 30.1788701,12.2528935 L30.8158854,12.1061735 C30.8158854,12.1061735 31.2214065,14.7946966 32.5890502,14.4214474 C33.9568969,14.0481982 33.8807475,12.2883643 33.2691153,10.1520566 L18.3582456,12.5729366 L18.4918625,13.1444997 Z" id="Fill-35" fill="#FFC905" mask="url(#mask-13)"></path>
                    <path d="M19.5914805,14.2970377 C19.5914805,12.7687715 18.5909785,11.5299146 17.3567487,11.5299146 C16.1225188,11.5299146 15.1218138,12.7687715 15.1218138,14.2970377 C15.1218138,15.8253038 16.1225188,17.0641608 17.3567487,17.0641608 C18.5909785,17.0641608 19.5914805,15.8253038 19.5914805,14.2970377" id="Fill-36" fill="#EE393C" mask="url(#mask-13)"></path>
                    <path d="M29.7691253,17.1490891 C30.2853169,16.9838275 30.878267,16.9955168 31.3416617,17.2758568 C31.5418839,17.3967798 31.7315467,17.570506 31.966087,17.5763506 C32.2450985,17.5832029 32.4832939,17.3205983 32.5021789,17.0440875 C32.521064,16.7675768 32.3582057,16.5013445 32.1350372,16.3348737 C31.9120716,16.1682014 31.6359031,16.0871829 31.3617651,16.0353875 C30.0857038,15.794146 27.9931176,16.1153983 27.4531674,17.5027891 C26.7335046,19.3517029 29.2900946,17.3026614 29.7691253,17.1490891" id="Fill-37" fill="#3D1149" mask="url(#mask-13)"></path>
                    <path d="M39.2703398,35.4572057 C39.2703398,34.0696134 38.1370333,32.9446257 36.7389299,32.9446257 C35.3408264,32.9446257 34.2073169,34.0696134 34.2073169,35.4572057 C34.2073169,36.844798 35.3408264,37.9697857 36.7389299,37.9697857 C38.1370333,37.9697857 39.2703398,36.844798 39.2703398,35.4572057" id="Fill-38" fill="#FFC905" mask="url(#mask-13)"></path>
                    <path d="M38.9385923,37.1509954 C38.9385923,36.7904431 38.6439448,36.4980108 38.2806613,36.4980108 C37.9171747,36.4980108 37.6225272,36.7904431 37.6225272,37.1509954 C37.6225272,37.5117492 37.9171747,37.8041815 38.2806613,37.8041815 C38.6439448,37.8041815 38.9385923,37.5117492 38.9385923,37.1509954" id="Fill-39" fill="#FFC905" mask="url(#mask-13)"></path>
                    <path d="M35.7549778,37.1509954 C35.7549778,36.7904431 35.4605333,36.4980108 35.0970467,36.4980108 C34.7335602,36.4980108 34.4389126,36.7904431 34.4389126,37.1509954 C34.4389126,37.5117492 34.7335602,37.8041815 35.0970467,37.8041815 C35.4605333,37.8041815 35.7549778,37.5117492 35.7549778,37.1509954" id="Fill-40" fill="#FFC905" mask="url(#mask-13)"></path>
                </g>
                <g id="Group-58" transform="translate(280.000000, 517.000000) scale(-1, 1) translate(-280.000000, -517.000000) translate(245.000000, 454.000000)">
                    <path d="M29.0312042,28.1596372 C29.0312042,28.1596372 25.7806851,30.0166429 27.9872595,34.3403317 C27.9872595,34.3403317 38.518263,52.8826543 47.1156678,56.385789 C47.1156678,56.385789 48.912173,57.3373639 50.0670519,56.385789 C51.2219308,55.433975 51.7351834,56.5070072 52.1200623,57.5427416 C52.5051834,58.5784759 53.9165675,58.1234892 53.9165675,56.385789 C53.9165675,54.6478497 53.2751834,53.4727264 48.912173,53.7328554 L34.9252526,32.1129769 C34.9252526,32.1129769 32.1024844,26.8721419 29.0312042,28.1596372" id="Fill-1" fill="#BF2F32"></path>
                    <path d="M47.2493218,59.4868474 C46.6604983,59.4868474 46.1109135,59.1212801 45.9098754,58.5407715 C45.6577301,57.8103541 46.0530242,57.016578 46.792263,56.7674471 L54.2473841,54.2567715 C54.9871073,54.0064452 55.7915017,54.3980732 56.0441315,55.1277734 C56.2960346,55.8577127 55.9009827,56.651967 55.1615017,56.9008588 L47.7066228,59.4117734 C47.5552388,59.4626994 47.4007059,59.4868474 47.2493218,59.4868474" id="Fill-3" fill="#000000"></path>
                    <path d="M61.5662353,114.166831 C60.8950588,114.166831 60.2989689,113.693195 60.1751972,113.017529 L49.9188651,57.6566676 C49.7803183,56.8973203 50.2911488,56.1709674 51.0604221,56.0337302 C51.8267889,55.8969712 52.5655433,56.4009712 52.7048166,57.1600793 L62.9609066,112.52118 C63.0994533,113.280527 62.5886228,114.007119 61.8195917,114.144117 C61.7345744,114.159419 61.6500415,114.166831 61.5662353,114.166831" id="Fill-5" fill="#000000"></path>
                    <path d="M47.1639412,117.214285 L17.8613114,117.214285 C17.0794429,117.214285 16.4460519,116.588828 16.4460519,115.817287 C16.4460519,115.045986 17.0794429,114.420289 17.8613114,114.420289 L47.1639412,114.420289 C49.1987855,114.420289 51.184218,113.599257 52.6118304,112.167113 L59.1259481,105.631371 C59.6733529,105.081227 60.5702734,105.074293 61.1268824,105.615113 C61.684218,106.156172 61.6917266,107.040562 61.1431107,107.590707 L54.6289931,114.126688 C52.6731107,116.089132 49.9520727,117.214285 47.1639412,117.214285" id="Fill-7" fill="#000000"></path>
                    <path d="M9.43595156,118.627805 C9.43595156,117.496195 8.50633218,116.578571 7.35968858,116.578571 C6.21304498,116.578571 5.28342561,117.496195 5.28342561,118.627805 C5.28342561,119.759653 6.21304498,120.677277 7.35968858,120.677277 C8.50633218,120.677277 9.43595156,119.759653 9.43595156,118.627805" id="Fill-9" fill="#FFCB00"></path>
                    <path d="M64.7912007,118.627805 C64.7912007,117.496195 63.8615813,116.578571 62.7149377,116.578571 C61.5682941,116.578571 60.6386747,117.496195 60.6386747,118.627805 C60.6386747,119.759653 61.5682941,120.677277 62.7149377,120.677277 C63.8615813,120.677277 64.7912007,119.759653 64.7912007,118.627805" id="Fill-11" fill="#FFCB00"></path>
                    <g id="Group-15" transform="translate(0.242215, 111.435643)">
                        <mask id="mask-15" fill="white">
                            <use xlink:href="#path-14"></use>
                        </mask>
                        <g id="Clip-14"></g>
                        <path d="M7.11740138,3.03425693 C4.76695156,3.03425693 2.85466782,4.88552448 2.85466782,7.16141442 C2.85466782,9.43682619 4.76695156,11.2880937 7.11740138,11.2880937 C9.46785121,11.2880937 11.3803772,9.43682619 11.3803772,7.16141442 C11.3803772,4.88552448 9.46785121,3.03425693 7.11740138,3.03425693 M7.11740138,14.106477 C3.19304152,14.106477 -7.26643599e-05,10.9906668 -7.26643599e-05,7.16141442 C-7.26643599e-05,3.33168387 3.19304152,0.216112713 7.11740138,0.216112713 C11.0420035,0.216112713 14.2351176,3.33168387 14.2351176,7.16141442 C14.2351176,10.9906668 11.0420035,14.106477 7.11740138,14.106477" id="Fill-13" fill="#000000" mask="url(#mask-15)"></path>
                    </g>
                    <g id="Group-18" transform="translate(55.467128, 111.435643)">
                        <mask id="mask-17" fill="white">
                            <use xlink:href="#path-16"></use>
                        </mask>
                        <g id="Clip-17"></g>
                        <path d="M7.24773702,3.03425693 C4.8972872,3.03425693 2.98500346,4.88552448 2.98500346,7.16141442 C2.98500346,9.43682619 4.8972872,11.2880937 7.24773702,11.2880937 C9.59842907,11.2880937 11.5107128,9.43682619 11.5107128,7.16141442 C11.5107128,4.88552448 9.59842907,3.03425693 7.24773702,3.03425693 M7.24773702,14.106477 C3.32313495,14.106477 0.130262976,10.9906668 0.130262976,7.16141442 C0.130262976,3.33168387 3.32313495,0.216112713 7.24773702,0.216112713 C11.1725813,0.216112713 14.3656955,3.33168387 14.3656955,7.16141442 C14.3656955,10.9906668 11.1725813,14.106477 7.24773702,14.106477" id="Fill-16" fill="#000000" mask="url(#mask-17)"></path>
                    </g>
                    <path d="M17.6897024,117.20728 C17.0628512,117.20728 16.4883183,116.796764 16.3141661,116.171307 C15.1919862,112.144328 11.4035087,109.331921 7.10008304,109.331921 C6.31191696,109.331921 5.67295502,108.700965 5.67295502,107.92273 C5.67295502,107.144494 6.31191696,106.513538 7.10008304,106.513538 C12.6845813,106.513538 17.6051696,110.178058 19.066692,115.424392 C19.2757232,116.174654 18.8288374,116.950259 18.0687682,117.156354 C17.9423322,117.190783 17.8149273,117.20728 17.6897024,117.20728" id="Fill-19" fill="#000000"></path>
                    <path d="M33.0738616,8.47073852 L31.3972526,8.47073852 C30.2084637,8.47073852 29.2357301,9.43092068 29.2357301,10.6043704 L29.2357301,26.0538353 C29.2357301,27.227285 30.2084637,28.1874672 31.3972526,28.1874672 L33.0738616,28.1874672 C34.2626505,28.1874672 35.2353841,27.227285 35.2353841,26.0538353 L35.2353841,10.6043704 C35.2353841,9.43092068 34.2626505,8.47073852 33.0738616,8.47073852" id="Fill-21" fill="#EF393C"></path>
                    <path d="M37.0443875,5.31576546 L33.6332803,5.31576546 C31.2147682,5.31576546 29.2358754,7.2691241 29.2358754,9.65666869 L29.2358754,17.3123044 C29.2358754,19.699849 31.2147682,21.6532076 33.6332803,21.6532076 L37.0443875,21.6532076 C39.4631419,21.6532076 41.4420346,19.699849 41.4420346,17.3123044 L41.4420346,9.65666869 C41.4420346,7.2691241 39.4631419,5.31576546 37.0443875,5.31576546" id="Fill-23" fill="#EF393C"></path>
                    <polygon id="Fill-25" fill="#EF393C" points="21.4537163 105.214065 20.9968997 111.823207 26.5913287 111.65441 27.8246851 105.214065"></polygon>
                    <polygon id="Fill-27" fill="#BC5982" points="37.0888581 56.8339856 24.7925952 56.8789343 21.4536678 105.21416 27.8246367 105.21416"></polygon>
                    <path d="M26.5747612,111.740458 L26.5912318,111.654625 L20.997045,111.823183 L20.6942768,116.206644 L36.1977024,116.206644 C36.694,113.287126 26.5747612,111.740458 26.5747612,111.740458" id="Fill-29" fill="#320E3C"></path>
                    <polygon id="Fill-31" fill="#EF393C" points="41.1875882 56.8790539 37.0830208 105.214041 30.7093875 105.214041 31.479872 111.507346 36.5615329 111.354568 36.5581419 111.396648"></polygon>
                    <g id="Group-35" transform="translate(0.000000, 125.302816)">
                        <mask id="mask-19" fill="white">
                            <use xlink:href="#path-18"></use>
                        </mask>
                        <g id="Clip-34"></g>
                        <path d="" id="Fill-33" fill="#EF393C" mask="url(#mask-19)"></path>
                    </g>
                    <path d="M36.5504879,111.740458 L36.5667163,111.354568 L31.4797266,111.507346 L31.2370277,116.206644 L46.7409377,116.206644 C47.2372353,113.287126 36.5504879,111.740458 36.5504879,111.740458" id="Fill-36" fill="#3D1149"></path>
                    <polygon id="Fill-38" fill="#E56C9E" points="37.0829481 105.214065 41.1875156 56.8790778 24.7927405 56.8790778 30.7095571 105.214065"></polygon>
                    <path d="M23.601481,64.2518231 L40.9234533,64.2518231 C42.5099585,64.2518231 43.7573633,62.9122065 43.6219654,61.3516713 C43.0375017,54.6069655 41.4432457,37.8829161 39.4406159,30.5321192 C36.9244913,21.2968213 30.6504083,22.3244266 29.4398201,22.6161154 C29.3036955,22.6488706 29.1666021,22.6677586 29.0268443,22.6778004 C28.0943183,22.7449844 24.3426574,23.4235195 23.9890242,29.9738459 L20.9056332,61.3201116 C20.7511003,62.8914057 22.0021384,64.2518231 23.601481,64.2518231" id="Fill-40" fill="#1F62A8"></path>
                    <path d="M27.871699,22.5711666 C31.3813875,23.2434854 30.8332561,14.8901875 34.2988616,12.3969655 C35.1158512,11.8092843 36.0844671,11.4169389 37.0991038,11.2519674 C37.9015606,11.1211856 38.7447093,11.0862786 39.4667509,10.7293184 C41.0333945,9.95490854 41.4194844,7.84566376 40.6327716,6.36187628 C39.8460588,4.8780888 38.2130484,3.95281366 36.549519,3.40410398 C35.3517682,3.00865047 34.0866817,2.76573586 32.8152976,2.79179658 C28.78291,2.87476053 25.2051592,5.75267704 23.635609,9.2572463 C22.0655744,12.7618156 18.5309377,15.7179142 19.4285848,19.4147112 C20.1409377,22.3490528 24.1895536,21.8658535 27.871699,22.5711666" id="Fill-42" fill="#3D1149"></path>
                    <path d="M32.4087163,12.9967446 C31.3296505,12.8965662 30.3726609,13.6786269 30.271173,14.7437693 C30.1694429,15.8089116 30.9617266,16.7535529 32.0407924,16.8537313 C33.1198581,16.9539097 34.0768478,16.171849 34.1785779,15.1067066 C34.2800657,14.0418034 33.4875398,13.096923 32.4087163,12.9967446" id="Fill-44" fill="#EF393C"></path>
                    <path d="M17.0285779,29.414162 C16.9060173,30.4754789 18.8120035,30.8470235 18.8202388,31.915274 C18.8267785,32.7229173 17.8041488,33.043775 17.094218,33.4452057 C16.1476436,33.9810046 15.5401696,35.0540368 15.5743218,36.1306554 C15.6263979,37.7715245 17.0125917,39.1362455 17.1249792,40.7744846 C17.200308,41.8685567 16.6931107,42.9341772 16.7224187,44.0304011 C16.7669862,45.6782038 18.0882664,47.1244543 19.6725917,47.6456687 C21.2571592,48.166644 23.0255675,47.8794979 24.5425571,47.1911602 C25.5998235,46.7115472 26.6156713,45.9851943 27.0601349,44.9238774 C27.6089931,43.6148641 27.1771246,42.1270121 26.7343564,40.7792664 C25.7836644,37.8870046 24.7307578,34.86946 22.7196505,32.5074979 C22.1947716,31.8908869 17.3594429,26.5467655 17.0285779,29.414162" id="Fill-46" fill="#FFCB00"></path>
                    <path d="M24.792692,42.3599806 C24.792692,42.3599806 30.818263,44.4665954 34.9252526,34.4975328" id="Stroke-48" stroke="#000000" stroke-width="0.719999986" stroke-linecap="round" stroke-linejoin="round"></path>
                    <path d="M22.7196747,32.5075935 C22.7196747,32.5075935 30.4603668,19.7737036 34.9253495,32.1130964" id="Stroke-50" stroke="#000000" stroke-width="0.719999986" stroke-linecap="round" stroke-linejoin="round"></path>
                    <path d="M30.7120277,27.4960691 C30.7120277,27.4960691 27.4615087,29.3530748 29.6678408,33.6767636 C29.6678408,33.6767636 40.1990865,52.2190861 48.7964913,55.7219818 C48.7964913,55.7219818 50.5929965,56.6737958 51.7478754,55.7219818 C52.9027543,54.7701677 53.4157647,55.8434391 53.8008858,56.8791734 C54.1857647,57.9149078 55.597391,57.459682 55.597391,55.7219818 C55.597391,53.9840425 54.9557647,52.8091583 50.5929965,53.0690482 L36.6060761,31.4491696 C36.6060761,31.4491696 33.7830657,26.2085738 30.7120277,27.4960691" id="Fill-52" fill="#EF393C"></path>
                    <path d="M40.4112664,9.8985074 L35.249917,10.7011298 C34.1471142,10.8725567 33.3926159,11.8879685 33.5653149,12.9693689 L33.6701938,13.626386 C33.7850035,14.3446099 33.2838616,15.0190805 32.5514048,15.1328869 C31.6762837,15.2689287 30.837737,15.5768755 30.0856609,16.0383176 L26.2763529,18.3758926 C25.5063529,18.8483328 24.4926851,18.6202417 24.0126159,17.8661545 C23.9571488,17.7793651 23.9108858,17.6877939 23.8733426,17.5921583 C20.0531349,7.86385844 21.7137578,2.16277685 28.8549689,0.489391651 C35.8523045,-1.15004288 40.1525813,1.33026831 41.7557993,7.93056433 C41.9660415,8.79582808 41.4205744,9.66587362 40.5377024,9.87364213 C40.4960415,9.88368387 40.453654,9.89205199 40.4112664,9.8985074" id="Fill-54" fill="#FFCB00"></path>
                    <path d="M36.3473183,22.3168953 C31.1753114,22.3023108 29.4633391,14.1479351 29.4633391,14.1479351" id="Stroke-56" stroke="#000000" stroke-width="0.719999986" stroke-linecap="round" stroke-linejoin="round"></path>
                </g>
                <g id="Group-69" transform="translate(320.000000, 436.000000)">
                    <path d="M25.5550392,55.5189332 C25.7652596,55.5881188 35.0895616,50.2353663 35.0895616,50.2353663 C35.0895616,50.2353663 35.9310473,70.5349134 34.6691208,79.015995 C34.6691208,79.015995 38.8756433,97.0213342 38.6651208,100.636658 L34.4589004,101.540265 L26.1860024,80.2676262 L25.5550392,55.5189332 Z" id="Fill-1" fill="#1A518A"></path>
                    <path d="M35.0896824,50.2354562 C35.0896824,50.2354562 25.7653804,55.5882087 25.55516,55.519023 L25.8348498,66.5024686 C27.5477233,66.7261988 31.9496661,67.3994859 35.337658,67.85683 C35.4654212,59.3080601 35.0896824,50.2354562 35.0896824,50.2354562" id="Fill-3" fill="#1A518A"></path>
                    <path d="M34.43664,105.546203 C35.6744033,108.147104 39.5033747,111.267347 43.3870155,110.33409 C45.1729829,109.904899 41.1268441,104.55604 40.1409829,102.744934 C39.4849502,101.540924 38.2988359,97.5368421 38.2988359,97.5368421 C38.2988359,97.5368421 37.8065094,98.3703644 36.1057176,98.9220525 C34.6133339,99.2805599 33.5090727,98.9022851 33.5090727,98.9022851 C33.5090727,98.9022851 33.7120441,104.023221 34.43664,105.546203" id="Fill-5" fill="#3D1149"></path>
                    <g id="Group-9" transform="translate(41.379592, 70.763136)">
                        <mask id="mask-21" fill="white">
                            <use xlink:href="#path-20"></use>
                        </mask>
                        <g id="Clip-8"></g>
                        <path d="M13.9058082,2.4169151 C13.4693592,2.4169151 13.0347224,2.45195718 12.6034082,2.52293985 C9.15440408,3.09140025 6.24786531,5.89955866 4.41961224,10.4298705 C2.51101633,15.1578557 2.02473061,21.1305834 3.05015918,27.247972 C4.07528571,33.3650611 6.48345714,38.860977 9.83127755,42.7227938 C12.6378408,45.9604423 15.7959796,47.6858903 18.8520286,47.6858903 C19.2887796,47.6858903 19.7231143,47.6508483 20.1541265,47.5798656 C23.6034327,47.0117047 26.5096694,44.2035463 28.3382245,39.6732344 C30.2468204,34.9449498 30.7331061,28.9725215 29.7076776,22.8551329 C28.682551,16.7377443 26.2743796,11.242128 22.9265592,7.38001163 C20.1196939,4.14236312 16.9618571,2.4169151 13.9058082,2.4169151 M18.8447796,50.0175364 C17.197751,50.0175364 15.5380367,49.6269819 13.8910082,48.8494671 C11.8171959,47.8712839 9.85181633,46.3207468 8.04923673,44.2415834 C4.42535102,40.0610933 1.82689388,34.1614448 0.732297959,27.6298408 C-0.362297959,21.0979374 0.172314286,14.6822418 2.23797143,9.56400173 C3.26521224,7.01850916 4.61926122,4.92107599 6.26266531,3.3304052 C8.01722041,1.63161312 10.0209592,0.586939851 12.2183061,0.224838366 C14.415351,-0.137562624 16.6525673,0.208665099 18.8668286,1.25333837 C20.9406408,2.23182104 22.9060204,3.78235817 24.7086,5.86152153 C28.3324857,10.0420116 30.9309429,15.9413606 32.0255388,22.4732641 C33.1201347,29.0048681 32.5855224,35.4205636 30.5198653,40.5388037 C29.4923224,43.0842963 28.1385755,45.1817295 26.4951714,46.7726998 C24.7406163,48.4714918 22.7368776,49.5161651 20.5395306,49.8782666 C19.9771306,49.9708136 19.4114082,50.0175364 18.8447796,50.0175364" id="Fill-7" fill="#000000" mask="url(#mask-21)"></path>
                    </g>
                    <path d="M57.0489861,89.7750814 C56.9484065,89.7750814 56.8490351,89.7828686 56.7505698,89.7993413 C54.9199004,90.1009428 53.8352718,93.1103686 54.3816637,96.3707795 C54.6622596,98.0441136 55.3158759,99.5413389 56.2219984,100.58721 C57.0350922,101.52496 57.9391004,101.966131 58.7666922,101.829856 C60.5970596,101.528255 61.6816882,98.518829 61.1352963,95.2584181 C60.8550024,93.5850839 60.2013861,92.0878587 59.2952637,91.0419874 C58.5785208,90.2159527 57.7920065,89.7750814 57.0489861,89.7750814 M58.4595167,103.408547 C57.2561861,103.408547 56.0579902,102.780784 55.0340718,101.599537 C53.9437045,100.341616 53.163231,98.5754354 52.8364229,96.6256582 C52.126929,92.3933537 53.7334841,88.7217225 56.4935331,88.267074 C57.8823167,88.0379527 59.2991902,88.6642176 60.4828882,90.0296606 C61.5732555,91.2875814 62.353729,93.0537621 62.6808392,95.0035394 C63.389729,99.2358438 61.7834759,102.907475 59.0234269,103.362124 C58.8358596,103.393272 58.6476882,103.408547 58.4595167,103.408547" id="Fill-10" fill="#000000"></path>
                    <path d="M11.5726637,83.4109007 C11.6732433,83.4109007 11.7726147,83.4186879 11.87108,83.4351606 C13.7017494,83.7367621 14.78668,86.7461879 14.2399861,90.0065988 C13.9593902,91.6799329 13.3060759,93.1771582 12.3996514,94.2230295 C11.5868596,95.1607795 10.6825494,95.6016507 9.85495755,95.4656755 C8.0245902,95.164074 6.93996163,92.1546483 7.48635347,88.8942374 C7.76664735,87.2209032 8.42026367,85.723678 9.32668816,84.6778067 C10.043129,83.851772 10.8296433,83.4109007 11.5726637,83.4109007 M10.1621331,97.0443661 C11.3654637,97.0443661 12.5636596,96.4166037 13.587578,95.2353562 C14.6779453,93.9774354 15.4584188,92.2109552 15.7852269,90.2614775 C16.4947208,86.029173 14.8881657,82.3575418 12.1281167,81.9028933 C10.7393331,81.673772 9.32276163,82.2997374 8.13876163,83.66548 C7.04839429,84.9234007 6.26792082,86.6895814 5.94111265,88.6393587 C5.23192082,92.8716631 6.83817388,96.5432943 9.59822286,96.9979428 C9.7857902,97.0290913 9.97396163,97.0443661 10.1621331,97.0443661" id="Fill-12" fill="#000000"></path>
                    <g id="Group-16" transform="translate(0.000000, 69.265611)">
                        <mask id="mask-23" fill="white">
                            <use xlink:href="#path-22"></use>
                        </mask>
                        <g id="Clip-15"></g>
                        <path d="M1.24724735,19.4103168 L2.41946776,19.4887871 C2.08994122,24.3467574 2.92840653,28.9738094 4.78052082,32.516953 C6.53386776,35.8711089 8.97254531,37.8166931 11.6480229,37.995198 C14.3228963,38.173104 17.0029045,36.5695545 19.1936065,33.4783639 C21.5075412,30.2128614 22.963378,25.7391559 23.2929045,20.8808861 C23.622431,16.0226163 22.7842678,11.3958639 20.9321535,7.8527203 C19.1788065,4.49856436 16.7398269,2.5529802 14.0646514,2.37447525 C11.3888718,2.1959703 8.70946776,3.80011881 6.51876571,6.89130941 C4.20483102,10.1568119 2.74929633,14.6305173 2.41946776,19.4887871 L1.24724735,19.4103168 Z M12.0603086,40.3388243 C11.8703249,40.3388243 11.6806433,40.3322351 11.4903576,40.3196559 C7.96372898,40.0845446 4.8403249,37.6941955 2.6943249,33.5888812 C0.647394286,29.672854 -0.282891429,24.6094233 0.0750269388,19.332146 C0.433247347,14.0548688 2.03889633,9.16065842 4.59627592,5.55192327 C7.27749224,1.76857673 10.6959902,-0.185992574 14.2223167,0.0497178218 C17.7486433,0.285128713 20.8726514,2.67547772 23.0180473,6.78049257 C25.06528,10.6968193 25.9955657,15.7599505 25.6373453,21.0375272 C25.2791249,26.3148045 23.673778,31.2090149 21.1160963,34.81775 C18.5801616,38.3968342 15.3833616,40.3388243 12.0603086,40.3388243 Z" id="Fill-14" fill="#000000" mask="url(#mask-23)"></path>
                    </g>
                    <path d="M10.8632906,87.8043389 C16.9983437,90.3333587 24.9692008,91.3408933 28.3161151,91.6706483 L21.959062,64.8113438 L10.8632906,87.8043389 Z M29.8308498,94.134975 C29.8060824,94.134975 29.7813151,94.1340765 29.7565478,94.132579 C29.2457967,94.1002324 17.1593314,93.3035493 8.78434367,89.4429304 C8.50012327,89.3117473 8.27993551,89.0730418 8.17422122,88.780126 C8.06790286,88.4872101 8.0845151,88.1643438 8.22013143,87.8837077 L21.2803763,60.8198413 C21.4957314,60.374178 21.9708416,60.1109131 22.4667927,60.164824 C22.9624416,60.2178364 23.3701967,60.5754453 23.4840661,61.0564502 L30.9743763,92.7036408 C31.0592498,93.0627473 30.9680335,93.4401235 30.727911,93.7219577 C30.5037967,93.9846235 30.1751763,94.134975 29.8308498,94.134975 Z" id="Fill-17" fill="#FFC600"></path>
                    <path d="M56.044942,97.6868342 C55.7646482,97.6868342 55.4834482,97.587698 55.2587298,97.3864307 C55.1660033,97.3034678 52.9623135,95.3090644 50.7664767,91.5742376 C48.7509584,88.1452054 46.3536604,82.520802 46.3832604,75.2012005 C46.3832604,75.1871238 46.3835624,75.1733465 46.3841665,75.1592698 C46.3859788,75.111349 46.4346073,73.9720322 46.7106727,72.6410322 C47.1108767,70.7098243 47.785938,69.3458787 48.7171298,68.5875322 C49.4242073,68.0115842 50.2756604,67.7812649 51.1808767,67.9220322 C52.7095053,68.1598391 53.7349339,69.2233812 54.2278645,71.0827079 C54.6020931,72.4939752 54.682738,74.2850149 54.7763706,76.3587871 C55.0022971,81.3763936 55.2834971,87.6210718 59.8050482,92.2403366 C60.2569012,92.7018738 60.2460278,93.4395545 59.7802808,93.8876139 C59.3148359,94.3359728 58.5709094,94.3248911 58.1190563,93.8630545 C52.9759053,88.6085396 52.6596686,81.5887426 52.4286073,76.4630149 C52.3413176,74.5222228 52.2658073,72.8461931 51.9556114,71.6751287 C51.6031298,70.3462252 51.0917747,70.2668564 50.8166155,70.2243267 C50.5746808,70.1862896 50.398289,70.2336114 50.2095135,70.3875569 C49.3045992,71.1231411 48.8026073,73.655755 48.7328359,75.232948 C48.7107869,81.9754035 50.9042073,87.1583366 52.7496767,90.3199109 C54.7633829,93.7708069 56.8151461,95.6406163 56.8353829,95.6588861 C57.3150237,96.0916708 57.3512686,96.827854 56.9160278,97.3040668 C56.6840604,97.5577475 56.3654073,97.6868342 56.044942,97.6868342" id="Fill-19" fill="#FFC600"></path>
                    <path d="M48.7174922,70.8050968 C48.1399902,70.8050968 47.6364882,70.3827948 47.5552392,69.7996587 L45.6934596,56.4453319 C45.6046596,55.8079854 46.0537943,55.2197577 46.6965371,55.1317032 C47.339582,55.0433493 47.9321861,55.4887131 48.0209861,56.1260597 L49.8827657,69.4803864 C49.9715657,70.1177329 49.5227331,70.7059606 48.8799902,70.7940151 C48.8253208,70.8015027 48.7712555,70.8050968 48.7174922,70.8050968" id="Fill-21" fill="#FFC600"></path>
                    <path d="M30.6805812,93.1769785 C30.3948506,93.1769785 30.2118139,93.148825 30.1486873,93.1371443 L30.5766792,90.8462309 C30.5766792,90.8462309 30.5664098,90.8435354 30.5461731,90.8411394 C30.5670139,90.8441344 32.6637812,91.0723572 35.6512669,88.03957 C38.9483445,84.6917037 41.6053976,79.2002804 43.6477976,73.5872582 C39.8085567,79.083773 36.1164098,82.29207 32.669218,83.1264908 C30.4316996,83.6679958 28.3367445,83.2172408 26.4435527,81.7868052 C25.9273649,81.3968498 25.8276914,80.6660577 26.2206465,80.1542037 C26.6142057,79.6423498 27.3514873,79.5435131 27.8676751,79.9331691 C29.1872914,80.930221 30.575169,81.2345181 32.1107445,80.8634314 C35.0269486,80.1580973 38.4520914,77.0330626 42.0161731,71.8261691 C44.7928343,67.7705725 46.65552,63.8809017 46.6736424,63.8419661 C46.9330955,63.2977656 47.5673812,63.0389933 48.1373322,63.2444537 C48.7075853,63.4496146 49.0262384,64.0516196 48.8728016,64.6335577 C47.08472,71.4215379 45.042622,77.1262087 42.8035935,81.5900304 C40.9813812,85.222726 39.0150955,88.0641295 36.9594057,90.0351715 C35.4208098,91.5105329 33.8583527,92.4836245 32.31432,92.9268918 C31.6156996,93.1278597 31.0581322,93.1769785 30.6805812,93.1769785" id="Fill-23" fill="#FFC600"></path>
                    <path d="M26.6732245,94.6745032 C26.4778041,91.6246443 27.8318531,89.0566889 29.6981633,88.9389834 C31.5641714,88.821278 33.2359673,91.1984488 33.4316898,94.2483077 C33.6271102,97.2984661 32.2730612,99.866122 30.406751,99.984127 C28.5407429,100.101832 26.8689469,97.7246616 26.6732245,94.6745032" id="Fill-25" fill="#000000"></path>
                    <path d="M58.4886939,57.6028886 L58.2473633,60.7039629 L69.3035673,58.9842054 L69.4497551,56.2706906 L58.4886939,57.6028886 Z M58.1235265,62.2952327 L57.6910041,67.8510495 L68.8181878,65.790755 L69.2096327,60.5712822 L58.1235265,62.2952327 Z M46.9021061,67.3978985 L56.0971347,68.1454629 L56.5381143,62.4803267 L45.4517061,61.8336955 L46.9021061,67.3978985 Z M56.1412327,69.7046856 C56.1197878,69.7046856 56.0983429,69.7040866 56.0772,69.7022896 L46.2188898,68.9011139 C45.8863429,68.8741584 45.6078612,68.6411436 45.524498,68.3212723 L43.6660408,61.1900594 C43.6035184,60.9498564 43.660302,60.6940792 43.8194776,60.502396 C43.9786531,60.3107129 44.2202857,60.2058861 44.4703755,60.2202624 L56.6586286,60.9312871 L56.9760735,56.8493342 C57.0050694,56.4809431 57.2917061,56.1835347 57.6620082,56.1383094 L70.1864327,54.6159257 C70.4159837,54.5883713 70.6470449,54.6626485 70.8161878,54.8192896 C70.9856327,54.9759307 71.0765469,55.1990619 71.0641633,55.4281832 L70.8032,60.2693812 C70.802898,60.2750718 70.8025959,60.2801634 70.8019918,60.285854 L70.3359429,66.5020792 C70.3093633,66.8533985 70.0477959,67.1433193 69.6983347,67.2077129 L56.284702,69.6915074 C56.2372816,69.7004926 56.1892571,69.7046856 56.1412327,69.7046856 Z" id="Fill-27" fill="#000000"></path>
                    <path d="M51.0739543,69.0276547 C50.6788849,69.0276547 50.339391,68.7323428 50.2961992,68.3340012 L49.5601257,61.5499146 C49.5139135,61.1234196 49.8250155,60.7406522 50.2551216,60.694828 C50.6852278,60.6493032 51.0712359,60.9574938 51.1177502,61.3839889 L51.8535216,68.167776 C51.8997339,68.5945705 51.5886318,68.9773379 51.1585257,69.0228626 C51.1304359,69.0261572 51.1020441,69.0276547 51.0739543,69.0276547" id="Fill-29" fill="#000000"></path>
                    <path d="M60.3852988,68.5982844 C60.3605314,68.5982844 60.335462,68.5970864 60.3100906,68.5946903 C59.8793804,68.5542572 59.5634457,68.1750839 59.6045233,67.7479899 L60.6870376,56.4560542 C60.7281151,56.0289601 61.1089886,55.7147795 61.5409069,55.7561111 C61.9716171,55.7968438 62.2875518,56.1757176 62.2464743,56.6028116 L61.16396,67.8950468 C61.1252988,68.2969824 60.7842947,68.5982844 60.3852988,68.5982844" id="Fill-31" fill="#000000"></path>
                    <path d="M65.4079053,67.6620319 C65.383138,67.6620319 65.3580686,67.6605344 65.3329992,67.6581384 C64.902289,67.6180047 64.5863543,67.2388314 64.6271298,66.8117374 L65.6670563,55.9630691 C65.7081339,55.5362745 66.0893094,55.2226928 66.5212278,55.263725 C66.9516359,55.3041582 67.2675706,55.6833314 67.2264931,56.1104255 L66.1865665,66.9584948 C66.1482073,67.36073 65.8069012,67.6620319 65.4079053,67.6620319" id="Fill-33" fill="#000000"></path>
                    <path d="M44.4234384,61.7725666 C44.0498139,61.7725666 43.7187771,61.5063067 43.6526302,61.1289304 C43.5786302,60.7060295 43.8637567,60.3040938 44.2902384,60.2307151 L57.1722792,58.0098859 C57.222418,58.0012002 57.2737649,57.9976062 57.3236016,57.9985047 L69.8078547,58.2686582 C70.2403771,58.2779428 70.5831935,58.6334552 70.5738302,59.0620468 C70.5644669,59.4849478 70.2156098,59.8215913 69.7909404,59.8215913 L69.7737241,59.8215913 L57.3655853,59.5532349 L44.5584506,61.7608859 C44.5131445,61.768673 44.4678384,61.7725666 44.4234384,61.7725666" id="Fill-35" fill="#000000"></path>
                    <path d="M32.5583086,0.624707426 C30.3364963,-0.320230693 27.6235657,-0.257334653 25.7080229,1.25666287 C23.4771494,3.02014802 22.7504392,6.27876188 20.64008,8.19918762 C19.7100963,9.04558861 18.553582,9.5891901 17.6538024,10.4712322 C16.7093208,11.3973015 16.0910433,12.6827767 15.9415331,14.031148 C15.8394433,14.9524252 15.9478759,15.9003584 15.7379576,16.8015688 C15.4537371,18.021153 14.6113453,19.0238955 13.6493453,19.7687644 C12.6876473,20.5133337 11.5945616,21.044955 10.5582596,21.6703213 C8.5403249,22.8875094 6.72505959,24.4742866 5.21757388,26.3372074 C4.24077388,27.5451109 3.37301061,28.9162446 3.08969633,30.4733708 C2.78614531,32.1413139 3.18453714,33.8778436 3.86684735,35.417299 C4.45371265,36.7414104 5.31936163,38.0229921 6.59790041,38.5962446 C7.59825959,39.044903 8.72970449,39.0074649 9.8131249,38.9056332 C11.4432392,38.7528856 13.1425208,38.4363089 14.4249861,37.3682743 C15.4706514,36.4973139 16.1294024,35.2160317 17.0759984,34.2273658 C18.6444963,32.5899723 20.8937943,31.8720589 23.0926514,31.6297594 C25.2912065,31.3871604 27.5136229,31.5605738 29.720031,31.4102223 C31.2870188,31.3035985 33.0877861,30.8522446 33.75288,29.3571158 C34.0739494,28.6353089 34.0588473,27.7978931 34.3071249,27.0455366 C34.6287984,26.06945 35.3639657,25.312601 35.8423984,24.4101926 C36.2284065,23.6817965 36.4422514,22.8692396 36.6446188,22.0626728 C37.2239331,19.7558856 37.7380065,17.4308287 38.1868392,15.0919946 C38.7561861,12.1227025 39.2911004,8.68378663 38.1215984,5.78787327 C37.2027902,3.51313317 34.6810514,1.52831386 32.5583086,0.624707426" id="Fill-37" fill="#3D1149"></path>
                    <path d="M23.843978,83.8054686 C23.843978,83.8054686 21.7692596,74.7059092 21.5590392,65.1819512 C21.5590392,65.1819512 5.36391265,59.4814735 11.323178,50.7913374 L25.8356351,53.7809958 C25.8356351,53.7809958 29.2707453,55.0323275 29.6911861,60.176325 C30.111929,65.3209215 27.7985984,84.3691369 27.7985984,84.3691369 L23.843978,83.8054686 Z" id="Fill-39" fill="#1F62A8"></path>
                    <path d="M22.8759069,89.0962235 C23.416862,91.9127681 26.1735886,95.839877 29.86936,95.839877 C31.5689437,95.839877 29.107009,89.6964314 28.618609,87.7059215 C28.2936131,86.3824092 28.1066498,82.2138993 28.1066498,82.2138993 C28.1066498,82.2138993 27.4811233,82.9093498 25.8313763,83.04832 C24.4108784,83.04832 23.5011314,82.4226542 23.5011314,82.4226542 C23.5011314,82.4226542 22.5587641,87.4468498 22.8759069,89.0962235" id="Fill-41" fill="#3D1149"></path>
                    <path d="M11.3231478,50.7914871 C7.73399673,56.0256356 12.1818498,60.1749772 16.2871886,62.6476901 C17.193009,59.8512124 19.3226988,54.9018931 23.3905845,53.2773782 L11.3231478,50.7914871 Z" id="Fill-43" fill="#1F62A8"></path>
                    <path d="M11.4605763,51.0696374 C11.4605763,51.0696374 29.3876049,61.9838973 35.0765437,53.5723007 C35.0765437,53.5723007 40.4350498,40.0164072 39.7732784,35.7059319 C39.111809,31.3957562 37.5242824,30.8395755 37.5242824,30.8395755 C37.5242824,30.8395755 38.9133682,25.5563082 40.6996376,23.8877661 C40.6996376,23.8877661 38.5019886,19.2900656 34.2166335,19.43862 C29.9309763,19.587474 20.1925763,19.3691349 20.1925763,19.3691349 C20.1925763,19.3691349 12.7173682,19.7165606 14.2387478,28.4758824 L16.0099151,35.9635062 C16.6997763,38.8797859 16.3068212,41.9625903 14.9110906,44.5853552 L11.4605763,51.0696374 Z" id="Fill-45" fill="#FFCA00"></path>
                    <path d="M36.2621445,12.0869116 C36.6372792,7.65274084 34.4106343,3.82177302 31.2890424,3.5303547 C28.1674506,3.23893639 25.3327976,6.59698589 24.9579649,11.0311567 C24.5831322,15.465028 26.8094751,19.2956963 29.9310669,19.5874141 C33.0526588,19.8791319 35.8873118,16.5210824 36.2621445,12.0869116" id="Fill-47" fill="#EA393C"></path>
                    <path d="M26.4994906,11.8315537 C26.5873845,10.7922715 26.065458,9.8946552 25.3342171,9.82636807 C24.6026743,9.75808094 23.9384865,10.5448804 23.8502906,11.5841626 C23.7623967,12.6234448 24.2843233,13.5213606 25.0158661,13.5893483 C25.747409,13.6579349 26.4115967,12.8708359 26.4994906,11.8315537" id="Fill-49" fill="#EA393C"></path>
                    <path d="M27.1454653,14.9509277 C27.1454653,14.9509277 27.4565673,19.3114203 26.4084857,21.0515441 C25.855449,21.9695267 25.7877918,23.1163312 26.2943143,24.0633658 C26.8370816,25.0780886 27.5903714,26.3255267 28.5668694,27.5891381 C29.9568612,29.3876653 32.6942571,28.0410911 32.2656612,25.7684475 C32.1267224,25.0301678 31.9355306,24.2086257 31.6784939,23.2981307 C31.5193184,22.7344624 31.2559388,22.2109277 30.9116122,21.7475936 C30.3389429,20.9778658 29.5225265,19.0640292 30.5899388,14.9509277 L27.1454653,14.9509277 Z" id="Fill-51" fill="#EA393C"></path>
                    <path d="M48.2889265,56.832472 C45.1854571,56.832472 43.2375959,56.3877072 41.9732531,55.3900562 C40.7206898,54.4016899 40.3996204,53.0913557 40.0888204,51.8235512 C39.9048776,51.0732913 39.7145918,50.2969745 39.3180122,49.5497097 C39.2355551,49.3942666 38.3116122,48.0288235 31.3474571,47.90992 C27.5293592,47.844628 23.8837265,48.1920537 23.8471796,48.1956478 C23.2017184,48.2576453 22.6269347,47.7898186 22.5638082,47.1491775 C22.5009837,46.5088359 22.9733755,45.9391775 23.6191388,45.8765809 C23.7731796,45.8616057 27.4363306,45.5129819 31.3882327,45.5803705 C37.2251714,45.6801057 40.4056612,46.5962913 41.3975633,48.4646032 C41.9291551,49.4664473 42.1644449,50.4263606 42.3719469,51.2733606 C42.6543551,52.4243582 42.8428286,53.0982443 43.4363388,53.56667 C44.2340286,54.1962295 45.8215551,54.502623 48.2889265,54.502623 C50.2627633,54.502623 51.770249,53.9913681 52.6479796,53.0242666 C53.6166245,51.95743 53.5646735,50.6785438 53.5254082,50.3119498 C53.3230408,48.4103928 53.835302,46.6759597 54.9679551,45.4285215 C56.409898,43.8399473 58.7830327,43.034878 62.0221184,43.034878 C62.670902,43.034878 63.1967551,43.5563161 63.1967551,44.1996527 C63.1967551,44.8429894 62.670902,45.364727 62.0221184,45.364727 C59.4774245,45.364727 57.6917592,45.910425 56.7146571,46.9871453 C55.8414571,47.9488557 55.7692694,49.1929993 55.8619959,50.0675537 C56.0350653,51.6920686 55.4862571,53.3800785 54.3946816,54.5828903 C52.7071796,56.4422171 50.1428531,56.832472 48.2889265,56.832472" id="Fill-53" fill="#000000"></path>
                    <path d="M36.4748114,29.2291673 C36.4748114,29.2291673 36.257342,24.975598 38.0427053,23.6329173 C38.0427053,23.6329173 51.7245502,36.7182886 57.7128114,43.7749248 C59.0870971,45.3946475 55.7160196,47.0233554 51.0709339,42.2243876 C47.0012359,38.0193381 36.4748114,29.2291673 36.4748114,29.2291673" id="Fill-55" fill="#EA393C"></path>
                    <path d="M17.6005224,29.6848641 C17.6005224,29.6848641 21.0845633,30.2413443 23.3936653,28.7854507 C23.3936653,28.7854507 26.8828408,36.997577 31.2603184,44.2485918 C31.9791755,45.439723 34.1230612,44.982978 34.7072082,46.5793394 C36.8130367,52.3364235 27.4310449,50.642723 17.6005224,29.6848641" id="Fill-57" fill="#EA393C"></path>
                    <polygon id="Fill-59" fill="#FFCA00" points="52.2077853 43.2971245 54.2223976 39.8821691 40.3786588 23.4174834 34.7431812 21.545278 34.8072139 29.7684859"></polygon>
                    <polygon id="Fill-61" fill="#FFCA00" points="26.1602988 45.4287611 31.8117845 41.2431795 24.9503233 25.8797735 16.9550008 28.2374765 17.9532457 31.3412463"></polygon>
                    <path d="M33.6597004,9.61365965 C33.3990392,9.35578589 33.4932759,8.88795916 33.7022882,8.5821646 C33.9109984,8.27637005 34.2112269,8.0376646 34.3628514,7.69682797 C34.4885004,7.41319678 34.4462147,6.99478837 34.1653167,6.89265718 C34.0728922,6.85941213 33.9717086,6.86719926 33.8756596,6.88457054 C33.1528759,7.01605322 32.613129,7.63003837 32.1053984,8.18591955 C31.1905167,9.18626609 30.1961984,10.1066448 29.1360351,10.933578 C28.4878555,11.4391423 27.7916514,11.9207463 27.0000024,12.086073 C26.2080514,12.2516993 25.2964922,12.0345582 24.8117167,11.35588 C24.1949494,10.4924072 24.4628596,9.25994431 24.8754473,8.27097896 C25.1596678,7.58930569 25.5055045,6.92590223 25.99028,6.38409777 C27.0063453,5.248375 28.1580269,2.8891745 29.5827535,2.45519183 C30.1403208,2.28507302 32.1120433,3.21593441 32.6922637,3.23270668 C33.9877167,3.27134282 35.1285249,4.04137005 36.0980759,4.94467698 C36.8199535,5.6173651 36.542378,7.43476114 35.9437331,8.39886757 C35.6163208,8.92629579 34.2873412,10.2333354 33.6597004,9.61365965" id="Fill-63" fill="#3D1149"></path>
                    <path d="M16.021,25.8796238 C16.021,25.8796238 15.7014408,28.6386634 17.9051306,32.4214109 C20.1088204,36.2038589 25.5549184,43.2970347 25.5549184,43.2970347" id="Stroke-65" stroke="#FFCA00" stroke-width="0.900000036" stroke-linecap="round"></path>
                    <path d="M24.3834531,31.0145163 L29.1312327,40.5357787" id="Stroke-67" stroke="#FFCA00" stroke-width="0.900000036" stroke-linecap="round"></path>
                </g>
            </g>
        </g>
    </g>
</svg>