<?xml version="1.0" encoding="UTF-8"?>
<svg width="157px" height="126px" viewBox="0 0 157 126" version="1.1" xmlns="http://www.w3.org/2000/svg" xmlns:xlink="http://www.w3.org/1999/xlink">
    <!-- Generator: Sketch 52.4 (67378) - http://www.bohemiancoding.com/sketch -->
    <title>yellow_estacoes</title>
    <desc>Created with Sketch.</desc>
    <defs>
        <path d="M19.3826199,53.8377691 C8.13074347,50.2349532 0,39.8478618 0,27.5959205 C0,12.3551145 12.5816131,0 28.1018193,0 C43.6220255,0 56.2036386,12.3551145 56.2036386,27.5959205 C56.2036386,39.8478618 48.0728951,50.2349532 36.8210187,53.8377691 L28.1018193,62.4000025 L19.3826199,53.8377691 Z" id="path-1"></path>
        <filter x="-7.1%" y="-3.2%" width="114.2%" height="112.8%" filterUnits="objectBoundingBox" id="filter-2">
            <feOffset dx="0" dy="2" in="SourceAlpha" result="shadowOffsetOuter1"></feOffset>
            <feGaussianBlur stdDeviation="1" in="shadowOffsetOuter1" result="shadowBlurOuter1"></feGaussianBlur>
            <feColorMatrix values="0 0 0 0 0   0 0 0 0 0   0 0 0 0 0  0 0 0 0.215636322 0" type="matrix" in="shadowBlurOuter1"></feColorMatrix>
        </filter>
    </defs>
    <g id="Page-1" stroke="none" stroke-width="1" fill="none" fill-rule="evenodd">
        <g id="newsite_desk-copy" transform="translate(-1061.000000, -1405.000000)">
            <g id="yellow_estacoes" transform="translate(1060.000000, 1404.000000)">
                <path d="M79.5,124.128906 C116.578125,136.545811 141.03125,100.226936 141.03125,63.5 C141.03125,26.7730641 112.96875,-12.1823291 79.5,5.28481202 C46.03125,22.7519531 15.3378906,26.7730641 15.3378906,63.5 C15.3378906,100.226936 42.421875,111.712002 79.5,124.128906 Z" id="Oval-Copy-5" fill="#FFCB00" opacity="0.133835565"></path>
                <g id="Yellow/User-App/PIN/PARKING-GRENN" transform="translate(52.000000, 33.000000)">
                    <g id="pin_parking">
                        <g id="pin">
                            <g id="Combined-Shape" fill-rule="nonzero">
                                <use fill="black" fill-opacity="1" filter="url(#filter-2)" xlink:href="#path-1"></use>
                                <use fill="#47E7B8" xlink:href="#path-1"></use>
                            </g>
                            <ellipse id="Oval-Copy" fill="#FFFFFF" cx="28.1018193" cy="27.4181829" rx="24.7312862" ry="24.1454555"></ellipse>
                        </g>
                        <path d="M22.9858316,38.8686884 C21.7489273,38.8686884 20.7709099,37.8073781 20.7709099,36.4651328 L20.7709099,19.4217381 C20.7709099,18.0794928 21.7489273,17.0181825 22.9858316,17.0181825 L34.1467359,17.0181825 C35.2398141,17.0181825 36.1315359,17.9858478 36.1315359,19.1720181 C36.1315359,20.3581884 35.2398141,21.2946387 34.1467359,21.2946387 L25.1719881,21.2946387 L25.1719881,25.7271699 L32.8523011,25.7271699 C33.9453794,25.7271699 34.8371011,26.6948351 34.8371011,27.8810054 C34.8371011,29.0671758 33.9453794,30.003626 32.8523011,30.003626 L25.1719881,30.003626 L25.1719881,34.5922323 L34.290562,34.5922323 C35.3836402,34.5922323 36.2753619,35.5598975 36.2753619,36.7460678 C36.2753619,37.9322382 35.3836402,38.8686884 34.290562,38.8686884 L22.9858316,38.8686884 Z" id="E-Copy" fill="#000000"></path>
                    </g>
                </g>
                <g id="Yellow/User-App/PIN/MODAIS/BIKE/#000000" transform="translate(0.000000, 69.000000)" fill="#000000" fill-rule="nonzero">
                    <path d="M29.9957965,7.28794714 L32.8256033,7.28794714 C33.2324531,7.28794714 33.56227,6.95813023 33.56227,6.55128045 L33.56227,5.32174534 C33.56227,4.81916619 33.9696909,4.4117453 34.47227,4.4117453 C34.9748492,4.4117453 35.3822701,4.81916619 35.3822701,5.32174534 L35.3822701,6.55128045 C35.3822701,7.96328851 34.2376114,9.10794721 32.8256033,9.10794721 L30.7010025,9.10794721 C31.2054044,10.369037 31.757515,11.60966 32.3559655,12.8271824 C33.2029642,12.4955028 34.1250154,12.3134099 35.0896013,12.3134099 C39.2307999,12.3134099 42.5880016,15.6697284 42.5880016,19.8100769 C42.5880016,23.9504253 39.2307999,27.3067438 35.0896013,27.3067438 C30.9484028,27.3067438 27.591201,23.9504253 27.591201,19.8100769 C27.591201,17.284953 28.8399325,15.0514537 30.7536656,13.693101 C30.4116562,12.9995324 30.0841994,12.2986919 29.7715323,11.5910357 L25.0935373,17.9420639 C23.8069754,19.6887504 21.7501591,20.6784116 19.6050364,20.6139319 C19.5554601,20.622295 19.5045218,20.626649 19.4525666,20.626649 L16.4088309,20.626649 C16.0018484,24.3828713 12.8196156,27.3067438 8.95440034,27.3067438 C4.81320181,27.3067438 1.45600006,23.9504253 1.45600006,19.8100769 C1.45600006,15.6697284 4.81320181,12.3134099 8.95440034,12.3134099 C12.7552824,12.3134099 15.8957282,15.1407618 16.3862125,18.8066489 L18.618282,18.8066489 L15.1380962,9.08042392 C14.7989388,8.13256625 13.9007975,7.50002911 12.8940891,7.50002911 L9.89566704,7.50002911 C9.3930879,7.50002911 8.98566701,7.09260821 8.98566701,6.59002907 C8.98566701,6.08744993 9.3930879,5.68002904 9.89566704,5.68002904 L12.8940891,5.68002904 C14.6695567,5.68002904 16.2535513,6.79559455 16.8517016,8.4672708 L18.9452207,14.3181188 C19.8628442,14.7066218 20.9537144,14.4380879 21.5795128,13.6179089 L27.4971754,5.86214775 L27.0198554,4.62152236 C26.6657793,3.70122614 25.781536,3.09400012 24.7954756,3.09400012 L22.3166026,3.09400012 C21.8140234,3.09400012 21.4066025,2.68657922 21.4066025,2.18400008 C21.4066025,1.68142094 21.8140234,1.27400005 22.3166026,1.27400005 L24.7954756,1.27400005 C26.5345275,1.27400005 28.0940111,2.34492594 28.7184727,3.96799382 L29.9957965,7.28794714 Z M20.5278175,18.7410702 C21.7522878,18.5516231 22.8734748,17.8872701 23.6281472,16.8626974 L28.9518764,9.63499523 C28.8821345,9.4591485 28.8132884,9.28291978 28.7453415,9.10631573 L28.2645765,7.85673662 L23.0264328,14.721912 C22.2009967,15.8037386 20.9305224,16.357683 19.6581521,16.3105787 L20.5278175,18.7410702 Z M14.5443657,18.8066489 C14.0704071,16.1501469 11.7480302,14.13341 8.95440034,14.13341 C5.8182529,14.13341 3.27600012,16.6749939 3.27600012,19.8100769 C3.27600012,22.9451598 5.8182529,25.4867437 8.95440034,25.4867437 C11.813171,25.4867437 14.1784553,23.3748593 14.574488,20.626649 L8.54341893,20.626649 L8.54341893,18.8066489 L13.9979928,18.8066489 C14.2182028,18.8066489 14.4201439,18.8848672 14.5775487,19.0150364 C14.6139692,19.2748257 14.6328006,19.5402531 14.6328006,19.8100769 C14.6328006,20.0080947 14.6226584,20.2037449 14.6028651,20.3965364 C14.4420852,20.5396791 14.2301955,20.626649 13.9979928,20.626649 L8.54341893,20.626649 C7.33008555,20.626649 7.33008555,18.8066489 8.54341893,18.8066489 L14.5443657,18.8066489 Z M31.597109,15.3337628 C30.2665926,16.3726975 29.4112011,17.9915399 29.4112011,19.8100769 C29.4112011,22.9451598 31.9534539,25.4867437 35.0896013,25.4867437 C38.2257488,25.4867437 40.7680015,22.9451598 40.7680015,19.8100769 C40.7680015,16.6749939 38.2257488,14.13341 35.0896013,14.13341 C34.4243509,14.13341 33.7858236,14.247772 33.192616,14.457902 C34.0320142,16.0269768 34.9500865,17.5542625 35.9437429,19.0338146 C36.2239449,19.4510347 36.1128698,20.0164071 35.6956497,20.2966091 C35.2784296,20.5768111 34.7130572,20.4657359 34.4328552,20.0485158 C33.4089449,18.5239158 32.4626424,16.9503041 31.597109,15.3337628 Z" id="Shape"></path>
                </g>
                <g id="Yellow/User-App/PIN/MODAIS/SCOOTER/#000000" transform="translate(141.000000, 80.500000) scale(-1, 1) translate(-141.000000, -80.500000) translate(119.000000, 66.000000)" fill="#000000" fill-rule="nonzero">
                    <path d="M31.9842313,21.1195781 L28.2485277,1.97626229 L23.7642791,3.9001565 C23.3091071,4.0954407 22.7818081,3.88475996 22.5865239,3.4295879 C22.3912397,2.97441585 22.6019204,2.44711687 23.0570925,2.25183267 L32.3779274,-1.74712056 C32.8330995,-1.94240476 33.3603984,-1.73172402 33.5556826,-1.27655196 C33.7509668,-0.821379908 33.5402861,-0.294080928 33.085114,-0.0987967305 L29.9348029,1.25279324 L33.7784415,20.9492139 C36.0316467,21.1881506 37.7870113,23.0932561 37.7870113,25.4080188 C37.7870113,27.8844958 35.7778124,29.892077 33.2993399,29.892077 C31.1550338,29.892077 29.3619899,28.3893556 28.9174667,26.3803682 L17.1317063,26.4297881 C16.6364153,26.431865 16.233219,26.0320359 16.2311421,25.5367449 C16.2310482,25.5143587 16.2317754,25.4921607 16.2332953,25.4701794 C16.2318625,25.4494491 16.2311342,25.428525 16.2311342,25.4074308 C16.2311342,21.9405248 13.4180938,19.1297494 9.94767161,19.1297494 C9.45237623,19.1297494 9.05085998,18.7282331 9.05085998,18.2329377 C9.05085998,17.7376423 9.45237623,17.3361261 9.94767161,17.3361261 C14.1468135,17.3361261 17.5977677,20.5382877 17.9880174,24.6325584 L28.8867491,24.586858 C29.1924224,22.9365199 30.4025811,21.6032384 31.9842313,21.1195781 Z M9.94767161,28.0978656 C11.4358766,28.0978656 12.6417198,26.8929934 12.6417198,25.4074308 C12.6417198,23.9218682 11.4358766,22.7169959 9.94767161,22.7169959 C8.45946664,22.7169959 7.25362346,23.9218682 7.25362346,25.4074308 C7.25362346,26.8929934 8.45946664,28.0978656 9.94767161,28.0978656 Z M9.94767161,29.8914889 C7.46919913,29.8914889 5.46000021,27.8839077 5.46000021,25.4074308 C5.46000021,22.9309538 7.46919913,20.9233726 9.94767161,20.9233726 C12.4261441,20.9233726 14.435343,22.9309538 14.435343,25.4074308 C14.435343,27.8839077 12.4261441,29.8914889 9.94767161,29.8914889 Z M33.2993399,28.0984537 C34.7875449,28.0984537 35.993388,26.8935814 35.993388,25.4080188 C35.993388,23.9224562 34.7875449,22.7175839 33.2993399,22.7175839 C31.8111349,22.7175839 30.6052917,23.9224562 30.6052917,25.4080188 C30.6052917,26.8935814 31.8111349,28.0984537 33.2993399,28.0984537 Z" id="Shape"></path>
                </g>
            </g>
        </g>
    </g>
</svg>