<?xml version="1.0" encoding="UTF-8"?>
<svg width="134px" height="121px" viewBox="0 0 134 121" version="1.1" xmlns="http://www.w3.org/2000/svg" xmlns:xlink="http://www.w3.org/1999/xlink">
    <!-- Generator: Sketch 52.4 (67378) - http://www.bohemiancoding.com/sketch -->
    <title>yellow_creditos</title>
    <desc>Created with Sketch.</desc>
    <g id="Page-1" stroke="none" stroke-width="1" fill="none" fill-rule="evenodd">
        <g id="newsite_desk-copy" transform="translate(-877.000000, -1406.000000)">
            <g id="yellow_creditos" transform="translate(877.000000, 1406.000000)">
                <path d="M73.5,117.90481 C119.871094,106.90481 134,98.2269359 134,61.5 C134,24.7730641 114.638672,19.4139233 78.2011719,4.2696078 C41.7636719,-10.8747077 7,24.7730641 7,61.5 C7,98.2269359 27.1289062,128.90481 73.5,117.90481 Z" id="Oval" fill="#FFCB00" opacity="0.133835565"></path>
                <g id="money" transform="translate(32.000000, 40.000000)">
                    <rect id="Rectangle" fill="#47E7B8" x="0" y="0" width="78" height="45" rx="1.86955783"></rect>
                    <ellipse id="Oval" fill="#28B289" cx="39.1547619" cy="22.5" rx="15.9404762" ry="16.2062937"></ellipse>
                    <path d="M29.7142857,26.6381119 L29.7142857,17.9527972 C29.7142857,17.2762238 30.2404762,16.7412587 30.9059524,16.7412587 L34.6666667,16.7412587 C36.0440476,16.7412587 37.1119048,17.1346154 37.8238095,17.8583916 C38.427381,18.472028 38.752381,19.3374126 38.752381,20.3758741 L38.752381,20.4073427 C38.752381,22.1381119 37.9011905,23.208042 36.5857143,23.7587413 L38.2416667,25.8041958 C38.4738095,26.1031469 38.6285714,26.3548951 38.6285714,26.7325175 C38.6285714,27.4090909 38.0714286,27.8496503 37.4988095,27.8496503 C36.9571429,27.8496503 36.6011905,27.5821678 36.322619,27.2202797 L34.0011905,24.2307692 L32.097619,24.2307692 L32.097619,26.6381119 C32.097619,27.3146853 31.5714286,27.8496503 30.9059524,27.8496503 C30.2404762,27.8496503 29.7142857,27.3146853 29.7142857,26.6381119 Z M32.097619,22.0909091 L34.5119048,22.0909091 C35.672619,22.0909091 36.3380952,21.4615385 36.3380952,20.5332168 L36.3380952,20.5017483 C36.3380952,19.4632867 35.6261905,18.9283217 34.4654762,18.9283217 L32.097619,18.9283217 L32.097619,22.0909091 Z M43.3841837,16.5524476 C43.3841837,16.0961538 43.7401361,15.7342657 44.1889456,15.7342657 C44.6377551,15.7342657 44.9937075,16.0961538 44.9937075,16.5524476 L44.9937075,16.7727273 C45.8294218,16.8986014 46.5722789,17.1503497 47.2377551,17.527972 C47.5318027,17.701049 47.794898,18 47.794898,18.472028 C47.794898,19.0699301 47.3306123,19.5262238 46.742517,19.5262238 C46.5568027,19.5262238 46.3710884,19.479021 46.2008503,19.3846154 C45.767517,19.1486014 45.3341837,18.9597902 44.9163265,18.8496503 L44.9163265,21.2412587 C47.2687075,21.8863636 48.2746599,22.8618881 48.2746599,24.6241259 C48.2746599,26.3863636 46.9437075,27.5192308 44.9937075,27.7395105 L44.9937075,28.5734266 C44.9937075,29.0297203 44.6377551,29.3916084 44.1889456,29.3916084 C43.7401361,29.3916084 43.3841837,29.0297203 43.3841837,28.5734266 L43.3841837,27.7237762 C42.2853742,27.5821678 41.2484694,27.1888112 40.3353742,26.6223776 C40.0103742,26.4178322 39.8091837,26.1031469 39.8091837,25.6783217 C39.8091837,25.0646853 40.2734694,24.6083916 40.8770408,24.6083916 C41.0782313,24.6083916 41.294898,24.6870629 41.4806123,24.8129371 C42.1306123,25.2377622 42.7496599,25.5367133 43.4615646,25.6940559 L43.4615646,23.1923077 C41.2329932,22.5786713 40.1341837,21.7132867 40.1341837,19.8409091 C40.1341837,18.1101399 41.4341837,16.9458042 43.3841837,16.7412587 L43.3841837,16.5524476 Z M46.0151361,24.75 C46.0151361,24.2307692 45.7520408,23.8846154 44.9163265,23.5856643 L44.9163265,25.7727273 C45.6437075,25.6625874 46.0151361,25.3164336 46.0151361,24.75 Z M42.3937075,19.6993007 C42.3937075,20.1870629 42.6103742,20.5174825 43.4615646,20.8321678 L43.4615646,18.708042 C42.7187075,18.8181818 42.3937075,19.1958042 42.3937075,19.6993007 Z" id="R$" fill="#FFCB00"></path>
                </g>
                <g id="money-copy" transform="translate(24.948489, 21.270601) rotate(-20.000000) translate(-24.948489, -21.270601) translate(2.948489, 8.770601)">
                    <rect id="Rectangle" fill="#47E7B8" x="0" y="0" width="44" height="25" rx="1.05496474"></rect>
                    <ellipse id="Oval" fill="#28B289" cx="22.0873016" cy="12.5" rx="8.99206349" ry="9.0034965"></ellipse>
                    <path d="M16.7619048,14.798951 L16.7619048,9.97377622 C16.7619048,9.5979021 17.0587302,9.3006993 17.434127,9.3006993 L19.5555556,9.3006993 C20.3325397,9.3006993 20.9349206,9.51923077 21.3365079,9.92132867 C21.6769841,10.2622378 21.8603175,10.743007 21.8603175,11.3199301 L21.8603175,11.3374126 C21.8603175,12.298951 21.3801587,12.8933566 20.6380952,13.1993007 L21.5722222,14.3356643 C21.7031746,14.5017483 21.7904762,14.6416084 21.7904762,14.8513986 C21.7904762,15.2272727 21.4761905,15.472028 21.1531746,15.472028 C20.847619,15.472028 20.6468254,15.3234266 20.4896825,15.1223776 L19.1801587,13.4615385 L18.1063492,13.4615385 L18.1063492,14.798951 C18.1063492,15.1748252 17.8095238,15.472028 17.434127,15.472028 C17.0587302,15.472028 16.7619048,15.1748252 16.7619048,14.798951 Z M18.1063492,12.2727273 L19.468254,12.2727273 C20.1230159,12.2727273 20.4984127,11.9230769 20.4984127,11.4073427 L20.4984127,11.3898601 C20.4984127,10.8129371 20.0968254,10.5157343 19.4420635,10.5157343 L18.1063492,10.5157343 L18.1063492,12.2727273 Z M24.4731293,9.1958042 C24.4731293,8.94230769 24.6739229,8.74125874 24.9270975,8.74125874 C25.1802721,8.74125874 25.3810658,8.94230769 25.3810658,9.1958042 L25.3810658,9.31818182 C25.8524943,9.38811189 26.271542,9.52797203 26.6469388,9.73776224 C26.8128118,9.83391608 26.9612245,10 26.9612245,10.2622378 C26.9612245,10.5944056 26.6993197,10.8479021 26.3675737,10.8479021 C26.2628118,10.8479021 26.1580499,10.8216783 26.0620181,10.7692308 C25.8175737,10.6381119 25.5731293,10.5332168 25.337415,10.472028 L25.337415,11.8006993 C26.6643991,12.1590909 27.2318594,12.701049 27.2318594,13.6800699 C27.2318594,14.6590909 26.4810658,15.2884615 25.3810658,15.4108392 L25.3810658,15.8741259 C25.3810658,16.1276224 25.1802721,16.3286713 24.9270975,16.3286713 C24.6739229,16.3286713 24.4731293,16.1276224 24.4731293,15.8741259 L24.4731293,15.4020979 C23.853288,15.3234266 23.2683673,15.1048951 22.753288,14.7902098 C22.5699547,14.6765734 22.4564626,14.5017483 22.4564626,14.2657343 C22.4564626,13.9248252 22.7183673,13.6713287 23.0588435,13.6713287 C23.1723356,13.6713287 23.2945578,13.715035 23.3993197,13.784965 C23.7659864,14.020979 24.1151927,14.1870629 24.51678,14.2744755 L24.51678,12.8846154 C23.2596372,12.5437063 22.6397959,12.0629371 22.6397959,11.0227273 C22.6397959,10.0611888 23.3731293,9.41433566 24.4731293,9.3006993 L24.4731293,9.1958042 Z M25.9572562,13.75 C25.9572562,13.4615385 25.8088435,13.2692308 25.337415,13.1031469 L25.337415,14.3181818 C25.7477324,14.256993 25.9572562,14.0646853 25.9572562,13.75 Z M23.9143991,10.9440559 C23.9143991,11.215035 24.0366213,11.3986014 24.51678,11.5734266 L24.51678,10.3933566 C24.0977324,10.4545455 23.9143991,10.6643357 23.9143991,10.9440559 Z" id="R$" fill="#FFCB00"></path>
                </g>
                <g id="money-copy-2" transform="translate(106.970617, 104.886921) rotate(20.000000) translate(-106.970617, -104.886921) translate(89.470617, 94.886921)">
                    <rect id="Rectangle" fill="#47E7B8" x="0" y="0" width="35" height="20" rx="0.843971805"></rect>
                    <ellipse id="Oval" fill="#28B289" cx="17.5694444" cy="10" rx="7.15277778" ry="7.2027972"></ellipse>
                    <path d="M13.3333333,11.8391608 L13.3333333,7.97902098 C13.3333333,7.67832168 13.5694444,7.44055944 13.8680556,7.44055944 L15.5555556,7.44055944 C16.1736111,7.44055944 16.6527778,7.61538462 16.9722222,7.93706294 C17.2430556,8.20979021 17.3888889,8.59440559 17.3888889,9.05594406 L17.3888889,9.06993007 C17.3888889,9.83916084 17.0069444,10.3146853 16.4166667,10.5594406 L17.1597222,11.4685315 C17.2638889,11.6013986 17.3333333,11.7132867 17.3333333,11.8811189 C17.3333333,12.1818182 17.0833333,12.3776224 16.8263889,12.3776224 C16.5833333,12.3776224 16.4236111,12.2587413 16.2986111,12.0979021 L15.2569444,10.7692308 L14.4027778,10.7692308 L14.4027778,11.8391608 C14.4027778,12.1398601 14.1666667,12.3776224 13.8680556,12.3776224 C13.5694444,12.3776224 13.3333333,12.1398601 13.3333333,11.8391608 Z M14.4027778,9.81818182 L15.4861111,9.81818182 C16.0069444,9.81818182 16.3055556,9.53846154 16.3055556,9.12587413 L16.3055556,9.11188811 C16.3055556,8.65034965 15.9861111,8.41258741 15.4652778,8.41258741 L14.4027778,8.41258741 L14.4027778,9.81818182 Z M19.4672619,7.35664336 C19.4672619,7.15384615 19.6269841,6.99300699 19.828373,6.99300699 C20.0297619,6.99300699 20.1894841,7.15384615 20.1894841,7.35664336 L20.1894841,7.45454545 C20.5644841,7.51048951 20.8978175,7.62237762 21.1964286,7.79020979 C21.328373,7.86713287 21.4464286,8 21.4464286,8.20979021 C21.4464286,8.47552448 21.2380952,8.67832168 20.9742064,8.67832168 C20.890873,8.67832168 20.8075397,8.65734266 20.7311508,8.61538462 C20.5367064,8.51048951 20.3422619,8.42657343 20.1547619,8.37762238 L20.1547619,9.44055944 C21.2103175,9.72727273 21.6617064,10.1608392 21.6617064,10.9440559 C21.6617064,11.7272727 21.0644841,12.2307692 20.1894841,12.3286713 L20.1894841,12.6993007 C20.1894841,12.9020979 20.0297619,13.0629371 19.828373,13.0629371 C19.6269841,13.0629371 19.4672619,12.9020979 19.4672619,12.6993007 L19.4672619,12.3216783 C18.9742064,12.2587413 18.5089286,12.0839161 18.0992064,11.8321678 C17.953373,11.7412587 17.8630952,11.6013986 17.8630952,11.4125874 C17.8630952,11.1398601 18.0714286,10.9370629 18.3422619,10.9370629 C18.4325397,10.9370629 18.5297619,10.972028 18.6130952,11.027972 C18.9047619,11.2167832 19.1825397,11.3496503 19.5019841,11.4195804 L19.5019841,10.3076923 C18.5019841,10.034965 18.0089286,9.65034965 18.0089286,8.81818182 C18.0089286,8.04895105 18.5922619,7.53146853 19.4672619,7.44055944 L19.4672619,7.35664336 Z M20.6478175,11 C20.6478175,10.7692308 20.5297619,10.6153846 20.1547619,10.4825175 L20.1547619,11.4545455 C20.4811508,11.4055944 20.6478175,11.2517483 20.6478175,11 Z M19.0228175,8.75524476 C19.0228175,8.97202797 19.1200397,9.11888112 19.5019841,9.25874126 L19.5019841,8.31468531 C19.1686508,8.36363636 19.0228175,8.53146853 19.0228175,8.75524476 Z" id="R$" fill="#FFCB00"></path>
                </g>
            </g>
        </g>
    </g>
</svg>